<svg xmlns="http://www.w3.org/2000/svg" xmlns:xlink="http://www.w3.org/1999/xlink" viewBox="0 0 1263.2 485.68"><defs><style>.cls-1{fill:none;}.cls-2{clip-path:url(#clip-path);}.cls-3{clip-path:url(#clip-path-2);}.cls-4{fill:#fff;}.cls-5{fill:#0d8693;}</style><clipPath id="clip-path" transform="translate(-381.45 -631.71)"><rect class="cls-1" width="1899.73" height="1899.73"/></clipPath><clipPath id="clip-path-2" transform="translate(-381.45 -631.71)"><path class="cls-1" d="M758.19,642.91C609,661.81,441.65,701.11,398,779.32c-16.52,29.59-15.34,64.74,11.22,106.46,35.7,56.08,111.41,100.45,197.11,131.54,172.39,62.55,393.81,100.07,588.23,51.86,300.33-74.49,450.13-289.3,98.19-390.17-110.63-31.7-233.14-47.3-355.63-47.3a1425.3,1425.3,0,0,0-178.9,11.2"/></clipPath></defs><g id="Layer_2" data-name="Layer 2"><g id="Layer_1-2" data-name="Layer 1"><g class="cls-2"><g class="cls-3"><rect class="cls-4" width="1263.2" height="485.68"/></g><g class="cls-2"><polygon class="cls-5" points="308.79 211.37 308.79 150.52 326.57 150.52 326.57 289.69 308.79 289.69 308.79 229.03 235.04 229.03 235.04 289.69 217.17 289.69 217.17 150.52 235.04 150.52 235.04 211.37 308.79 211.37"/><path class="cls-5" d="M812.87,870.74V813.48H830v54.64q0,25.13-12.92,40.32t-33,15.19q-20.06,0-33.1-15.19t-13.06-40.32V813.48H755v57.26q0,16.39,8.23,26a26.34,26.34,0,0,0,20.85,9.56,26,26,0,0,0,20.59-9.6q8.24-9.61,8.23-25.91" transform="translate(-381.45 -631.71)"/><path class="cls-5" d="M908.7,811.24a48.63,48.63,0,0,1,26,7.18,49.81,49.81,0,0,1,18.26,20,61.68,61.68,0,0,1,6.61,28.72q0,24.36-14.76,40.28t-37.44,15.92q-22.77,0-37.4-16.06t-14.63-41.5v-91h17.43v53.86a42.11,42.11,0,0,1,16-13,46.89,46.89,0,0,1,19.89-4.42m-26.15,84q9.76,10.77,25,10.77t25-10.72q9.72-10.73,9.73-28t-9.77-28.05q-9.78-10.68-25.09-10.68-15.15,0-24.88,10.68t-9.72,27.85q0,17.39,9.77,28.15" transform="translate(-381.45 -631.71)"/><path class="cls-5" d="M1034.56,811.24a48.58,48.58,0,0,1,26,7.18,49.62,49.62,0,0,1,18.27,20,61.68,61.68,0,0,1,6.62,28.72q0,24.36-14.76,40.28t-37.45,15.92q-22.77,0-37.4-16.06t-14.63-41.5v-91h17.43v53.86a42.11,42.11,0,0,1,16-13,46.91,46.91,0,0,1,19.88-4.42m-26.14,84q9.76,10.77,25,10.77t25-10.72q9.72-10.73,9.72-28t-9.76-28.05q-9.78-10.68-25.1-10.68-15.15,0-24.88,10.68t-9.72,27.85q0,17.39,9.77,28.15" transform="translate(-381.45 -631.71)"/><rect class="cls-5" x="727.47" y="143.04" width="17" height="146.64"/><path class="cls-5" d="M1228.93,856.56V813.28h17.52v39.11q0,25.73-10.25,39.84t-27.94,16.65v46.48h-17.17V908.68a42,42,0,0,1-15.1-5.44,42.6,42.6,0,0,1-12-10.81,49.39,49.39,0,0,1-8-17,86,86,0,0,1-2.84-23.05V813.28h17.42v43.28a50.61,50.61,0,0,0,2.5,16.6,28,28,0,0,0,16,17.62,29.16,29.16,0,0,0,10.74,2.18,27.24,27.24,0,0,0,10.86-2,27.6,27.6,0,0,0,9.23-6.31,29.21,29.21,0,0,0,6.58-11.45,52.82,52.82,0,0,0,2.4-16.65" transform="translate(-381.45 -631.71)"/></g></g></g></g></svg>