<?xml version="1.0" encoding="utf-8"?>
<!-- Generator: Adobe Illustrator 25.4.0, SVG Export Plug-In . SVG Version: 6.00 Build 0)  -->
<svg version="1.1" id="Layer_1" xmlns="http://www.w3.org/2000/svg" xmlns:xlink="http://www.w3.org/1999/xlink" x="0px" y="0px"
	 viewBox="0 0 3000 2000" style="enable-background:new 0 0 3000 2000;" xml:space="preserve">
<style type="text/css">
	.st0{fill:#FFFFFF;}
	.st1{fill:#E5F2F3;}
	.st2{fill:#C1E0E4;}
	.st3{fill:#EEFFFF;}
	.st4{fill:#E7F7F7;}
	.st5{fill:#C7DFE2;}
	.st6{fill:#C5DADD;}
	.st7{fill:#599DAD;}
	.st8{fill:#6BB7BF;}
	.st9{fill:#CFE1E5;}
	.st10{fill:#B2CBFD;}
	.st11{fill:#4F7BBA;}
	.st12{fill:#466AA5;}
	.st13{fill:#7A97F3;}
	.st14{fill:#79C8CC;}
	.st15{fill:#F1A34F;}
	.st16{fill:#FFB973;}
	.st17{fill:#D86713;}
	.st18{fill:#233862;}
	.st19{fill:#2B478B;}
	.st20{fill:#AA3E39;}
	.st21{fill:#B84C42;}
	.st22{fill:#FFB27D;}
	.st23{fill:#2C3A64;}
	.st24{fill:#BC3F3F;}
	.st25{fill:#A53D38;}
	.st26{fill:#ED985F;}
	.st27{fill:#2E3552;}
</style>
<rect class="st0" width="3000" height="2000"/>
<g>
	<g>
		<path class="st1" d="M2597.2,1643.1c20.7-39.9,72.7-165.6,83.2-313.3c19.7-276.8-121.6-493.9-325.6-602.6
			c-86.3-46.1-173.7-59.2-269.1-47.7c-92.8,11.2-169.8,42.1-224.2,38.2c-107.4-7.7-153.4-212.5-390.1-329
			c-173.6-85.5-442-105.3-629.1-54.4C648.4,387,511.3,520.4,584.5,778.4c17.7,62.4,45.4,123.9,76,180.6
			c175.3,324.6-282.5,229.9-328.9,548.4c-7.1,48.5-3.5,88,4.5,135.7H2597.2z"/>
		<path class="st2" d="M842.2,334.3C648.5,387,511.5,520.2,584.3,777.8c4.4-0.4,8.7-1.6,12.9-3.8c28.4-14.3,48.9-34.9,65.5-56.3
			c2.2-30.8-3.8-69.7-3.8-69.7c3.8,9.8,18.7,23.3,29.6,32.2c23.1-36,40.6-64.9,73.1-57.5c60.2,13.6,135-4.9,156.1-66.4
			c-13.5-23.8-37.6-39.2-37.6-39.2c17.7,1.7,34.3,8.7,46.7,15.4c26.6-50.6,91.6-65,91.6-65c3-0.8,5.9-1.8,8.7-2.8
			c-0.2-36.5-9.4-71-9.4-71c25.5,13.3,37.4,34.8,42.9,51.3c40.9-36,45.9-104.7,42.9-137.9C1010.8,304.3,919.6,313.2,842.2,334.3z"/>
		<path class="st3" d="M2354.7,727.2c-84-44.9-169-58.5-261.6-48.5v499l261.9-450.3C2355,727.3,2354.9,727.3,2354.7,727.2z"/>
		<path class="st4" d="M1425.3,1601.8h241.4l353.9-636.4l-4.7-274c-32,6.8-61.5,14.3-88,19.6L1425.3,1601.8z"/>
		<path class="st5" d="M2144,1542.8c4,59.3,63.7,85.9,63.7,85.9h396.5c2.1-4.7,4.8-10.4,7.7-17.3c33.6-78.9,109.8-296,45.6-515.8
			c-24.4,11.1-55.2,28-84.4,52c25.8,22.4,45.3,54.3,45.3,54.3c-31.2-20.5-56.6-26.3-74.3-27c-22.6,24.3-42.1,53.9-53.7,89.6
			c-45.8,140.6-137.3,126-219,149.2c-4.4,1.3-8.8,2.6-13,4c25.2,19.4,51.8,51,51.8,51c-50.8-23.1-87.8-25.7-109.9-23.7
			c-14.5,9.5-26.5,20.3-35.6,32.2c29-5.2,75,0.8,85.5,1.7c-34.7-2.6-83.8,17.4-100.9,26.1C2144.9,1516.8,2143.1,1529.4,2144,1542.8z
			"/>
		<path class="st6" d="M2611.9,1611.4h-531.3V680.2c-11.8,1.5-23.3,3.3-34.5,5.3v925.9H871.7V327c-10,2.2-19.8,4.7-29.5,7.3
			c-1.7,0.5-3.4,0.9-5.1,1.4v1307.4h1760C2600.1,1637.6,2605.6,1626.2,2611.9,1611.4z"/>
		<g>
			<path class="st7" d="M2676.8,1367.2c-0.7,5.6-1.4,11.2-2.2,16.7c-8.2-6.3-15.4-11.1-15.4-11.1
				C2664.5,1369.9,2670.7,1368.2,2676.8,1367.2z"/>
			<path class="st7" d="M2568,1422.1c0,0,61.4,12.2,69.3,6c7.9-6.3-50.4-20.7-50.4-20.7c12.2-15.1,63.6-33.6,63.6-33.6
				s10.9,11.9,22.4,22.4c-1.7,10.9-3.6,21.6-5.6,32c-0.4,1.9-0.7,3.8-1.1,5.6c-6.4,32.3-14.2,62-22.2,88.2
				c-20.4,1.6-45.5-8.8-45.5-8.8c16.7-9,32.3-39.1,28.7-44.3c-3.6-5.3-36.8,29.4-43.3,33.5c-6.6,4-26.4,2.9-42.1-23.9
				C2526,1451.6,2568,1422.1,2568,1422.1z"/>
		</g>
		<g>
			<path class="st8" d="M2362.1,1130.4c17.9,4.5,132.5,3,129.5,17.9c-3,14.9-80.4,38.7-123.6,25.3c0,0,47.6,117.6,110.1,111.6
				c62.5-6,81.9-44.7,120.6-47.6c38.7-3,67,7.4,47.6,17.9c-19.3,10.4-84.9,3.4-116.1,30c-31.3,26.6-56.6,43,1.5,54.9
				c41.8,8.6,107.4,7.1,148.7-11c2.8-39.4,2.7-80.8-1.6-123.2c-0.8-8.1-1.8-16.3-3-24.5c-4-28.4-10-57.2-18.4-86
				c-9.5-32.6-22.1-65.3-38.5-97.6c-33-12.2-69.1-23-90.2-21c0,0,72.9,123.6,49.1,120.6c-23.8-3-105.7-128-105.7-128
				s-120.6-22.3-139.9,49.1C2312.9,1090.2,2344.2,1125.9,2362.1,1130.4z"/>
			<g>
				<path class="st7" d="M2387.7,1041.2c164.4,66.5,248.7,122.4,291.1,164.9c-0.8-8.1-1.8-16.3-3-24.5
					C2577.3,1103.7,2396.9,1044.1,2387.7,1041.2z"/>
			</g>
		</g>
		<path class="st9" d="M2244.1,1476.2c-0.1,0-0.3,0-0.5,0C2243.8,1476.1,2243.9,1476.1,2244.1,1476.2z"/>
		<path class="st9" d="M2243.2,1476.1c-0.4,0-0.8-0.1-1.2-0.1C2242.4,1476,2242.8,1476,2243.2,1476.1z"/>
		<path class="st3" d="M1202,314.4L880.3,840.9v314.9L1362.8,347C1312.1,331.9,1257.6,321.1,1202,314.4z"/>
	</g>
	<g>
		<path class="st10" d="M1976.6,1370.7H1500V828.6c0-32.1,26.1-58.2,58.2-58.2h180.1c131.6,0,238.3,106.7,238.3,238.3V1370.7z"/>
		<path class="st10" d="M1023.4,1370.7H1500V828.6c0-32.1-26.1-58.2-58.2-58.2h-180.1c-131.6,0-238.3,106.7-238.3,238.3V1370.7z"/>
		<path class="st11" d="M945,893.6L945,893.6c43.3,0,78.4,35.1,78.4,78.4v386c0,43.3-35.1,78.4-78.4,78.4l0,0
			c-43.3,0-78.4-35.1-78.4-78.4V972C866.6,928.7,901.7,893.6,945,893.6z"/>
		<path class="st11" d="M2054.9,893.6L2054.9,893.6c43.3,0,78.4,35.1,78.4,78.4v386c0,43.3-35.1,78.4-78.4,78.4l0,0
			c-43.3,0-78.4-35.1-78.4-78.4V972C1976.5,928.7,2011.6,893.6,2054.9,893.6z"/>
		<rect x="1023.4" y="1370.7" class="st12" width="953.2" height="279.7"/>
		<path class="st13" d="M1464.6,1432.4h-405.7c-19.6,0-35.4-15.9-35.4-35.4v-52.5c0-19.6,15.9-35.4,35.4-35.4h405.7
			c19.6,0,35.4,15.9,35.4,35.4v52.5C1500,1416.5,1484.1,1432.4,1464.6,1432.4z"/>
		<path class="st13" d="M1941.2,1432.4h-405.7c-19.6,0-35.4-15.9-35.4-35.4v-52.5c0-19.6,15.9-35.4,35.4-35.4h405.7
			c19.6,0,35.4,15.9,35.4,35.4v52.5C1976.6,1416.5,1960.7,1432.4,1941.2,1432.4z"/>
		<path class="st13" d="M769.7,1291.8c0-70.1,56.8-126.9,126.9-126.9s126.9,56.8,126.9,126.9v358.6H867.5v-235.1
			C811.4,1402.2,769.7,1351.9,769.7,1291.8z"/>
		<path class="st13" d="M2230.3,1291.8c0-70.1-56.8-126.9-126.9-126.9c-70.1,0-126.9,56.8-126.9,126.9v358.6h155.9v-235.1
			C2188.6,1402.2,2230.3,1351.9,2230.3,1291.8z"/>
		<circle class="st11" cx="2097.9" cy="1297.4" r="25.5"/>
		<circle class="st11" cx="892" cy="1297.4" r="25.5"/>
		<path class="st11" d="M2105.7,1300c0,0,16.4-26.5,39.5-26c0,0-25.2-7.3-49.4,20.5l4.4,16.9c19.5-7.1,17,36.7,17,36.7
			S2132.5,1287.9,2105.7,1300z"/>
		<path class="st11" d="M2103.5,1232.2c0,0-17.7,36.9-0.9,64.3c16.9,27.3-11,4.1-11,4.1S2077.3,1271.5,2103.5,1232.2z"/>
		<path class="st11" d="M841.2,1320.5c0,0,3.5-25,43.4-23.1c39.9,1.9,0,12.4,0,12.4S862,1302.5,841.2,1320.5z"/>
	</g>
	<g>
		<path class="st7" d="M734.6,1122.3c0,0,38.1,28.3,45.5,26.6c7.4-1.7-27.8-30.6-27.8-30.6c13.3-6.4,54.5-2.4,54.5-2.4
			s13.7,44.3,20.5,40.8c6.8-3.5-14.2-38.6-14.2-38.6c14.8-0.9,32.9,10.1,32.9,10.1c24.8,19.6-1.6,50.5-1.6,50.5s5.1,15.3,20.8,29.1
			c0,0,22.4,16.6,23.9,46.1l-4.1,0.4c0,0-6.4-27.6-18.1-40.6c-0.5-0.5-1.1-1.1-1.9-2c-1.9-1.8-3.3-3.1-4.2-4.1
			c-5.8-5.6-13.9-12.7-17.8-13.4c0,0,0.2-0.7,0.2-2c-0.1,0.6-0.1,1.3-0.2,2c-1.3,15.6-31.6,29.2-50.2,32
			c-18.6,2.8-12.9-4.9-6.4-16.2c6.4-11.3,26.7-16.4,31.3-21.6c4.6-5.2-4.9-5.2-16.2-0.1c-11.2,5.1-12.8,18.8-30.7,27.4
			c-18,8.6-45.1-21.2-45.1-21.2c14.3-0.7,34.8-16.3,34.1-21.1c-0.7-4.8-34.8,8.2-40.6,8.8c-5.8,0.6-19-6.6-21.1-30
			C696.2,1128.8,734.6,1122.3,734.6,1122.3z"/>
		<g>
			<path class="st14" d="M936.9,1139.8c0,0-42.1-23.6-22.4-55.5c0,0,15.7-19.6,32.5-24.7c0,0-9,47.7,0,48.8c9,1.1,6.2-53.9,6.2-53.9
				s44.3-21.3,61.7-19.6c0,0-27.5,46.6-18.5,45.4c9-1.1,39.8-48.3,39.8-48.3s45.4-8.4,52.7,18.5c7.3,26.9-4.5,40.4-11.2,42.1
				c-6.7,1.7-49.9,1.1-48.8,6.7c1.1,5.6,30.3,14.6,46.6,9.5c0,0-18,44.3-41.5,42.1c-23.6-2.2-30.9-16.8-45.4-18
				c-14.6-1.1-25.2,2.8-18,6.7c7.3,3.9,32,1.3,43.8,11.3c11.8,10,21.3,16.2-0.6,20.7c-21.9,4.5-61.2,1.7-69-15.1
				C936.9,1139.8,936.9,1139.8,936.9,1139.8z"/>
			<path class="st8" d="M925.7,1180.8c11.8-21.9,11.2-41,11.2-41c13.5-42.6,131.3-80.8,131.3-80.8
				c-149.8,60.6-123.4,97.6-123.4,97.6c-4,2.4-10.1,13.6-14.3,22.2c-0.6,1.5-1.5,3.5-3,6.2l0,0c-0.6,1.2-1,2.3-1.3,3
				c-7.7,19.3-3.6,52.6-3.6,52.6l-4.7,1.3C907.5,1208.4,925.7,1180.8,925.7,1180.8z"/>
		</g>
		<g>
			<path class="st8" d="M870,1107.3c0,0,55.5-31.1,29.6-73.2c0,0-20.7-25.9-42.9-32.5c0,0,11.8,62.9,0,64.3c-11.8,1.5-8.1-71-8.1-71
				s-58.4-28.1-81.4-25.9c0,0,36.2,61.4,24.4,59.9c-11.8-1.5-52.5-63.6-52.5-63.6s-59.9-11.1-69.5,24.4
				c-9.6,35.5,5.9,53.3,14.8,55.5c8.9,2.2,65.8,1.5,64.3,8.9c-1.5,7.4-39.9,19.2-61.4,12.6c0,0,23.7,58.4,54.7,55.5
				c31.1-3,40.7-22.2,59.9-23.7c19.2-1.5,33.3,3.7,23.7,8.9c-9.6,5.2-42.2,1.7-57.7,14.9c-15.5,13.2-28.1,21.3,0.7,27.3
				c28.8,5.9,80.6,2.2,91-20C870,1107.3,870,1107.3,870,1107.3z"/>
			<path class="st7" d="M696.9,1000.8c0,0,155.3,50.3,173.1,106.5c0,0-0.7,25.1,14.8,54c0,0,24,36.4,10.3,80.6l-6.2-1.7
				c0,0,5.4-43.9-4.8-69.4c-0.4-0.9-1-2.3-1.8-3.9c-1.9-3.6-3.1-6.3-3.9-8.2c-5.5-11.4-13.5-26.2-18.8-29.3
				C859.6,1129.5,894.4,1080.7,696.9,1000.8z"/>
		</g>
		<path class="st15" d="M871.9,1338c-60,0-108.7-48.6-108.7-108.7h217.3C980.5,1289.4,931.9,1338,871.9,1338z"/>
		<path class="st16" d="M845.1,1337.2c4.4,0.6,8.9,0.8,13.5,0.8c60,0,108.7-48.6,108.7-108.7h-27
			C940.3,1284.8,898.8,1330.5,845.1,1337.2z"/>
		<path class="st15" d="M775.1,1330.1h193.5c7.4,0,13.4,6,13.4,13.4l0,0H761.7l0,0C761.7,1336.1,767.7,1330.1,775.1,1330.1z"/>
		<rect x="760.7" y="1229.3" class="st17" width="223.4" height="3.3"/>
	</g>
	<g>
		<g>
			<path class="st18" d="M1136.3,1645.7c-3.4,0-6.7-2-8.2-5.3l-124.2-270.2c-2.1-4.5-0.1-9.9,4.4-12c4.5-2.1,9.9-0.1,12,4.4
				l124.2,270.2c2.1,4.5,0.1,9.9-4.4,12C1138.9,1645.4,1137.6,1645.7,1136.3,1645.7z"/>
			<path class="st18" d="M1425.7,1645.7c-3.4,0-6.7-2-8.2-5.3l-124.2-270.2c-2.1-4.5-0.1-9.9,4.4-12c4.5-2.1,9.9-0.1,12,4.4
				l124.2,270.2c2.1,4.5,0.1,9.9-4.4,12C1428.3,1645.4,1427,1645.7,1425.7,1645.7z"/>
			<path class="st18" d="M1408.8,1612.6h-287.7c-5,0-9-4-9-9s4-9,9-9h287.7c5,0,9,4,9,9S1413.8,1612.6,1408.8,1612.6z"/>
		</g>
		<g>
			<path class="st19" d="M722.8,1645.7c-1.3,0-2.5-0.3-3.8-0.8c-4.5-2.1-6.5-7.5-4.4-12l124.2-270.2c2.1-4.5,7.5-6.5,12-4.4
				c4.5,2.1,6.5,7.5,4.4,12L731,1640.4C729.4,1643.8,726.2,1645.7,722.8,1645.7z"/>
			<path class="st19" d="M433.4,1645.7c-1.3,0-2.5-0.3-3.8-0.8c-4.5-2.1-6.5-7.5-4.4-12l124.2-270.2c2.1-4.5,7.5-6.5,12-4.4
				c4.5,2.1,6.5,7.5,4.4,12l-124.2,270.2C440.1,1643.8,436.8,1645.7,433.4,1645.7z"/>
			<path class="st19" d="M738,1612.6H450.3c-5,0-9-4-9-9s4-9,9-9H738c5,0,9,4,9,9S743,1612.6,738,1612.6z"/>
		</g>
		<path class="st20" d="M1303.5,1370.1H998.5c-7.3,0-13.3-5.9-13.3-13.3l0,0c0-7.3,5.9-13.3,13.3-13.3h305.1
			c7.3,0,13.3,5.9,13.3,13.3l0,0C1316.8,1364.2,1310.9,1370.1,1303.5,1370.1z"/>
		<path class="st21" d="M1082.3,1370.1H502.1c-7.3,0-13.3-5.9-13.3-13.3l0,0c0-7.3,5.9-13.3,13.3-13.3h580.2
			c7.3,0,13.3,5.9,13.3,13.3l0,0C1095.6,1364.2,1089.6,1370.1,1082.3,1370.1z"/>
	</g>
	<path class="st22" d="M1975.5,793.3c0,0,58.3,16.3,56.3,55.7c-2,39.4-91.2,185.5-102.6,198.2c-20.6,23.1-130.8,95.1-130.8,95.1
		l-15.6-13.6c0,0,87.1-101.8,99.3-110.6C1901.4,1004.2,1953.1,803.1,1975.5,793.3z"/>
	<path class="st22" d="M1782.8,1128.6c0,0-17.8,5.5-23.7,5.2c-5.9-0.3-15.2,6.6-15.5,8.3c-0.3,1.7,13.3-1.7,13.6,0.8
		c0.3,2.5-5.9,8-11.9,8c-5.9,0,4.3,11.9,9.2,16.7c1.2,1.2,5.5,6.3,20.3,0.8c14.8-5.4,25-28.7,25-28.7L1782.8,1128.6z"/>
	<path class="st23" d="M1938.1,796.5c22.4-7,45.7-42.3,45-49.4c-0.1-0.8-0.7-3.1-1.7-6.5l-91.7-57.9c0,0,20.7-59.9,53.6-63.1
		c2.9-11.9,13.5-36.8,51.3-30.6c0,0-15.6,1.6-24.6,8.4c0,0,34.4-13.2,63.8,20.7c29.5,33.9-3.4,101.3,4.7,116.5
		c8.2,15.2,48.1,24.5,36,67.2c-12.1,42.7-144.3,76.9-142.4,114.3c0,0-34.2-73.9-0.4-102.9c-5.9,4.8-17.1,15.4-20.6,28.9
		C1911.2,841.9,1912.7,804.4,1938.1,796.5z"/>
	<path class="st24" d="M1947.2,1613.7l21.9-3.2c0,0,73.6-58.5,84.6-167.7c1.1-11.1,1.4-22.4,0.5-33.8c-0.1-1.3,0-2.6,0.8-3.7
		c0,0,0,0,0,0c2.4-3.6,8.2-12.7,16.2-25.5c7.8-12.7,21.2-36.7,36-63.6c26.6-48.5,57.5-106.4,68.1-124.9
		c33.8-58.8,17.5-98.4,17.5-98.4s-94.3-9.3-120.1-31.9l-9.3,14.3c0,0-20.4,90.4-19.5,90.8c-1,3.1-2,6.2-3.1,9.4
		c-16.1,49.7-34.7,111.9-44.8,162.6c-5.7,28.5-8.7,53.3-7.1,70.2c0.6,5.8-0.1,14.7-1.7,25.7
		C1978.2,1498.9,1947.2,1613.7,1947.2,1613.7z"/>
	<path class="st18" d="M1901.2,1641.4h91.4c0,0,2.2-13.9-2.6-24.5c-4.6-10.1-11.1-10.5-0.8-26.4c-5.8,6-24.5,8.5-37.7,6.7
		c-1.6,2.6-10.4,20.2-15.8,24.1C1929.7,1625.6,1903.1,1624.1,1901.2,1641.4z"/>
	<path class="st25" d="M2040.8,1175.5c8,44,26.8,117.3,66.3,140.6c26.6-48.5,57.5-106.4,68.1-124.9c33.8-58.8,17.5-98.4,17.5-98.4
		s-94.3-9.3-120.1-31.9l-9.3,14.3c0,0-20.4,90.4-19.5,90.8C2042.8,1169.2,2041.8,1172.3,2040.8,1175.5z"/>
	<path class="st24" d="M2104.9,1099.7l-0.3-17.1c34.1,4.3,117.4-40.7,117.4-40.7s35.6,23.7,40.5,91.4c2.4,33,17.4,172.7,19.1,214.4
		c0.6,15.1,0.8,25.9,0.9,30.2c0,0,0,0,0,0c0,1.3,0.6,2.5,1.4,3.5c7,9,13.2,18.4,18.5,28.3c52,96.7,24.8,228,24.8,228l-12.1-3.1
		c0,0-43.9-136.2-72.6-195.1c-4.9-10-9.3-17.8-13-22.3c-10.8-13.1-22.2-35.4-33.4-62.2c-21.2-50.7-41.8-117.5-56.5-169.3
		C2138.5,1186,2104.9,1099.7,2104.9,1099.7z"/>
	<path class="st22" d="M1980,876.4c57.1,0.3,49.8-93.4,46.4-92.8c-7.1-3.3-27-14.2-35.7-43.4l-5.3,4.5l-40.1,21.3
		c0,0,5,13.2,8.9,25.8c3,9.9,5.3,19.5,3.9,22.3C1954.8,815.6,1964.8,876.3,1980,876.4z"/>
	<path class="st26" d="M1945.2,766c0,0,5,13.1,8.9,25.8c23.7-7.9,29.7-33.5,31.3-47.1L1945.2,766z"/>
	<path class="st22" d="M1941.2,785.7c0,0,62.8-22.5,48.2-61.5c-14.6-38.9-16.4-68-57.1-55.3c-40.7,12.8-42.9,30.5-41.2,44.7
		C1892.8,727.9,1924.4,790.6,1941.2,785.7z"/>
	<path class="st23" d="M1884.7,691.3c5.2-15.3,13.5-15.5,18.9-13.6c27.1-31.7,72.7-30.5,72.7-30.5c14.7,26.3,27.8,53,27.8,53
		s-8.7,11.3-37.5,14.5c-8.8,1-18.1-2-26.8-6.6c17.3,13.8,36.6,21.2,36.6,21.2c-36.8-2.7-65.9-41.5-68.9-45.6
		c-2.5,4.9-7.2,15.1-6.8,23.3c0.6,11.1,6.9,32,0.7,33.6C1901.5,740.5,1876.9,714.4,1884.7,691.3z"/>
	<path class="st18" d="M2254.5,1641.4h91.4c0,0,2.2-13.9-2.6-24.5c-4.6-10.1-11.7-14.7-10-27c-5.8,6-15.3,12.7-28.5,10.9
		c-1.6,2.6-10.5,16.7-15.9,20.6C2282.9,1625.6,2256.3,1624.1,2254.5,1641.4z"/>
	<path class="st19" d="M2026.2,782.5c0,0-34.3,0-71.8,23.3l-12.4,85.3c-4,30.7-4.3,55.3,8.2,66.8c9.2,8.4,23.2,17.1,39.7,21.2
		c27.5,6.8,32.4,3.1,42.3,13c3.6,3.6,0.3-1.7,0,1.4c-1.5,17.8,24,101.9,24,101.9c134,22,178.2-48.1,178.2-48.1
		C2185.6,890.6,2026.2,782.5,2026.2,782.5z"/>
	<path class="st18" d="M1969.6,971.4c21,11.9,45.3,12.6,57.3,12c36.3-70.7,25.6-140.4,25.6-140.4s-70,12.8-61,54
		C1999.5,933.1,1976.3,961.3,1969.6,971.4z"/>
	<path class="st18" d="M1649.6,1628.7l-14.8-13.5l431.3-475.1c3.7-4.1,10.1-4.4,14.1-0.7l0,0c4.1,3.7,4.4,10,0.7,14.1L1649.6,1628.7
		z"/>
	<path class="st22" d="M1978.1,823.2c0,0,57.7-18.2,77.5,15.8c19.8,34.1,25,205.2,22.5,222c-4.7,30.6-57.5,151.2-57.5,151.2
		l-20.5-2.9c0,0,17.2-132.8,22.7-146.9C2031.3,1040.3,1964.7,843.7,1978.1,823.2z"/>
	<path class="st19" d="M2063.3,861.4c0.2,0.9-44,38.5-83.9,35.9c0,0-39.4-72.6,1.5-85.3c40.9-12.6,69.4-10.2,78.4,8.1
		C2068.3,838.4,2063.3,861.4,2063.3,861.4z"/>
	<path class="st22" d="M2000.1,1209.3c0,0-11.9,14.3-17,17.3c-5.1,2.9-9.1,13.9-8.4,15.5c0.7,1.6,10.2-8.7,11.8-6.8
		c1.6,1.9,1.5,24.2-3.5,27.5c-5,3.3-12.5,11.9-11.5,13.3c1,1.5,32.9-12.3,42.3-25c9.5-12.7,6.6-41.8,6.6-41.8H2000.1z"/>
	<path class="st18" d="M1808.3,1203.7c-1.3,0-2.6-0.5-3.6-1.4l-100.7-95.3c-2.1-2-2.2-5.4-0.2-7.5c2-2.1,5.4-2.2,7.5-0.2l100.7,95.3
		c2.1,2,2.2,5.4,0.2,7.5C1811.1,1203.2,1809.7,1203.7,1808.3,1203.7z"/>
	<path class="st22" d="M1754,1167.1c0,0,18.4,0.1,24.6-5.1c6.2-5.2-18.2-20.8-26.8-17.5c-8.5,3.3-10.9,5.1-7,11.3
		C1748.8,1162.1,1754,1167.1,1754,1167.1z"/>
	<path class="st22" d="M1750.7,1136.3c0,0-7,3.5-9.3,7.8c-2.3,4.3,18.8,0,18.8,0L1750.7,1136.3z"/>
	<path class="st26" d="M1768.1,1165.9c0,0,10.5-5.6,7.4-12.2s-9.7-9.6-9.7-9.6s7.1,2.3,11.4,6.6
		C1782.5,1156.1,1784,1163.8,1768.1,1165.9z"/>
	<g>
		<rect x="1601.4" y="1020.6" class="st15" width="0" height="0"/>
		<path class="st15" d="M1722.3,1113.8L1722.3,1113.8c-6.8,6.9-17.9,6.9-24.7,0.1l-75.9-75.4c-6.9-6.8-6.9-17.9-0.1-24.7l0,0
			c6.8-6.9,17.9-6.9,24.7-0.1l75.9,75.4C1729,1095.9,1729.1,1107,1722.3,1113.8z"/>
		<path class="st15" d="M1618.2,1016.3c0,0-2.6,2.6-2.6,3.5c0,0.9,1.3,0,1.3,0l-1.9,3.7l1.2,1.2l-2,4c0,0,0.9,2.2,1.5,2.2
			c0.5,0.1,1.6,1.6,1.5,2.1c-0.7,2-1.9,4.1-1,4.1c0.9,0,2.7,1.4,3.7,1.5s1.2,1.2,1.1,2.1c0,0.8-0.2,1.1-0.2,1.1s1.8,0.1,2.4,0.7
			c0.6,0.5,0.8,0.7,0.8,0.7s1.7,2,2,2.4s0.4,1.6,1.9,1.1s2.6-1.2,2.6-1.2l1.6-1l0.2-2.7c1.8-0.8,1.1-0.5,1.1-0.5l0.7-0.4
			c0,0,0.9-0.5,2.2-1.1c1.3-0.5,3.3-2.9,3.8-4.2c0.4-1.2,0.6-2.9,2.2-3.7c1.6-0.8,5.5-3.2,5.5-3.2l0.6-0.1c0,0,1.3-4.1,1.5-4.2
			c0.2-0.2,0-0.4,2-2.5c2.1-2.1,1.5-2.3,2.3-2.3c0.8,0,4.8,2.1,1.1-1.4c-3.7-3.6-3-3.6-4.5-3.9c-1.5-0.3-2.9-1.3-3.1-2.2
			c-0.2-0.9-0.3-1.4-0.3-1.4s0.3-1.8-2.3-2.8c-2.5-1-4.9-0.8-5.2-0.8c-0.3,0-2.1,1.1-3.1-0.3c-1.1-1.4-5.9-1.6-6-1.5
			c-0.1,0.1-1.3-0.5-1.8,0.9l-0.3,0.3c0,0,3.2-1-0.2,1.2c-3.4,2.1-1.3,2.4-3.1,2.2c-1.8-0.2-2.3-1.4-2.9-0.4c-0.6,1-3.4,5-3.2,5.4
			C1619.4,1015.5,1618.2,1016.3,1618.2,1016.3z"/>
		<path class="st15" d="M1731.1,1117.4c0,0,2.6-2.6,2.6-3.5c0-0.9-1.3,0-1.3,0l1.9-3.7l-1.2-1.2l2-4c0,0-0.9-2.2-1.5-2.2
			c-0.5-0.1-1.6-1.7-1.5-2.1c0.7-2,1.9-4.1,1-4.1c-0.9,0-2.7-1.4-3.7-1.5c-1-0.1-1.2-1.2-1.1-2.1c0-0.8,0.2-1.1,0.2-1.1
			s-1.8-0.1-2.4-0.7c-0.6-0.5-0.8-0.7-0.8-0.7s-1.7-2-2-2.4c-0.3-0.4-0.4-1.6-1.9-1.1c-1.5,0.6-2.6,1.2-2.6,1.2l-1.6,1l-0.2,2.7
			c-1.8,0.8-1.1,0.5-1.1,0.5l-0.7,0.4c0,0-0.9,0.5-2.2,1.1c-1.3,0.5-3.3,2.9-3.8,4.2s-0.6,2.9-2.2,3.7c-1.6,0.8-5.5,3.2-5.5,3.2
			l-0.6,0.1c0,0-1.3,4.1-1.5,4.2c-0.2,0.2,0,0.4-2,2.5c-2.1,2.1-1.5,2.3-2.3,2.3c-0.8,0-4.8-2.1-1.1,1.4c3.7,3.6,3,3.6,4.5,3.9
			c1.5,0.3,2.9,1.3,3.1,2.2c0.2,0.9,0.3,1.4,0.3,1.4s-0.3,1.8,2.3,2.8c2.5,1,4.9,0.8,5.2,0.8c0.3,0,2.1-1.1,3.1,0.3
			c1.1,1.4,5.9,1.6,6,1.5c0.1-0.1,1.3,0.5,1.8-0.9l0.3-0.3c0,0-3.2,1,0.2-1.1c3.4-2.1,1.3-2.4,3.1-2.2s2.3,1.4,2.9,0.4
			c0.6-1,3.4-5,3.2-5.4C1729.8,1118.2,1731.1,1117.4,1731.1,1117.4z"/>
		<path class="st15" d="M1689.4,1075.1c0,0,2.6-2.6,2.6-3.5c0-0.9-1.3,0-1.3,0l1.9-3.7l-1.2-1.2l2-4c0,0-0.9-2.2-1.5-2.2
			c-0.5-0.1,3.7,2.8,3.8,2.4c0.7-2-3.4-8.5-4.3-8.5c-0.9,0-2.7-1.4-3.7-1.5s-1.2-1.2-1.1-2.1c0-0.8,0.2-1.1,0.2-1.1
			s-1.8-0.1-2.4-0.7c-0.6-0.5-0.8-0.7-0.8-0.7s-1.7-2-2-2.4s-0.4-1.6-1.9-1.1s-2.6,1.2-2.6,1.2l-1.6,1l-0.2,2.7
			c-1.8,0.8-1.1,0.5-1.1,0.5l-0.7,0.4c0,0-0.9,0.5-2.2,1.1c-1.3,0.5-3.3,2.9-3.8,4.2c-0.4,1.2-0.6,2.9-2.2,3.7s-5.5,3.2-5.5,3.2
			l-0.6,0.1c0,0-1.3,4.1-1.5,4.2c-0.2,0.2,0,0.4-2,2.5s-1.5,2.3-2.3,2.3s-4.8-2.1-1.1,1.4c3.7,3.6,3,3.6,4.5,3.9
			c1.5,0.3,2.9,1.3,3.1,2.2c0.2,0.9,0.3,1.4,0.3,1.4s-0.3,1.8,2.3,2.8s4.1,1.4,4,1.7c-0.6,1.3,3.1,3.8,4.1,5.2s6-4.2,6.2-4.3
			c0.1-0.1,1.3,0.5,1.8-0.9l0.3-0.3c0,0-3.2,1,0.2-1.2s1.3-2.4,3.1-2.2c1.8,0.2,2.3,1.4,2.9,0.4c0.6-1,3.4-5,3.2-5.4
			C1688.2,1075.9,1689.4,1075.1,1689.4,1075.1z"/>
		<path class="st8" d="M1629.3,1046.2c0,0-3.3,3.6,0.8,5.1s3.8-0.6,4.9,2.9c1,3.5,1,4.4,1,4.4s-2.2,2.5,2.2,2.2s2.7-1.9,4.6,1.2
			c1.9,3.1,1.9,4.4,3.7,5.6c1.8,1.2,1.3,1.5,4.1,3.5c2.8,2,4,1.6,5.6,1.7c0,0,1.5,1.5,2.4-0.2c0.8-1.8,0.1-6,0.3-7.4
			s0.6-2.2,0.6-2.2l4.5-1.7c0,0,1.2,0,1.9-0.2c0.7-0.2,0.7-0.2,0.7-0.2s0.6-1.1,0.8-1.5c0.2-0.5-0.4-0.7-0.4-0.7s-0.9-4.8-0.2-5.3
			c0.7-0.5-1.9,0.2,0.7-0.5c2.6-0.7,4.8-2.5,5.6-2.4c0.8,0.1,0.9-0.2,1.3,0.1c0.4,0.4,0.4,0.4,0.4,0.4l1.9-3.1c-0.5-1.9-5-3.8-3-4.8
			c2-1.1,2,1.6,2.8,1.9c0.8,0.4,8.7,1.7,2.1-2.5s-6.1-8.7-7-8.6c-0.8,0.1-3.4-1.8-4.1-2.5c-0.7-0.7-1.2-4.5-4.1-4.1
			c-2.9,0.4-3.2,0.3-2.5-2.3c0.7-2.6,0.6-3.6-1.4-3.2c-2,0.4-4,0-4,0s2.7-2.8-1.2-2c-3.9,0.8-8,1.7-8.4,3.4
			c-0.3,1.8-1.1,2.2-2.8,5.7c-1.8,3.4-3.8,3.1-5.6,5c-1.9,1.9,0.5-1.9-2.7,2.7s-3.4,2.3-3.2,4.6c0.2,2.4-1.4,4-1.4,4L1629.3,1046.2z
			"/>
		<path class="st8" d="M1720.6,1088.1c0,0,3.3-3.6-0.8-5.1s-3.8,0.6-4.9-2.9c-1-3.5-1-4.4-1-4.4s2.2-2.5-2.2-2.2
			c-4.5,0.3-2.7,1.9-4.6-1.2c-1.9-3.1-1.9-4.4-3.7-5.6c-1.8-1.2-1.3-1.5-4.1-3.5c-2.8-2-4-1.6-5.6-1.7c0,0-1.5-1.5-2.4,0.2
			c-0.8,1.8-0.1,6-0.3,7.4s-0.6,2.2-0.6,2.2l-4.5,1.7c0,0-1.2,0-1.9,0.2c-0.7,0.2-0.7,0.2-0.7,0.2s-0.6,1.1-0.8,1.5
			c-0.2,0.5,0.4,0.7,0.4,0.7s0.9,4.8,0.2,5.3c-0.7,0.5,1.9-0.2-0.7,0.5s-4.8,2.5-5.6,2.4c-0.8-0.1-0.9,0.2-1.3-0.1s-0.4-0.4-0.4-0.4
			l-1.9,3.1c0.5,1.9,5,3.8,3,4.8c-2,1.1-2-1.6-2.8-1.9c-0.8-0.4-8.7-1.7-2.1,2.5s6.1,8.7,7,8.6c0.8-0.1,3.4,1.8,4.1,2.5
			c0.7,0.7,1.2,4.5,4.1,4.1c2.9-0.4,3.2-0.3,2.5,2.3c-0.7,2.6-0.6,3.6,1.4,3.2s4,0,4,0s-2.7,2.8,1.2,2c3.9-0.8,8-1.7,8.4-3.4
			c0.3-1.8,1.1-2.2,2.8-5.7s3.8-3.1,5.6-5c1.9-1.9-0.5,1.9,2.7-2.7s3.4-2.3,3.2-4.6c-0.2-2.4,1.4-4,1.4-4L1720.6,1088.1z"/>
	</g>
	<g>
		<path class="st24" d="M1599.8,1610.8L1599.8,1610.8c-3.1,0-6.3,0.5-9.4,1.4l-56.9,17.8c-3.3,1-5.5,4.1-5.5,7.5v3.9h71.8h38.2h75.8
			v-30.6H1599.8z"/>
		<path class="st25" d="M1750.3,1641.4h-110v-3.9c0-3.4,2.2-6.5,5.5-7.5l56.9-17.8c9.6-3,20-1.2,28,4.8l15.6,11.7
			c1.7,1.3,2.8,3.2,3.1,5.3L1750.3,1641.4z"/>
	</g>
	<path class="st12" d="M2718.7,1616.6c0,14.5-11.8,26.3-26.3,26.3c-14.5,0-26.3-11.8-26.3-26.3c0-14.5,11.8-26.3,26.3-26.3
		C2706.9,1590.3,2718.7,1602.1,2718.7,1616.6z"/>
	<path class="st15" d="M2419.3,1634.9H2742l8.9-8.9c20.6-20.6,18.6-54.6-4.4-72.7c-47.5-37.4-135.9-89.8-258.5-89.8
		c-80,0-105.3,46.3-105.4,90C2382.5,1598.3,2419.3,1634.9,2419.3,1634.9z"/>
	<path class="st17" d="M2746.5,1553.4c-23.3-18.3-56.4-40.2-98.5-57.8c27.2,14.1,49.5,29.4,66.5,42.8c22.9,18,25,52,4.4,72.7
		l-8.9,8.9h-303.1c6.8,9.4,12.4,15,12.4,15H2742l8.9-8.9C2771.5,1605.4,2769.5,1571.4,2746.5,1553.4z"/>
	<path class="st17" d="M2566.5,1627.9c14.3-14.5,23.2-34.4,23.2-56.3c0-44.2-35.8-80-80-80s-80,35.8-80,80c0,22,8.9,41.9,23.2,56.3
		H2566.5z"/>
	<circle class="st12" cx="2499.3" cy="1562.9" r="80"/>
	<circle class="st13" cx="2499.3" cy="1562.9" r="65"/>
	<path class="st17" d="M2382.7,1552.6c-23.8-1.4-81.2-8.5-102.5-43.7c-14-23.1-10-55.1,11.7-95.1c21.8-40,32.2-82,30.8-124.8
		c-1.1-37.1-11.3-73.6-29.3-105.5c-27.3-48.2-70.1-80.5-109.2-82.1c-61.1-2.6-94.3,21.2-108.7,35.6c1.7,0.4,3.3,1.1,4.7,2.4
		c2,1.8,3.1,4.2,3.2,6.7c3.9-3.9,9.5-8.9,17.2-13.7c15.4-9.6,42.2-20.7,83-19c35,1.5,73.9,31.3,99.2,76.1
		c18,31.8,53.8,116.7-1.6,218.6c-23.9,44-27.8,80-11.5,107.1c25.1,41.5,89.7,48.5,114.1,49.6
		C2383.2,1559.7,2382.8,1555.6,2382.7,1552.6z"/>
	<path class="st27" d="M208,1651.5h2584c2.1,0,3.8-1.7,3.8-3.8v-3.8c0-2.1-1.7-3.8-3.8-3.8H208c-2.1,0-3.8,1.7-3.8,3.8v3.8
		C204.2,1649.8,205.9,1651.5,208,1651.5z"/>
	<path class="st15" d="M2392.9,1569.4l-17.5-1.3c-1.6-0.1-2.7-1.5-2.6-3l1-13.2c0.1-1.6,1.5-2.7,3-2.6l17.5,1.3
		c1.6,0.1,2.7,1.5,2.6,3l-1,13.2C2395.9,1568.4,2394.5,1569.6,2392.9,1569.4z"/>
	<path class="st16" d="M2384.8,1549.9l-7.9-0.6c-1.6-0.1-2.9,1.1-3,2.6l-0.2,3.3c0.4-1.2,1.6-2.1,2.9-2l7.9,0.6
		c-0.1,0.3-0.2,0.6-0.2,1l-0.3,14.1l0.3,0c0-0.2,0-0.3,0-0.5l0.4-17.5C2384.6,1550.5,2384.7,1550.2,2384.8,1549.9z"/>
	<path class="st16" d="M2388.1,1567.1c0.1-48.9,28.3-100.5,117.7-100.5c18.4,0,36,1.1,53,3c-22.1-3.8-45.7-6-70.8-6
		c-80,0-105.3,46.3-105.4,90c0,14.6,3.9,28.2,9.1,40.1C2389.4,1585.3,2388,1576.4,2388.1,1567.1z"/>
	<polygon class="st13" points="1500,828.6 1505,1348.2 1497.2,1340.4 	"/>
</g>
</svg>
