<svg width="182" height="109" viewBox="0 0 182 109" fill="none" xmlns="http://www.w3.org/2000/svg">
<path fill-rule="evenodd" clip-rule="evenodd" d="M0.847595 2.18404C0.411621 3.03969 0.411621 4.15979 0.411621 6.40001V98.6781C0.411621 99.2304 0.859338 99.6781 1.41162 99.6781H164.726C164.909 99.6781 165.089 99.7284 165.245 99.8235L180.007 108.794C180.673 109.199 181.526 108.72 181.526 107.94V97.9251V93.2781V83.1846V6.4C181.526 4.15979 181.526 3.03969 181.09 2.18404C180.707 1.43139 180.095 0.819467 179.342 0.435974C178.487 0 177.367 0 175.126 0H6.81162C4.57141 0 3.45131 0 2.59566 0.435974C1.84301 0.819467 1.23109 1.43139 0.847595 2.18404Z" fill="#048392"/>
</svg>
