<?xml version="1.0" encoding="utf-8"?>
<!-- Generator: Adobe Illustrator 25.4.0, SVG Export Plug-In . SVG Version: 6.00 Build 0)  -->
<svg version="1.1" id="cooking_concept" xmlns="http://www.w3.org/2000/svg" xmlns:xlink="http://www.w3.org/1999/xlink" x="0px"
	 y="0px" viewBox="0 0 3000 3000" style="enable-background:new 0 0 3000 3000;" xml:space="preserve">
<style type="text/css">
	.st0{clip-path:url(#SVGID_00000081605893184341248070000009198500564626160041_);fill:#FDECC2;}
	.st1{clip-path:url(#SVGID_00000081605893184341248070000009198500564626160041_);}
	.st2{fill:#4F2A12;}
	.st3{fill:#C6401D;}
	.st4{fill:#A8DBD1;}
	.st5{fill:#953016;}
	.st6{fill:#F7D1BF;}
	.st7{fill:#1A1A1A;}
	.st8{fill:#D95B3B;}
	.st9{fill:#D99357;}
	.st10{fill:#4D4D4D;}
	.st11{fill:#B3B3B3;}
	.st12{fill:#999999;}
	.st13{fill:#FBB03B;}
	.st14{fill:#EF9F2A;}
	.st15{fill:#F89C9C;}
	.st16{fill:#FFFFFF;}
	.st17{fill:#E04151;}
	.st18{fill:#731E2B;}
	.st19{fill:#FEF9F9;}
	.st20{fill:#FF8080;}
	.st21{fill:#DB6946;}
	.st22{fill:#693818;}
	.st23{fill:#965C35;}
	.st24{fill:#DEAE97;}
	.st25{fill:#E3D0BF;}
	.st26{fill:#E6E6E6;}
	.st27{fill:#DA821C;}
	.st28{fill:#C85D27;}
	.st29{fill:#E6966E;}
	.st30{fill:#FD7631;}
	.st31{fill:#FF8C50;}
	.st32{fill:#FFA678;}
	.st33{fill:#FE6D00;}
	.st34{fill:#D65C00;}
	.st35{fill:#DB5E25;}
	.st36{fill:#CC5823;}
	.st37{fill:#8CC63F;}
	.st38{fill:#7EB339;}
	.st39{fill:#CE1417;}
	.st40{fill:#C41316;}
	.st41{fill:#468732;}
	.st42{fill:#3694CE;}
	.st43{fill:#333333;}
	.st44{fill:#BC842C;}
	.st45{fill:#E0E8EE;}
	.st46{fill:#F15A24;}
	.st47{fill:#FCC062;}
	.st48{fill:#22B573;}
	.st49{fill:#2E65A0;}
	.st50{fill:#E0EBF2;}
	.st51{fill:#ECE1D4;}
	.st52{fill:#D6CCC0;}
</style>
<g>
	<defs>
		<rect id="SVGID_1_" x="54.2" y="81.6" width="2827.7" height="2918.4"/>
	</defs>
	<clipPath id="SVGID_00000023283034085685224330000015873660235757889465_">
		<use xlink:href="#SVGID_1_"  style="overflow:visible;"/>
	</clipPath>
	<path style="clip-path:url(#SVGID_00000023283034085685224330000015873660235757889465_);fill:#FDECC2;" d="M1866.5,422.1
		c214.6,67.4,410.6,192.5,562.7,351.6c296.8,310.6,432.2,764.3,305.9,1165c-48.5,153.8-132.6,297.2-166.9,454.3
		c-24.9,113.8-23.1,232.3-56.7,344c-82.3,273.7-368.7,459.4-664.8,514.4c-177.8,33-1106-107.3-1445.1-488.3
		C178.9,2513,9.1,2177.3,134.2,1872.8c73.5-178.9,228.5-317.3,319.2-489c90.9-171.9,113.7-370.2,204.7-542.1
		c155.4-293.5,506.2-473.8,854.1-474.7C1633,366.7,1752.3,386.2,1866.5,422.1z"/>
	<g style="clip-path:url(#SVGID_00000023283034085685224330000015873660235757889465_);">
		<path class="st2" d="M993.1,811.6c-30.3,51-33.4,122-24,180.6c9.4,58.6,26.4,116.6,25,175.9c-0.6,25.7-0.5,44.6,6.6,69.3
			c11.4,39.4,48.8,67.3,59.8,106.8c13.5,48.7-14.4,109.1,18.6,147.3c11.7,13.6,29.1,20.9,42.5,32.8c13.4,11.9,22.6,32.9,12.2,47.5
			c0,0-0.3,0.5-1,1.4c142.4-41.8,284.8-83.6,427.3-125.5c3.1-19.2-3.4-41.2-13.3-58.8c-14.8-26.1-36.1-49.7-41.6-79.2
			c-6.5-34.9,10.5-70.1,8.9-105.5c-2.2-49-26.5-123-46.7-167.7c-27.2-59.9-70.8-85.9-83.1-150.5c-12.3-64.6-32.5-131.9-78.5-156.7
			L993.1,811.6z"/>
		<path class="st3" d="M1325.3,1423c0,0,5.5-40,29.4-59.6c23.9-19.6,451.8-49.5,530.5-55c78.8-5.6,139,142.4,19.4,188
			c-88.3,28.9-256.8,44.7-372.9,52C1415.7,1555.5,1309.4,1466.8,1325.3,1423z"/>
		<path class="st2" d="M1553.6,1373.7c14-36.4-2.2-81.7-34.3-105.4c-10-7.4-22-13.1-33.6-18.6c-20.6-9.8-41.9-19.9-54.6-40
			c-16.3-25.7-12-58.6-5.7-87.5l0.8-3.5c5.7-26,11.7-53,2.4-76.3c-7.2-18.1-22.3-31.2-38.2-45.1c-2.5-2.1-5-4.3-7.4-6.5
			c0.3,5.3,0.4,10.4,0.3,15.2c-0.1,7.8-0.3,15.9-0.5,24.4c-1,37.3-2.1,79.7,6,115.4c8.1,35.7,26.6,69.7,47.1,86.6l11.7,9.7
			l-15.1,1.8c-24.6,2.9-55-19.2-73.7-53.9c-18.2-33.5-27.9-76.8-28.9-128.6c-0.4-20.8,0.3-41.5,1-61.5c0.7-20.4,1.5-41.5,1-62.6
			c-1-41.9-26.6-110.9-26.9-111.6l10.3-7.2c5.5,4.7,10.8,10.4,15.9,16.9c-2.4-46.8-14.4-79.7-35.8-97.8
			c-14.4-12.2-33.6-18-57.1-17.2c11.4,15.8,19,33.3,22.1,51.3c7.6,44-10.6,90-45.3,114.6l-11.5,8.2l1.3-14.1
			c0.8-8.3,0.9-16.8,0.5-25.3c-6.4,9.9-13.7,19-22,27.2c-18.7,18.6-42.3,32.5-68.2,40.2c-14.9,4.5-30.2,6.8-45.4,6.8l-13.7,0.1
			l4.7-5.8c-2.3,1.9-4.7,3.7-7.1,5.4c-1.4,1-4.4,3.4-7.6,5.9c-4.8,3.8-10.2,8-14.2,10.9c-2,113.7,33.2,226.8,99.4,318.9l-9,9.2
			c-48.8-33.5-89.4-80.8-118.6-137.7c-2.5,39.1-2.9,73.7,14.3,101.8c7.8,12.8,16.5,25.2,24.8,37.2c7.8,11.3,15.9,22.9,23.5,35
			c21.9,35.1,28.2,74.1,19.9,122.7c-9.6,56-49.9,93.3-75.4,101.9l-17.8,6l10.3-15.7c18.8-28.7,30.4-63.7,32.7-98.5
			c2.4-37-5.7-70.7-23.5-97.5c-5.8-8.7-14-16.5-22.8-24.8c-12-11.3-24.4-23-30.8-37.9c-0.3-0.7-0.6-1.4-0.9-2.1
			c-23.2-3.5-45.7-25.1-55.7-54c-10.2-29.6-9.9-65.5,1-106.8c4.2-15.8,9.4-31.3,14.5-46.3c3.6-10.7,7.4-21.7,10.7-32.7
			c-1.1-4.4-2.2-8.8-3.2-13.1c-10.4-42.7-20.9-92.3-14.8-141.1c4.1-32.7,16.6-63.6,35.1-86.9c11.6-24.8,26.9-46.4,45.4-64.2
			c22.8-22,50.9-38.5,81.1-47.5c27.5-8.2,55.8-9.9,82-4.8c45.4-11.9,92.9-4.9,134.2,19.7c38.9,23.2,69.6,60.9,84.3,103.5
			c5.4,15.5,8.7,31.8,12,47.5c4.4,21.1,8.5,41,17,59.6c8.7,19,22.2,36.7,35.3,53.8c21.3,27.9,43.2,56.7,45.9,92.6
			c1.1,15.4-1.5,30.5-4.1,45.2c-2.9,16.4-5.6,31.9-3.3,47.3c4.3,28.9,24.7,50.7,46.3,73.9c14.3,15.3,29.1,31.2,39.3,49.6
			c18,32.3,20.6,72.8,7,108.5c-1.4,3.7-11.8,23.9-13.5,27.4L1553.6,1373.7z M948.9,1131.4c-4.3,16.7-7.4,33.2-7.5,48.5
			c-0.1,15.4,2.7,30.9,7.8,44.4c-1.2-15.2-0.7-30.6-0.1-45.7c0.4-10.2,0.7-20.7,0.5-30.8C949.6,1142.5,949.3,1137,948.9,1131.4z"/>
		<path class="st3" d="M969.1,1336.2c0,0-38.7-11.5-66.4,2.3c-27.7,13.7-301.5,514.9-339,584.4c-37.5,69.5,72.5,185.3,163.3,95.1
			c62.6-68.6,217-339.2,271.4-442C1052.7,1473.1,1015.6,1339.8,969.1,1336.2z"/>
		<g>
			<g>
				<path class="st3" d="M1400.2,2080.2c-5.7-25.1,54.9-58.4,37.9-84c-22.3-33.6-31.3-195.6-21.4-255.4c34.8-29.1,77.3-52,87.8-94.9
					c6.3-26.1-1.5-53.3-8-79.4c-15.9-62.9,11.5-153.8,9.3-218.6c-55.4-14.7-143.8-47.5-203.6-73.3l-184,0
					c-59.8,25.8-148.2,58.6-203.6,73.3c-2.1,64.9,25.2,155.7,9.3,218.6c-6.6,26.1-14.4,53.2-8,79.4c10.4,42.9,53,65.8,87.8,94.9
					c10.3,62.5,30.3,218.7-16.8,255.4c-24.7,19.3,35,49.3,29.9,71.8c0,0,77.1,40.2,180,40.2
					C1299.5,2108.2,1400.2,2080.2,1400.2,2080.2z"/>
			</g>
			<g>
				<path class="st4" d="M1222.7,1357.4c1.7-14.7,3.2-29.1,5-43C1225.4,1328.6,1223.6,1343,1222.7,1357.4z"/>
				<path class="st5" d="M1068.9,1524.4c18.7,24.3,62.6,9.6,72.7-0.5c64.6-64.6,73.2-84.7,94.3-150.5l4.4-3.8
					c-2.5,40.9,21.1,115.9,85,159.2c17.7,12,28.5-2.3,32.2-17c16.8-74.3,5.7-146.4-8.6-218c-16.6-6.6-32.5-13.1-46.7-19.3l-184,0
					c-13.9,6-29.3,12.4-45.5,18.8C1047.2,1411.5,1050.2,1500.2,1068.9,1524.4z"/>
				<path class="st5" d="M1493,1485.6c-2.4,7-4.1,14.2-5.7,20.7c-12.8,60.3,16.5,120.7-12.8,177.3c-23.8,45.7-78.6,62.2-128,71.3
					c16.5,0,42-7.3,47.5,0c18.6,56,11.6,98,17.1,156.5c2.4,24.8,4.9,37.3-0.6,48.3c-9.1,20.1-3.7,31.1,12.8,45.7
					c4.6,4.6,8.1,11.1,11.7,17.6c5.9-9.4,8.6-18.5,3.1-26.8c-22.3-33.6-31.3-195.6-21.4-255.4c34.8-29.1,77.3-52,87.8-94.9
					c6.3-26.1-1.5-53.3-8-79.4C1490.3,1542.6,1490.6,1514.6,1493,1485.6z"/>
				<path class="st5" d="M1028.5,1756.8c7.3-14.6,40.2-1.8,62.2-1.8c-56.7-27.4-129.8-49.4-153.6-111.5
					c-14.6-34.7,3.7-76.8-1.8-115.2c0-5.2-2.8-10.4-6.4-15.7c0.4,19.2-0.7,37.5-4.9,53.9c-6.6,26.1-14.4,53.2-8,79.4
					c10.4,42.9,53,65.8,87.8,94.9c6.9,41.7,18.1,125,10.8,186.8c6.2-12,12.5-24.3,14-37.3C1034,1844.5,1004.7,1795.2,1028.5,1756.8z
					"/>
			</g>
		</g>
		<g>
			<g>
				<polygon class="st6" points="1105.9,1102.9 1105.9,1175 1105.9,1315.6 1314.5,1315.6 1314.5,1145.3 1314.5,1102.9 				"/>
				<path class="st7" d="M1314.5,1102.9h-208.6v72.2v83.1c74.1-5,148.2-26.1,208.6-66.2v-46.6V1102.9z"/>
			</g>
			<path class="st6" d="M1329.8,1315.7c0,35.6-93.9,95.8-93.9,95.8s-145.4-60.2-145.4-95.8c0-35.6,53.6-45.5,119.7-45.5
				S1329.8,1280.1,1329.8,1315.7z"/>
		</g>
		<g>
			<path class="st8" d="M1314.5,1270.2v18.5c0,0,16.8,38.9-0.5,48.8s-78.1,49-78.1,74c0,0,103.5,167.8,126.3,87.3
				c22.7-80.5,3.5-187.5,0-202.3C1358.7,1281.6,1314.5,1270.2,1314.5,1270.2z"/>
			<path class="st8" d="M1105.9,1270.2v18.5c0,0-8.9,38.9,11.6,48.8c20.5,9.9,118.5,49,118.5,74c0,0-148.7,178.3-175.7,97.8
				c-27-80.5-4.2-198,0-212.9C1064.4,1281.6,1105.9,1270.2,1105.9,1270.2z"/>
		</g>
		<g>
			<path class="st3" d="M1073.7,1959.5c-137.1,156.8-198,382.8-232.9,592.1c-33.7,202.1-47.4,408.9-103.6,605.2
				c34.3,15.9,71.6,24.5,109,25.2c-3.4,14.3-6.8,28.6-10.2,42.9c44.4,5.5,89.2,8.6,133.9,9.5c-1.6,12-6.1,23.5-13.3,33
				c184.3,9.8,369.3,6.1,553.2-11c-1.9-14.8-3.9-29.7-5.8-44.5c51.8-0.7,103.5-1.3,155.3-2c-5-18.3-10-36.6-15.1-54.9
				c33.1-5.8,66.2-11.5,99.4-17.3c-52.1-205.5-73.8-418.2-122.6-624.6c-48.1-203.6-126.3-406.4-269.2-553.6H1073.7z"/>
			<path class="st5" d="M898.7,2952.4c-17.3,55.9-27.4,113.3-49.4,170c-3.7,12.8-16.4,31.1-27.4,32.9c-31.1,5.5-73.1-12.8-65.8-53
				c17.4-101.2,45-197.9,48.5-297.2c-16.3,118.8-34.6,237.1-67.5,351.7c33.8,15.6,70.5,24.2,107.4,25.2
				C861.3,3105.5,890.3,3030.5,898.7,2952.4z"/>
			<path class="st5" d="M1653.7,3124.2c-25.6-53-29.3-113.3-51.2-168.2c5.3,68.4,13.9,136.9,42.1,198.9c22.1-3.8,44.1-7.7,66.2-11.5
				C1687.8,3138.4,1662.3,3141.5,1653.7,3124.2z"/>
			<path class="st5" d="M1550.1,3211.3c-11.5-5.4-21.9-5.9-33.6-17.6c-11.4-11.4-24-56.1-29.5-85.4c-5.6-29.5-9.5-50.9-16.1-79
				c8.2,63.7,9,129.9,33.8,189c-0.3-2.2-0.6-4.3-0.9-6.5C1519.4,3211.7,1534.8,3211.5,1550.1,3211.3z"/>
			<path class="st5" d="M1008.4,2970.7c-20.1,76.8-34.7,153.6-49.4,235.8c-3,16.7-22.6,20.8-39.6,25.9c16,0.9,32.1,1.6,48.1,1.9
				c12.2-12.8,20.7-29.8,20.7-48C991.9,3113.3,993.7,3042,1008.4,2970.7z"/>
		</g>
		<g>
			<polygon class="st6" points="2090.8,1083 2149.2,1010 2220.4,1068.4 2154.4,1147.5 			"/>
			<path class="st3" d="M1796.6,1462.4c0,0-15.1-54.5-15.1-82.4c0-52.4,216.9-218.2,261.3-312.2c15.7-33.2,37.5-16.1,37.5-16.1
				l20.3-8.9l90.8,87.9l-5.7,27c0,0,20.7,44.1-5,63.2c-38.6,28.8-139.9,173.1-183.5,222.1C1935.5,1512.2,1816.4,1504,1796.6,1462.4z
				"/>
			<g>
				<g>
					<g>
						<g>
							<g>
								<g>
									<g>
										<path class="st6" d="M2138.2,973.5c5.3-25,10.5-20.2,113.3-62.9c3.8-1.6,50.7,85.8,10.5,135.3
											c-24.9,30.7-71.4,51.8-103.2,19.1C2139.2,1045,2138.2,973.5,2138.2,973.5z"/>
									</g>
								</g>
							</g>
						</g>
					</g>
				</g>
				<path class="st6" d="M2151.5,1055.3c-21.9-45.3-30.7-68.7-33.5-101.7c-1.5-17.8,4.7-16.6,19.3-34.9c22-27.6,53.7-61.5,66-37.7
					c18.7,36.2-33.2,74.7-25.1,83.8C2226.7,1018.5,2173.4,1100.6,2151.5,1055.3z"/>
				<g>
					<g>
						<g>
							<path class="st9" d="M2123.9,1420.8l21.6,1.7l78.5-656.2c1.4-11.5-7.1-21.7-18.8-22.7l0,0c-11.7-0.9-22.1,7.8-23.2,19.3
								L2123.9,1420.8z"/>
							<path class="st10" d="M2148.2,1418.7c-13.4,45.5-60.8,77.2-113.4,73c-52.6-4.2-92.7-42.8-96.5-89.6L2148.2,1418.7z"/>
							<g>
								<polygon class="st10" points="2180.9,1151.1 2145.5,1422.5 2120.9,1420.6 2145.2,1148.2 								"/>
								<g>
									<path class="st11" d="M2156.2,1160.4c-0.3,2.9,1.8,5.4,4.8,5.6c2.9,0.2,5.5-1.9,5.8-4.8c0.3-2.9-1.8-5.4-4.8-5.6
										C2159.1,1155.3,2156.5,1157.5,2156.2,1160.4z"/>
									<path class="st12" d="M2161,1164.8L2161,1164.8c0.2,0,0.4-0.1,0.4-0.3l0.8-7.4c0-0.2-0.1-0.3-0.3-0.4l0,0
										c-0.2,0-0.4,0.1-0.4,0.3l-0.8,7.4C2160.7,1164.7,2160.8,1164.8,2161,1164.8z"/>
								</g>
							</g>
						</g>
					</g>
				</g>
				<g>
					<path class="st6" d="M2275.2,944.8c0,0-26.2-16.9-48.7-21.3s-45,12.8-58.7,26.5c-13.7,13.7-1.4,35.3,18.8,23
						s33.3-13.5,36.9-13.5c3.6,0,31.3,18.5,36.3,21.8C2276.3,992.3,2295.9,959.5,2275.2,944.8z"/>
					<path class="st6" d="M2276.3,978.1c0,0-26.2-16.9-48.7-21.3s-45,12.8-58.7,26.5c-13.7,13.7-1.4,35.3,18.8,23
						c20.2-12.3,33.3-13.5,36.9-13.5c3.6,0,31.3,18.5,36.3,21.8C2277.5,1025.6,2297.1,992.8,2276.3,978.1z"/>
					<path class="st6" d="M2269.9,1008.4c0,0-24.2-16.9-45.1-21.3c-20.8-4.5-41.7,12.8-54.3,26.5c-12.7,13.7-1.3,35.3,17.4,23
						s30.8-13.5,34.1-13.5s29,18.5,33.6,21.8C2271,1055.9,2289.1,1023.1,2269.9,1008.4z"/>
					<path class="st6" d="M2282,930.3c-11-11-51.4-40.7-66.1-48.1c-14.7-7.4-56.5,1.9-78.8,6.4c-22.3,4.5-26.8,36.4,4.9,32.8
						c31.6-3.7,54.6-1,60.1-1s40.3,29.1,55.6,41.2C2276.9,976.7,2302.4,950.7,2282,930.3z"/>
				</g>
			</g>
			<path class="st13" d="M1988.6,1405c-1.6,1.3-1.7,3.9-0.6,5.7c1,1.8,3,2.9,4.9,3.6c5.2,1.9,10.9,1.2,16.4,1.4
				c5.5,0.2,11.6,1.5,14.9,5.9c3.8,5.1,3.7,13.8,9.7,15.8c3.6,1.2,7.4-1,10.1-3.7c2.6-2.7,4.7-6,7.8-8.1c7.3-4.9,17-1.6,25.8-1.1
				c2.8,0.2,5.7,0,8.2-1.4s4.1-4.4,3.3-7.1c-0.8-2.7-3-3.4-11.7-3.8C2068.5,1411.9,1988.6,1405,1988.6,1405z"/>
			<path class="st13" d="M2108.7,1438.3c1-0.1,2-0.4,3-0.7c1.9-0.7,3.9-1.3,5.5-2.6c2.5-1.9,3.7-7.3,0.1-8.9
				c-3.3-1.4-9.7,4.1-11.5,6.5c-0.7,1-1.4,2.4-1,3.6c0.4,1.2,1.7,2,3,2.1C2108.2,1438.3,2108.5,1438.3,2108.7,1438.3z"/>
		</g>
		<g>
			<path class="st14" d="M1021.7,1597.1c0,0,173.1,106.8,393.7,0c0,0,26.3,253.1,26.3,310.8s15.5,104.7,43.4,166.4
				c27.9,61.7,163.3,373.6,225.7,767.3c0,0-414.6,66.9-947.2-8.1c0,0,106.4-551.8,151.5-685.9c45.1-134.1,87.1-198.2,87.1-247.7
				C1002.1,1828.3,1002.1,1785.2,1021.7,1597.1z"/>
			<polygon class="st14" points="1417.7,1619.7 1437,1324.8 1427.4,1321.5 1402.6,1619.7 			"/>
			<polygon class="st14" points="1021.4,1612.7 1002.1,1317.7 1011.7,1314.4 1036.5,1612.7 			"/>
		</g>
		<g>
			<g>
				<g>
					
						<ellipse transform="matrix(0.8754 -0.4834 0.4834 0.8754 -392.833 622.1524)" class="st6" cx="1010.5" cy="1073.1" rx="46" ry="57"/>
				</g>
				<g>
					
						<ellipse transform="matrix(0.997 -7.716929e-02 7.716929e-02 0.997 -70.45 108.5142)" class="st6" cx="1368.9" cy="965.8" rx="46" ry="57"/>
				</g>
			</g>
			<g>
				<path class="st6" d="M1369.9,987.3c14.5,99.6-44.8,205.7-98.3,223.1c-41,13.3-208.2-20.2-253.5-134.3
					c-39.9-100.5-59.7-152.4-59.7-152.4c-24.1-95.4,33.1-192,127.8-215.8l48.5-12.2c94.5-23.8,177,23.3,201.3,118.5
					C1349.5,867.3,1355.4,887.7,1369.9,987.3z"/>
				<g>
					<path class="st15" d="M1099.4,1068.2c2,5.9,18.2,5.8,36-0.4c17.9-6.1,30.7-15.9,28.7-21.9c-2-5.9-18.2-5.8-36,0.4
						C1110.2,1052.5,1097.3,1062.3,1099.4,1068.2z"/>
					
						<ellipse transform="matrix(0.9457 -0.3251 0.3251 0.9457 -255.2678 481.7769)" class="st15" cx="1314.2" cy="1004.8" rx="34.2" ry="11.4"/>
				</g>
				<g>
					<path class="st16" d="M1316.9,956.7c-2.4,17.8-14.6,32.9-29.1,33.9c-14.3,1-28.7-12-34.1-29.1c4.3-16.4,11.7-33.2,24.9-37.2
						c8.9-2.7,18.6,1.3,26.4,8.1c4.4,3.8,8.4,8.5,12.1,13.5C1317.5,949.6,1317.4,953.2,1316.9,956.7z"/>
					<path class="st7" d="M1253.7,961.5c0-8.4,2.8-19.9,7.6-26.4c4.8-6.5,11.7-11,19-12.7c14.4-3.2,29.4,6.4,40,17.6l16.1-10
						l-19.3,23.9c0,0-12.4-30.1-36.2-24.5C1260.1,934.4,1253.7,961.5,1253.7,961.5z"/>
					<path class="st7" d="M1309.5,934c0,0,7-3.4,9.5-9.6c0,0-2,8.8-5.1,11.9L1309.5,934z"/>
					
						<ellipse transform="matrix(0.9908 -0.1355 0.1355 0.9908 -117.9165 183.3044)" class="st7" cx="1287.8" cy="958" rx="21.9" ry="32.1"/>
					<path class="st16" d="M1298.5,947.9c0.3,1.8-0.7,3.6-2.3,4c-1.6,0.4-3.2-0.8-3.5-2.6s0.7-3.6,2.3-4
						C1296.6,944.9,1298.2,946.1,1298.5,947.9z"/>
					
						<ellipse transform="matrix(3.466748e-02 -0.9994 0.9994 3.466748e-02 287.1987 2222.3892)" class="st16" cx="1294" cy="962.5" rx="7.7" ry="6.9"/>
				</g>
				<g>
					<path class="st16" d="M1092.7,1016.8c11,14.7,30,22.5,44.3,16.6c14.2-5.8,21.6-24.1,18.5-41.8c-12.1-12.6-27.4-24.1-41.9-21.5
						c-9.8,1.7-17.2,9.9-21.4,19.5c-2.4,5.5-3.9,11.5-5,17.7C1088.7,1010.7,1090.6,1013.9,1092.7,1016.8z"/>
					<path class="st7" d="M1155.5,991.6c-4.1-7.5-12.3-16.4-20.1-20c-7.8-3.5-16.5-4.4-24.4-2.4c-15.3,3.9-25,19.4-29.8,34.3
						l-20.2-1.4l30.1,12.3c0,0-2.8-32.6,22.8-38.7C1136.3,970.5,1155.5,991.6,1155.5,991.6z"/>
					<path class="st7" d="M1088.5,994c0,0-7.8,1.1-13.2-2.8c0,0,6.6,6.2,10.8,7.1L1088.5,994z"/>
					
						<ellipse transform="matrix(0.9697 -0.2445 0.2445 0.9697 -211.2709 305.2702)" class="st7" cx="1124.2" cy="1003.7" rx="23.7" ry="32"/>
					<path class="st16" d="M1135.3,995.5c0.4,1.8,2.2,2.9,3.9,2.5c1.7-0.4,2.8-2.2,2.4-4s-2.2-2.9-3.9-2.5
						S1134.9,993.7,1135.3,995.5z"/>
					<path class="st16" d="M1123.8,1009.5c1.1,4.4,5.5,7.2,9.8,6.1c4.3-1,7-5.4,5.9-9.8c-1.1-4.4-5.5-7.2-9.8-6.1
						C1125.3,1000.6,1122.7,1005.1,1123.8,1009.5z"/>
				</g>
				<path class="st2" d="M1267.5,906c11.5-1.7,23.2-1.8,34.9-2.5c4.1-0.2,7.9-0.6,11.5-0.5c3.9,0-15.2-6.5-27.1-6.5
					c-10.8,0-30.4,1.6-35.9,3.2c-8,2.3-16.6,9.4-19.7,17.9c-1.4,3.8,4.4,6.9,9.5,2.4C1240.7,920,1250.1,908.6,1267.5,906z"/>
				<path class="st2" d="M1110.1,949.7c-10.6,4.9-20.4,11.2-30.5,17.1c-3.5,2-6.9,3.9-9.9,5.9c-3.2,2.1,9.1-13.8,19.1-20.3
					c9-5.9,26.3-15.3,31.7-17.1c8-2.5,19-1.3,26.3,4.1c3.3,2.5,0.1,8.2-6.6,7.2C1140.2,946.6,1126.1,942.3,1110.1,949.7z"/>
				<g>
					<path class="st17" d="M1148.9,1094.3c0,0.1,15.7-3.7,24.9-8.2c22-8.4,80.3-32.2,107.4-40c10.1-1.9,25.5-8.5,25.4-8.6
						c0,0.2-13.3,29.1-16.2,44.9c-3.2,15.8-10,36.1-39.4,48c-29.3,11.3-62.3-8.2-73.5-17.9
						C1166.8,1102.5,1148.9,1094.3,1148.9,1094.3z"/>
					<path class="st18" d="M1211.7,1114.2c-15.3-2.3-20.4-4.3-33.7-11.6c-4.7-2.6-12.8-5.1-17.3-6.8c2.1-0.6,11.8-1.5,27.8-8.1
						c7.5-2.8,33.5-8.4,46.1-14c18.1-7.9,17-9,35.9-16.7c18-7.9,26.1-10.8,31.3-13.7c-4.6,8.4-22.9,36.9-29.1,46.4
						C1264.8,1103.5,1226.8,1117.2,1211.7,1114.2z"/>
					<path class="st19" d="M1278.4,1060.7c1.2-3.6,2.4-7.3,2.8-8.3c-2.8,1-7,2.9-11.1,4.7c-12.2,5.1-19.7,9.4-44.8,18.7
						c-13,4.7-29.4,8.9-36.8,11.9c-1.6,0.7-3.1,1.2-4.5,1.8c0.5,0.6,1.1,1.1,1.6,1.7c4.9,5.1,13.1,7.6,20.2,5.7
						c21.5-5.5,42.3-13.4,62.1-23.4C1272.8,1070.9,1276.7,1066.1,1278.4,1060.7z"/>
					<path class="st20" d="M1239.7,1097.5c-15,5.9-42.3,6.7-45.3,12.9c4.7,1.6,9.8,2.7,17.3,3.8c15.1,3,53-10.7,60.9-24.6
						c2-3.2,5.4-8.3,9.1-14C1269.6,1076.2,1256.2,1091.3,1239.7,1097.5z"/>
				</g>
				<path class="st21" d="M1235.9,1057.6c-0.9,0-1.8-0.4-2.4-1.1c-1-1.3-0.8-3.2,0.5-4.2c6.1-4.8,11.7-10.1,11.5-16.5
					c-0.1-3.8-2.4-7.5-4.9-11.4c-3.2-5.1-6.5-10.3-5.4-16.7c0.3-1.6,1.8-2.7,3.4-2.5c1.6,0.3,2.7,1.8,2.5,3.4
					c-0.7,4.1,1.9,8.2,4.6,12.5c2.8,4.4,5.6,8.9,5.8,14.3c0.3,9.1-6.8,15.9-13.8,21.4C1237.2,1057.4,1236.6,1057.6,1235.9,1057.6z"
					/>
			</g>
			<path class="st22" d="M1227.9,743.1c65,15.5,134.9,174.2,134.9,217c23.5-40.9-0.4-98.1-13.8-143c-13.9-46.3-68.7-169.8-172.9-149
				C1071.9,688.9,1199.1,736.3,1227.9,743.1z"/>
			<g>
				<path class="st22" d="M1355.6,932.4c2.7,41.9,0.4,82.2,2.9,124.1c2.5,41.9,11.3,87.6,33.2,124.4c18.1,30.3,46.8,51.4,69.2,47.8
					c-23.5-17.9-43.4-53-52.9-88.1c-12-44.2-10.2-97.8-11.3-141c-1.5-57.5-29.1-144.9-73-179.7
					C1323.7,819.9,1352.8,888.9,1355.6,932.4z"/>
				<path class="st22" d="M939.7,1007.9c-8.1,33.3-21.5,64.1-30.2,97.2c-8.7,33.1-12.4,70.4-1.1,103.1c9.3,27,31.4,48.7,54,50.1
					c-17.9-18.3-27.7-49.3-27.5-78.4c0.2-36.6,16.2-78.1,26.6-111.9c13.8-45.1,10.5-118.3-22.6-153.5
					C938.9,914.4,945.8,983,939.7,1007.9z"/>
				<path class="st22" d="M961.6,943.4c3.4,126,60.4,253.8,164.4,325.2c-70.4-98-106.3-220.3-100-340.8L961.6,943.4z"/>
				<path class="st22" d="M1178.4,680.9c-62.3-24.7-135.3-3.1-183.1,43c-48.3,46.6-71.9,118.4-66.7,188.3
					c4.4,60.5,29.3,119,66.6,166.6c-6.4-52.4-2.4-95.8,29-135.7c4.9-2.5,21.1-16,25.6-19.2c33.2-23.5,54.5-63.6,57.9-105.9
					c-1,37.9-14.1,75.5-38,105c40.3-0.2,80.4-16.8,109-45.2c12.8-12.6,23.2-27.6,30.9-43.8c2.5,15.6,3.1,31.5,1.6,47.1
					c32.5-23,49.8-66.9,42.7-108.2C1247,732.5,1215.9,695.7,1178.4,680.9z"/>
				<path class="st2" d="M1214.2,873.6c1.8-19.6-1.8-32.6-5.8-52.4c-18.4,53.2-74.1,81.9-128.9,96.4c34.5-31.3,40-89,24-125.5
					c3.4,70.3-34.6,107.7-77.3,143.4c-1.7,1.6-2.3,4.7-2.2,8c0.1-0.1,0.2-0.2,0.3-0.4c4.9-2.5,21.1-16,25.6-19.2
					c33.2-23.5,54.5-63.6,57.9-105.9c-1,37.9-14.1,75.5-38,105c40.3-0.2,80.4-16.8,109-45.2c12.8-12.6,23.2-27.6,30.9-43.8
					c2.5,15.6,3.1,31.5,1.6,47.1c27.8-19.7,44.6-54.9,44.3-90.5C1249.8,817.8,1245.8,858.7,1214.2,873.6z"/>
				<path class="st22" d="M987.4,755.9c-41.1,22.3-64.8,68.8-70.6,115.2c-5.9,46.4,3.6,93.3,14.7,138.8
					c11,45.5,23.8,91.1,24.7,137.8c0.7,39.2-6.6,80.2,8.7,116.2c10.2,23.9,38.7,40,53,61.7c39,59,29.5,144.1-9.2,203.1
					c22.3-7.5,61.7-42,71.1-96.8c9-52.3-0.6-88.8-19-118.2c-15.5-24.8-33-47.3-48.3-72.2c-19.4-31.7-17.6-71.5-15.1-108.6
					c3.9-58,7.8-116,11.7-174L987.4,755.9z"/>
				<path class="st22" d="M1561.7,1365.8c12.6-33.1,10.7-72-6.7-103c-25.1-45-78.7-74.8-86.3-125.7c-4.6-30.9,9.6-61.8,7.3-93
					c-4.1-55.6-57.4-93.6-80.6-144.2c-15.5-33.9-17.1-72.4-29.2-107.6c-29.4-85.3-123-147.6-220.1-116.2
					c-55.9,18.1,0.1,58.4,50.5,44.8c114.8-31,138.2,49.5,141.3,116.2c1.9,42.5,11.4,85.2,36.1,119.8c20.9,29.4,47.4,49.7,60.8,83.3
					c10.5,26.3,3.3,55.9-2.8,83.6c-6.1,27.7-10.3,58.7,4.8,82.6c18.6,29.5,58.4,36.1,86.5,56.8c34,25,49.4,73.1,34.1,113
					C1558.9,1372.7,1560.4,1369.3,1561.7,1365.8z"/>
				<path class="st2" d="M1206,838.8c-0.3,0.1-0.6,0.1-1,0.1c-1.2-0.2-2-1.3-1.8-2.5c6.1-35.8,1.2-73.6-13.8-106.6
					c-0.5-1.1,0-2.4,1.1-2.9c1.1-0.5,2.4,0,2.9,1.1c15.4,33.8,20.4,72.6,14.1,109.2C1207.4,837.9,1206.8,838.5,1206,838.8z"/>
				<path class="st2" d="M1024.5,944.7c-0.4,0.1-0.7,0.1-1.1,0c-1.2-0.3-1.9-1.4-1.6-2.6c6.3-27.1,7.5-55.9,3.5-83.4
					c-0.2-1.2,0.7-2.3,1.8-2.5c1.2-0.2,2.3,0.6,2.5,1.8c4.1,28,2.9,57.4-3.5,85C1025.8,943.9,1025.2,944.4,1024.5,944.7z"/>
				<path class="st23" d="M1142.6,713.4c-6.1,3.1-12.1,6.3-18.2,9.4c-2.2-5.9-11.3-6.8-15.5-2.4c-3.7-0.6-7.7,1.1-10.1,5.2
					c-0.1,0.2-0.2,0.3-0.3,0.5c-1-5.7-2-11.4-2.9-17c-1.4-8.5-13.7-9.5-17.2-2.4c-0.2-2.3-0.5-4.6-0.7-6.9
					c-1.3-11.1-18.8-8.4-18.1,2.6c0.5,7.2,0.7,14.5,0.9,21.7c-4-4.6-12.7-5.4-15.3,2c-3.3,9.5-2.8,18.9-2.2,28.6
					c-0.4,0.1-0.8,0.2-1.3,0.4c-2.1,0.9-4.3,2.8-5.1,4.9c-0.4,1-0.6,2.2-0.6,3.3c-4.2,2.2-8.4,4.5-12.5,6.9c-2.3-0.9-5.1-1.1-8-0.2
					c-3.8,1.1-6.7,3.8-9,7.1c-0.3-0.3-0.5-0.7-0.8-1c-2-2.5-5.3-3.5-8.4-3.1c-0.4-2.1-0.8-4.1-1.2-6.2c-1.7-9-17.5-10-18,0.4
					c-0.4,7.7-0.8,15.5-1.1,23.2c-0.3,5.8,0,12-0.8,17.8c-2.4,0.8-5.5,1.2-7.4,1.8c-11.3,3.2-4.5,19.1,6.7,15.9
					c5.3-1.5,9.5-2.8,12.5-4.8c1.2,6.2,2.4,12.4,3.6,18.7c2.1,10.8,19.8,8.4,18.1-2.6c-1.4-8.8-2.5-17.6-3.2-26.5
					c-0.1-1.3-0.3-2.7-0.4-4.1c3.7-0.1,7.6-2.2,9.1-5.4c1.4-2.9,2.7-5.9,4.1-8.8c0.4-0.8,0.8-1.7,1.2-2.5c2.2,0.3,4.6-0.2,6.8-1.6
					c5.9-3.7,11.8-7,18-10.2c0.7,3.4,1.6,6.7,2.8,9.9c2.8,7.2,8.7,13.6,17.2,14.4c2.6,0.2,5.2,0,7.6-0.8c1.3,5.1,2.6,10.2,4.3,15.2
					c3.1,9.5,18.5,4.8,17.5-4.7c-1.7-15.2-2.5-30.3-2.5-45.6c4.7,1.5,10.7-0.9,12.2-7.1c1-4.4,2.4-8.6,4-12.8
					c4.3,2.9,10.3,1.9,13.1-2.8c0.1,0,0.2-0.1,0.3-0.1c9.2-4.8,18.3-9.5,27.5-14.3C1159.6,723.9,1153,707.9,1142.6,713.4z"/>
			</g>
		</g>
		<g>
			<path class="st6" d="M1060.1,1992.5c0,0,96.2-11.3,121-10.3c0,0,9.1-59.9-19.7-77c0,0-87.5,6.6-117.8,8.2
				C1013.2,1915,1026.5,1996.2,1060.1,1992.5z"/>
			<g>
				<g>
					<path class="st24" d="M1215.7,1922.7c26.7,10.5,50.9,33.8,76.4,27.3c7.5-1.8,19.6-10.1,32-17.7c12.4-7.9,25.2-15.1,32.1-17
						c11.6-2.9,22,6.2,13.6,11.1c-8.9,5.2-25.4,17.9-42.2,30c-16.9,11.8-33.8,23.2-47.8,23c-23-0.3-57.5-0.9-77.4-20
						C1194.9,1952.2,1206,1919.1,1215.7,1922.7z"/>
					<path class="st24" d="M1201.9,1912.3c25.1,8.9,48.6,29.7,72.5,23c7.1-1.8,18-9.6,29.4-16.2c11.3-6.9,22.9-12.6,29.6-12.6
						c9.2,0.4,14.6,8.5,7.1,13.3c-9.2,5.9-22.4,16.2-35.9,25.4c-13.6,9-27.7,17.1-41,17.4c-21.8,0.4-54.7,0.5-73.6-16.4
						C1182.7,1939.9,1192.7,1909,1201.9,1912.3z"/>
				</g>
				<g>
					<g>
						<path class="st25" d="M1314.2,1938h-62.2c-50,0-90.5-40.5-90.5-90.5v-64h243.1v64C1404.7,1897.4,1364.2,1938,1314.2,1938z"/>
						<path class="st26" d="M1179.3,1783.4h-17.7v64c0,50,40.5,90.5,90.5,90.5h44.6c-28.6-7.4-55.9-22.2-75.8-41.1
							C1192.3,1865.9,1182.9,1824.3,1179.3,1783.4z"/>
						<path class="st16" d="M1346,1783.4h-23.2l1.8,116.1C1343.4,1870,1346,1853,1346,1783.4z"/>
					</g>
					<rect x="1203.4" y="1926.5" class="st25" width="159.1" height="11.5"/>
				</g>
				<path class="st6" d="M1200,1886.4c10.6-9.3,44.4-12.7,80.2-36.9c11.3-7.9,39.4-13.9,39.1,6.6c-0.2,10.1-16.8,24-33,37
					c-16.4,12.9-32.4,25.2-36.2,28.9c-3.9,3.6-15.1,10.5-26.4,17.1c-11.3,6.7-22.8,12.9-28.6,14.3c-5.7,1.3-12.2-8.2-13.7-21.6
					C1179.9,1918.4,1183.6,1900.6,1200,1886.4z"/>
				<path class="st6" d="M1236.9,1918c31.1,8.4,59.8,24.9,90.5,22.5c32-2.1,45.7,0.2,77.9,0.6c20.6,0.9,23.2,21.4,12.7,21.6
					c-38.6,0.4-71.4-0.1-104.8,0.9c-27.5,0.8-66.9,9.4-90-7.8C1214.3,1949.4,1225.5,1915.2,1236.9,1918z"/>
				<path class="st6" d="M1237.7,1924.6c26,11.5,49,37.5,74.7,37c26.6-0.2,39-5.3,66-2.9c9.3,0.7,17.8,22.9,9.2,21.7
					c-28.4-3.6-60.8,4.5-88.4,3.4c-11.3-0.3-30.4-0.1-47.6,0.8c-17.2,0.6-32.4,1.4-36.3-1.6c-3.9-3-1.4-18.5,4.1-33
					C1224.7,1935.6,1233.2,1922.6,1237.7,1924.6z"/>
				<path class="st6" d="M1194.1,1886.8c0,0-14.8,6.4-30.1,15.5c-15.4,8.9-31,20.8-35,28.5c-8.1,15.5-3,36.1,15.4,46.1
					c9.2,4.8,28.7,6.8,47.3,8.1c18.8,1.5,36.7,1.9,44,1c7.2-1.2,12.8-10.5,17.1-21.9c4.3-11.5,7.2-25.2,8.1-34.9
					c0.8-9.7-0.8-27.2-10.4-38.9C1241.1,1878.6,1222.8,1872,1194.1,1886.8z"/>
			</g>
		</g>
		<path class="st3" d="M609.5,1998.5c0,0,11.7,35.3,32.9,50.1c16.7,11.7,345.4-23.7,439.5-4.9c33.3,6.6,39.5-26.1,39.5-26.1
			l16.2-20.8l-15.2-115.7l-23.1-10.6c0,0-21.3-39.6-49.6-31.1c-42.7,12.8-254.9,15.7-315.2,21.1
			C649.1,1868,589.5,1960.9,609.5,1998.5z"/>
	</g>
	<g style="clip-path:url(#SVGID_00000023283034085685224330000015873660235757889465_);">
		<g id="raw_and_hot_pot">
			<g>
				<g>
					<path class="st27" d="M771.7,2531.4c1.4-0.7,3.1-1.1,4.7-1.3c1.7-0.1,3.3,0.1,5,0.6c3.3,1,5.8,3.3,8.9,4c3,0.8,6.3,0.5,9.3-0.3
						c1.5-0.4,3-1,4.5-1.6c1.5-0.6,2.9-1.3,4.4-1.9c-2.7,1.7-5.5,3.3-8.6,4.4c-3.1,1.1-6.6,1.5-9.9,0.6c-3.4-0.9-5.9-3.3-8.9-4.3
						C778.1,2530.5,774.7,2530.4,771.7,2531.4z"/>
					<path class="st27" d="M821.7,2560.3c-1.3-0.7-2.5-1.7-3.5-2.9c-0.9-1.2-1.6-2.6-1.9-4.1c-0.4-1.5-0.3-3.1,0-4.6
						c0.3-1.4,0.8-2.8,0.7-4.1c0-1.3-0.6-2.5-1.5-3.6c-0.9-1.1-2-2-3.1-3.1c-1-1.1-2.1-2.3-2.4-3.9c-0.3-1.5-0.1-3.2,1.1-4.1
						c-1,1.1-1,2.7-0.5,4c0.4,1.3,1.5,2.4,2.5,3.3c1.1,1,2.3,1.9,3.3,3.1c1,1.2,1.8,2.7,1.8,4.4c0,1.6-0.5,3-0.8,4.4
						c-0.4,1.4-0.4,2.7-0.2,4.1c0.2,1.4,0.7,2.7,1.5,3.9C819.5,2558.3,820.6,2559.4,821.7,2560.3z"/>
					<path class="st27" d="M805.7,2549.6c-1.3-1.3-2.5-2.7-3.3-4.4c-0.8-1.7-1.2-3.7-0.7-5.6c0.3-0.9,0.9-1.8,1.5-2.5
						c0.6-0.7,1.3-1.2,1.8-1.8c0.6-0.6,0.9-1.3,1-2.1c0.1-0.8-0.1-1.7-0.9-2.2c0.9,0.2,1.5,1.3,1.6,2.2c0.1,0.9-0.2,2-0.8,2.7
						c-1.1,1.5-2.5,2.6-2.9,4.1c-0.5,1.5-0.2,3.2,0.3,4.8C804,2546.5,804.9,2548,805.7,2549.6z"/>
					<path class="st27" d="M794.6,2544.9c0.1-2.7,0.9-5.4,2.1-7.8c1.2-2.4,2.9-4.6,5.1-6.3c-1.4,2.3-2.7,4.5-3.9,6.9
						C796.7,2540.1,795.7,2542.5,794.6,2544.9z"/>
				</g>
				<path class="st28" d="M901.2,2394.3c0,0,3.9-24.3,14.7-26c10.8-1.7,13.2-3.3,15.8-17.2c0,0,0.4,19.9-7.5,20.8
					c-7.8,0.9-10.1,5.2-14.2,16.9C905.9,2400.4,901.2,2394.3,901.2,2394.3z"/>
				<path class="st29" d="M901.5,2401.8c0,0,21.6-24.5,19.2-35.1c-4.2-18.5-1.3-36.3,6.6-50.4c0,0-21.1,24.6-19.2,38.5
					c2.9,21.8-16.9,31.9-21,36.7C883,2396.2,901.5,2401.8,901.5,2401.8z"/>
				<path class="st30" d="M802.8,2539.7c-56-38.6-73.8-86.4-50.2-134.4c10.1-19.2,24.9-32.1,44-38.4c10.8-3.6,22.9-5,36.1-4.3
					c20.3,1.1,37.9,7.2,44.5,9.7c9.6,3.7,15.8-1.6,24.3-8.9c1.6-1.4,3.3-2.8,5-4.2l25.6-22.7l-4.4,7.7c-7.5,12.4-14.5,32.4-16.2,39
					c-0.5,1.9-1,3.9-0.9,6.2c0.3,5.7,4.2,15,30.4,43.8c2.4,2.6,4.6,5.4,6.5,8.2c11.7,17.4,13.9,38.9,6.3,60.7
					c-6.4,18.2-19.4,35.7-35.7,47.9c-7.8,5.9-17.3,9.6-28.3,11.2c-25.2,3.5-51.9-5.2-65.6-10.8
					C816.2,2547.1,808.6,2543.3,802.8,2539.7L802.8,2539.7z"/>
				<path class="st28" d="M834.2,2546.8c-45.6-21.4-69.7-77.1-50.6-127.3c14.5-38.8,44.7-46.2,66.3-45.6c21.6,0.5,25-0.7,25.6-2.1
					c-7.6-2.8-24.1-8.1-42.9-9.1c-13.2-0.7-25.3,0.7-36.1,4.3c-19.1,6.3-33.9,19.2-44,38.4c-23.6,48-5.8,95.8,50.2,134.4l0.1,0.1
					c5.7,3.6,13.3,7.4,21.4,10.6c13.7,5.6,40.4,14.3,65.6,10.8c11-1.5,20.5-5.3,28.3-11.2c0.5-0.4,1-0.8,1.5-1.2
					C891,2558,859.7,2558,834.2,2546.8z"/>
				<path class="st31" d="M891.2,2381.6c0,0-36.9,13.2-61.5,53.9c-24.6,40.7-29.7,93.6-29.7,93.6s4.6-40.6,29.2-90.2
					C850.8,2399,891.2,2381.6,891.2,2381.6z"/>
				<path class="st32" d="M897.9,2390.8c0,0,2,30.7-26.2,74.7c-27.4,42.8-58,69.2-58,69.2s32.4-25.7,59.7-68.5
					C899.4,2425.2,897.9,2390.8,897.9,2390.8z"/>
				<path class="st31" d="M864,2380.7c-8.3-1.1-16.6-0.5-24.6,1.4c-8,1.8-15.6,5.1-22.3,9.5c-6.7,4.5-12.7,10-17.7,16.4
					c-5,6.3-9.1,13.4-12.7,20.6c-7.2,14.4-11.8,30.3-12,46.6c-0.1,8.1,1,16.3,3.7,24.1c2.6,7.8,6.8,15.1,12.5,21.2
					c-6-5.8-10.5-13.1-13.4-20.9c-2.9-7.8-4.2-16.2-4.3-24.4c-0.1-8.3,1.1-16.5,3.1-24.5c2-8,5-15.7,8.6-23
					c3.7-7.3,7.9-14.3,13.1-20.8c2.6-3.2,5.3-6.3,8.4-9c3-2.8,6.3-5.3,9.8-7.5c7-4.4,14.8-7.5,23-9.2c4.1-0.8,8.2-1.3,12.4-1.4
					C855.7,2379.7,859.9,2379.9,864,2380.7z"/>
				<path class="st31" d="M920.3,2419.5c2.5,3.3,4.5,7,6.3,10.8c1.7,3.8,3.1,7.7,4.2,11.7c2,8.1,2.6,16.4,1.8,24.7
					c-0.4,4.1-1.3,8.2-2.5,12.1c-1.1,4-2.7,7.8-4.4,11.5c-3.6,7.4-8.1,14.3-13,20.8c-5,6.5-10.7,12.5-17,17.8
					c-6.3,5.3-13.2,10-20.7,13.5c-7.5,3.5-15.5,6-23.8,6.8c-8.3,0.8-16.8,0-24.7-2.9c8,2.5,16.4,3.1,24.6,2c8.2-1,16-3.6,23.3-7.2
					c14.6-7.2,26.9-18.3,36.7-31.1c4.9-6.4,9.4-13.2,13-20.4c3.6-7.2,5.9-15,7-23c1-8,0.6-16.3-1.2-24.3
					C928,2434.3,924.9,2426.5,920.3,2419.5z"/>
				<path class="st31" d="M813.6,2536.1c17.8-1.7,35-6.8,50.5-15c7.8-4.1,15.1-9,21.8-14.5c6.8-5.6,13-11.8,18.5-18.6
					c-4.9,7.3-10.8,13.9-17.5,19.7c-6.7,5.8-14,10.9-21.9,15.1c-7.9,4.1-16.2,7.4-24.9,9.7C831.6,2534.8,822.6,2536,813.6,2536.1z"
					/>
				<path class="st32" d="M876.3,2386c-7.5,1.3-14.7,3.3-21.5,6.3c-6.8,3-13,7-18.5,11.9c-5.5,4.8-10.3,10.5-14.6,16.5
					c-4.3,6-8.1,12.4-11.8,18.8c3-6.8,6.4-13.5,10.6-19.7c4.1-6.3,8.9-12.1,14.6-17.1c5.7-5,12.2-9.1,19.2-11.8
					C861.2,2388.1,868.8,2386.6,876.3,2386z"/>
				<path class="st32" d="M911.7,2534.1c5.4-5.9,10.5-11.9,15.1-18.3l3.3-4.9l3-5.1c0.9-1.7,1.8-3.5,2.7-5.2
					c0.8-1.8,1.6-3.6,2.3-5.4c2.9-7.3,4.5-15.1,4.5-22.9c0.1-7.9-1.4-15.8-3.8-23.5c3.2,7.4,5.1,15.4,5.4,23.5
					c0.2,4-0.3,8.1-0.9,12.1c-0.4,2-0.9,3.9-1.4,5.9c-0.6,1.9-1.2,3.8-1.9,5.7c-3,7.5-7.1,14.4-12,20.7
					C923.2,2523,917.7,2528.8,911.7,2534.1z"/>
			</g>
			<g>
				<g>
					<path class="st27" d="M623.1,2587.8c0.8-1.4,2-2.6,3.3-3.6c1.3-1,2.9-1.7,4.5-2.2c3.3-0.9,6.7-0.3,9.6-1.3
						c3-0.9,5.6-2.9,7.7-5.2c1.1-1.2,2.1-2.4,3-3.7c1-1.3,1.8-2.6,2.8-4c-1.4,2.9-2.9,5.8-5,8.3c-2.1,2.5-4.8,4.7-8.1,5.8
						c-3.4,1.1-6.7,0.4-9.8,1C628.1,2583.6,625.2,2585.3,623.1,2587.8z"/>
					<path class="st27" d="M680.9,2585.7c-1.5,0.2-3-0.1-4.5-0.6c-1.4-0.6-2.7-1.4-3.8-2.5c-1.1-1.1-1.9-2.5-2.4-3.9
						c-0.5-1.4-0.8-2.8-1.6-3.9c-0.7-1.1-1.8-1.8-3.2-2.3c-1.3-0.5-2.8-0.7-4.3-1c-1.5-0.4-3-0.9-4.1-2c-1.1-1.1-1.8-2.7-1.2-4.1
						c-0.2,1.5,0.6,2.8,1.7,3.6c1.1,0.9,2.5,1.2,3.9,1.5c1.4,0.2,2.9,0.4,4.4,0.9c1.5,0.4,3,1.3,3.9,2.7c0.9,1.4,1.2,2.8,1.6,4.2
						c0.4,1.3,1.1,2.5,2,3.6c0.9,1.1,2.1,1.9,3.3,2.6C678,2585.2,679.4,2585.6,680.9,2585.7z"/>
					<path class="st27" d="M661.6,2585.1c-1.8-0.4-3.5-1-5.1-2c-1.6-1-3-2.5-3.5-4.4c-0.3-0.9-0.2-2,0-2.9c0.2-0.9,0.4-1.7,0.6-2.5
						c0.1-0.8,0.1-1.6-0.3-2.3c-0.3-0.7-1-1.4-2-1.3c0.9-0.3,1.9,0.3,2.5,1c0.6,0.8,0.9,1.8,0.8,2.7c-0.1,1.9-0.8,3.5-0.3,5
						c0.4,1.5,1.5,2.9,2.8,3.9C658.5,2583.4,660.1,2584.3,661.6,2585.1z"/>
					<path class="st27" d="M649.7,2587.1c-1.4-2.4-2.1-5-2.3-7.7c-0.2-2.7,0-5.5,0.9-8c0.1,2.7,0.1,5.3,0.3,7.9
						C648.9,2581.9,649.3,2584.4,649.7,2587.1z"/>
				</g>
				<path class="st28" d="M660.1,2402.8c0,0-9.6-22.6-1.3-29.8c8.3-7.2,9.5-9.8,4.3-23c0,0,10.9,16.7,4.7,21.6
					c-6.2,4.9-5.8,9.8-3.1,21.9C667.4,2405.5,660.1,2402.8,660.1,2402.8z"/>
				<path class="st29" d="M664.4,2409.1c0,0,5.3-32.2-2.4-40c-13.4-13.4-20.3-30.1-21.1-46.2c0,0-4.8,32,4.2,42.8
					c14.1,17,2.6,36,1.7,42.2S664.4,2409.1,664.4,2409.1z"/>
				<path class="st30" d="M653.9,2578.3c-68-3-108.4-34-113.9-87.3c-1.6-21.6,4.1-40.4,16.9-55.9c7.3-8.7,16.8-16.4,28.3-22.8
					c17.8-9.8,35.9-14,42.9-15.4c10.1-2,12.5-9.7,15.8-20.4c0.6-2,1.3-4.1,2-6.3l9.7-32.8l0.4,8.9c0.2,14.4,4.9,35.2,7,41.6
					c0.6,1.9,1.2,3.9,2.5,5.7c3.3,4.7,11.5,10.5,49,20.9c3.4,1,6.7,2.1,9.8,3.5c19.1,8.5,32.5,25.6,37.6,48.1
					c4.3,18.8,2.5,40.5-4.8,59.6c-3.5,9.1-9.6,17.4-18.1,24.5c-19.5,16.4-46.8,23.1-61.3,25.7
					C669.2,2577.4,660.7,2578.3,653.9,2578.3L653.9,2578.3z"/>
				<path class="st28" d="M684.3,2567.6c-50,6.1-100-28.4-110.4-81.1c-8.3-40.5,13.4-62.9,32-73.8c18.5-11,20.8-13.9,20.6-15.4
					c-7.9,1.7-24.7,5.9-41.2,15.1c-11.5,6.4-21.1,14-28.3,22.8c-12.8,15.5-18.5,34.3-16.9,55.9c5.5,53.3,45.9,84.3,113.9,87.3l0.1,0
					c6.7,0,15.2-0.8,23.8-2.3c14.5-2.6,41.9-9.3,61.3-25.7c8.5-7.1,14.6-15.4,18.1-24.5c0.2-0.6,0.4-1.2,0.7-1.8
					C738.4,2547,711.8,2563.6,684.3,2567.6z"/>
				<path class="st31" d="M644.9,2397.4c0,0-24.3,30.8-23.5,78.3c0.8,47.5,24.5,95.1,24.5,95.1s-17.7-36.8-23.1-91.9
					C619.9,2433.6,644.9,2397.4,644.9,2397.4z"/>
				<path class="st32" d="M655.4,2401.6c0,0,18,24.9,17.5,77.3c-0.5,50.9-12.4,89.5-12.4,89.5s13.8-39,14.2-89.7
					C675,2430,655.4,2401.6,655.4,2401.6z"/>
				<path class="st31" d="M621.4,2411.1c-7.6,3.4-14.3,8.4-20.1,14.2c-5.8,5.8-10.5,12.6-13.9,19.9c-3.3,7.4-5.5,15.2-6.3,23.3
					c-0.8,8-0.6,16.2,0.2,24.2c1.5,16.1,6.1,32,14.6,45.9c4.2,6.9,9.5,13.3,15.9,18.5c6.3,5.2,13.8,9.2,21.8,11.4
					c-8.2-1.7-15.9-5.6-22.5-10.6c-6.6-5.1-12.1-11.5-16.6-18.4c-4.5-6.9-7.9-14.6-10.4-22.4c-2.5-7.8-4.1-15.9-4.9-24.1
					c-0.7-8.2-0.9-16.4,0-24.6c0.5-4.1,1.2-8.1,2.3-12.1c1.1-4,2.5-7.9,4.3-11.6c3.6-7.4,8.6-14.2,14.6-20c3-2.8,6.3-5.4,9.8-7.7
					C613.9,2414.6,617.5,2412.6,621.4,2411.1z"/>
				<path class="st31" d="M689.7,2414.1c3.9,1.5,7.6,3.5,11,5.8c3.5,2.3,6.7,4.9,9.8,7.7c6,5.7,11,12.5,14.6,20
					c1.8,3.7,3.2,7.6,4.3,11.6c1.1,4,1.9,8,2.3,12.1c0.9,8.2,0.7,16.4,0,24.6c-0.8,8.2-2.4,16.2-4.9,24.1
					c-2.5,7.8-5.9,15.4-10.4,22.4c-4.5,7-10,13.3-16.6,18.4c-6.6,5.1-14.3,8.9-22.5,10.6c8.1-2.1,15.5-6.1,21.8-11.4
					c6.4-5.2,11.7-11.5,15.9-18.5c8.5-13.9,13.1-29.8,14.6-45.9c0.8-8,1-16.2,0.2-24.2c-0.8-8-3-15.9-6.3-23.3
					c-3.4-7.4-8.1-14.1-13.9-19.9C704,2422.5,697.2,2417.6,689.7,2414.1z"/>
				<path class="st31" d="M661.2,2569.5c14.2-10.9,26-24.3,34.8-39.5c4.4-7.6,8-15.6,10.8-23.9c2.8-8.3,4.8-16.9,5.9-25.6
					c-0.3,8.8-1.8,17.6-4.4,26c-2.5,8.5-6.1,16.7-10.6,24.4c-4.5,7.7-9.8,14.9-15.9,21.4C675.7,2558.9,668.7,2564.7,661.2,2569.5z"
					/>
				<path class="st32" d="M634.6,2409.1c-5.6,5-10.7,10.6-14.9,16.7c-4.1,6.1-7.3,12.9-9.4,19.9c-2.1,7-3.2,14.4-3.6,21.8
					c-0.4,7.4-0.3,14.8,0,22.3c-1.1-7.4-1.7-14.8-1.5-22.3c0.1-7.5,1.1-15,3.3-22.2c2.2-7.2,5.5-14.1,10-20.3
					C622.9,2418.8,628.5,2413.5,634.6,2409.1z"/>
				<path class="st32" d="M743.2,2515.7c1.4-7.8,2.6-15.6,3.1-23.5l0.2-5.9l-0.1-5.9c-0.1-2-0.3-3.9-0.5-5.9
					c-0.2-1.9-0.6-3.9-0.9-5.8c-1.4-7.7-4.2-15.1-8.3-21.8c-4.1-6.7-9.5-12.7-15.7-17.9c6.6,4.6,12.5,10.3,17,17.1
					c2.3,3.3,4.1,7,5.6,10.7c0.7,1.9,1.3,3.8,2,5.7c0.5,2,1,3.9,1.4,5.9c1.4,7.9,1.7,16,0.8,23.9
					C747.1,2500.3,745.4,2508.1,743.2,2515.7z"/>
			</g>
			<g>
				<path class="st33" d="M1045.5,2546.6c9.7-11,17.2-23.7,24.4-36.3c5.7-10.1,10.4-20.8,6.1-32.5c-4.4-12-14.8-22.5-23.6-31.6
					c-11.1-11.7-23.5-22.3-36.7-31.5c-10.5-7.4-21.2-13.1-34.5-11.4c-14.5,1.9-28.9,8.5-41.7,14.9c-27.9,13.9-52.7,32.7-79.2,48.9
					c-6,3.7-12.3,7.1-18.6,10.3c0-0.5-0.1-1-0.2-1.4c-0.2-3.7-6.1-4.1-5.9-0.4c0.1,1.6,0.3,3.1,0.5,4.7c-24.2,12-49.6,22.1-72.1,37
					c-23.3,15.4-46.6,37-47.9,65.3c-0.1,1.6,0.1,2.4,0.4,2.8c0,0-0.1,0-0.1-0.1c1.1,1.6,2.7,3.9,4.5,5.7c15.1,7.2,34.5,5,50.5,2.3
					c4.6-0.8,9.2-1.5,13.8-2.2c0.3,0.3,0.6,0.6,0.9,0.9c2.1,1.9,5.2,0.1,5.3-1.9c25.6-4,51.3-7.5,77.1-10.1
					c29.3-2.9,58.7-4.9,88.1-5.9c0.8,0.9,1.6,1.7,2.3,2.6c2.3,2.4,6-0.3,5-2.8c1.4,0,2.7-0.1,4.1-0.1c13.9-0.4,28.2-0.2,41.7-3.8
					C1024.2,2565.9,1036,2557.4,1045.5,2546.6z"/>
				<path class="st34" d="M746.9,2554.3c4.1-36.5,72.9-30.8,98.6-51.2c37-33.7,92.2-48.4,139.7-64.9c11.3-5.6,23.7-12.2,33.9-21.2
					c-1.1-0.8-2.3-1.6-3.4-2.4c-10.5-7.4-21.2-13.1-34.5-11.4c-14.5,1.9-28.9,8.5-41.7,14.9c-27.9,13.9-52.7,32.7-79.2,48.9
					c-6,3.7-12.3,7.1-18.6,10.3c0-0.5-0.1-1-0.2-1.4c-0.2-3.7-6.1-4.1-5.9-0.4c0.1,1.6,0.3,3.1,0.5,4.7c-24.2,12-49.6,22.1-72.1,37
					c-23.3,15.4-46.6,37-47.9,65.3c-0.1,1.6,0.1,2.4,0.4,2.8c0,0-0.1,0-0.1-0.1c1.1,1.6,2.7,3.9,4.5,5.7c15.1,7.2,34.5,5,50.5,2.3
					c3.5-0.6,7.1-1.1,10.6-1.7C762,2580.4,745.6,2566.7,746.9,2554.3z"/>
				<path class="st35" d="M942.1,2565.9c-15.2-18.7-32.1-40.4-26.9-65.7c0.3-1.6-2.2-2.5-2.6-0.8c-5.4,26.3,11.6,48.7,27.5,68.2
					C941.2,2568.9,943.2,2567.2,942.1,2565.9z"/>
				<path class="st36" d="M821.3,2543.6c-7-15.2-9.7-31.5-7.8-47.9c0.2-1.7-2.5-1.8-2.7-0.2c-1.9,16.9,0.9,33.7,8.1,49.2
					C819.6,2546.3,822,2545.1,821.3,2543.6z"/>
				<path class="st35" d="M795.9,2578.8c-7.6-11-16.4-24.4-9.7-37.7c0.7-1.5-1.5-3-2.3-1.4c-7.1,14.3,1.3,28.3,9.6,40.3
					C794.5,2581.4,796.9,2580.2,795.9,2578.8z"/>
				<path class="st35" d="M787.3,2579.3c-1.8-3.1-3.6-6.1-5.4-9.2c-0.9-1.5-3.3-0.3-2.4,1.2c1.8,3.1,3.6,6.1,5.4,9.2
					C785.8,2582,788.2,2580.8,787.3,2579.3z"/>
				<path class="st36" d="M976.3,2488.9c-10.2-20.2-12.2-43.1-5.6-64.5c0.5-1.6-2.1-2.4-2.6-0.8c-6.7,22-4.7,45.7,5.8,66.5
					C974.7,2491.6,977.1,2490.4,976.3,2488.9z"/>
				<path class="st36" d="M961.1,2436.4c-0.9-4-0.8-8,0.5-11.8c0.5-1.6-2-2.4-2.6-0.8c-1.4,4.2-1.6,8.7-0.6,13.1
					C958.9,2438.6,961.5,2438,961.1,2436.4z"/>
				<g>
					<g>
						<path class="st37" d="M1082.2,2339.3c1.6-0.3,3.5,0.9,5.3,3.3c0.9,1.2,1.9,2.7,2.8,4.5c0.5,0.9,1,1.9,1.4,2.9
							c0.4,1,0.9,2.1,1.3,3.3c0.8,2.3,1.7,4.9,2.4,7.7c0.7,2.8,1.3,5.9,1.8,9.1c0.5,3.2,0.7,6.7,1,10.3c0.2,3.6,0,7.4-0.1,11.2
							c-0.7,7.7-2.8,17.6-7.2,27.3c-4.3,9.7-10.9,18.9-17.9,25.9c-7,7-14.1,12.1-19.3,15.6c-2.6,1.7-4.8,2.9-6.3,3.8
							c-1.5,0.9-2.3,1.4-2.3,1.4s0.6-0.8,1.6-2.1c1-1.4,2.6-3.3,4.4-5.8c3.5-4.9,8.1-11.9,12-19.8c3.9-7.9,6.8-16.8,8.3-25.3
							c1.6-8.5,1.9-16.6,2.5-23.1c0.9-12.9,1.2-25.2,2.1-34.4c0.1-1.2,0.3-2.3,0.5-3.3c0.1-1.1,0.3-2,0.4-3c0.3-1.9,0.8-3.5,1.3-4.9
							C1079.2,2341.2,1080.5,2339.6,1082.2,2339.3z"/>
						<path class="st37" d="M1264.7,2350.8c-5.3,10.7-12,21.4-20.1,31.6c-8.1,10.2-17.4,19.8-27.4,28.7
							c-10.1,8.8-21.1,16.9-32.1,23.9c-11.1,7-22.4,13.1-33.4,18.3c-22.1,10.5-42.9,17.6-59.9,22.5c-17,4.9-30.1,7.5-37.4,8
							c-13.8,0.9-22.8-5.6-19.1-17.3c1.8-5.8,6.9-12.9,16.1-21.1c9.1-8.2,22.3-17.2,39.7-27.7c17.4-10.5,33.6-20.2,48.6-29.6
							c7.4-4.7,14.7-9.4,21.5-14c3.5-2.2,6.7-4.6,10-6.9c1.6-1.2,3.2-2.3,4.8-3.5c1.6-1.1,3.2-2.3,4.7-3.4
							c25-18.3,45.2-36.8,61.4-54.4c4.1-4.4,7.5-8.6,10.9-12.2c1.5-1.8,3-3.6,4.5-5.1c1.5-1.6,2.9-3,4.1-4.2c5-5,9.3-7.3,12.5-5.2
							c1.6,1,2.9,3.2,3.9,6.6c0.5,1.7,1,3.7,1.1,6.1c0.2,2.3,0.3,5,0.2,8c-0.2,6-1.2,13.3-3.4,21.9c-0.5,2.2-1.2,4.3-1.9,6.6
							c-0.7,2.3-1.5,4.7-2.4,7.1C1269.5,2340.3,1267.4,2345.6,1264.7,2350.8z"/>
						<path class="st37" d="M1206.6,2496c0-2-0.3-3.9-0.8-5.3c-0.5-1.4-1.1-2.2-1.8-2.9c-0.7-0.7-1.7-1.5-3.5-2.6
							c-1.8-1-4.3-2.1-7.2-3.2c-3-1-6.4-2-10.3-3c-1.9-0.5-3.8-1-5.6-1.4c-1.9-0.4-3.8-0.9-5.7-1.3c-7.5-1.6-15.1-2.8-22.4-3.7
							c-7.3-0.9-14.4-1.4-21.1-1.7c-3.3-0.2-6.6-0.1-9.7-0.2c-3.1,0-6.1,0-8.9,0.1c-11.2,0.3-20,0.9-24.8,0.8
							c-4.6-0.2-8.2-1.2-10.5-3.3c-2.2-2-3-5-1.2-8.7c1.7-3.7,6-8.3,13.9-12.8c7.9-4.5,19.5-9,35.7-11.6c8.1-1.2,16.2-1.8,24.1-1.9
							c7.9,0,15.8,0.5,23.3,1.6c3.8,0.5,7.5,1.2,11.2,1.9c3.6,0.8,7.3,1.6,10.7,2.7c6.8,1.9,14.3,4.4,21.6,8.3
							c3.7,2,7.4,4.3,10.8,7.3c3.5,2.9,6.7,6.4,9.3,10.4c2.6,3.9,4.5,8.4,5.5,12.6c1,4.3,1.3,8.3,1,12.1
							c-1.2,15.1-9.3,25.5-16.7,31.7c-3.8,3.2-7.4,5.4-10.6,7.1c-3.2,1.7-6.1,2.8-8.5,3.5c-4.8,1.3-7.9,1-8.9-1.3
							c-1-2.3,0.4-6.5,3.6-12.7c1.5-3.1,3.4-6.7,5-10.6c0.8-1.9,1.5-4,1.9-6C1206.3,2500.2,1206.6,2498.1,1206.6,2496z"/>
						<path class="st37" d="M1142.8,2346.8c-5.8,18.4-13.5,42.4-23.3,63.4c-4.9,10.4-10.5,20-15.9,27.2c-2.8,3.6-5.3,6.8-7.8,9.1
							c-2.5,2.4-4.3,4.3-6.1,5.3c-3.2,2-6.1,2.7-8.4,2.1c-2.3-0.6-3.8-2.5-4.5-5.6c-0.3-1.5-0.4-3.3-0.2-5.4c0.1-1,0.3-2.1,0.5-3.3
							c0.2-1.2,0.4-2.5,0.7-3.9c0.3-1.4,0.7-2.8,1.1-4.3c0.4-1.6,0.8-3.3,1.4-5c0.3-0.9,0.6-1.8,0.9-2.7c0.3-0.9,0.6-1.9,0.9-2.9
							c0.6-2,1.4-4.1,2.1-6.4c3-9.1,5.9-18.1,9.1-26.7c3.2-8.7,6.6-17,10.4-24.8c7.5-15.5,16.7-28.8,26.2-37.7
							c2.4-2.2,4.7-4.1,6.7-5.6c2.1-1.5,4.1-2.5,5.7-3.2c3.3-1.4,5.6-1.3,6.7,0.2c1.1,1.6,1.1,4.7-0.1,9.4c-0.6,2.4-1.3,5.4-2.4,8.7
							c-0.5,1.7-1.1,3.6-1.7,5.6C1144.2,2342.3,1143.5,2344.4,1142.8,2346.8z"/>
						<path class="st37" d="M1121.8,2493.7c-13.3-2.7-29.7-5.9-44.2-7.7c-14.5-1.9-27-2.4-31.5-3.4c-4.3-0.9-6.8-3.8-4.6-7.2
							c2.2-3.3,9.3-7.7,24.2-9.2c14.9-1.5,29.1,0.3,40.9,3.9c11.9,3.5,21.6,8.8,28.6,14.2c1.7,1.4,3.2,2.6,4.5,3.8
							c1.2,1.2,2.2,2.3,2.9,3.3c1.4,2,1.7,3.4,0.8,4.3C1141.7,2497.4,1135.1,2496.3,1121.8,2493.7z"/>
					</g>
					<path class="st38" d="M1079.7,2351c3.3-11,5.9-8.8,9.4-6c-0.5-0.9-1.1-1.7-1.6-2.4c-1.9-2.4-3.7-3.6-5.3-3.3
						c-1.6,0.3-3,2-4,4.7c-0.5,1.4-0.9,3-1.3,4.9c-0.2,0.9-0.3,1.9-0.4,3c-0.2,1.1-0.3,2.2-0.5,3.3c-0.9,9.2-1.2,21.5-2.1,34.4
						c-0.6,6.4-0.9,14.6-2.5,23.1c-1.3,7.4-3.7,15.2-6.9,22.3c-5.1,3.7-9.6,7.2-13.3,10.6c-8.5,7.6-13.5,14.3-15.6,19.9
						c17.5-15.6,26.2-25.1,31.3-27.8C1080.4,2430.3,1077.9,2357.1,1079.7,2351z"/>
					<path class="st38" d="M1223.5,2522.1c7.4-6.2,15.5-16.6,16.7-31.7c0.3-3.8,0-7.9-1-12.1c-1-4.2-2.9-8.7-5.5-12.6
						c-2.6-4-5.8-7.5-9.3-10.4c-3.5-2.9-7.1-5.3-10.8-7.3c-7.3-3.9-14.8-6.4-21.6-8.3c-0.6-0.2-1.3-0.3-2-0.5
						c-0.9,1.1,65.3,26.7,39.6,67.6c-6.2,12.8-19.5,20.7-34.3,24c0,0.2,0.1,0.5,0.2,0.7c0.9,2.3,4,2.6,8.9,1.3
						c2.4-0.7,5.3-1.8,8.5-3.5C1216.1,2527.5,1219.7,2525.3,1223.5,2522.1z"/>
					<path class="st38" d="M1257.2,2288.7c-1.5,1.6-3,3.3-4.5,5.1c-3.4,3.6-6.8,7.8-10.9,12.2c-16.1,17.6-36.4,36.1-61.4,54.4
						c-1.5,1.2-3.1,2.3-4.7,3.4c-1.6,1.1-3.2,2.3-4.8,3.5c-3.3,2.2-6.5,4.6-10,6.9c-6.7,4.6-14,9.2-21.5,14
						c-4.6,2.9-9.4,5.9-14.3,8.9c1.3-3.1,2.5-6.2,3.7-9.3c-5.7,6.5-10.9,13.3-13.7,21c49.9-31.5,100.6-66,138.3-113.2
						c6.5-7.4,17.4-9.6,25.4-5.1c-0.2-1.7-0.6-3.2-1-4.6c-1-3.4-2.3-5.5-3.9-6.6c-3.2-2.1-7.5,0.1-12.5,5.2
						C1260.1,2285.7,1258.7,2287.1,1257.2,2288.7z"/>
				</g>
			</g>
			<g>
				<g>
					<path class="st39" d="M544.2,2493.8c0,52.9-58.5,95.8-111.7,95.8c-51.5,0-111.6-42.9-111.6-95.9c0-28,8.6-65.1,30.9-82.6
						c19.8-15.5,43.5-19.7,80.7-13.2c9.4,1.6,27.4-2.8,44.4,0.4c17,3.1,33,13.9,43.2,23.1C539,2438.6,544.2,2468.3,544.2,2493.8z"/>
					<g>
						<path class="st40" d="M458.4,2416.6c0,0-13.1-19.4-20.9-11.4c-3.6,3.7,7.3,5.1,14.3,10.8
							C461,2423.4,464.1,2423.8,458.4,2416.6z"/>
						<path class="st40" d="M405.5,2403.9c0,0,23.8-9.5,34.4,2.6c4.9,5.6-12.2,0.1-24,0.9C400.2,2408.5,395.3,2406.9,405.5,2403.9z"
							/>
						<g>
							<path class="st41" d="M447.4,2362.6c2.3,4.4-7.7,5.4-8.2,9.4c-2.6,22.1,0.5,35.2,0.5,35.2l-7.6,0c0,0,1.8-27.8,0.5-35.2
								c-0.6-3.5-2.4-7.3-2.9-9.4s6.8-8.5,9.1-8.5s4.1,4.1,7.1,7.6L447.4,2362.6z"/>
							<path class="st41" d="M437.7,2408.1c-0.4-1.2-8.9-8.9-17.2-13.8c-8.3-4.9-3.2-16.4-5.1-21.5c-2-5.1-2.6-18.6-2.6-18.6
								s-0.4,22.5,0,30.1c0.4,7.5,1.3,15.2,6,19C423.6,2406.9,437.7,2408.1,437.7,2408.1z"/>
							<path class="st41" d="M432.9,2403.5c0,0,1.7-13.8,11.4-17.3c9.7-3.6,11.7-8.3,13.6-13.2c5.6-14.3,58.8-20.4,58.8-20.4
								s-51.7,14.4-58.6,34.1c-2.6,7.3-14.3,17.4-18.3,20.5C435.7,2410.3,432.9,2403.5,432.9,2403.5z"/>
							<path class="st41" d="M438.3,2401.2c0,0,32.8-7.3,54.9,11c0,0-24.1-13.3-54.2-6.2C435.7,2406.4,436.7,2401.5,438.3,2401.2z"
								/>
						</g>
					</g>
				</g>
			</g>
			<g>
				<g>
					
						<image style="overflow:visible;" width="95" height="73" xlink:href="CA6FE6D4FDF5DFE1.png"  transform="matrix(1 0 0 1 1633 2539)">
					</image>
					
						<image style="overflow:visible;" width="95" height="73" xlink:href="CA6FE6D4FDF5DFE3.png"  transform="matrix(1 0 0 1 1927 2539)">
					</image>
					<g>
						<path class="st42" d="M1834,2541.6c-6.2,13.1,10.7,27.7,2.3,40.4c-3.3,5-10.3,9-18.1,11.8c-10.2,3.6-22,5.5-33.2,7.9
							c-6.7-4.7-7.7-11.6-5.1-17.5c2.6-5.9,8.5-11.2,14.6-16.2c11.9-9.7,25.2-18.7,39.8-27C1834.3,2541.1,1834.1,2541.3,1834,2541.6
							z"/>
					</g>
					
						<image style="overflow:visible;" width="141" height="74" xlink:href="CA6FE6D4FDF5DFE6.png"  transform="matrix(1 0 0 1 1490 2505)">
					</image>
					<g>
						<path class="st42" d="M1485.3,2531.3c13.8,10.9,7,28.1,22.7,38.2c6.2,4,15.1,6.2,24.1,7.1c11.8,1.2,24,0.5,35.8,0.3
							c3.3-5.8,0.1-12.4-6-17.4c-6.1-5-14.8-8.6-23.6-12c-17-6.5-35-12.1-53.7-16.8C1484.8,2530.9,1485.1,2531.1,1485.3,2531.3z"/>
					</g>
				</g>
				<g>
					<g>
						<path class="st10" d="M1972.7,2544.9h-442.1c-34.6,0-62.7-28.1-62.7-62.7v-348.5h567.5v348.5
							C2035.4,2516.8,2007.3,2544.9,1972.7,2544.9z"/>
						<rect x="1614.2" y="2133.7" class="st43" width="149.4" height="411.2"/>
						<rect x="1851.4" y="2133.7" class="st12" width="48.6" height="411.2"/>
						
							<image style="overflow:visible;" width="568" height="46" xlink:href="CA6FE6D4FDF5DFE7.png"  transform="matrix(1 0 0 1 1468 2133)">
						</image>
						<g>
							<path class="st7" d="M2054.3,2245.7h-19.1v-84.1h33.6c9.8,0,16.9,8.9,14.5,18.1l-14.4,55
								C2067.1,2241.2,2061.1,2245.7,2054.3,2245.7z"/>
							<path class="st7" d="M1448.8,2245.7h19.1v-84.1h-33.6c-9.8,0-16.9,8.9-14.5,18.1l14.4,55
								C1436,2241.2,1442,2245.7,1448.8,2245.7z"/>
						</g>
					</g>
					<g>
						<g>
							<path class="st13" d="M1523.6,2135.5c63.3-47.3,158.3-57.6,229-26c7.5-6.6,17.4-11.2,27.9-12.8c11.6-1.7,23.9,0.2,34.1,5.2
								c26.8-12.7,58.6-17.5,88.8-13.3c34.9,4.9,67.3,21.8,88.5,46.2L1523.6,2135.5z"/>
							<path class="st13" d="M1973.1,2097.7c0,3.4-2.8,6.2-6.2,6.2s-6.2-2.8-6.2-6.2c0-3.4,2.8-6.2,6.2-6.2
								S1973.1,2094.3,1973.1,2097.7z"/>
							<path class="st44" d="M1919,2101.9c0,2.3-2,4.1-4.5,4.1s-4.6-1.8-4.6-4.1c0-2.3,2-4.1,4.5-4.1
								C1917,2097.8,1919,2099.6,1919,2101.9z"/>
							
								<ellipse transform="matrix(1 -1.295462e-03 1.295462e-03 1 -2.7016 2.2439)" class="st13" cx="1730.7" cy="2086.6" rx="11.5" ry="10.4"/>
							<path class="st44" d="M1662.5,2102.8c0,1.7-1.6,3.1-3.5,3.1c-1.9,0-3.5-1.4-3.5-3.1c0-1.7,1.6-3.1,3.5-3.1
								C1661,2099.7,1662.5,2101.1,1662.5,2102.8z"/>
							<path class="st44" d="M1606.6,2111.1c0,4.1-3.7,7.4-8.2,7.4s-8.2-3.3-8.2-7.4c0-4.1,3.7-7.4,8.2-7.4
								C1602.9,2103.7,1606.6,2107,1606.6,2111.1z"/>
						</g>
						<g>
							<path class="st45" d="M2045.1,2141.3c0,12.4-130.2,22.6-290.8,22.8c-160.6,0.2-290.8-9.7-290.9-22.1c0-0.4-0.3-4.8,0-5.2
								c8.6-11.8,135.7-17.4,290.8-17.6c152.9-0.2,278.8,5,290.6,16.6C2045.4,2136.4,2045.1,2140.7,2045.1,2141.3z"/>
							<path class="st13" d="M2045.1,2136.3c0,10.1-130.2,18.5-290.8,18.7s-290.8-7.8-290.9-17.9c0-10.1,130.1-19.7,290.8-19.9
								C1914.8,2116.9,2045.1,2126.2,2045.1,2136.3z"/>
						</g>
						
							<ellipse transform="matrix(1 -1.299542e-03 1.299542e-03 1 -2.7457 2.4539)" class="st46" cx="1886.9" cy="2114.1" rx="38.6" ry="7.9"/>
						
							<ellipse transform="matrix(1 -1.299544e-03 1.299544e-03 1 -2.7488 2.1651)" class="st46" cx="1664.6" cy="2116.3" rx="38.6" ry="7.9"/>
						<path class="st47" d="M1955,2130.9c-4-0.1-8-0.2-12-0.5c-4.2-0.3-8.5-0.7-12.7-1.1c-9.2-0.8-18.5-1.6-27.8-1.5
							c-7.3,0.1-15,0.7-21.7,3.6c1,0.5,2,0.9,3,1.2c7.6,2.6,15.9,2.9,23.9,2.9c7.8,0,15.7-0.6,23.5-0.6c22-0.1,43.9-1.8,65.8-3.2
							c10.7-0.7,21.4-1.2,32.1-1.4c-4.8-0.9-10.7-1.7-17.5-2.5c-7.6,1.8-15.4,2.8-23.3,3.2C1977.3,2131.7,1966.1,2131.3,1955,2130.9
							z"/>
						<path class="st47" d="M1790.6,2148.6c-6.7,0.7-13.6,0.8-19.9,3.1c2,1.4,4.4,2.4,6.9,3.2c25.2-0.2,49.4-0.5,72.3-1
							c-4.2-1.7-8.9-2.3-13.4-3c-5.2-0.9-10.8-2-14.5-5.7c-0.5-0.5-0.4-1.5,0.5-1.6c8.4-1.2,16.9-0.6,25.4-0.5
							c6.6,0.1,13.4,0.1,19.8-1.3c-6.3-0.6-12.7-0.7-19-0.6c-7,0.1-14.1,0.4-21.1,0.5c-5.4,0-10.8-0.3-16.2-0.5
							c-5.7-0.2-11.4-0.4-17.1,0c-4.2,0.3-8.6,0.9-12.5,2.4c3.1,1,5.9,2.3,9.1,3.1C1792.2,2147,1791.7,2148.5,1790.6,2148.6z"/>
						<g>
							<polygon class="st48" points="1835,2117.7 1842.6,2112.1 1847.5,2117.7 							"/>
							<polygon class="st48" points="1801.1,2112.8 1792.1,2105.9 1791.4,2110.9 							"/>
							<polygon class="st48" points="1857.5,2150.3 1863,2142.8 1863.7,2148.4 							"/>
							<polygon class="st48" points="1765.9,2128.8 1756.9,2128.8 1756.2,2131.3 1765.2,2133.1 							"/>
							<polygon class="st48" points="1684.4,2116.9 1692.7,2109.6 1696.2,2113 1696.2,2118.3 							"/>
							<polygon class="st48" points="1559.1,2126.6 1572.2,2125.9 1561.2,2131.6 							"/>
							<polygon class="st48" points="1718.1,2124.1 1725.8,2127.9 1729.2,2122.2 							"/>
						</g>
					</g>
				</g>
				<g>
					<rect x="1714.4" y="2536.5" class="st7" width="74.2" height="42.6"/>
					<polygon class="st7" points="1957.1,2536.5 1863.6,2536.5 1893.8,2579.1 1957.1,2579.1 					"/>
					<polygon class="st7" points="1546,2536.5 1639.5,2536.5 1609.3,2579.1 1546,2579.1 					"/>
				</g>
				<g>
					
						<image style="overflow:visible;" width="104" height="223" xlink:href="CA6FE6D4FDF5DFE2.png"  transform="matrix(1 0 0 1 1667 2361)">
					</image>
					<g>
						<path class="st49" d="M1789.1,2480.8c-6.2,22.3,10.7,47.2,2.3,68.9c-3.3,8.6-10.3,15.3-18.1,20.1c-10.2,6.2-22,9.4-33.2,13.4
							c-6.7-8.1-7.7-19.7-5.1-29.8c2.6-10.1,8.5-19.1,14.6-27.6c11.9-16.5,25.2-31.9,39.8-46.1
							C1789.3,2480.1,1789.2,2480.5,1789.1,2480.8z"/>
					</g>
					
						<image style="overflow:visible;" width="140" height="126" xlink:href="CA6FE6D4FDF5DFED.png"  transform="matrix(1 0 0 1 1520 2456)">
					</image>
					
						<image style="overflow:visible;" width="128" height="176" xlink:href="CA6FE6D4FDF5DFEE.png"  transform="matrix(1 0 0 1 1806 2408)">
					</image>
					<g>
						<path class="st49" d="M1514.6,2500.8c13.8,18.6,7,47.9,22.7,65.1c6.2,6.8,15.1,10.6,24.1,12.2c11.8,2.1,24,0.8,35.8,0.6
							c3.3-9.9,0.1-21.2-6-29.7c-6.1-8.5-14.8-14.7-23.6-20.4c-17-11.1-35-20.6-53.7-28.6
							C1514.1,2500.2,1514.3,2500.5,1514.6,2500.8z"/>
					</g>
				</g>
			</g>
			<g>
				<g>
					<path class="st25" d="M2373,2573.2h-62.2c-50,0-90.5-40.5-90.5-90.5v-64h243.1v64C2463.5,2532.7,2423,2573.2,2373,2573.2z"/>
					<path class="st26" d="M2238.1,2418.7h-17.7v64c0,50,40.5,90.5,90.5,90.5h44.6c-28.6-7.4-55.9-22.2-75.8-41.1
						C2251.1,2501.1,2241.7,2459.5,2238.1,2418.7z"/>
					<path class="st16" d="M2404.8,2418.7h-23.2l1.8,116.1C2402.2,2505.2,2404.8,2488.2,2404.8,2418.7z"/>
				</g>
				<rect x="2262.2" y="2561.7" class="st25" width="159.1" height="11.5"/>
			</g>
			<g>
				<path class="st50" d="M2056.9,1737.2c-29-35-79.7-50.6-124-38.9c-48.4,12.8-86.6,55.8-97,104.8c-3.5,16.5-4.2,33.7-9.4,49.7
					c-5.3,16.1-16.5,31.6-32.9,35.7c-14.9,3.7-34.6-0.8-42.5,12.3c-12.2,20.5,26.6,39.4,24.4,63.2c-2.1,23.8-39.3,25.1-52,45.3
					c-6.9,10.9-4.7,25.5,2.1,36.7c1.2-3.5,2.8-7,4.6-10.2c10.9-19.1,32.2-31.8,54.2-32.3c13.1-0.3,26.4,3.4,39.3,0.9
					s25.4-15.4,20.7-27.6c-3.4-8.9-14-12.9-19.3-20.8c-8.5-12.5-0.2-30.8,13-38.2c13.2-7.4,29.3-6.8,44.4-5.8
					c56.9,3.9,120.9,9.7,164-27.6c37.8-32.8,44.9-94.5,18-136.7C2062.2,1744,2059.7,1740.5,2056.9,1737.2z"/>
			</g>
		</g>
		<g id="desk">
			<rect x="232.7" y="2686.2" class="st51" width="2496.7" height="313.8"/>
			<rect x="232.7" y="2686.2" class="st52" width="2496.7" height="114.3"/>
			<path class="st51" d="M179.4,2722.8h2603.3c20.6,0,37.3-16.7,37.3-37.3v-75.5c0-20.6-16.7-37.3-37.3-37.3H179.4
				c-20.6,0-37.3,16.7-37.3,37.3v75.5C142.1,2706.1,158.8,2722.8,179.4,2722.8z"/>
		</g>
	</g>
</g>
</svg>
