<?xml version="1.0" encoding="utf-8"?>
<!-- Generator: Adobe Illustrator 25.4.0, SVG Export Plug-In . SVG Version: 6.00 Build 0)  -->
<svg version="1.1" xmlns="http://www.w3.org/2000/svg" xmlns:xlink="http://www.w3.org/1999/xlink" x="0px" y="0px"
	 viewBox="0 0 500 500" style="enable-background:new 0 0 500 500;" xml:space="preserve">
<style type="text/css">
	.st0{fill:#8EAAD8;}
	.st1{opacity:0.31;}
	.st2{fill:#393169;}
	.st3{fill:#549D97;}
	.st4{opacity:0.61;}
	.st5{fill:#8ED2CE;}
	.st6{fill:#A8DBDB;}
	.st7{fill:#FABC9E;}
	.st8{fill:#E84B56;}
	.st9{fill:#D98D71;}
	.st10{fill:#F6946D;}
	.st11{opacity:0.37;}
	.st12{fill:#F38075;}
	.st13{fill:#728EC8;}
</style>
<g id="BACKGROUND">
</g>
<g id="OBJECTS">
	<g>
		<g>
			<path class="st0" d="M382.7,122.9c0,0-11.9-39.7-50-37.3s-49.2,34.1-49.2,34.1s-22.2-2.4-28.6,15.1c0,0-38.9,7.1-27,9.5
				c11.9,2.4,215.9,0,215.9,0s0-6.3-30.2-8.7C413.7,135.6,406.5,118.9,382.7,122.9z"/>
		</g>
		<g class="st1">
			<path class="st0" d="M309.3,103.4c0,0-8.2-27.2-34.3-25.6c-26.1,1.6-33.8,23.4-33.8,23.4s-15.3-1.6-19.6,10.3
				c0,0-26.7,4.9-18.5,6.5c8.2,1.6,148.2,0,148.2,0s0-4.4-20.7-6C330.6,112.1,325.7,100.7,309.3,103.4z"/>
		</g>
		<g class="st1">
			<path class="st0" d="M407.8,206c0,0-7-27.2-29.5-25.6c-22.5,1.6-29,23.4-29,23.4s-13.1-1.6-16.8,10.3c0,0-22.9,4.9-15.9,6.5
				c7,1.6,127.2,0,127.2,0s0-4.4-17.8-6C426,214.8,421.8,203.3,407.8,206z"/>
		</g>
		<g>
			<path class="st2" d="M39.8,389.5c0,0-16.1-54.2-1.9-58.1c14.2-3.9,14.5,41.6,14.5,41.6s-0.3-73,12.6-70.4
				c12.9,2.6,3.9,68.4,3.9,68.4s5.2-52.9,19.4-54.2c14.2-1.3-1.9,61-1.9,61s5.8-35.7,18.4-32.9c19.9,4.4-5.8,71.3-5.8,71.3H34.6
				c0,0-23.8-52.9-10.9-52.9C36.6,363.4,39.8,389.5,39.8,389.5z"/>
		</g>
		<g>
			<path class="st3" d="M280.9,363.3c0,0-12.2-41-1.5-44c10.7-2.9,11,31.5,11,31.5s-0.2-55.2,9.5-53.2c9.8,2,2.9,51.8,2.9,51.8
				s3.9-40.1,14.7-41s-1.5,46.2-1.5,46.2s4.4-27,13.9-24.9c15,3.3-4.4,54-4.4,54h-48.7c0,0-18-40.1-8.2-40.1
				C278.5,343.5,280.9,363.3,280.9,363.3z"/>
		</g>
		<g>
			<path class="st3" d="M438.8,400.6c0,0-9.2-31-1.1-33.2c8.1-2.2,8.3,23.8,8.3,23.8s-0.2-41.6,7.2-40.2c7.4,1.5,2.2,39.1,2.2,39.1
				s2.9-30.2,11.1-31s-1.1,34.8-1.1,34.8s3.3-20.4,10.5-18.8c11.3,2.5-3.3,40.7-3.3,40.7h-36.7c0,0-13.6-30.2-6.2-30.2
				S438.8,400.6,438.8,400.6z"/>
		</g>
		<g class="st4">
			<path class="st5" d="M469,412.7c0,0-134.1-113-290.8,3.8H475L469,412.7z"/>
		</g>
		<g>
			<path class="st6" d="M386.7,411.9c0,0-163.7-138-355,4.6h362.4L386.7,411.9z"/>
		</g>
		<g>
			<path class="st7" d="M241.8,245.7l8.3-0.6c0,4.9,4.2,6.4,4.2,6.4l1.5-6.8l-2.6-5.3l-11.3-1.9"/>
		</g>
		<g>
			<path class="st2" d="M417.2,351.3c-96.5-14.2-162.6-83.9-163.3-84.6l1.3-1.2c0.7,0.7,66.3,69.9,162.2,84.1L417.2,351.3z"/>
		</g>
		<g>
			<g>
				<path class="st8" d="M453.4,375.9c0.8,1.2,8.6,7.2,5.3,8.4c-3.2,1.2-8.9-7.2-8.9-7.2L453.4,375.9z"/>
			</g>
			<g>
				<path class="st9" d="M426,386.1l3.5,12.6l15,19.5c0.7,1,1.8,1.7,3,1.8c1.7,0.2,4.5,1.1,5.9,4.8h-15.6l-9.6-4.8l-19.6-18
					l-0.8-13.2C407.7,388.7,426.6,385.5,426,386.1z"/>
			</g>
			<g>
				<path class="st9" d="M364.1,388.2l-6.4,16l2.2,11.7c0.2,1.2,1.1,2.3,2.3,2.8c1.5,0.7,3.6,2.1,4.6,5.3h-12.3l-8.6-14.4
					l-10.7-12.3l21.9-25.1L364.1,388.2z"/>
			</g>
			<g>
				<path class="st7" d="M344.8,362.7c0,0-20.7-13.5-37.3-4.5c-16.6,9-15.1,19.6-24.5,21.6c-9.4,2-2.4,6.7-2.4,6.7
					s18.2,9.3,29.9,0.3s8.3-24,33.1-10.5L344.8,362.7z"/>
			</g>
			<g>
				<path class="st7" d="M455.3,364.2l0.7-4.3c0,0-0.5-10.2-9.6-11.8l-97.8,7.5c0,0-17.6,3.2-21.9,29.4
					c-4.3,26.2-11.2,26.2-11.2,26.2l-2.1,13.9h12.9c0,0,0.1-2.6-3-4.3c-1-0.5-1.1-1.9-0.2-2.5c7.1-5.2,28.6-21.2,30.4-24.7
					c2.1-4.3,9.1-5.9,12.8-2.1c3.7,3.7,18.7,14.4,26.2,14.4c0,0-3.5,14.6,2.3,19.4h16.6c0,0-1.4-3.5-5-4.5c-1-0.3-1.4-1.4-0.9-2.3
					l14.2-27.1c0,0,7.5-2.7,10.7-3.7c3.2-1.1,5.9-9.1,7.5-8c1.6,1.1,2.7,3.2,6.9,2.1c4.3-1.1,8-2.7,8-2.7l9.6-0.2
					c1.8,0,3.5-0.9,4.6-2.4l0.7-1c0.6-1,0.3-2.4-0.7-3L455.3,364.2z"/>
			</g>
			<g>
				<circle class="st2" cx="448.7" cy="362.7" r="1.6"/>
			</g>
			<g>
				<path class="st2" d="M466.2,377.6c0,0,1-0.9,1.3-1.4c0.8-1.1,1.3-2-0.6-3.5c-1.9-1.5-3.2-2.4-3.2-2.4S460.5,375.5,466.2,377.6z"
					/>
			</g>
			<g>
				<path class="st2" d="M413.2,351.1c-0.7,5.4-2.6,27.9,13.5,39c0.7,0.5,1.7,0.4,2.2-0.2l4.1-4.2c0.7-0.7,0.6-1.9-0.2-2.6
					c-3.4-2.6-10.7-10.7-10-32.1c0-0.8-0.7-1.6-1.5-1.5l-6.8,0.4C413.9,349.9,413.3,350.4,413.2,351.1z"/>
			</g>
			<g>
				<path class="st7" d="M427.5,353.2c0,0-3.8,4.8-2.3,10.1c0.9,3.1-7,2.7-7,9.1c0,6.4,14,7.2,18.4,2.4c4.4-4.8,5.7-13.7,1.7-20.6"
					/>
			</g>
			<g>
				<path class="st10" d="M427.5,378.4c-2,0-4.1-0.3-5.7-1c-2.7-1.1-4.2-2.9-4.2-5.1c0-4,2.9-5.6,4.9-6.7c1.7-0.9,2.3-1.4,2.1-2.2
					c-1.6-5.5,2.2-10.4,2.4-10.6c0.2-0.3,0.6-0.3,0.8-0.1c0.3,0.2,0.3,0.6,0.1,0.8c0,0-3.6,4.6-2.2,9.5c0.5,1.8-1.1,2.7-2.7,3.5
					c-2,1.1-4.3,2.4-4.3,5.7c0,2.2,1.9,3.4,3.5,4c4.1,1.6,11.1,1.1,13.9-2c4-4.3,5.7-13,1.6-19.9c-0.2-0.3-0.1-0.6,0.2-0.8
					c0.3-0.2,0.6-0.1,0.8,0.2c4.3,7.4,2.5,16.6-1.8,21.2C435,377.3,431.2,378.4,427.5,378.4z"/>
			</g>
		</g>
		<g>
			<g>
				<path class="st2" d="M146,119.3L146,119.3c-1.7,0.2-3.4-0.9-3.9-2.5l-2.5-8.6l-3.6-15.8l36.9-7.5l2.6,18.9l-0.4,11.5L146,119.3z
					"/>
			</g>
			<path class="st7" d="M205.3,199.6l-29.9-50.3c0,0-5-5-6-6l-2.7-21.6c11.9-3.6,9.5-15.2,9.5-15.2L174,89.6c0,0-0.4-6.2-15.6-5.3
				c-16.2,1-17.2,9.9-17.2,9.9s0.5,7.6,0.5,7.5l3.9,27.2c-0.9,0.4-1.7,0.9-2.3,1.7l-7.2,9.2c-8.3,10.7-12.7,23.5-15.2,37L112,244
				c-0.1,1,0.6,1.8,1.6,1.7l68.8-5.9c0.6-0.1,1-0.6,1-1.2l-0.4-19.1c0.6,0.6,1.2,1.1,1.7,1.5c10.4,8.1,51.2,25.7,51.2,25.7l10-7.4
				L205.3,199.6z"/>
			<g class="st11">
				<path class="st10" d="M230.7,241.9c-4-2.6-40.2-24.3-40.2-24.3l-22.4-35.8l-6.4,9.7c8.5,12.6,18.1,25.9,23.1,29.8
					c9.2,7.2,42.5,21.9,49.8,25.1l-0.1-0.5C234.5,245.7,234.7,244.5,230.7,241.9z"/>
			</g>
			<g>
				<path class="st0" d="M179.2,190.4l15.6-14.1c0,0-16.7-27.6-20.4-31.7c-3.7-4-19.8,10.6-19.8,10.6L179.2,190.4z"/>
			</g>
			<g>
				<polygon class="st8" points="190.3,384.6 195.8,407.7 218.4,402.7 214.9,380.1 				"/>
			</g>
			<path class="st5" d="M216.5,306.1c-17.5-50.1-40.7-73.4-40.7-73.4l-63.8,4.4c1.4,1.5-0.7,6.2-0.7,6.2s-5,43.8-7.5,56.3
				c-2.5,12.6-36,71.1-36,71.1l52.6,23c0,0,27.3-54.2,35.7-73.4c0.6-1.4,1.2-3,1.7-4.7c0.5,1.1,0.9,2.3,1.4,3.4
				c15.9,39.8,16.9,74.5,16.9,74.5l57.6-9.7C233.6,383.7,229,341.9,216.5,306.1z"/>
			<g>
				<path class="st2" d="M142.9,89.9c-3.1,0-6.2,0.5-9.3,1.3c-7.9,2.1-22.7,6.5-21.4,8.8c0,0,0.4,1.1,4,0.4
					c3.6-0.8,59.1-10.6,59.1-10.6L142.9,89.9z"/>
			</g>
			<g>
				<path class="st2" d="M117.9,176.4l-9.7,70.5c-0.1,1,0.7,1.9,1.7,1.8l75-6.2c0.6-0.1,1.1-0.6,1.1-1.2l-1.2-59.6
					c2.2-18-5.6-35.7-20.4-46.1l-13.8-9c-2.6-1.9-6.3-1.3-8.3,1.2l-7.8,9.7C125.4,148.7,120.5,162.2,117.9,176.4z"/>
			</g>
			<g>
				<path class="st7" d="M122.8,185l-6.3,22.2c-2,7.2-0.8,14.9,3.5,21l27.5,40.1l12.1-10.1l-16.1-41.3l9.5-24.5L122.8,185z"/>
			</g>
			<g>
				<g>
					<path class="st7" d="M140.2,106.8c-1.2-2-0.5-4.7,1.5-5.9c2-1.2,4.7-0.5,5.9,1.5s0.5,4.7-1.5,5.9
						C144,109.5,141.4,108.9,140.2,106.8z"/>
				</g>
				<g>
					<path class="st10" d="M145.1,107.4c-0.2,0-0.4-0.1-0.5-0.3l0,0c-0.1-0.2-0.4-0.7-0.9-0.8c-0.3-0.1-0.7,0.1-1.1,0.4
						c-0.1,0.1-0.3,0.2-0.5,0.1c-0.2,0-0.3-0.1-0.4-0.3c0-0.1-0.9-1.5-0.3-3c0.4-1,1.4-1.7,2.9-2c0.3-0.1,0.6,0.1,0.7,0.4
						c0.1,0.3-0.1,0.6-0.4,0.7c-1.1,0.3-1.9,0.7-2.1,1.3c-0.2,0.5-0.1,1,0,1.3c0.5-0.3,1-0.3,1.5-0.2c1.1,0.3,1.6,1.3,1.6,1.5
						c0.1,0.3,0,0.6-0.3,0.8C145.3,107.3,145.2,107.4,145.1,107.4z"/>
				</g>
			</g>
			<g>
				<polygon class="st2" points="147.5,110.8 144.3,98 148.4,97.2 150.9,109.9 				"/>
			</g>
			<g>
				<path class="st2" d="M141.8,108.4c0,0,1.5,0.8,2.6,0.6l1.7,10.3c0,0-1.9,0-2.7-0.8C142.6,117.8,141.8,108.4,141.8,108.4z"/>
			</g>
			<g>
				<path class="st2" d="M163.8,96.5c0,0-1-1.8-2.1-2.2c-1.1-0.4-4.6,0.5-5.9,1.3c-1.2,0.8-2.2,1.7-1.7,1.7
					C154.6,97.4,163.8,96.5,163.8,96.5z"/>
			</g>
			<g>
				<path class="st2" d="M177.1,94.6c0,0-1-1.8-2.1-2.2c-1.1-0.4-4.6,0.5-5.9,1.3c-1.2,0.8-2.1,1.7-1.7,1.7
					C168,95.5,177.1,94.6,177.1,94.6z"/>
			</g>
			<g>
				<path class="st10" d="M166.4,105.9c-0.3,0-0.5-0.2-0.6-0.5c-0.1-0.3,0.1-0.6,0.4-0.7l5-1.1l-4.3-8.3c-0.1-0.3,0-0.6,0.2-0.8
					c0.3-0.1,0.6,0,0.8,0.2l4.6,8.9c0.1,0.2,0.1,0.3,0,0.5c-0.1,0.2-0.2,0.3-0.4,0.3l-5.8,1.3C166.5,105.8,166.4,105.9,166.4,105.9z
					"/>
			</g>
			<g>
				<circle class="st2" cx="161.8" cy="99.6" r="1.3"/>
			</g>
			<g>
				<circle class="st2" cx="173.4" cy="98.5" r="1.3"/>
			</g>
			<g>
				<path class="st12" d="M170.1,114.1c-1.5,0-2.9-1.2-2.9-1.2c-0.2-0.2-0.3-0.6,0-0.8c0.2-0.2,0.6-0.3,0.8,0c0,0,1.3,1.1,2.4,0.9
					c0.6-0.1,1.1-0.6,1.6-1.5c0.1-0.3,0.5-0.4,0.8-0.3c0.3,0.1,0.4,0.5,0.3,0.8c-0.6,1.2-1.4,1.9-2.4,2.1
					C170.5,114.1,170.3,114.1,170.1,114.1z"/>
			</g>
			<g>
				<path class="st13" d="M155.2,194.2c-0.1,0-0.2,0-0.3,0l-34.4-9.2c-0.3-0.1-0.6-0.3-0.7-0.6c-0.2-0.3-0.2-0.6-0.1-0.9l11.2-36.3
					c0.2-0.6,0.8-1,1.4-0.8c0.6,0.2,1,0.8,0.8,1.4L122.2,183l32.2,8.6l12.8-37.5c0.2-0.6,0.9-0.9,1.5-0.7c0.6,0.2,0.9,0.9,0.7,1.5
					l-13.1,38.5C156.1,193.9,155.7,194.2,155.2,194.2z"/>
			</g>
			<g>
				<path class="st3" d="M138.1,261.7c0,0,15.1-1.5,17.7-17.4c0,0,20.4,25.3-6.8,42.6L138.1,261.7z"/>
			</g>
			<g>
				<path class="st3" d="M176,394.6C176,394.6,176,394.6,176,394.6c-0.7,0-1.2-0.5-1.2-1.2c0.9-35.4-25.4-98.8-25.7-99.4
					c-0.2-0.6,0-1.3,0.6-1.5c0.6-0.2,1.3,0,1.5,0.6c0.3,0.6,26.9,64.5,25.9,100.4C177.1,394.1,176.6,394.6,176,394.6z"/>
			</g>
			<g>
				<path class="st2" d="M194.5,406.1c0,0-0.6,4.8,0.3,9.6c0.8,4.7,2.2,7.2,2.2,7.2l55.3-15.8c0.8-0.2,1.1-1.1,0.7-1.8l-0.9-1.6
					c-2.2-4-6.4-6.5-10.9-6.5c-7.7-0.1-19-0.2-19.9-0.8c-1.5-0.9-2.3-4.4-2.3-4.4l-2.7,1.1c0,0-0.2,9.7-2.4,10.6
					C211.6,404.6,194.5,406.1,194.5,406.1z"/>
			</g>
			<g>
				<path class="st2" d="M198.1,426.4c-0.5,0-1-0.3-1.1-0.8c-0.2-0.6,0.2-1.3,0.8-1.4l55.8-16.2c0.6-0.2,1.3,0.2,1.4,0.8
					c0.2,0.6-0.2,1.3-0.8,1.4l-55.8,16.2C198.3,426.4,198.2,426.4,198.1,426.4z"/>
			</g>
			<g>
				<path class="st5" d="M252.9,405.3l-0.9-1.6c-2.2-4-6.4-6.5-10.9-6.5c-0.4,0-0.9,0-1.3,0c-1.9,2.7-4.6,7.9-4.7,14.8l17.1-4.9
					C252.9,406.8,253.3,405.9,252.9,405.3z"/>
			</g>
			<g>
				<path class="st3" d="M175.2,383.3l56.6-9.5c1-0.2,1.9,0.5,2,1.4l1.5,9.7c0.1,0.9-0.5,1.8-1.4,2l-57.3,9.9c-1,0.2-1.9-0.6-2-1.6
					l-0.7-10.1C173.7,384.3,174.3,383.5,175.2,383.3z"/>
			</g>
			<g>
				<polygon class="st8" points="85.4,368.9 76.5,391 97.9,399.9 108.1,379.4 				"/>
			</g>
			<g>
				<path class="st2" d="M76.4,388.8c0,0-3.2,3.6-5.3,8c-2,4.4-2.4,7.2-2.4,7.2l35.9,15.9l18.3,3.1c0.7,0.3,1.5-0.2,1.6-1l0.2-1.8
					c0.5-4.5-1.1-8.6-7.3-12c-6.8-3.7-13.2-10.8-13.7-11.9c-0.7-1.6,0.7-4.9,0.7-4.9l-2.9-0.6c0,0-5.8,7.8-8.1,7.3
					C91.3,397.5,76.4,388.8,76.4,388.8z"/>
			</g>
			<g>
				<path class="st3" d="M73.8,359.1l51.7,24.9c0.9,0.4,1.2,1.5,0.8,2.3l-4.4,8.8c-0.4,0.8-1.4,1.2-2.3,0.8l-52.6-25
					c-0.9-0.4-1.3-1.6-0.7-2.5l5.2-8.7C72,359,73,358.8,73.8,359.1z"/>
			</g>
			<g>
				<path class="st5" d="M124.6,421.9l0.2-1.8c0.5-4.4-1-8.2-6.7-11.6c-7.1,2.9-13.5,11.3-13.5,11.3l18.3,3.1
					C123.8,423.1,124.5,422.7,124.6,421.9z"/>
			</g>
			<g>
				<path class="st2" d="M123.4,427.2c-0.1,0-0.1,0-0.2,0l-19.2-3.4c-0.1,0-0.2,0-0.3-0.1L68,407.5c-0.6-0.3-0.8-1-0.6-1.5
					c0.3-0.6,0.9-0.8,1.5-0.6l35.5,16.2l19.1,3.4c0.6,0.1,1.1,0.7,0.9,1.3C124.4,426.8,123.9,427.2,123.4,427.2z"/>
			</g>
			<g>
				<path class="st7" d="M234.5,245.7l4.3,9.2c0,0,6.8,5.5,9.8,3.4c0,0,4.5,1.6,5.4-1c0,0,4.3-0.9,4.4-4.9
					c0.1-2.6-11.9-13.6-11.9-13.6L234.5,245.7z"/>
			</g>
			<g>
				<path class="st2" d="M254,266.8c-1.8,0-4.3-1.1-7.3-5.6c-6.3-9.7,2.2-16.6,2.3-16.6c0.4-0.3,0.9-0.2,1.2,0.2
					c0.3,0.4,0.2,0.9-0.2,1.2c-0.3,0.2-7.4,5.9-1.9,14.3c2.2,3.3,4.4,5,6.1,4.8c0.9-0.1,1.7-0.7,2.1-1.4c0.3-0.5,0.2-1.1-0.1-1.6
					l-2.6-4.1c-0.3-0.4-0.1-0.9,0.3-1.2c0.4-0.3,0.9-0.1,1.2,0.3l2.6,4.1c0.6,1.1,0.7,2.3,0.2,3.3c-0.6,1.3-2,2.2-3.4,2.4
					C254.3,266.8,254.2,266.8,254,266.8z"/>
			</g>
			<g>
				<path class="st10" d="M254.3,252.1c-0.1,0-0.1,0-0.2,0c0,0-4.2-1.6-4.5-6.4l-5.5-0.5c-0.3,0-0.6-0.3-0.5-0.6
					c0-0.3,0.3-0.5,0.6-0.5l6,0.5c0.3,0,0.5,0.3,0.5,0.6c0,3.3,2.1,5,3.2,5.6l0.8-3.7c0.3-1.4,0.1-2.9-0.5-4.1l-1.4-2.8l-7.8-0.9
					c-0.3,0-0.5-0.3-0.5-0.6c0-0.3,0.3-0.5,0.6-0.5l8.1,0.9c0.2,0,0.4,0.1,0.5,0.3l1.6,3.1c0.8,1.5,1,3.2,0.6,4.9l-1,4.4
					c0,0.2-0.1,0.3-0.3,0.4C254.5,252.1,254.4,252.1,254.3,252.1z"/>
			</g>
			<g class="st11">
				<path class="st10" d="M120.5,217.5c-0.8-6.8,8.1-30.6,8.1-30.6l-5.8-1.9l-6.3,22.2c-2,7.2-0.8,14.9,3.5,21l23.1,33.6
					c0.5-1,0.7-2.1,0.7-3.3C143.7,258.6,121.3,224.3,120.5,217.5z"/>
			</g>
			<g>
				<path class="st2" d="M135.9,262.8c-0.3,0-0.5,0-0.5,0c-0.6,0-1.1-0.6-1.1-1.2c0-0.6,0.6-1.1,1.2-1.1c0.7,0,17.4,0.9,19.5-18.8
					c0.1-0.6,0.6-1.1,1.3-1c0.6,0.1,1.1,0.6,1,1.3C155.2,261.8,139,262.8,135.9,262.8z"/>
			</g>
			<path class="st2" d="M176.9,108.2c0,0-7.5-2.2-8.2-2.1c-0.8,0.1-11.4,6.6-12.7,6.5c-1.3-0.1-5-3.6-5.8-6c-0.3-1-0.7-3.3-1-5.7
				c1.3-1.3,3.2-3.3,3.6-3.9c0.5-0.9,1.3-7.5,1.3-7.5l-8.9,1.8l0,0l-8,1.6l2,9.6c2.5-0.3,4.4-0.9,5.9-1.6l4.4,17.1
				c3.5,5.3,18.5,5.8,18.5,5.8l7.9-3C177.8,115.3,176.9,108.2,176.9,108.2z M173.4,115.6c-0.7-0.3-1.7-0.4-2-0.5
				c-0.6-0.1-2.8,2-4.7,2.2c-1.9,0.2-3-4-3-4l6-3.8l5.7,1.3l0,3.6C175.2,115.5,174.4,116,173.4,115.6z"/>
			<g>
				<path class="st0" d="M136.6,96.6c0,0,19.5-3.4,38.9-6.8c0,0-1.2-21-24.4-16.3C130.4,77.7,136.6,96.6,136.6,96.6z"/>
			</g>
		</g>
	</g>
</g>
</svg>
