<svg xmlns="http://www.w3.org/2000/svg" xmlns:xlink="http://www.w3.org/1999/xlink" viewBox="0 0 378.12 330.8"><defs><style>.cls-1,.cls-31,.cls-35{fill:none;}.cls-2{fill:#e7e8fa;}.cls-3{fill:#a1c2ff;}.cls-4{fill:url(#linear-gradient);}.cls-12,.cls-15,.cls-5,.cls-8{fill:#fff;}.cls-6{fill:url(#linear-gradient-2);}.cls-7{fill:url(#linear-gradient-3);}.cls-12,.cls-13,.cls-15,.cls-17,.cls-23,.cls-32,.cls-33,.cls-34,.cls-35,.cls-8{isolation:isolate;}.cls-20,.cls-8{opacity:0.08;}.cls-13,.cls-9{fill:#323197;}.cls-10{fill:url(#linear-gradient-4);}.cls-11{fill:url(#linear-gradient-5);}.cls-12{font-size:10.29px;}.cls-12,.cls-33,.cls-34{font-family:ArialMT, Arial;}.cls-13{opacity:0.31;}.cls-14{fill:url(#linear-gradient-6);}.cls-15,.cls-17{font-size:8.66px;font-family:Montserrat-SemiBold, Montserrat;font-weight:600;}.cls-16{letter-spacing:-0.01em;}.cls-17,.cls-33{fill:#93a5c9;}.cls-18{letter-spacing:-0.04em;}.cls-19{fill:#ff8d02;}.cls-21{clip-path:url(#clip-path);}.cls-22{fill:url(#linear-gradient-7);}.cls-23{fill:#ffa26e;opacity:0.32;}.cls-24{fill:url(#linear-gradient-8);}.cls-25{fill:url(#linear-gradient-9);}.cls-26{fill:#fe746a;}.cls-27{fill:url(#linear-gradient-10);}.cls-28{fill:#ff7d5a;}.cls-29{fill:url(#linear-gradient-11);}.cls-30{fill:url(#linear-gradient-12);}.cls-31,.cls-35{stroke:#fff;}.cls-31{stroke-linecap:round;stroke-linejoin:round;stroke-width:2px;}.cls-33,.cls-34{font-size:11px;}.cls-34{fill:#5a6a90;}.cls-35{stroke-miterlimit:10;opacity:0.44;}</style><linearGradient id="linear-gradient" x1="-35.77" y1="-22.64" x2="114.56" y2="-22.64" gradientTransform="matrix(0.97, 0.25, 0.25, -0.97, 40.11, 252.82)" gradientUnits="userSpaceOnUse"><stop offset="0" stop-color="#6060e7"/><stop offset="1" stop-color="#8182ee"/></linearGradient><linearGradient id="linear-gradient-2" x1="146.62" y1="-28.61" x2="241.23" y2="425.06" gradientTransform="matrix(1, 0, 0, -1, 0, 323.4)" xlink:href="#linear-gradient"/><linearGradient id="linear-gradient-3" x1="133.8" y1="69.22" x2="149.16" y2="69.22" gradientTransform="matrix(1, 0, 0, -1, 0, 323.4)" gradientUnits="userSpaceOnUse"><stop offset="0" stop-color="#ff8d02"/><stop offset="1" stop-color="#ffc757"/></linearGradient><linearGradient id="linear-gradient-4" x1="217.62" y1="80.8" x2="315.42" y2="80.8" xlink:href="#linear-gradient-3"/><linearGradient id="linear-gradient-5" x1="239.48" y1="80.7" x2="293.68" y2="80.7" gradientTransform="matrix(1, 0, 0, -1, 0, 323.4)" gradientUnits="userSpaceOnUse"><stop offset="0" stop-color="#d5e0f5"/><stop offset="1" stop-color="#fff"/></linearGradient><linearGradient id="linear-gradient-6" x1="215.41" y1="134.78" x2="271.21" y2="235.86" gradientTransform="matrix(1, 0, 0, -1, 0, 323.4)" gradientUnits="userSpaceOnUse"><stop offset="0" stop-color="#d8e2f6"/><stop offset="0.01" stop-color="#dae3f6"/><stop offset="0.12" stop-color="#ebf0fa"/><stop offset="0.26" stop-color="#f6f9fd"/><stop offset="0.46" stop-color="#fdfeff"/><stop offset="1" stop-color="#fff"/></linearGradient><clipPath id="clip-path"><circle class="cls-1" cx="118.02" cy="123.4" r="46.7"/></clipPath><linearGradient id="linear-gradient-7" x1="629.28" y1="184.9" x2="621.07" y2="200.05" gradientTransform="translate(738.57 323.4) rotate(180)" gradientUnits="userSpaceOnUse"><stop offset="0" stop-color="#ffb58e"/><stop offset="0.33" stop-color="#feb38b"/><stop offset="0.59" stop-color="#fcad81"/><stop offset="0.83" stop-color="#f9a370"/><stop offset="1" stop-color="#f5985f"/></linearGradient><linearGradient id="linear-gradient-8" x1="614.67" y1="223.8" x2="620.25" y2="195.08" xlink:href="#linear-gradient-7"/><linearGradient id="linear-gradient-9" x1="617.43" y1="232.4" x2="634.14" y2="210.24" gradientTransform="translate(738.57 323.4) rotate(180)" gradientUnits="userSpaceOnUse"><stop offset="0" stop-color="#b62c01"/><stop offset="1" stop-color="#7c0c0a"/></linearGradient><linearGradient id="linear-gradient-10" x1="628.81" y1="222.51" x2="633.14" y2="200.22" xlink:href="#linear-gradient-7"/><linearGradient id="linear-gradient-11" x1="77.87" y1="88.5" x2="135.06" y2="161.19" gradientTransform="matrix(1, 0, 0, -1, 0, 323.4)" gradientUnits="userSpaceOnUse"><stop offset="0" stop-color="#1196c3"/><stop offset="1" stop-color="#02b2ca"/></linearGradient><linearGradient id="linear-gradient-12" x1="143.92" y1="225.1" x2="170.61" y2="225.1" xlink:href="#linear-gradient-3"/></defs><g id="Layer_2" data-name="Layer 2"><g id="Layer_1-2" data-name="Layer 1"><g id="OBJECTS"><path class="cls-2" d="M378,263.8a2.77,2.77,0,0,0-.1-.9c-12.1-112.8-111.6-99.5-182-190.4S61.32,22.8,61.32,22.8c-75.2,54.6-23,117.7-24.3,148S-3,238.7,14,303c0,.1.1.2.1.3a37.24,37.24,0,0,0,34.3,27.5h265.9C350.82,330.8,380,300.2,378,263.8Z"/><path class="cls-3" d="M265.92,316.1c-4.9,1.4-19.4-6.9-22.9-7-3.7,2-4.1,11.5-4.7,14.5s31.3-2,29.1,1.7-23.2.4-25.1,1c-1,.3-1.1,2.2-.4,4.3h37a32.38,32.38,0,0,0,5.6-6.3,46.83,46.83,0,0,0-3.2,6.3h7.8a5.35,5.35,0,0,1,1.8-2.4c.5-.3,1.3.8,2.4,2.4H328c2.3-2.3,3.6-4.1,3.5-4.8-.3-1.8-18.5.4-21.9-2.2s-3.2-4.6,1.1-6.1,19.3,5.5,24,2,8.7-11.8,8.3-14.4-10.3,4.7-19.5,6.2-15.5-.4-14.1-3.6,22.5-2.3,28.7-6.2,7.1-15.4,6-17.1-24.1,13.7-29.2,12.8-2.2-4.4,3.7-5.2,20.8-7,22.1-11.3-.8-13.7-2.6-13.4-5.7,7.9-9.8,11.9-9.3,6.4-10.2,1.2,14.9-9.4,17.3-12-.5-13.2-1.9-15-22.6-6.6-26.4-4.3c-4.2,5.8-4.9,23-3.1,25.9s.8,9-3.7,5.2c-4.2-4.9,1.2-27,1.1-28.1s-4.3-1.3-8.5,1.6-3,19.2-.9,24.3,4.1,17.6-4.2,10.7-3.4-28.5-6.2-30.2-8.8,4.4-11.1,6.7-1.9,8.4.8,13.7,15.3,17,9.2,18.8-14.3-26-16.6-26.9-7.7,2.8-10,9.4c-2.1,6.3,20.7,21.1,17.6,25.3-9.2,1.4-16.4-18.3-20.1-19.2s-7.1,6.2-8.9,10.8.6,6.9,7,11.2C256,312.8,269.42,313,265.92,316.1ZM293,303.2c-.7,4.6-5.3.6-5.3.6C288.12,298.8,293.72,298.6,293,303.2Zm-12.7,4.4c5.1-3.2,5.5,4.6,2.3,9.3a5.32,5.32,0,0,1-7.7,1.5C271.52,315.5,275.22,310.8,280.32,307.6Z"/><path class="cls-4" d="M36.62,282.1c4.1-2.4,12.7-.7,7.1,5.3-7,5.7-37.7-2.9-39.2-2.8s-2.1,6,1.9,12,26.7,5,33.8,2.3,24.8-5,14.8,6.4-39.9,3.6-42.4,7.4,5.7,12.5,8.9,15.8a8.32,8.32,0,0,0,5.1,2.2h4.7a28,28,0,0,0,9.3-2.7c7.4-3.6,24.4-20.6,26.6-12,1.3,4.9-11,10.4-21.9,14.7h26.1c2.8-2,5.1-3,6.5-1.9a6,6,0,0,1,0,1.9h41.7a44.65,44.65,0,0,0-15.1-19.2c24.1,15.4,35.1,5.2,38.5-.7,3.6-6.1.6-21.3-2.9-23.2s-4,9.5-12.6,15.7-16,1.8-17.3-.5,20.5-9.6,19-25-18.1-32.2-20.6-31.9-.3,25.9-4,30.4-6.6,4.3-8.5-1.7,8.5-26.7,3.7-33.5S83.62,228.4,80,228.9s6.2,14.6,7.8,27.5-1.2,21.7-5.6,19.5-2.2-31.5-7.4-40.4-21.2-10.5-23.6-9.2,18,34.2,16.7,41.3-6.2,2.9-7.1-5.3S52,233,46,231s-19.1.5-18.8,3.1,10.8,8.3,16.3,14.2,8.5,13.2,1.3,14.3-12.4-21.2-16-24.7-18.5.2-21,2-10.2,31.3-7.1,36.6C8.42,282.7,32.42,284.5,36.62,282.1Zm57.3,31.7c6.5,4.8,1.8,10.7,1.8,10.7-4.3,4.5-10.6-.7-14.9-8S87.52,309.1,93.92,313.8Zm-18.6-15.1c6.4,1.2.6,7.4.6,7.4C68.92,305.3,68.92,297.5,75.32,298.7Z"/><path class="cls-5" d="M249.82,0H121.22a21.85,21.85,0,0,0-21.8,21.8V308.9a21.88,21.88,0,0,0,20.5,21.8h129.9a21.85,21.85,0,0,0,21.8-21.8V21.9A21.87,21.87,0,0,0,249.82,0Z"/><path class="cls-6" d="M249.82,4.9h-20.9l-3.8,6.7a11.38,11.38,0,0,1-9.8,5.7h-59.6a11.26,11.26,0,0,1-9.8-5.7l-3.8-6.7h-20.9a17,17,0,0,0-17,17V309a17,17,0,0,0,17,17h128.6a17,17,0,0,0,17-17V21.9A17,17,0,0,0,249.82,4.9Z"/><path class="cls-2" d="M205.72,11h-40a1.58,1.58,0,0,1-1.6-1.6h0a1.58,1.58,0,0,1,1.6-1.6h40a1.58,1.58,0,0,1,1.6,1.6h0A1.58,1.58,0,0,1,205.72,11Z"/><path class="cls-5" d="M148.12,201.6H86.62a5.7,5.7,0,0,1-5.7-5.7v-5.7a5.7,5.7,0,0,1,5.7-5.7h61.5a5.7,5.7,0,0,1,5.7,5.7v5.7A5.63,5.63,0,0,1,148.12,201.6Z"/><path class="cls-5" d="M147.42,269.5h-60a6.44,6.44,0,0,1-6.4-6.4V215.8a6.44,6.44,0,0,1,6.4-6.4h60a6.44,6.44,0,0,1,6.4,6.4v47.3A6.38,6.38,0,0,1,147.42,269.5Z"/><path class="cls-3" d="M128.22,195.2H90a1.69,1.69,0,0,1-1.7-1.7h0a1.69,1.69,0,0,1,1.7-1.7h38.2a1.69,1.69,0,0,1,1.7,1.7h0A1.75,1.75,0,0,1,128.22,195.2Z"/><path class="cls-3" d="M128.22,225.6H90a1.69,1.69,0,0,1-1.7-1.7h0a1.69,1.69,0,0,1,1.7-1.7h38.2a1.69,1.69,0,0,1,1.7,1.7h0A1.83,1.83,0,0,1,128.22,225.6Z"/><path class="cls-3" d="M128.22,242.2H90a1.69,1.69,0,0,1-1.7-1.7h0a1.69,1.69,0,0,1,1.7-1.7h38.2a1.69,1.69,0,0,1,1.7,1.7h0A1.75,1.75,0,0,1,128.22,242.2Z"/><path class="cls-3" d="M128.22,258.9H90a1.69,1.69,0,0,1-1.7-1.7h0a1.69,1.69,0,0,1,1.7-1.7h38.2a1.69,1.69,0,0,1,1.7,1.7h0A1.75,1.75,0,0,1,128.22,258.9Z"/><path class="cls-3" d="M144.12,233.8H90a1.69,1.69,0,0,1-1.7-1.7h0a1.69,1.69,0,0,1,1.7-1.7h54.1a1.69,1.69,0,0,1,1.7,1.7h0A1.75,1.75,0,0,1,144.12,233.8Z"/><path class="cls-3" d="M145.82,195.2h-10a1.69,1.69,0,0,1-1.7-1.7h0a1.69,1.69,0,0,1,1.7-1.7h10a1.69,1.69,0,0,1,1.7,1.7h0A1.75,1.75,0,0,1,145.82,195.2Z"/><path class="cls-7" d="M141.22,259.3l-4,2.1a.46.46,0,0,1-.7-.5l.8-4.4c0-.2,0-.3-.1-.4L134,253a.55.55,0,0,1,.3-.9l4.4-.6c.2,0,.3-.1.4-.3l2-4a.49.49,0,0,1,.9,0l2,4c.1.1.2.3.4.3l4.4.6a.55.55,0,0,1,.3.9l-3.2,3.1c-.1.1-.2.3-.1.4l.8,4.4a.48.48,0,0,1-.7.5l-4-2.1C141.52,259.2,141.42,259.2,141.22,259.3Z"/><path class="cls-8" d="M242.12,240.6h-59.8A11.29,11.29,0,0,1,171,229.3V52.2a11.29,11.29,0,0,1,11.3-11.3h59.8a11.29,11.29,0,0,1,11.3,11.3V229.3A11.16,11.16,0,0,1,242.12,240.6Z"/><circle class="cls-9" cx="266.57" cy="242.72" r="39.2"/><path class="cls-10" d="M266.72,193.7v49.1h-49.1a48.9,48.9,0,1,0,49.1-49.1Z"/><circle class="cls-11" cx="266.52" cy="242.7" r="27.1"/><circle class="cls-3" cx="266.52" cy="242.7" r="18.4"/><text class="cls-12" transform="translate(256.84 246.98)">75%</text><path class="cls-13" d="M271.62,73.2h-67.9a7.7,7.7,0,0,0-7.7,7.7V180a7.7,7.7,0,0,0,7.7,7.7h67.9Z"/><path class="cls-14" d="M292.92,180.2h-82.5a7.7,7.7,0,0,1-7.7-7.7V73.4a7.7,7.7,0,0,1,7.7-7.7h82.5a7.7,7.7,0,0,1,7.7,7.7v99.1A7.77,7.77,0,0,1,292.92,180.2Z"/><path class="cls-3" d="M250.82,86.4V65.8h-40.4a7.7,7.7,0,0,0-7.7,7.7V86.4Z"/><text class="cls-15" transform="translate(218.7 80.4)">A<tspan class="cls-16" x="6.48" y="0">P</tspan><tspan x="12.68" y="0">R</tspan></text><text class="cls-17" transform="translate(263.18 80.4)">M<tspan class="cls-18" x="8.27" y="0">A</tspan><tspan x="14.39" y="0">Y</tspan></text><path class="cls-3" d="M224.42,113.1h-10.6a2.26,2.26,0,0,1-2.3-2.3V100.2a2.26,2.26,0,0,1,2.3-2.3h10.6a2.26,2.26,0,0,1,2.3,2.3v10.6A2.33,2.33,0,0,1,224.42,113.1Z"/><path class="cls-3" d="M246,113.1h-10.6a2.26,2.26,0,0,1-2.3-2.3V100.2a2.26,2.26,0,0,1,2.3-2.3H246a2.26,2.26,0,0,1,2.3,2.3v10.6A2.4,2.4,0,0,1,246,113.1Z"/><path class="cls-3" d="M267.52,113.1h-10.6a2.26,2.26,0,0,1-2.3-2.3V100.2a2.26,2.26,0,0,1,2.3-2.3h10.6a2.26,2.26,0,0,1,2.3,2.3v10.6A2.33,2.33,0,0,1,267.52,113.1Z"/><path class="cls-3" d="M289,113.1h-10.6a2.26,2.26,0,0,1-2.3-2.3V100.2a2.26,2.26,0,0,1,2.3-2.3H289a2.26,2.26,0,0,1,2.3,2.3v10.6A2.33,2.33,0,0,1,289,113.1Z"/><path class="cls-3" d="M224.42,136.7h-10.6a2.26,2.26,0,0,1-2.3-2.3V123.8a2.26,2.26,0,0,1,2.3-2.3h10.6a2.26,2.26,0,0,1,2.3,2.3v10.6A2.26,2.26,0,0,1,224.42,136.7Z"/><path class="cls-3" d="M246,136.7h-10.6a2.26,2.26,0,0,1-2.3-2.3V123.8a2.26,2.26,0,0,1,2.3-2.3H246a2.26,2.26,0,0,1,2.3,2.3v10.6A2.33,2.33,0,0,1,246,136.7Z"/><path class="cls-19" d="M267.52,136.7h-10.6a2.26,2.26,0,0,1-2.3-2.3V123.8a2.26,2.26,0,0,1,2.3-2.3h10.6a2.26,2.26,0,0,1,2.3,2.3v10.6A2.26,2.26,0,0,1,267.52,136.7Z"/><path class="cls-3" d="M289,136.7h-10.6a2.26,2.26,0,0,1-2.3-2.3V123.8a2.26,2.26,0,0,1,2.3-2.3H289a2.26,2.26,0,0,1,2.3,2.3v10.6A2.26,2.26,0,0,1,289,136.7Z"/><path class="cls-3" d="M224.42,160.4h-10.6a2.26,2.26,0,0,1-2.3-2.3V147.5a2.26,2.26,0,0,1,2.3-2.3h10.6a2.26,2.26,0,0,1,2.3,2.3v10.6A2.33,2.33,0,0,1,224.42,160.4Z"/><path class="cls-3" d="M246,160.4h-10.6a2.26,2.26,0,0,1-2.3-2.3V147.5a2.26,2.26,0,0,1,2.3-2.3H246a2.26,2.26,0,0,1,2.3,2.3v10.6A2.4,2.4,0,0,1,246,160.4Z"/><path class="cls-3" d="M267.52,160.4h-10.6a2.26,2.26,0,0,1-2.3-2.3V147.5a2.26,2.26,0,0,1,2.3-2.3h10.6a2.26,2.26,0,0,1,2.3,2.3v10.6A2.33,2.33,0,0,1,267.52,160.4Z"/><path class="cls-3" d="M289,160.4h-10.6a2.26,2.26,0,0,1-2.3-2.3V147.5a2.26,2.26,0,0,1,2.3-2.3H289a2.26,2.26,0,0,1,2.3,2.3v10.6A2.33,2.33,0,0,1,289,160.4Z"/><g class="cls-20"><path class="cls-5" d="M158.32,54.2h-41.2a3.33,3.33,0,0,1-3.3-3.3V45.4a3.33,3.33,0,0,1,3.3-3.3h41.2a3.33,3.33,0,0,1,3.3,3.3v5.5A3.2,3.2,0,0,1,158.32,54.2Z"/><path class="cls-5" d="M158.32,72.4h-41.2a3.33,3.33,0,0,1-3.3-3.3V63.6a3.33,3.33,0,0,1,3.3-3.3h41.2a3.33,3.33,0,0,1,3.3,3.3v5.5A3.2,3.2,0,0,1,158.32,72.4Z"/></g><path class="cls-13" d="M118,68a54.66,54.66,0,0,0-18.6,3.2V175.5a54.66,54.66,0,0,0,18.6,3.2A55.35,55.35,0,1,0,118,68Z"/><circle class="cls-3" cx="118.02" cy="123.4" r="51.8"/><circle class="cls-5" cx="118.02" cy="123.4" r="46.7"/><g class="cls-21"><path class="cls-22" d="M124.52,122.7s-3.8,10.1-1.3,16.7c.9,6.3-17,1.6-19.9-6.3.9-5,4.4-8.5,4.7-18.6S124.82,116.1,124.52,122.7Z"/><path class="cls-23" d="M107.12,122a34.63,34.63,0,0,0,.7-4.1l10-4.7c3.6,2.6,6.8,6.5,6.6,9.5a42.44,42.44,0,0,0-2.1,9.7C113.12,130.6,108.92,125.4,107.12,122Z"/><path class="cls-24" d="M132.12,107.2s4.4,12.5.1,17.5c-6.7,7.9-17.1,3.6-21.3-1.2s-4-24.5,3-27.6S129.22,95,132.12,107.2Z"/><path class="cls-23" d="M109.52,102.3c.1-.4.3-.8.4-1.2l3.8-4,11.8-.7a13.85,13.85,0,0,1,4.5,5c-2.6,1-7.5,2.4-11.4,1.9s-3.4,0-3.4,0a9.11,9.11,0,0,1-.5,7.5c-2.2,3.8-4.4,5.7-3.3,8.8C110.42,117.9,109.72,105.4,109.52,102.3Z"/><path class="cls-25" d="M113,102s2.5,3.9-1.3,11a10.79,10.79,0,0,0,0,6.6c.2,1.6-3.4-1.7-4-3.2-.5-1.1-3.9.5-4.9-1s.8-3.1.8-3.1-4.9-5.1-4.4-9.3,5.4-3.8,5.4-3.8-2.7-1.3-3.4-2.7c-.5-1.3,3.6,1.1,4,2a3.08,3.08,0,0,1,.7-2.7c.7-.9.2,2.7.2,2.7a15.26,15.26,0,0,1,3.1-4.9c2.4-2.7,6.5-.9,9.8-2.9s2.7-5.8,4.9-6,6.9,3.4,5.9,9.9a18.4,18.4,0,0,0,.5-6.3c.8-.4,3,5.7-.8,8.6,0,0,2.2-.5,3.4-3.7,1-2.2,2.3,4.9-5.3,7.2S115.22,100.3,113,102Z"/><path class="cls-26" d="M113.92,118.4a3.9,3.9,0,0,0,7.8,0,4,4,0,0,0-3.9-3.9A3.78,3.78,0,0,0,113.92,118.4Z"/><path class="cls-27" d="M108.72,117.5s-3.4-4.9-5.4-2.2,6.2,7.6,6.4,5.3A4,4,0,0,0,108.72,117.5Z"/><path class="cls-28" d="M107.92,119.3s-1.7-3.1-3.9-3.1c-.6-.5,1.2-.3,2.1.4S108.62,118.6,107.92,119.3Z"/><path class="cls-28" d="M108,118.7s-2-2-3.1-1.3C104.42,118.2,108.42,120.2,108,118.7Z"/><path class="cls-29" d="M141.42,233.4c-.6-4.3-1.8-63.6-1.8-71.6,0-8.8-3.6-14.2-3.6-14.2-2-3.4-8.1-6.7-10.1-7.9a16.26,16.26,0,0,1-3.2-2.7s.4,2.2-2.3,4.1c-9.9,1.1-16.4-9.4-16.4-9.4s-15.3,6.8-18,14.4c-5,14.4-6.1,82.2-6.3,87.2h61.7Z"/></g><circle class="cls-30" cx="157.22" cy="98.3" r="13.3"/><polyline class="cls-31" points="152.02 98.5 156.22 102.7 164.22 94.7"/><path class="cls-13" d="M168.92,283.5H99.32v22.4h69.6a3.59,3.59,0,0,0,3.6-3.6V287.1A3.47,3.47,0,0,0,168.92,283.5Z"/><path class="cls-5" d="M164.72,301.7H84a3.59,3.59,0,0,1-3.6-3.6V282.9a3.59,3.59,0,0,1,3.6-3.6h80.7a3.59,3.59,0,0,1,3.6,3.6v15.2A3.59,3.59,0,0,1,164.72,301.7Z"/><path class="cls-3" d="M96.12,298.8a7.8,7.8,0,1,1,7.8-7.8A7.81,7.81,0,0,1,96.12,298.8Zm0-13.2a5.4,5.4,0,1,0,5.4,5.4A5.51,5.51,0,0,0,96.12,285.6Z"/><path class="cls-3" d="M97.72,292.1h-2a.65.65,0,0,1-.6-.6v-3.9a.6.6,0,0,1,1.2,0v3.3h1.4a.65.65,0,0,1,.6.6A.58.58,0,0,1,97.72,292.1Z"/><g class="cls-32"><text class="cls-33" transform="translate(109.39 295.7)">03:00 </text><text class="cls-34" transform="translate(136.59 295.7)">PM</text></g><path class="cls-5" d="M174.12,276.5a2.4,2.4,0,1,1-2.4-2.4A2.43,2.43,0,0,1,174.12,276.5Z"/><path class="cls-35" d="M237.22,202.8h-44.3a3.33,3.33,0,0,1-3.3-3.3h0a3.33,3.33,0,0,1,3.3-3.3h44.3a3.33,3.33,0,0,1,3.3,3.3h0A3.33,3.33,0,0,1,237.22,202.8Z"/><path class="cls-35" d="M206.22,213.4h-13.3a3.33,3.33,0,0,1-3.3-3.3h0a3.33,3.33,0,0,1,3.3-3.3h13.3a3.33,3.33,0,0,1,3.3,3.3h0A3.2,3.2,0,0,1,206.22,213.4Z"/><path class="cls-3" d="M83.22,76.5A3.2,3.2,0,1,1,80,73.3,3.16,3.16,0,0,1,83.22,76.5Z"/></g></g></g></svg>