<?xml version="1.0" encoding="utf-8"?>
<!-- Generator: Adobe Illustrator 25.4.0, SVG Export Plug-In . SVG Version: 6.00 Build 0)  -->
<svg version="1.1" xmlns="http://www.w3.org/2000/svg" xmlns:xlink="http://www.w3.org/1999/xlink" x="0px" y="0px"
	 viewBox="0 0 500 500" style="enable-background:new 0 0 500 500;" xml:space="preserve">
<style type="text/css">
	.st0{fill:#C6F4FF;}
	.st1{fill:#006ACE;}
	.st2{fill:#0089FB;}
	.st3{fill:none;}
	.st4{fill:#E8E8E8;}
	.st5{fill:#C2C2C2;}
	.st6{fill:#8B8B8A;}
	.st7{fill:#FFC43B;}
	.st8{fill:#E69C00;}
	.st9{fill:#FFFDFF;}
	.st10{fill:#13DBCA;}
	.st11{fill:#00C5B0;}
	.st12{fill:#00A997;}
	.st13{fill:#FF6600;}
	.st14{fill:#DC4300;}
</style>
<g id="BACKGROUND">
	<g>
		<path class="st0" d="M171.8,375.1c-9.6,0.9-19.3,0-28.6-3.3c-7.4-2.6-14.7-5-18.1-16c-3.1-10-2-22.4,0.5-32.4
			c3.4-13.6,9.2-25.9,11.4-40.1c0.5-3.3,0.8-6.9,0-10c-1.5-5.9-6.2-8.2-10.4-9.4c-16.3-4.7-33.6-2.9-49.1-12
			c-3.8-2.2-7.7-5.3-9.8-10.5c-4.3-10.4,0-24.1,5.4-33.2c8.7-14.4,20.2-24.1,31.7-32.8c27.8-20.8,57.1-36.9,86.3-52.8
			c51.3-27.9,72.4-38.5,126.8-46c12-1.7,24.4-2.2,35.7,3.7c11.3,6,21.5,19.8,23.4,37.6c2.1,19.2-17.7,78.8-16.5,82.3
			c1,3.2,3.8,4,6.1,4.3c17.3,2.1,36-1.2,50.6,12.8c3.2,3.1,6.2,7.2,7.2,12.6c2,10.6-3.9,20.8-9.9,27.2c-9.4,10.1-20,17.4-30.7,23.8
			c-42.1,25.1-86.9,37.9-129.7,59.9c-20.4,10.5-40.5,23.2-61.6,29.9C185.7,373,178.8,374.5,171.8,375.1z"/>
		<path class="st0" d="M232.9,81.3c-0.6,2.4-2.1,4.7-3.6,6.4c-3.6,4.1-7.8,7-11.9,9.7c-8.3,5.3-16.9,9.8-25.4,13.4
			c-5.3,2.2-20.8,3.3-16.1-10.7c1-3.2,3-5.6,5-7.8c9.1-10.2,19.8-17.2,30.6-20.1c6.8-1.8,13.8-1.9,19.3,2.3c0.9,0.7,1.9,1.6,2.3,3
			C233.3,78.7,233.3,80,232.9,81.3z"/>
		<path class="st0" d="M106.2,281.1c0.7,0,1.3,0,2,0.1c3,0.3,6.5,2,7.5,6.3c0.8,3.6-0.4,7.5-1.9,10.6c-4.7,9.8-12,16.2-19.4,21.2
			c-5.6,3.7-21.2,10.4-20.6-6.2c0.1-3.3,1.1-6.5,2.4-9.2c2.9-6.3,7.1-11,11.6-14.7C93.4,284.5,99.8,281.1,106.2,281.1z"/>
		<path class="st0" d="M389.2,191.2c-4.8-0.1-10.5-2.3-6.7-10.9c4.7-10.7,12.1-18.3,19.9-23.7c3.9-2.7,8.3-5,12.6-4
			c2.5,0.6,5.2,2.7,6,6.4c0.4,1.9,0.3,4-0.1,6c-1.2,6.3-4.5,11.1-8.1,14.7c-6.2,6.3-13.5,10.3-21,11.3
			C390.9,191.2,390.1,191.2,389.2,191.2z"/>
		<path class="st0" d="M172.6,79c-1.9-0.3-3.3-1.7-2.8-5c0.2-1.5,0.9-3,1.6-4.3c4.9-9.2,12.9-15,20.2-14.7c1.7,0.1,3.3,0.5,4.5,1.8
			c1.2,1.3,1.9,3.8,1.3,6.2c-0.4,1.6-1.3,3-2.3,4.1c-4.5,5.6-10.2,8.6-15.7,10.6C178,78.4,174.9,79.4,172.6,79z"/>
		<path class="st0" d="M100,344.4c0,0,0,0.1-0.1,0.1c2.2,0,4,3.4,4,6.8c0,3.4-1.2,6.5-2.5,9.1c-3.8,7.5-9.2,13.3-15.1,16.4
			c-4.3,2.2-10.3,1.4-8.8-7.7c0.4-2.7,1.5-5,2.7-7.1C85.4,352.4,94,343,100,344.4z"/>
		<path class="st0" d="M424.3,180.8c1.2-0.1,2.4,0.2,3.1,1.7c1,2,0.4,4.7-0.4,6.9c-2.5,6.7-7.4,11.4-12.5,12.2
			c-7.2,1.1-8.4-6.3-2.5-12.5c3-3.2,6.4-5.8,9.9-7.5C422.7,181.2,423.5,180.9,424.3,180.8z"/>
	</g>
</g>
<g id="OBJECTS">
	<g>
		<g>
			<path class="st1" d="M92.2,243.5c0.1-1.2,0.6-2,1.7-2.4c9-2.9,75.2-22.7,76.2-21.5c0.6,0.8-5.1,2.4-6,3.6
				c-0.3,0.3-0.6,0.6-0.9,0.8c-6.7,4.2-13.4,8.4-20.1,12.6c-5.6,3.5-11.1,6.9-16.7,10.4c-6.8,4.3-13.7,8.5-20.6,12.8
				c-1,0.6-1.8,1.5-3.1,1.7c-0.8,0.2-1.3,0-1.6-0.7C98.6,256,92.3,244.5,92.2,243.5z"/>
			<path class="st2" d="M208.2,316.6c4.2-9.1-33.6-86.1-37.2-95.8c-0.4-0.9-1-1.6-2-1.4c-1.6,0.3-73.2,46.3-78.5,49.9
				c-1.6,1.1-2,2.7-1.1,4.1c1.7,2.4,46.8,91.3,48,91.4C138.5,364.9,207.4,317.7,208.2,316.6z"/>
			<g>
				<path class="st1" d="M167.8,235.8c0,2.3-1.4,4.3-3.3,5c-1.9,0.7-4,0.1-5.5-1.7c-1.5-1.7-2.3-3.7-2.1-6c0.2-2.1,1.2-2.8,3.4-3.5
					c1.8-0.5,3.3-0.6,4.7,0.7C166.6,231.7,167.8,234,167.8,235.8z"/>
				<path class="st1" d="M122.7,287.3c-3.3,0-7-3.8-6.6-7.1c0.2-2,1.7-3.5,3.4-4.4c1.6-0.8,3.1,0,4.3,1.2c1.9,2,3.2,4.3,2.6,7.2
					C126,286.1,124.5,287.3,122.7,287.3z"/>
				<path class="st1" d="M138.8,272.4c0,0.3,0,0.5,0,0.7c-0.3,2.5-1.6,4.4-3.5,4.7c-2.1,0.4-4-0.8-5.2-3.2c-1.1-2.1-1.3-4.3-0.4-6.6
					c0.5-1.4,1.2-1.8,2.6-1.6c0.2,0,0.4,0.1,0.6,0.1c3.1-0.1,5,1.3,5.6,4.4C138.7,271.5,138.7,272.1,138.8,272.4z"/>
				<path class="st1" d="M130.6,259.5c-0.1,0.7-0.1,1.5-0.4,2.2c-1,2.5-3.3,3.4-5.6,2c-2.2-1.3-3.4-3.4-3.8-5.9
					c-0.3-1.6,1.4-4.2,3-4.9c1.6-0.7,3.2-0.3,4.6,1.3C129.8,255.6,130.5,257.4,130.6,259.5z"/>
				<path class="st1" d="M117.3,268.4c0,0.7,0,1.3-0.2,2c-0.6,2-2.3,2.8-4.2,2c-3.5-1.6-5.3-4.2-5.1-7.3c0.1-2,1.5-3.7,3.3-4.2
					c1.6-0.5,3.4,0.3,4.5,2C116.8,264.5,117.4,266.4,117.3,268.4z"/>
				<path class="st1" d="M144.7,241.5c0.1-0.9,0.3-1.9,0.8-2.9c0.8-1.7,2.6-2.4,4.4-1.6c2.1,0.9,2.9,2.8,3.7,4.7
					c0.3,0.7,0.1,1.6,1,2c0.2,0.1,0.2,0.3,0,0.4c-0.9,0.6-0.8,1.7-1.4,2.4c-0.8,1.1-1.9,1.7-3.3,1.5
					C147.3,247.6,144.7,244.5,144.7,241.5z"/>
				<path class="st1" d="M103.9,287.4c0.1-1.4,0.5-2.8,2.1-3.7c1.5-0.9,2.8-0.3,4.1,0.5c2.5,1.6,4,4.7,3.5,7.1
					c-0.4,1.9-1.9,3-3.9,2.8C106.7,293.8,103.9,290.7,103.9,287.4z"/>
				<path class="st1" d="M142.3,252.5c-0.1,1.5-0.4,2.8-1.9,3.4c-1.4,0.6-2.6-0.1-3.6-1c-1.6-1.5-2.8-3.2-3.3-5.3
					c-0.5-1.9,0.2-3.8,1.9-4.9c1.3-0.8,3-0.6,4.3,0.8C141.5,247.5,142,250,142.3,252.5z"/>
				<path class="st1" d="M105.2,275.4c-0.1,1.6-0.8,3.1-2.4,3.8c-1.6,0.7-3,0-4.1-1.2c-1.7-1.7-3-3.7-2.7-6.2c0.1-1.3,0.7-2.4,2-2.9
					c1.4-0.6,2.7-0.8,4.1,0.5C103.8,270.9,105.1,272.7,105.2,275.4z"/>
				<path class="st1" d="M152.8,254c0-2.7,2.5-4.5,5-3.3c2.2,1,3.4,2.8,3.6,5.2c0.2,1.7-0.8,3.3-2.2,3.9c-1.4,0.6-3.6,0.1-4.7-1.3
					C153.5,257.3,152.8,255.8,152.8,254z"/>
				<path class="st1" d="M141.2,262.3c-0.1-2,1.6-2.8,3.3-3.5c1.2-0.6,2.4-0.2,3.5,1.1c1.5,1.7,2.1,3.8,1.7,6.1
					c-0.4,1.9-2.1,2.9-3.9,2.4C143.4,267.8,141.3,265,141.2,262.3z"/>
				<path class="st1" d="M165,248.7c0-3.6,2.5-5.1,5.4-3.5c2,1.1,3.3,4,2.8,6.1c-0.4,1.5-1.3,2.5-2.8,2.9c-1.4,0.4-2.6-0.1-3.6-1.1
					C165.6,251.8,165.1,250.1,165,248.7z"/>
			</g>
			<g>
				<path class="st1" d="M184,265.1c0,2.3-1.4,4.3-3.3,5c-1.9,0.7-4,0.1-5.5-1.7c-1.5-1.7-2.3-3.7-2.1-6c0.2-2.1,1.2-2.8,3.4-3.5
					c1.8-0.5,3.3-0.6,4.7,0.7C182.8,261,184,263.3,184,265.1z"/>
				<path class="st1" d="M138.9,316.6c-3.3,0-7-3.8-6.6-7.1c0.2-2,1.7-3.5,3.4-4.4c1.6-0.8,3.1,0,4.3,1.2c1.9,2,3.2,4.3,2.6,7.2
					C142.2,315.5,140.8,316.6,138.9,316.6z"/>
				<path class="st1" d="M155,301.8c0,0.3,0,0.5,0,0.7c-0.3,2.5-1.6,4.4-3.5,4.7c-2.1,0.4-4-0.8-5.2-3.2c-1.1-2.1-1.3-4.3-0.4-6.6
					c0.5-1.4,1.2-1.8,2.6-1.6c0.2,0,0.4,0.1,0.6,0.1c3.1-0.1,5,1.3,5.6,4.4C154.9,300.9,154.9,301.4,155,301.8z"/>
				<path class="st1" d="M146.8,288.8c-0.1,0.7-0.1,1.5-0.4,2.2c-1,2.5-3.3,3.4-5.6,2c-2.2-1.3-3.4-3.4-3.8-5.9
					c-0.3-1.6,1.4-4.2,3-4.9c1.6-0.7,3.2-0.3,4.6,1.3C146.1,285,146.7,286.7,146.8,288.8z"/>
				<path class="st1" d="M133.5,297.8c0,0.7,0,1.3-0.2,2c-0.6,2-2.3,2.8-4.2,2c-3.5-1.6-5.3-4.2-5.1-7.3c0.1-2,1.5-3.7,3.3-4.2
					c1.6-0.5,3.4,0.3,4.5,2C133,293.9,133.6,295.7,133.5,297.8z"/>
				<path class="st1" d="M160.9,270.9c0.1-0.9,0.3-1.9,0.8-2.9c0.8-1.7,2.6-2.4,4.4-1.6c2.1,0.9,2.9,2.8,3.7,4.7
					c0.3,0.7,0.1,1.6,1,2c0.2,0.1,0.2,0.3,0,0.4c-0.9,0.6-0.8,1.7-1.4,2.4c-0.8,1.1-1.9,1.7-3.3,1.5
					C163.5,276.9,160.9,273.8,160.9,270.9z"/>
				<path class="st1" d="M120.1,316.7c0.1-1.4,0.5-2.8,2.1-3.7c1.5-0.9,2.8-0.3,4.1,0.5c2.5,1.6,4,4.7,3.5,7.1
					c-0.4,1.9-1.9,3-3.9,2.8C122.9,323.1,120.1,320,120.1,316.7z"/>
				<path class="st1" d="M158.5,281.8c-0.1,1.5-0.4,2.8-1.9,3.4c-1.4,0.6-2.6-0.1-3.6-1c-1.6-1.5-2.8-3.2-3.3-5.3
					c-0.5-1.9,0.2-3.8,1.9-4.9c1.3-0.8,3-0.6,4.3,0.8C157.7,276.9,158.2,279.4,158.5,281.8z"/>
				<path class="st1" d="M121.4,304.7c-0.1,1.6-0.8,3.1-2.4,3.8c-1.6,0.7-3,0-4.1-1.2c-1.7-1.7-3-3.7-2.7-6.2c0.1-1.3,0.7-2.4,2-2.9
					c1.4-0.6,2.7-0.8,4.1,0.5C120,300.3,121.4,302,121.4,304.7z"/>
				<path class="st1" d="M169.1,283.4c0-2.7,2.5-4.5,5-3.3c2.2,1,3.4,2.8,3.6,5.2c0.2,1.7-0.8,3.3-2.2,3.9c-1.4,0.6-3.6,0.1-4.7-1.3
					C169.7,286.6,169,285.1,169.1,283.4z"/>
				<path class="st1" d="M157.5,291.6c-0.1-2,1.6-2.8,3.3-3.5c1.2-0.6,2.4-0.2,3.5,1.1c1.5,1.7,2.1,3.8,1.7,6.1
					c-0.4,1.9-2.1,2.9-3.9,2.4C159.6,297.1,157.5,294.4,157.5,291.6z"/>
				<path class="st1" d="M181.2,278c0-3.6,2.5-5.1,5.4-3.5c2,1.1,3.3,4,2.8,6.1c-0.4,1.5-1.3,2.5-2.8,2.9c-1.4,0.4-2.6-0.1-3.6-1.1
					C181.8,281.1,181.3,279.5,181.2,278z"/>
			</g>
			<g>
				<path class="st1" d="M196.7,295.4c0,2.3-1.4,4.3-3.3,5c-1.9,0.7-4,0.1-5.5-1.7c-1.5-1.7-2.3-3.7-2.1-6c0.2-2.1,1.2-2.8,3.4-3.5
					c1.8-0.5,3.3-0.6,4.7,0.7C195.5,291.3,196.7,293.6,196.7,295.4z"/>
				<path class="st1" d="M151.6,346.9c-3.3,0-7-3.8-6.6-7.1c0.2-2,1.7-3.5,3.4-4.4c1.6-0.8,3.1,0,4.3,1.2c1.9,2,3.2,4.3,2.6,7.2
					C154.9,345.8,153.4,346.9,151.6,346.9z"/>
				<path class="st1" d="M167.7,332.1c0,0.3,0,0.5,0,0.7c-0.3,2.5-1.6,4.4-3.5,4.7c-2.1,0.4-4-0.8-5.2-3.2c-1.1-2.1-1.3-4.3-0.4-6.6
					c0.5-1.4,1.2-1.8,2.6-1.6c0.2,0,0.4,0.1,0.6,0.1c3.1-0.1,5,1.3,5.6,4.4C167.6,331.2,167.6,331.7,167.7,332.1z"/>
				<path class="st1" d="M159.5,319.1c-0.1,0.7-0.1,1.5-0.4,2.2c-1,2.5-3.3,3.4-5.6,2c-2.2-1.3-3.4-3.4-3.8-5.9
					c-0.3-1.6,1.4-4.2,3-4.9c1.6-0.7,3.2-0.3,4.6,1.3C158.7,315.3,159.4,317,159.5,319.1z"/>
				<path class="st1" d="M146.2,328c0,0.7,0,1.3-0.2,2c-0.6,2-2.3,2.8-4.2,2c-3.5-1.6-5.3-4.2-5.1-7.3c0.1-2,1.5-3.7,3.3-4.2
					c1.6-0.5,3.4,0.3,4.5,2C145.7,324.2,146.3,326,146.2,328z"/>
				<path class="st1" d="M173.6,301.1c0.1-0.9,0.3-1.9,0.8-2.9c0.8-1.7,2.6-2.4,4.4-1.6c2.1,0.9,2.9,2.8,3.7,4.7
					c0.3,0.7,0.1,1.6,1,2c0.2,0.1,0.2,0.3,0,0.4c-0.9,0.6-0.8,1.7-1.4,2.4c-0.8,1.1-1.9,1.7-3.3,1.5
					C176.2,307.2,173.6,304.1,173.6,301.1z"/>
				<path class="st1" d="M132.8,347c0.1-1.4,0.5-2.8,2.1-3.7c1.5-0.9,2.8-0.3,4.1,0.5c2.5,1.6,4,4.7,3.5,7.1c-0.4,1.9-1.9,3-3.9,2.8
					C135.6,353.4,132.8,350.3,132.8,347z"/>
				<path class="st1" d="M171.2,312.1c-0.1,1.5-0.4,2.8-1.9,3.4c-1.4,0.6-2.6-0.1-3.6-1c-1.6-1.5-2.8-3.2-3.3-5.3
					c-0.5-1.9,0.2-3.8,1.9-4.9c1.3-0.8,3-0.6,4.3,0.8C170.4,307.2,170.9,309.6,171.2,312.1z"/>
				<path class="st1" d="M134.1,335c-0.1,1.6-0.8,3.1-2.4,3.8c-1.6,0.7-3,0-4.1-1.2c-1.7-1.7-3-3.7-2.7-6.2c0.1-1.3,0.7-2.4,2-2.9
					c1.4-0.6,2.7-0.8,4.1,0.5C132.7,330.6,134,332.3,134.1,335z"/>
				<path class="st1" d="M181.8,313.7c0-2.7,2.5-4.5,5-3.3c2.2,1,3.4,2.8,3.6,5.2c0.2,1.7-0.8,3.3-2.2,3.9c-1.4,0.6-3.6,0.1-4.7-1.3
					C182.4,316.9,181.7,315.4,181.8,313.7z"/>
				<path class="st1" d="M170.1,321.9c-0.1-2,1.6-2.8,3.3-3.5c1.2-0.6,2.4-0.2,3.5,1.1c1.5,1.7,2.1,3.8,1.7,6.1
					c-0.4,1.9-2.1,2.9-3.9,2.4C172.3,327.4,170.2,324.7,170.1,321.9z"/>
				<path class="st1" d="M193.9,308.3c0-3.6,2.5-5.1,5.4-3.5c2,1.1,3.3,4,2.8,6.1c-0.4,1.5-1.3,2.5-2.8,2.9
					c-1.4,0.4-2.6-0.1-3.6-1.1C194.5,311.4,194,309.8,193.9,308.3z"/>
			</g>
		</g>
		<g>
			<path class="st3" d="M75.8,124.2c0.1,0.2,0.3,0.4,0.4,0.6c-0.2-0.8-0.4-1.6-0.7-2.3C75.5,123,75.5,123.6,75.8,124.2z"/>
			<path class="st3" d="M76.8,105.8c0.4-0.2,0.9-0.5,0.9-1c-1.8,0.7-3.1,2-4.2,3.6C74.6,107.6,75.6,106.6,76.8,105.8z"/>
			<path class="st3" d="M68.5,85.9c-0.2,0.2-0.4,0.5-0.6,0.7C68.2,86.4,68.4,86.2,68.5,85.9z"/>
			<path class="st3" d="M66.8,91.9c-0.1-0.4-0.2-0.8-0.3-1.2C66.4,91.3,66.5,91.7,66.8,91.9z"/>
			<path class="st4" d="M106.5,107.3c-7.5,2.3-14.8,5.4-22.3,7.7c-3.2,1-5.5,3.1-7.6,5.5c-0.5,0.6-0.9,1.2-1,1.9
				c0.2,0.8,0.5,1.6,0.7,2.3c0.7,0.7,1.8,0.7,2.8,0.7c0.1,0,0.2,0,0.4,0c3.2-0.1,6.4-0.9,9.5-1.8c8.5-2.4,16.8-5.2,25.2-7.8
				c1.4-0.4,2.8-0.8,4.2-1.5c6-3.3,10.1-8.2,13.5-14c0.2-0.3,0.6-0.6,0.3-1c-0.8,0.2-1.5,0.4-2.1,0.5
				C122.1,102.4,114.3,104.9,106.5,107.3z"/>
			<path class="st4" d="M120.9,225.2c-2.2,0.5-4.5,0.9-6.8,1.2C116.4,226.3,118.7,225.8,120.9,225.2z"/>
			<path class="st4" d="M85.5,156.7c0.2-0.3,0.4-0.6,0.7-0.9C85.8,156,85.6,156.3,85.5,156.7z"/>
			<path class="st4" d="M146.1,165.6c-4.2,1.3-8.5,2.6-12.7,3.8c-9.9,2.8-19.8,5.8-29.8,8.2c-0.4,0.1-0.9,0.2-1.3,0.4
				c-2.8,1.8-5.3,4-7,6.9c-1.3,2.3-0.3,4.1,2.3,4.5c0.4,0.1,0.9,0,1.4,0c0,0,0,0,0,0.1c0.5,0,1,0,1.5-0.1c1.3-0.2,2.6-0.3,3.9-0.6
				c9.6-1.9,18.9-5,28.2-7.9c0.5-0.1,0.9-0.4,1.3-0.7c1.1-1,2.5-1.8,3.7-2.7c4.3-3.1,7.7-6.9,10.4-11.4c0.1-0.2,0.4-0.5,0.3-0.8
				C147.1,165.5,146.2,165.7,146.1,165.6z"/>
			<path class="st4" d="M103.7,219.9c0.2-0.3,0.4-0.6,0.6-0.8C104,219.3,103.8,219.6,103.7,219.9z"/>
			<path class="st4" d="M150.5,180.3c-6.9,2.1-13.8,4.2-20.7,6.2c-7.3,2.2-14.7,4.1-22.2,5.3c-3.9,0.6-6.8,2.8-8.6,6.3
				c-1.5,3-0.8,4,2.6,3.7c3.2-0.3,6.5-0.7,9.7-1.3c9-1.7,17.6-4.8,26.2-7.7c3-1,5.6-2.3,8-4.3c2.9-2.3,4.9-5.3,6.9-8.7
				C151.3,180.4,150.6,180.6,150.5,180.3z"/>
			<path class="st4" d="M93.3,175.5c3.3,0.4,6.4-0.5,9.5-1.2c9.8-2.5,19.2-5.9,28.9-8.8c2.5-0.8,4.4-2.1,6-4c0.9-1,1.6-2.1,2.3-3.2
				c1.3-2,2.5-4,3.8-6.1c-0.7-0.2-1.1,0.1-1.6,0.3c-8.4,2.7-16.8,5.5-25.3,7.9c-6.9,2-14,3.7-21,5.4c-0.4,0.1-0.9,0.2-1.2,0.5
				c-1.6,1.4-3.1,2.9-3.9,4.9C90,173.3,91,175.2,93.3,175.5z"/>
			<path class="st4" d="M106.3,62.7c-8.7,2.3-17.4,4.5-25.9,7.4c-4.8,1.6-9.5,3.4-13.8,6c-1.1,0.7-2,1.6-2.4,2.9c-0.7,2,0,2.9,2,2.7
				c0.4,0,0.8-0.1,1.2-0.2c3.1-0.6,6.1-1.6,9-2.7c13.6-4.7,27-9.8,40.7-14.1c2.1-0.7,3.8-2,5.3-3.5c0.7-0.6,1.3-1.4,1.6-2.5
				c-0.8,0.1-1.3,0.2-1.9,0.4C116.8,60.1,111.5,61.3,106.3,62.7z"/>
			<path class="st4" d="M76.8,105.8c-1.2,0.7-2.2,1.7-3.3,2.7c-0.1,0.2-0.2,0.4-0.3,0.5c-0.4,0.6-0.4,1.3,0.4,1.8
				c0.5,0.3,0.5,0.7,0.4,1.3c-0.3,1.3,0,1.7,1.2,2.2c0.8,0.3,1.7,0.2,2.6,0.1c2.8-0.3,5.5-1.2,8.1-2.2c9.9-3.7,19.8-7.6,29.9-10.9
				c3.9-1.3,7.4-3,10-6.4c1.5-2,3.1-3.9,4.1-6.6c-1.2,0.3-2,0.6-2.9,0.9c-5.3,1.7-10.5,3.4-15.8,5c-7.5,2.3-15,4.7-22.4,7.5
				c-3.1,1.2-6.4,2-9.6,2.7c-0.5,0.1-0.9,0.2-1.3,0.4C77.7,105.4,77.2,105.6,76.8,105.8z"/>
			<path class="st4" d="M91.9,166.4c0.1,0.1,0.1,0.2,0.1,0.3c0.1-0.1,0.2-0.2,0.3-0.3C92.2,166.4,92,166.4,91.9,166.4z"/>
			<path class="st4" d="M113.4,214.6c-2.4,0.5-4.1,1.7-5.7,3.5c-0.8,1-1.6,2-2.3,3.1c-1.2,1.8-0.7,2.7,1.4,2.9c0.3,0,0.7,0,1,0
				c1.9,0,3.8-0.2,5.6-0.7c9.2-2,18.2-4.8,27.2-7.5c3.8-1.1,7.7-2.1,10.7-5.1c0.6-0.6,6.3-6.5,7.7-9.4c-2.2,0.7-4.3,1.4-6.5,2
				C139.7,207.3,126.8,211.8,113.4,214.6z"/>
			<path class="st4" d="M101.8,209c0.2,0.6,0.9,0.4,1.4,0.4c0.2,0,0.3-0.1,0.5-0.1c1.8-0.3,3.6-0.7,5.4-1.2c0.5-0.1,1-0.1,1.2,0.5
				c0.2,0.6-0.1,0.9-0.6,1.2c-0.2,0.1-0.5,0.2-0.7,0.3c-1.6,0.6-3.1,1.4-4.5,2.4c-0.3,0.2-1,0.5-0.8,1c0.2,0.5,0.8,0.3,1.2,0.2
				c2.5-0.3,5.1-0.7,7.5-1.4c9.9-3,19.7-6,29.6-8.9c1.3-0.4,2.4-0.9,3.5-1.8c2.4-2,4.5-4.2,6.7-6.4c1.1-1,2-2.2,2.9-3.7
				c-0.5,0.1-0.7,0.1-0.8,0.2c-7.7,2.6-15.6,5-23.4,7.3c-6.1,1.8-12.1,3.6-18.4,4.5c-1.5,0.2-3.2,0.1-4.5,0.7
				c-2.1,0.9-4.1,2.2-5.8,3.8C102.2,208.2,101.6,208.5,101.8,209z"/>
			<path class="st4" d="M121.7,67.1c-0.5,0.2-1.1,0.3-1.6,0.5c-16.3,5.6-32.4,11.5-48.9,16.6c-1,0.3-1.8,0.8-2.5,1.5
				c0,0-0.1,0.1-0.1,0.1c-0.1,0.3-0.3,0.5-0.6,0.7c-0.6,0.9-0.9,2-1.3,3.1c-0.1,0.4-0.2,0.8-0.2,1.1c0.1,0.4,0.2,0.8,0.3,1.2
				c0.4,0.4,1.2,0.6,2.4,0.6c0.2,0,0.7-0.1,1.3-0.2c5.4-1.1,10.3-3.5,15.5-5.2c10.5-3.6,20.9-7.6,31.5-10.8c0.8-0.2,1.6-0.4,2.3-1
				c2.9-2.2,4.5-5.2,5.8-8.5c0.1-0.3,0.1-0.5,0.1-0.6C123.6,66.9,121.8,67.5,121.7,67.1z"/>
			<path class="st4" d="M119.9,127.9c2.7-0.7,5.1-2,7.2-3.9c0.7-0.7,1.6-1.3,2.3-2c2.5-2.4,4.8-5,6.5-8c0.1-0.3,0.5-0.6,0.2-0.9
				c-0.2-0.2-0.6,0-0.8,0.1c-8.3,2.7-16.7,5-25,7.6c-7.5,2.3-15,4.6-22.6,6.4c-0.5,0.1-0.9,0.3-1.3,0.7c-1.8,2-3.5,4-4.8,6.3
				c-1.4,2.6-1,3.2,2.4,3.1c1.4-0.1,3.2-0.3,5.1-0.8C99.5,134.1,109.6,130.6,119.9,127.9z"/>
			<path class="st4" d="M86.3,153c-0.6,0-1.3-0.1-1.9-0.2c0.4,0.5,0.9,0.6,2.1,0.7c0.5,0,1.1,0,1.5,0.2c0.2-0.2,0.5-0.5,0.7-0.7
				C87.9,153,87.1,153,86.3,153z"/>
			<path class="st4" d="M126.4,153.1c0.7-0.2,1.4-0.6,2-1.1c3.3-2.8,6.6-5.6,9.6-8.7c1.3-1.4,2.4-3,3.6-4.9
				c-0.5,0.1-0.7,0.1-0.8,0.1c-8.2,2.4-16.4,4.7-24.5,7.4c-6.9,2.2-13.8,4.3-20.8,6c-3.7,0.9-6.4,3-8.1,6.5c-1.3,2.6,0.1,4.9,3,5
				c2,0.1,3.9-0.4,5.8-0.9C106.4,159.7,116.4,156.5,126.4,153.1z"/>
			<path class="st4" d="M122.6,78.9c-9,2.9-18,5.7-27.1,8.6c-7.3,2.3-14.5,5-22,6.6c-1.6,0.3-2.4,1.3-3,2.6
				c-0.3,0.8-0.5,1.7-0.4,2.4c0,2.4,0.8,3.4,2.9,3.9c0.8,0.2,1.6,0.2,2.3,0.1c2-0.3,3.9-0.5,5.8-1.1c5-1.7,10-3.3,15-5.1
				c7.4-2.7,14.9-5.4,22.4-7.9c0.7-0.2,1.4-0.6,2-1c3.8-2.2,5.6-5.9,7.3-9.7c0.1-0.3,0.4-0.6,0.2-0.8
				C126.4,78,122.8,79.3,122.6,78.9z"/>
			<path class="st4" d="M83.9,140.3c0.7,0.2,1.4,0.3,2.2,0.1c0.1,0,0.1,0,0.2,0c0.1-0.1,0.1-0.1,0.2-0.2
				C85.5,140.2,84.7,140.3,83.9,140.3z"/>
			<path class="st4" d="M120.7,140.2c3.2-1,6-2.4,8.6-4.5c1.8-1.5,3.7-3.1,5.4-4.7c1.5-1.3,3.2-2.6,4.4-4.7
				c-0.7,0.2-1.1,0.3-1.5,0.4c-8.4,2.4-16.8,5.2-25.2,7.5c-6.2,1.7-12.3,3.7-18.7,4.8c-2.6,0.4-4.8,1.1-6.8,2.9c-1.6,1.5-3,3-3.7,5
				c-0.6,1.7,0.1,2.9,1.9,3c0.9,0.1,1.9,0,2.8-0.1c4.7-0.5,9.2-2.1,13.6-3.5C108,144.3,114.4,142.1,120.7,140.2z"/>
			<path class="st5" d="M158.7,213.7c-0.4-1,8.3-7.3,10-11.7c0.6-1.4,0.9-2.8,1.1-4.4c0-0.1-0.1-0.3-0.1-0.4
				c-2.7,1.4-12.1,4.9-12.4,4.3c-0.4-0.6,6.9-7.9,8.4-10.6c0.5-0.9,0.9-1.8,1-2.9c0.1-0.8-0.1-0.9-0.8-0.7c-2.4,0.8-4.8,1.6-7.3,2.5
				c-1.4,0.5-2.8,1-4.3,1.2c-0.6,0.1-1.2,0.2-1.5-0.5c-0.3-0.7,0.3-1,0.7-1.4c3.8-3.9,7.9-7.5,10.1-12.7c0-0.1,0.1-0.2,0.1-0.3
				c-0.1-0.5-0.3-1-0.4-1.4c-0.3,0.1-0.7,0.3-1.1,0.4c-2.2,0.7-7.3,3.7-10.1,4.9c-2,3.4-4.1,6.4-6.9,8.7c-2.4,1.9-5.1,3.3-8,4.3
				c-8.7,2.8-17.2,5.9-26.2,7.7c-3.2,0.6-6.4,1-9.7,1.3c-3.4,0.3-4-0.7-2.6-3.7c1.8-3.6,4.7-5.7,8.6-6.3c7.6-1.2,14.9-3.1,22.2-5.3
				c6.9-2.1,13.8-4.2,20.7-6.2c-0.5-1,3.7-2.9,7.4-9.5c1.3-1.6,2.1-4.9,2.3-6.9c0-0.2,0-0.4,0.1-0.6c0,0,0,0,0,0
				c-0.2-0.7-0.4-1.4-0.6-2.2c-0.3,0.3-0.6,0.6-1.1,0.8c-2.4,0.8-7.3,2.5-10.3,3.4c0.1,0.3-0.1,0.5-0.3,0.8
				c-2.7,4.5-6.2,8.3-10.4,11.4c-1.2,0.9-2.6,1.7-3.7,2.7c-0.4,0.3-0.8,0.6-1.3,0.7c-9.3,2.9-18.6,6-28.2,7.9
				c-1.3,0.3-2.6,0.4-3.9,0.6c-0.5,0.1-1,0.1-1.5,0.1c0,0,0,0,0-0.1c-0.5,0-0.9,0-1.4,0c-2.7-0.3-3.7-2.2-2.3-4.5
				c1.7-2.9,4.2-5.1,7-6.9c0.4-0.2,0.8-0.3,1.3-0.4c10-2.4,19.9-5.4,29.8-8.2c4.3-1.2,8.5-2.5,12.7-3.8c0,0,0,0,0,0
				c-0.2-0.6,5.7-4.5,7.4-6.4c1.8-2,2.6-6.1,3.3-8.7c0,0,0,0,0-0.1c-0.4-1.3-0.7-2.7-1.1-4c-4.1,1.8-13.5,6.8-14,5.7
				c-0.5-1.2,7.9-9,9.8-12.4c0.7-1.2,1-2.4,1.2-3.7c0,0,0-0.1,0-0.1c-0.2-0.8-0.4-1.5-0.6-2.3c-0.1,0-0.2,0.1-0.3,0.1
				c-3.1,1.1-12.9,5.1-13.2,4.5c-0.3-0.6,5-3.2,7-5.3c3.2-2.6,3.2-8.3,3.5-10.2c-0.1-0.3-0.2-0.6-0.3-0.9c-0.1,0-0.2,0-0.3,0.1
				c-2.2,1-12.8,5.2-12.9,4.9c-0.1-0.4,8.1-8.8,8.9-12.2c0.3-1.2,0.4-2.3,0.6-3.5c0.1-0.4,0.1-0.9,0.4-1.1c0-0.2-0.1-0.3-0.1-0.5
				c-0.2,0.1-0.4,0.2-0.6,0.3c-2.8,0.9-12.5,4.4-12.7,3.8c-0.2-0.6,6.1-2.6,8.4-6.1c1.9-2.5,0.9-7.1,0.7-10c0-0.7-0.5-0.4-0.8-0.3
				c-1.3,0.5-5.4,1.7-8.5,2.4c0.3,0.4-0.1,0.7-0.3,1c-3.4,5.7-7.5,10.7-13.5,14c-1.3,0.7-2.8,1.1-4.2,1.5
				c-8.4,2.6-16.7,5.4-25.2,7.8c-3.1,0.9-6.2,1.7-9.5,1.8c-0.1,0-0.2,0-0.4,0c-1,0-2.1,0-2.8-0.7c-0.2-0.2-0.3-0.4-0.4-0.6
				c-0.3-0.6-0.3-1.2-0.2-1.7c0.1-0.7,0.5-1.3,1-1.9c2.1-2.5,4.4-4.6,7.6-5.5c7.5-2.3,14.8-5.4,22.3-7.7c7.8-2.4,15.6-4.9,23.3-7.4
				c-0.8,0.2-1.4,0.2-1.5,0.1c-0.2-0.5,5.6-3.5,7.7-6.1c2-2.6,1.9-4.4,1.9-6.9c0-0.9-0.3-1.2-1.2-0.9c-1.8,0.6-10.6,3.5-10.7,3
				c-0.1-0.4,4.7-3,6-3.6c2.5-1.1,4-6.8,3.2-9.6c-0.2-0.7-0.6-0.7-1.1-0.5c-1.8,0.7-3.8,1.2-5.7,1.8c-0.1,0-0.3,0.1-0.5,0.1
				c0.2,0.3-0.1,0.6-0.2,0.8c-1.7,3.8-3.5,7.5-7.3,9.7c-0.6,0.4-1.3,0.7-2,1c-7.5,2.5-14.9,5.2-22.4,7.9c-5,1.8-10,3.4-15,5.1
				c-1.9,0.6-3.9,0.9-5.8,1.1c-0.8,0.1-1.6,0.1-2.3-0.1c-2.2-0.5-3-1.5-2.9-3.9c0-0.8,0.1-1.6,0.4-2.4c0.6-1.3,1.4-2.3,3-2.6
				c7.5-1.6,14.7-4.3,22-6.6c9-2.9,18-5.7,27.1-8.6c0,0,0,0,0,0c-0.1-0.4,7.1-6.4,9-9.5c0.6-0.9,0.4-2,0.2-3c-0.3-1.7-0.8-2-2.5-1.5
				c-0.6,0.2-2.3,0.8-3.9,1.4c0.1,0.1,0.1,0.3-0.1,0.6c-1.3,3.3-2.9,6.3-5.8,8.5c-0.7,0.5-1.5,0.7-2.3,1c-10.6,3.2-21,7.1-31.5,10.8
				c-5.1,1.8-10.1,4.2-15.5,5.2c-0.5,0.1-1.1,0.1-1.3,0.2c-1.2,0-1.9-0.2-2.4-0.6c-0.3-0.3-0.4-0.7-0.3-1.2c0-0.3,0.1-0.7,0.2-1.1
				c0.3-1.1,0.7-2.1,1.3-3.1c0.2-0.2,0.4-0.5,0.6-0.7c0,0,0.1-0.1,0.1-0.1c0.7-0.7,1.5-1.2,2.5-1.5c16.4-5.1,32.6-11,48.9-16.6
				c0.5-0.2,1.1-0.4,1.6-0.5c0,0,0,0,0,0c-0.2-0.6,6.8-7.5,7.7-9.5c0.4-0.8,0.4-1.6,0.1-2.4c-0.2-0.5-0.6-1.1,0.2-1.5
				c0.1,0,0.2,0,0.3,0c0,0,0-0.1,0-0.1c-0.4-0.1-0.8-0.1-1.3,0c-0.8,0.2-1.5,0.5-2.2,0.7c-4.2,1-8.5,1.9-12.7,2.9
				c-9.4,2.3-18.6,5.1-27.8,8c-6.4,2-12.7,4.3-18.7,7.4c-1.8,1-3.7,2-4.8,3.8c-1.2,1.8-1.7,3.8-0.6,5.9c1,1.9,2.7,2.8,4.9,2.7
				c0.3,0,0.7-0.1,0.9,0.3c-1.4,1.5-2.1,3.3-2.6,5.2c-0.4,1.5,0.1,2.8,1.3,3.6c0.8,0.5,1.7,0.7,2.6,0.7c1.4,0.1,1.4,0.1,0.6,1.3
				c-0.2,0.2-0.3,0.5-0.4,0.7c-1.3,3.7-0.6,6.8,3.9,7.6c0.6,0.1,1.3,0.2,2.1,0.3c-0.7,0.6-1.3,1-1.8,1.6c-1.4,1.5-2.8,3.1-1.3,5.3
				c0.1,0.1,0.1,0.3,0.1,0.5c0,2.4,1.4,4,3.9,4.1c0.6,0,1.2,0,2.1,0c-0.9,0.7-1.4,1.2-2,1.7c-0.9,0.8-1.7,1.8-2.2,2.9
				c-1.1,2.5-0.4,4.9,2,6.3c1.8,1.1,3.8,1,5.8,0.8c0.5,0,1.1-0.3,2,0.2c-0.7,0.6-1.3,1-1.9,1.5c-1.3,1.3-2.3,2.8-3.1,4.5
				c-1.2,2.7-0.1,4.9,2.7,5.6c0.4,0.1,0.8,0.1,1.2,0.2c0.5,0.1,0.9,0.1,1.4,0.1c0.8,0,1.6-0.1,2.6-0.1c-0.1,0.1-0.1,0.1-0.2,0.2
				c-1,0.9-1.9,1.6-2.8,2.4c-0.9,0.9-1.6,2-2.3,3.1c-1.3,2.4-0.8,4.6,1.4,6.1c0.6,0.4,1.2,0.6,1.8,0.8c0.6,0.1,1.2,0.2,1.9,0.2
				c0.8,0,1.6,0,2.4,0c-0.3,0.2-0.5,0.5-0.7,0.7c-0.7,0.7-1.3,1.3-1.8,2.1c-0.2,0.3-0.4,0.6-0.7,0.9c-0.1,0.1-0.1,0.2-0.2,0.3
				c-2.7,4.3-0.1,9.1,5,9.4c0.5,0,0.9,0,1.6,0c0.1,0,0.3,0,0.4,0c-0.1,0.1-0.2,0.2-0.3,0.3c-1.2,1.1-2.1,2-2.9,3.1
				c-1.4,2.1-1.3,4.1,0,6.1c1.2,1.9,3.1,2.5,5.2,2.6c1.1,0.1,2.2-0.1,3.5,0.2c-0.3,0.3-0.6,0.5-0.8,0.7c-1.6,1.4-3.1,2.8-4.2,4.7
				c-1.5,2.6-1,5.1,1.5,6.8c1.3,1,2.8,1.5,4.5,1.5c0.9,0,1.9,0,3.1,0c-0.8,0.6-1.2,0.9-1.7,1.3c-2,1.4-3.3,3.5-4.1,5.7
				c-0.8,2.1,0.2,4.1,2.4,4.8c1,0.3,2.1,0.3,3.2,0.3c0.6,0,1.3,0,1.9,0c-1.1,1-2.2,1.6-3.1,2.6c-1.7,1.8-1.4,3.3,0.9,4.2
				c0.6,0.2,0.7,0.4,0.4,1c-0.8,1.8-0.1,3,1.8,3.5c1.2,0.3,2.4-0.1,3.8,0c-0.2,0.3-0.4,0.4-0.5,0.5c-0.9,0.9-1.8,1.8-2.6,2.8
				c-0.2,0.3-0.4,0.5-0.6,0.8c-0.2,0.3-0.4,0.5-0.5,0.8c-1.3,2.4-0.6,4.5,2,5.5c2.1,0.8,4.2,0.8,6.4,0.6c0.9-0.1,1.7-0.2,2.6-0.3
				c2.3-0.3,4.5-0.7,6.8-1.2c3-0.6,6-1.4,9-2.2c10.6-3,21.1-6.3,31.6-9.6C159.9,213.9,158.8,214,158.7,213.7z M122.3,61.2
				c-1.5,1.5-3.2,2.8-5.3,3.5c-13.7,4.4-27.1,9.5-40.7,14.1c-3,1-5.9,2-9,2.7c-0.4,0.1-0.8,0.1-1.2,0.2c-2,0.1-2.7-0.8-2-2.7
				c0.4-1.3,1.3-2.2,2.4-2.9c4.3-2.6,9.1-4.3,13.8-6c8.5-2.9,17.2-5.1,25.9-7.4c5.2-1.4,10.5-2.5,15.8-3.6c0.6-0.1,1.2-0.2,1.9-0.4
				C123.6,59.8,123,60.5,122.3,61.2z M77.7,104.9c0.4-0.2,0.8-0.3,1.3-0.4c3.3-0.7,6.5-1.5,9.6-2.7c7.4-2.7,14.9-5.2,22.4-7.5
				c5.3-1.6,10.5-3.4,15.8-5c0.9-0.3,1.7-0.5,2.9-0.9c-1,2.7-2.6,4.6-4.1,6.6c-2.5,3.4-6,5.1-10,6.4c-10.1,3.2-20,7.1-29.9,10.9
				c-2.6,1-5.3,1.9-8.1,2.2c-0.9,0.1-1.7,0.2-2.6-0.1c-1.3-0.4-1.5-0.9-1.2-2.2c0.1-0.5,0.1-1-0.4-1.3c-0.8-0.5-0.7-1.2-0.4-1.8
				c0.1-0.2,0.2-0.4,0.3-0.5C74.6,106.9,75.9,105.6,77.7,104.9z M159.2,201.4c-1.4,3-7.1,8.8-7.7,9.4c-3,2.9-6.9,3.9-10.7,5.1
				c-9,2.7-18,5.5-27.2,7.5c-1.9,0.4-3.7,0.7-5.6,0.7c-0.3,0-0.7,0-1,0c-2.2-0.2-2.6-1.1-1.4-2.9c0.7-1.1,1.5-2.1,2.3-3.1
				c1.5-1.7,3.3-3,5.7-3.5c13.3-2.8,26.2-7.2,39.2-11.1C154.8,202.8,157,202.1,159.2,201.4z M112.8,203.4c6.3-0.9,12.3-2.7,18.4-4.5
				c7.8-2.3,15.7-4.7,23.4-7.3c0.2-0.1,0.4-0.1,0.8-0.2c-0.9,1.5-1.9,2.7-2.9,3.7c-2.2,2.1-4.3,4.4-6.7,6.4
				c-1.1,0.9-2.2,1.4-3.5,1.8c-9.9,3-19.7,6-29.6,8.9c-2.5,0.7-5,1.1-7.5,1.4c-0.4,0-1,0.2-1.2-0.2c-0.2-0.5,0.4-0.7,0.8-1
				c1.4-1,2.9-1.8,4.5-2.4c0.2-0.1,0.5-0.2,0.7-0.3c0.5-0.2,0.8-0.6,0.6-1.2c-0.2-0.6-0.7-0.6-1.2-0.5c-1.8,0.5-3.6,0.9-5.4,1.2
				c-0.2,0-0.3,0.1-0.5,0.1c-0.5,0-1.2,0.2-1.4-0.4c-0.2-0.5,0.4-0.8,0.7-1.1c1.7-1.5,3.7-2.8,5.8-3.8
				C109.6,203.5,111.3,203.6,112.8,203.4z M84,137.1c-3.4,0.1-3.8-0.5-2.4-3.1c1.3-2.3,3-4.3,4.8-6.3c0.3-0.4,0.8-0.6,1.3-0.7
				c7.6-1.8,15.1-4.1,22.6-6.4c8.3-2.5,16.7-4.9,25-7.6c0.3-0.1,0.6-0.3,0.8-0.1c0.3,0.3,0,0.6-0.2,0.9c-1.7,3.1-4,5.6-6.5,8
				c-0.7,0.7-1.6,1.3-2.3,2c-2,2-4.4,3.2-7.2,3.9c-10.3,2.8-20.4,6.2-30.8,8.5C87.3,136.8,85.4,137.1,84,137.1z M88.1,149.8
				c-0.9,0.1-1.9,0.2-2.8,0.1c-1.8-0.1-2.5-1.4-1.9-3c0.8-2,2.2-3.5,3.7-5c1.9-1.8,4.2-2.5,6.8-2.9c6.3-1.1,12.5-3.1,18.7-4.8
				c8.5-2.3,16.8-5.1,25.2-7.5c0.4-0.1,0.8-0.2,1.5-0.4c-1.3,2.1-2.9,3.4-4.4,4.7c-1.8,1.6-3.6,3.1-5.4,4.7
				c-2.5,2.1-5.4,3.5-8.6,4.5c-6.4,1.9-12.7,4.1-19.1,6.2C97.2,147.8,92.8,149.3,88.1,149.8z M90.4,163.4c-2.9-0.1-4.4-2.4-3-5
				c1.7-3.4,4.4-5.6,8.1-6.5c7-1.7,13.9-3.7,20.8-6c8.1-2.6,16.3-5,24.5-7.4c0.2,0,0.3,0,0.8-0.1c-1.1,1.9-2.2,3.5-3.6,4.9
				c-3,3.1-6.3,5.9-9.6,8.7c-0.6,0.5-1.3,0.9-2,1.1c-10,3.3-20,6.5-30.1,9.3C94.4,163,92.4,163.5,90.4,163.4z M94.8,166.2
				c0.4-0.3,0.8-0.4,1.2-0.5c7-1.7,14-3.4,21-5.4c8.5-2.4,16.9-5.2,25.3-7.9c0.5-0.1,0.9-0.4,1.6-0.3c-1.3,2.1-2.5,4.1-3.8,6.1
				c-0.7,1.1-1.4,2.2-2.3,3.2c-1.6,1.9-3.5,3.3-6,4c-9.6,2.9-19.1,6.3-28.9,8.8c-3.1,0.8-6.2,1.7-9.5,1.2c-2.3-0.3-3.4-2.2-2.5-4.4
				C91.7,169.1,93.2,167.6,94.8,166.2z"/>
			<path class="st5" d="M172.9,208.9c-2.1,1.2-5.6,2.7-8.6,3.7c1.3-0.4,2.5-0.8,3.8-1.2c1.4-0.4,2.8-0.8,4.1-1.3
				c0.4-0.1,0.7-0.3,0.9-0.5C173.1,209.3,173,209.1,172.9,208.9z"/>
			<path class="st6" d="M172.9,208.9c-0.9-3.3-2-7.1-3.1-11.4c-0.2,1.6-0.5,3-1.1,4.4c-1.8,4.4-10.5,10.7-10,11.7
				c0.1,0.3,1.2,0.2,2.7-0.2c0.9-0.2,1.8-0.5,2.9-0.9C167.3,211.5,170.9,210,172.9,208.9z"/>
			<path class="st6" d="M153.6,189.1c-0.4,0.4-1,0.7-0.7,1.4c0.3,0.7,1,0.5,1.5,0.5c1.5-0.2,2.9-0.7,4.3-1.2
				c2.4-0.8,4.8-1.6,7.3-2.5c0.7-0.2,0.9-0.1,0.8,0.7c-0.2,1-0.5,2-1,2.9c-1.5,2.7-8.8,10-8.4,10.6c0.3,0.5,9.7-3,12.4-4.3
				c-1.7-6.2-3.7-13.3-5.8-21c-0.1,0.1-0.1,0.2-0.1,0.3C161.5,181.5,157.4,185.2,153.6,189.1z"/>
			<path class="st6" d="M160.2,163.9c-0.3,2-1,5.3-2.3,6.9c-3.7,6.6-7.9,8.5-7.4,9.5c0.1,0.3,0.8,0.1,1.8-0.4
				c2.8-1.2,7.9-4.1,10.1-4.9c0.3-0.1,0.7-0.4,1.1-0.4c-1-3.7-2.1-7.5-3.2-11.5c0,0,0,0,0,0C160.2,163.5,160.2,163.7,160.2,163.9z"
				/>
			<path class="st6" d="M129.7,53.7c-0.8,0.4-0.4,1-0.2,1.5c0.3,0.8,0.2,1.6-0.1,2.4c-0.9,2-7.9,8.9-7.7,9.5c0,0,0,0,0,0
				c0.1,0.3,1.9-0.2,3.8-0.9c1.6-0.6,3.3-1.2,3.9-1.4c1.7-0.5,2.2-0.3,2.5,1.5c0.2,1,0.3,2.1-0.2,3c-1.9,3.1-9.1,9.1-9,9.5
				c0,0,0,0,0,0c0.1,0.3,3.7-0.9,5.4-1.4c0.2-0.1,0.3-0.1,0.5-0.1c1.9-0.5,3.8-1.1,5.7-1.8c0.5-0.2,0.9-0.3,1.1,0.5
				c0.8,2.8-0.6,8.5-3.2,9.6c-1.4,0.6-6.1,3.1-6,3.6c0.1,0.4,8.9-2.4,10.7-3c0.9-0.3,1.2,0,1.2,0.9c0,2.5,0.2,4.3-1.9,6.9
				c-2.1,2.7-7.9,5.7-7.7,6.1c0,0.1,0.6,0,1.5-0.1c0.6-0.1,1.3-0.3,2.1-0.5c3-0.7,7.1-1.9,8.5-2.4c0.3-0.1,0.8-0.4,0.8,0.3
				c0.2,2.9,1.2,7.5-0.7,10c-2.3,3.5-8.6,5.5-8.4,6.1c0.2,0.6,9.9-2.8,12.7-3.8c0.3-0.1,0.5-0.2,0.6-0.3
				c-7.6-27.6-14-50.6-15.2-55.1c0-0.2-0.1-0.3-0.1-0.5C129.9,53.7,129.8,53.7,129.7,53.7z"/>
			<path class="st6" d="M145.6,132.9c-2,2.1-7.3,4.6-7,5.3c0.3,0.6,10.1-3.4,13.2-4.5c0.1,0,0.2-0.1,0.3-0.1c-1-3.6-2-7.3-3-10.9
				C148.8,124.6,148.8,130.3,145.6,132.9z"/>
			<path class="st6" d="M145.1,110.9c-0.1,1.2-0.3,2.4-0.6,3.5c-0.7,3.4-9,11.8-8.9,12.2c0.1,0.4,10.6-3.8,12.9-4.9
				c0.1-0.1,0.2-0.1,0.3-0.1c-1.1-4-2.2-8-3.3-11.9C145.2,110,145.1,110.5,145.1,110.9z"/>
			<path class="st6" d="M151.5,139.7c-1.9,3.4-10.3,11.2-9.8,12.4c0.5,1.2,9.9-3.9,14-5.7c-1-3.5-1.9-7-2.9-10.6c0,0,0,0.1,0,0.1
				C152.4,137.2,152.1,138.5,151.5,139.7z"/>
			<path class="st6" d="M153.5,159.1c-1.7,1.9-7.6,5.8-7.4,6.4c0,0,0,0,0,0c0.1,0.2,1,0,2.2-0.4c2.9-0.8,7.9-2.6,10.3-3.4
				c0.5-0.2,0.8-0.4,1.1-0.8c-1-3.5-2-7.1-2.9-10.6c0,0,0,0,0,0.1C156.1,153.1,155.3,157.1,153.5,159.1z"/>
			<path class="st7" d="M203.6,227.8c0-0.2-0.1-0.5-0.2-0.8c-0.5-1.9-1.1-3.8-1.6-5.8c-0.1,0.1-0.3,0.3-0.4,0.4
				c-1.7,1.6-3.4,1.8-5.4,0.7c-0.9-0.5-1.7-1.3-2.7-1.8c0.3,0.9,0.5,1.8,0.8,2.7c0.1,0.4,0.2,0.7,0.3,1.1c0.3,1.2-0.1,2-1,2.2
				c-0.9,0.2-1.6-0.2-1.9-1.4c-1.2-4.1-2.3-8.3-3.5-12.4c-3.2-11.4-43.7-158.2-46.2-167.4c-0.3-1.2-0.8-1.7-0.9-2
				c-3.8,1.1-7.6,2.1-11.4,3.1c-1,0.3-1.2,0.8-0.9,1.7c0.5,1.8,1,3.6,1.5,5.5c0,0,0,0.1,0,0.1c0,0.2,0.1,0.3,0.1,0.5
				c1.3,4.5,7.6,27.5,15.2,55.1c0,0.2,0.1,0.3,0.1,0.5c1.1,3.9,2.2,7.9,3.3,11.9c0.1,0.3,0.2,0.6,0.3,0.9c1,3.6,2,7.2,3,10.9
				c0.2,0.8,0.4,1.5,0.6,2.3c1,3.5,2,7.1,2.9,10.6c0.4,1.3,0.7,2.7,1.1,4c1,3.6,2,7.1,2.9,10.6c0.2,0.7,0.4,1.4,0.6,2.2
				c1.1,3.9,2.1,7.7,3.2,11.5c0.1,0.5,0.3,1,0.4,1.4c2.1,7.6,4.1,14.7,5.8,21c0,0.1,0.1,0.3,0.1,0.4c1.2,4.2,2.2,8.1,3.1,11.4
				c0.1,0.2,0.1,0.5,0.2,0.7c1.6,5.8,2.7,9.9,3.2,11.5c1.1,4,11.5,40.9,12.7,44.9c0.6,2.1,0.8,2.2,2.8,1.6c1.9-0.6,3.8-1.1,5.7-1.6
				c4.8-1.3,10.5-3.1,15.2-4.4C213.4,261.3,203.7,228.8,203.6,227.8z"/>
			<path class="st8" d="M202,264.2c0.9-0.2,8.2-1.5,10.8-2.7c0.2-0.1-59.3-216.3-60.6-220c-0.3-1-0.8-1.7-2-1.2
				c-2.1,0.8-5.9,1.7-8.1,2.3c-1.1,0.3-1.4,0.4-1.3,0.7c0.1,0.3,0.6,0.9,0.9,2C144.2,54.5,201,264.4,202,264.2z"/>
			<path class="st9" d="M138,49.9c0.8,1.7,1.1,3.5,1.6,5.3c2.2,8.2,4.3,16.5,6.5,24.8c0.3,1.3,0.8,2.5,1.1,3.8
				c0.3,1.2-0.2,2.4-1.1,2.7c-1.2,0.4-2.1-0.3-2.5-1.7c-2.5-8.7-4.7-17.5-7-26.3c-0.6-2.4-1.3-4.7-2-7.1c-0.3-1-0.1-1.9,1-2.4
				C136.6,48.6,137.4,49,138,49.9z"/>
			<path class="st9" d="M149.1,93.8c-1.2,0.7-2.8,0.4-3.5-0.7c-0.7-1.2-0.4-2.6,0.6-3.3c1.2-0.7,3-0.4,3.6,0.6
				C150.5,91.7,150.2,93.1,149.1,93.8z"/>
		</g>
		<g>
			<path class="st10" d="M426,399.5c-3.2-5.2-5.9-10.6-8.3-16.1c-0.7-1.6-1.4-3.2-2.1-4.8c-0.8-1.8-1.6-3.7-2.4-5.6
				c-2.9-6.7-5.5-13.6-7.8-20.4c1,19.4,6.4,38.7,15.7,56c2.3,4.3,4.9,8.5,8.8,11.6c0.6,0.5,1.4,1.1,1.5,1.8c0.2-1,0.3-2.1,0.3-3.1
				c0-5-0.6-9.9-1.7-14.8C428.2,402.9,427,401.2,426,399.5z"/>
			<path class="st10" d="M428.2,426.1c0.6-0.2,1.1-0.6,1.5-1c0.5-0.5,0.9-1.1,1.1-1.8c0,0-0.1,0.1-0.1,0.1
				C430.1,424.4,429.3,425.4,428.2,426.1z"/>
			<path class="st10" d="M384.6,395.4c-1.9-12.8-2.2-25.7-2.4-38.6c0-2.4-0.1-4.7-0.1-7.1c-0.2-2.3-0.2-4.7-0.5-7
				c-1.2-8.4-0.8-16.9-0.9-25.3c0-2.3,0.1-4.6,0.4-6.8c0-0.2,0.1-0.5,0.2-0.7c0-0.7-0.1-1.5-0.7-2c-0.4-0.3-0.9-0.4-1.4-0.7
				c-0.9-0.6-1.1-1.8-1.2-2.9c-0.3-4.1-0.3-8.2,0-12.2c0-0.7,0.1-1.4,0.6-1.8c0.7-0.7,1.9-0.4,2.9-0.1c7.4,2.4,13.9,7,18.5,12.9
				c8.2,10.4,10.7,23.6,13.4,36.3c3.9,18.3,8.7,36.5,16.9,53.6c1,2.2,2.3,4.5,4.5,5.6c0.8,0.4,1.8,0.6,2.5,1.2
				c0.4,0.3,0.7,0.8,0.9,1.3c1-2.4,0.7-5.3,0.2-7.9c-6.2-37.4-17-76.3-45.3-103.2c-5-4.7-10.8-9.2-17.8-10.4
				c-3.9-0.7-8-0.2-11.9,0.6c-7.3,1.6-14.6,5.3-18.1,11.5c-2.5,4.6-2.7,10.1-2.4,15.3c1.9,37.9,21.1,73.8,41.1,105.8
				c1.5,2.4,3.5,4.8,6.2,5.8c-0.9-1.2-1.1-2.7-1.6-4.2C387,408,385.5,401.8,384.6,395.4z"/>
			<path class="st11" d="M394.1,309.8c0.1,0.1,0.1,0.2,0.2,0.3c4.1,6.5,6.8,13.4,8.3,20.8c1.5,7.4,3.7,14.7,6.3,21.9
				c4.2,12.1,8.8,24,13.1,36c0.5,1.5,1.1,3,1.5,4.5c0.1,0.3,0.5,0.8,0,1c-0.5,0.1-0.6-0.5-0.7-0.8c-2.6-4.9-4.9-10-7.1-15
				c0.7,1.6,1.3,3.2,2.1,4.8c2.5,5.5,5.2,10.9,8.3,16.1c1.1,1.7,2.2,3.5,3.9,4.7c0.1,0.1,0.2,0.2,0.3,0.2c1.8,1.2,4.4,1.7,6.4,0.6
				c1.4-0.8,2.1-2.7,1.7-4.1c-0.2-0.5-0.4-1-0.9-1.3c-0.7-0.6-1.7-0.8-2.5-1.2c-2.3-1.1-3.5-3.4-4.5-5.6c-8.1-17-13-35.3-16.9-53.6
				c-2.7-12.7-5.1-26-13.4-36.3c-4.7-5.9-11.1-10.6-18.5-12.9c-1-0.3-2.2-0.5-2.9,0.1c-0.5,0.5-0.6,1.2-0.6,1.8
				c-0.3,4.1-0.3,8.2,0,12.2c0.1,1.1,0.3,2.3,1.2,2.9c0.4,0.3,1,0.4,1.4,0.7c0.6,0.5,0.7,1.3,0.7,2c0.1-0.2,0.1-0.4,0.2-0.6
				c0.2-0.4,1.9-0.9,3.2-1.4c0.1-0.2,0.4-0.3,0.8-0.4c0,0,0,0,0,0c0.6-0.3,0.9-0.6,0.7-0.8c0-0.1-7,0-7.4-1.2
				c-0.3-0.9-0.3-1.9-0.2-2.9c0-0.9,0.6-1.3,1.4-1.7c0.6-0.3,1.1-0.6,1.4-1.4c0.3-1-0.1-1.5-0.9-1.9c-1.3-0.7-1.6-1.4-1-2.3
				c0.5-0.8,1.7-1,2.8-0.3c4.6,3,8.4,6.7,11.3,11.2c0.2,0.3,0.4,0.7,0.3,1.1"/>
			<path class="st11" d="M429.8,420.2c-3.9-3.1-6.5-7.3-8.8-11.6c-9.3-17.4-14.7-36.6-15.7-56c-0.9-2.7-1.9-5.5-2.7-8.3
				c-0.4-1.3-0.8-2.6-1.7-3.8c0,0.4,0,0.8,0,1.2c-0.4,12.8,1.7,25.4,3.8,38c1.8,10.6,5,20.8,8.9,30.8c1.4,3.5,2.5,7,4,10.4
				c0.2,0.4,0.4,0.8,0.3,1.3c-0.7,0-0.7-0.5-0.9-0.8c-0.6-1.1-1.1-2.3-1.7-3.3c-3.7-6.1-6.1-12.6-8.5-19.2
				c-4.1-11.8-7-23.9-9.4-36.1c-1.4-7.2-2.6-14.5-3.9-21.9c-0.6,3.6-1.4,7.2-1.8,10.9c-0.6,4.9-1,9.7-1.1,14.6
				c-0.3,10.5,1.5,20.6,4.8,30.6c1.8,5.4,3.6,10.8,5.4,16.2c0.2,0.5,0.3,1,0.4,1.5c0.2,0.6,0,1.1-0.7,1.4c-0.8,0.4-1.1-0.2-1.4-0.6
				c-0.9-1.3-1.5-2.7-2.2-4.2c-2.9-6.3-4.8-13-6.7-19.6c-2.4-8.2-4.9-16.4-6.2-24.8c-0.8-5.3-1.4-10.6-1.9-15.9
				c0-0.4-0.1-0.7-0.1-1.1c0,2.4,0.1,4.7,0.1,7.1c0.2,12.9,0.5,25.8,2.4,38.6c1,6.4,2.4,12.6,4.3,18.8c0.4,1.4,0.7,3,1.6,4.2
				c0.2,0.3,0.5,0.6,0.9,0.9c2.3,1.6,4.8,0.5,5.7-1.9c0.1-0.3,0.2-0.6,0.2-0.8c0.2-1.1,0.2-2.3,0.1-3.4c0.2,0.4,0.4,0.9,0.6,1.3
				c1.7,3.5,4.1,7,8.1,7.3c1.6,0.1,3-0.5,4.2-1.5c1.7-1.4,2.6-3.7,2-5.7c1.4,1.3,2.3,2.9,3.2,4.5c0.7,1.2,1.4,2.5,2.1,3.6
				c1.9,2.7,5,5.1,8.4,4.4c0.8-0.2,1.5-0.5,2.2-1c1-0.7,1.9-1.7,2.6-2.7c0,0,0.1-0.1,0.1-0.1c0.2-0.3,0.3-0.6,0.4-0.9
				c0-0.1,0-0.2,0-0.3C431.1,421.3,430.4,420.7,429.8,420.2z"/>
			<path class="st12" d="M380.7,317.5c0.1,8.4-0.3,16.9,0.9,25.3c0.3,2.3,0.3,4.7,0.5,7c0,0.4,0,0.7,0.1,1.1
				c0.6,5.3,1.1,10.7,1.9,15.9c1.3,8.4,3.9,16.6,6.2,24.8c1.9,6.6,3.8,13.3,6.7,19.6c0.7,1.4,1.3,2.9,2.2,4.2c0.3,0.4,0.6,1,1.4,0.6
				c0.7-0.3,0.9-0.7,0.7-1.4c-0.2-0.5-0.3-1-0.4-1.5c-1.8-5.4-3.6-10.8-5.4-16.2c-3.3-10-5.1-20.1-4.8-30.6
				c0.1-4.9,0.5-9.8,1.1-14.6c0.5-3.7,1.2-7.3,1.8-10.9c1.3,7.4,2.4,14.7,3.9,21.9c2.4,12.2,5.3,24.3,9.4,36.1
				c2.3,6.6,4.8,13.2,8.5,19.2c0.6,1.1,1.1,2.2,1.7,3.3c0.2,0.3,0.3,0.8,0.9,0.8c0.1-0.5-0.1-0.9-0.3-1.3c-1.4-3.4-2.6-6.9-4-10.4
				c-3.9-10-7.2-20.2-8.9-30.8c-2.1-12.6-4.2-25.2-3.8-38c0-0.4,0-0.8,0-1.2c0.9,1.2,1.3,2.5,1.7,3.8c0.9,2.8,1.8,5.5,2.7,8.3
				c2.4,6.9,5,13.7,7.8,20.4c0.8,1.9,1.6,3.7,2.4,5.6c2.2,5.1,4.6,10.1,7.1,15c0.2,0.3,0.2,0.9,0.7,0.8c0.6-0.2,0.1-0.7,0-1
				c-0.5-1.5-1-3-1.5-4.5c-4.3-12-8.9-24-13.1-36c-2.5-7.2-4.7-14.5-6.3-21.9c-1.5-7.4-4.2-14.3-8.3-20.8c-0.1-0.1-0.5-2.7-0.5-2.8
				c0.1-0.4-0.1-0.7-0.3-1.1c-2.9-4.5-6.7-8.2-11.3-11.2c-1-0.7-2.2-0.5-2.8,0.3c-0.6,0.9-0.3,1.6,1,2.3c0.9,0.4,1.2,0.9,0.9,1.9
				c-0.2,0.7-0.8,1.1-1.4,1.4c-0.7,0.4-1.3,0.8-1.4,1.7c0,1-0.1,1.9,0.2,2.9c0.4,1.2,7.3,1.2,7.4,1.2c0.2,0.3-4.6,2.2-4.8,2.6
				c-0.1,0.2-0.2,0.4-0.2,0.6c-0.1,0.2-0.1,0.5-0.2,0.7C380.7,312.9,380.7,315.2,380.7,317.5z"/>
		</g>
		<path class="st10" d="M393.7,309c0.5,0.3,0.9,0.7,1.3,1.1c-0.2-1-0.5-2-0.7-3c-0.1-0.5-0.4-0.7-0.9-0.8c0,0.1,0,0.2-0.1,0.3
			C392.9,307.5,393.2,308.3,393.7,309z"/>
		<path class="st10" d="M385,306.6c-0.4,0-0.6,0.1-0.8,0.4C384.6,306.8,384.8,306.7,385,306.6C385.1,306.6,385.1,306.6,385,306.6z"
			/>
		<path class="st12" d="M196.4,291.1c-0.4-1.4-0.4-1.4-1.5-0.4c-1.2,1.1-2.4,1.1-3.2-0.1c-0.7-1-1.4-2.1-1.8-3.3
			c-0.4-1-1.2-1.3-1.9-1.5c-0.7-0.1-1.4-0.1-2-0.5c-0.3-0.2-0.7-0.2-0.9,0.1c-0.4,0.4,0.1,0.6,0.3,0.8c1.1,1.1,2.2,2.2,3.4,3.2
			c3.3,2.6,7,4.5,11,5.7c0.7,0.2,1.1,0.1,1.1-0.7c0-0.8,0.1-1.6,0.2-2.7c-0.3,0.2-0.5,0.3-0.7,0.5
			C198.5,293.7,197,293.3,196.4,291.1z"/>
		<g>
			<path class="st2" d="M321.1,424.7C321.1,424.7,321.1,424.7,321.1,424.7C321.1,424.7,321.1,424.7,321.1,424.7
				C321.1,424.7,321.1,424.7,321.1,424.7z"/>
			<path class="st2" d="M216.9,217.8c1-1.2,1.4-2.6,1.8-4c0.5-1.8,1.7-2.7,3.5-3c2.8-0.5,34.8,0.2,53.7,14.9c4.4,2.9,7.4,7,9.9,11.6
				c3.1,5.7,5.7,11.6,7.1,18c0.9,3.9,2,7.8,4.5,11c2.5,3.1,5.4,5.6,9.1,7.1c1.2,0.5,1.3,0.4,1.3-0.9c-0.1-12.1-0.4-24.2-0.5-36.3
				c0-3.9-0.1-7.8-0.2-11.6c-0.2-9.1-0.7-18.1-2.3-27.1c-0.1-0.3-0.1-0.6-0.2-1c-0.1-0.5-0.4-0.5-0.8-0.2c-3.4,2.4-6.3,1.7-8-2.1
				c-2.1-4.4-1.6-8.8,0.6-12.9c0.6-1.1,1.6-2.1,2.9-2.4c1-0.3,1-0.7,0.8-1.6c-1.8-7-4.4-13.7-7.7-20.1c-2.6-5-5.2-10.1-8.6-14.6
				c-0.7-0.9-1.7-1.7-2.1-2.9c-0.2-0.7-0.3-1,0.4-1.5c0.5-0.4,1.1-0.8,1.6-1.2c-5.6,3.4-11.2,7-16.9,10.3c-3.3,1.9-6.5,3.9-9.8,5.9
				c-1.2,0.7-1.6,0.8-2.1,0.2c-0.4,0.3-0.8,0.6-1.2,0.9c-0.6,0.5-16,14.2-22.3,21.4c-5.4,6.3-9.1,13.5-11.7,21.3
				c-2.9,8.7-3.4,17.8-4.1,26.8c-0.1,2.1,0.1,30.1,0.1,30.1c1.6,9.7-4,170.3,3.7,170.2C216,422.3,216.6,218.2,216.9,217.8z
				 M266.2,187.1c0.1-1.8,0.6-3.6,1.3-5.2c0.8-1.9,2.2-3.2,4.5-3.3c2.7-0.2,4.8,0.7,5.8,3.3c0.8,2,1.3,4.1,1.4,6.3
				c-0.2,2.6-0.6,5.2-2.3,7.5c-2,2.7-5.5,3-7.9,0.6C266.5,193.7,266.1,190.4,266.2,187.1z M238.1,185.4c0.2-2.9,1.5-5.1,4.2-6.3
				c2.3-1.1,4.8-0.3,6.2,1.8c1.6,2.3,2.1,4.9,2.3,7.6c-0.2,2.4-0.5,4.8-1.9,6.8c-1.1,1.7-2.6,2.8-4.7,2.6c-2.1-0.2-3.3-1.6-4-3.5
				C239,191.5,237.9,188.6,238.1,185.4z"/>
			<path class="st2" d="M293.4,132.4c0.1,0.1,0.2,0.2,0.2,0.2c0,0,0,0,0,0c-0.3-0.3-0.5-0.6-0.6-1c-0.1,0.1-0.2,0.1-0.3,0.2
				C293,131.8,293.1,132.1,293.4,132.4z"/>
			<path class="st2" d="M296,135.3c1.9,2.2,4.4,5.3,7.2,8.7C300.9,141,298.5,138.1,296,135.3z"/>
			<path class="st2" d="M291.3,132.9c0.1,0,0.2,0,0.2-0.1c0.1-0.2,0.2-0.4,0.3-0.6c-1.4,0.8-2.8,1.7-4.2,2.5
				C288.9,134.1,290.1,133.5,291.3,132.9z"/>
			<path class="st1" d="M326.5,192.6c-1-7.9-3.8-21-7.6-28c-1.4-2.5-9.1-12.4-15.7-20.6c-2.8-3.4-5.3-6.5-7.2-8.7
				c-1.1-1.2-1.9-2.2-2.4-2.7c-0.1-0.1-0.2-0.2-0.2-0.2c-0.3-0.3-0.4-0.5-0.6-0.6c-0.3,0.2-0.6,0.3-0.9,0.5
				c-0.1,0.2-0.2,0.3-0.3,0.6c0,0.1-0.2,0.1-0.2,0.1c-1.2,0.6-2.5,1.2-3.7,1.9c-1.3,0.8-2.5,1.5-3.8,2.3c-0.5,0.4-1.1,0.8-1.6,1.2
				c-0.7,0.5-0.6,0.9-0.4,1.5c0.4,1.2,1.4,1.9,2.1,2.9c3.4,4.5,6,9.6,8.6,14.6c3.3,6.4,5.9,13.1,7.7,20.1c0.2,0.8,0.2,1.3-0.8,1.6
				c-1.3,0.3-2.3,1.3-2.9,2.4c-2.3,4.2-2.7,8.6-0.6,12.9c1.8,3.8,4.7,4.5,8,2.1c0.4-0.3,0.7-0.3,0.8,0.2c0.1,0.3,0.1,0.6,0.2,1
				c1.6,9,2.1,18,2.3,27.1c0.1,3.9,0.1,7.8,0.2,11.6c0.1,12.1,0.4,24.2,0.5,36.3c0,1.3-0.1,1.4-1.3,0.9c-3.7-1.5-6.6-4-9.1-7.1
				c-2.6-3.2-3.7-7.1-4.5-11c-1.4-6.4-4-12.3-7.1-18c-2.5-4.6-5.5-8.7-9.9-11.6c-19-14.7-50.9-15.4-53.7-14.9c-1.8,0.3-3,1.3-3.5,3
				c-0.4,1.4-0.9,2.8-1.8,4c-0.3,0.4-0.9,204.5,2.7,206.3c5.2,2.7,80.3,7.1,101.5,0.5c0,0,0,0,0,0c3.4-1.1,5.4-2.4,5.5-4.1
				C327.7,413.3,327.7,201.6,326.5,192.6z"/>
			<path class="st1" d="M277,195.6c1.7-2.3,2.1-4.9,2.3-7.5c-0.1-2.3-0.6-4.4-1.4-6.3c-1.1-2.6-3.1-3.5-5.8-3.3
				c-2.3,0.2-3.6,1.4-4.5,3.3c-0.7,1.7-1.3,3.4-1.3,5.2c-0.1,3.3,0.3,6.6,2.8,9.2C271.4,198.7,274.9,198.4,277,195.6z"/>
			<path class="st1" d="M244.1,197.8c2.1,0.2,3.6-0.9,4.7-2.6c1.4-2.1,1.7-4.4,1.9-6.8c-0.2-2.7-0.7-5.3-2.3-7.6
				c-1.4-2.1-3.9-2.8-6.2-1.8c-2.7,1.2-4,3.4-4.2,6.3c-0.2,3.2,0.9,6.1,2,9C240.9,196.1,242.1,197.6,244.1,197.8z"/>
			<path class="st13" d="M275.8,110c-1.8-2.2-3.4-4.6-5-7c1.2,1.9,2.4,3.8,3.6,5.7C274.9,109.5,275.3,109.9,275.8,110z"/>
			<path class="st13" d="M270,101.8c-0.2-0.3-0.5-0.7-0.8-0.9c-3.1-2.5-6.4-4.6-9.8-6.6c-0.3-0.2-0.5-0.3-0.7-0.4
				c3.4,2.2,6.9,4.3,10.1,6.7C269.3,100.9,269.7,101.3,270,101.8z"/>
			<path class="st13" d="M249,125.5c-0.6-0.9-1.2-1.9-1.7-2.9c-0.2-0.4-0.8-1.1-0.3-1.4c0.5-0.3,0.9,0.5,1.2,0.9
				c0.7,0.9,1.2,1.9,1.9,2.8c0.3,0.4,0.3,1.2,1.1,0.7c0.8-0.5,0.1-1-0.1-1.4c-1.3-1.9-2.6-3.8-3.6-5.9c-0.2-0.5-1-1.3-0.2-1.7
				c0.6-0.4,0.9,0.6,1.2,1.1c1.3,1.9,2.6,3.8,3.9,5.8c0.2,0.4,0.4,1.1,1.1,0.7c0.6-0.4,0-0.9-0.2-1.3c-0.2-0.5-0.5-1-0.8-1.5
				c-0.1-0.3-0.2-0.6,0.1-0.8c0.3-0.2,0.6,0,0.8,0.2c0.5,0.6,0.9,1.2,1.3,1.8c0.4,0.6,0.7,0.5,1.2,0.2c0.5-0.3,0.5-0.7,0.2-1.1
				c-0.3-0.5-0.7-0.9-0.9-1.4c-0.2-0.4-0.7-1-0.1-1.4c0.6-0.4,0.9,0.3,1.3,0.7c0.3,0.4,0.6,0.9,0.8,1.4c0.4,0.8,0.8,0.6,1.4,0.3
				c0.6-0.4,0.9-0.7,0.4-1.4c-1.9-2.7-3.5-5.5-5.2-8.3c-0.1-0.2-0.2-0.3-0.3-0.5c-0.2-0.5-0.5-1,0.1-1.3c0.5-0.3,0.8,0.1,1.1,0.5
				c0.6,0.8,1.1,1.6,1.6,2.5c1.3,2.2,2.6,4.3,3.9,6.5c0.2,0.3,0.3,0.7,0.7,0.5c0.5-0.2,0.3-0.6,0.2-0.9c-3-5.4-5.5-11-9.8-15.5
				c-0.8-0.8-1.6-1.7-2.3-2.6c-0.3-0.3-0.8-0.7-0.3-1.1c0.4-0.3,0.8,0.1,1.1,0.4c1.4,1.6,2.8,3.2,4.3,4.8c3.1,3.4,5,7.5,7.2,11.4
				c0.4,0.6,0.7,1.3,1.1,1.9c0.2,0.4,0.4,0.6,0.9,0.4c0.4-0.2,0.6-0.6,0.4-1c-0.4-0.7-0.8-1.4-1.2-2c-1.9-3.2-4-6.3-5.7-9.6
				c-0.4-0.8-1.1-1.5-1.8-2.2c-1.5-1.3-2.7-2.9-4.1-4.3c-0.3-0.3-0.8-0.8-0.3-1.3c0.5-0.4,0.8,0.1,1.1,0.4c1.6,1.8,3.4,3.5,5.1,5.2
				c1.6,1.5,2.4,3.6,3.6,5.4c1.5,2.3,2.8,4.8,4.2,7.1c0.2,0.4,0.3,1,1,0.6c0.6-0.3,0.1-0.7-0.1-1.1c-1.9-3.6-3.8-7.1-5.8-10.6
				c-0.8-1.4-2.2-2.4-3.4-3.5c-1.2-1.1-2.4-2.3-3.6-3.4c-0.6-0.6-0.8-1-0.5-1.4c-3.1,1.9-6.2,3.8-9.4,5.7c-0.8,0.5-1.2,1.1-1.2,2.1
				c0,3.2,0.5,6.3,0.7,9.5c0.1,2,0.6,3.9,1.7,5.6c1.7,2.5,3.4,5.1,4.9,7.7c0,0,0,0,0.1,0C249.3,126.8,249.6,126.4,249,125.5z"/>
			<path class="st14" d="M257.2,153.2c3.3-1.9,6.5-3.9,9.8-5.9c5.7-3.4,11.3-6.9,16.9-10.3c1.3-0.8,2.5-1.5,3.8-2.3
				c1.4-0.8,2.8-1.7,4.2-2.5c0.3-0.2,0.6-0.3,0.9-0.5c0.1-0.1,0.2-0.1,0.3-0.2c0.9-0.5,1.9-1.1,2.8-1.6c0.4-0.2,0.6-0.5,0.6-1
				c-0.1-1-0.6-2-1.1-3c-3.6-6.5-7.1-12.9-11.1-19.2c-0.5-0.8-1.1-0.9-1.8-0.4c-1.6,1-3.3,2-5,3c-0.8,0.5-1.3,0.7-1.7,0.6
				c-0.5-0.1-0.8-0.5-1.4-1.3c-1.2-1.9-2.4-3.8-3.6-5.7c-0.2-0.3-0.4-0.7-0.6-1c0-0.1-0.1-0.1-0.2-0.2c-0.3-0.5-0.7-0.9-1.2-1.2
				c-3.3-2.4-6.7-4.5-10.1-6.7c-0.1-0.1-0.2-0.1-0.3-0.2c-0.6-0.4-1.1-0.4-1.7-0.1c-1.4,0.8-2.9,1.7-4.3,2.5
				c-0.4,0.2-0.6,0.4-0.7,0.6c-0.3,0.4-0.1,0.8,0.5,1.4c1.2,1.2,2.4,2.3,3.6,3.4c1.2,1.1,2.6,2.1,3.4,3.5c2,3.5,3.9,7.1,5.8,10.6
				c0.2,0.3,0.7,0.7,0.1,1.1c-0.6,0.4-0.8-0.3-1-0.6c-1.4-2.4-2.7-4.8-4.2-7.1c-1.2-1.8-2-3.9-3.6-5.4c-1.7-1.7-3.5-3.3-5.1-5.2
				c-0.3-0.3-0.6-0.8-1.1-0.4c-0.6,0.5-0.1,0.9,0.3,1.3c1.4,1.4,2.6,3,4.1,4.3c0.7,0.6,1.4,1.3,1.8,2.2c1.7,3.3,3.8,6.4,5.7,9.6
				c0.4,0.7,0.8,1.4,1.2,2c0.3,0.5,0,0.8-0.4,1c-0.5,0.3-0.7,0-0.9-0.4c-0.4-0.6-0.7-1.3-1.1-1.9c-2.2-3.9-4.1-8-7.2-11.4
				c-1.4-1.6-2.8-3.2-4.3-4.8c-0.3-0.3-0.7-0.7-1.1-0.4c-0.5,0.4,0,0.8,0.3,1.1c0.8,0.9,1.5,1.7,2.3,2.6c4.3,4.5,6.9,10.2,9.8,15.5
				c0.2,0.3,0.3,0.7-0.2,0.9c-0.4,0.2-0.5-0.3-0.7-0.5c-1.3-2.2-2.6-4.3-3.9-6.5c-0.5-0.8-1.1-1.7-1.6-2.5c-0.3-0.4-0.6-0.8-1.1-0.5
				c-0.6,0.3-0.3,0.9-0.1,1.3c0.1,0.2,0.2,0.4,0.3,0.5c1.6,2.8,3.3,5.6,5.2,8.3c0.5,0.7,0.2,1-0.4,1.4c-0.6,0.3-1,0.5-1.4-0.3
				c-0.2-0.5-0.5-1-0.8-1.4c-0.3-0.4-0.7-1.1-1.3-0.7c-0.6,0.4-0.1,1,0.1,1.4c0.3,0.5,0.6,1,0.9,1.4c0.3,0.5,0.3,0.8-0.2,1.1
				c-0.5,0.3-0.9,0.3-1.2-0.2c-0.4-0.6-0.8-1.2-1.3-1.8c-0.2-0.2-0.5-0.4-0.8-0.2c-0.3,0.2-0.2,0.5-0.1,0.8c0.2,0.5,0.5,1,0.8,1.5
				c0.2,0.4,0.8,0.9,0.2,1.3c-0.6,0.4-0.8-0.4-1.1-0.7c-1.3-1.9-2.6-3.9-3.9-5.8c-0.3-0.5-0.6-1.5-1.2-1.1c-0.7,0.4,0,1.2,0.2,1.7
				c1,2.1,2.2,4,3.6,5.9c0.3,0.4,1,0.9,0.1,1.4c-0.8,0.5-0.9-0.3-1.1-0.7c-0.7-0.9-1.2-1.9-1.9-2.8c-0.3-0.4-0.6-1.2-1.2-0.9
				c-0.6,0.3,0,1,0.3,1.4c0.5,1,1,2,1.7,2.9c0.6,0.9,0.3,1.3-0.5,1.7c0,0,0,0-0.1,0c-1.7,1.1-3.4,2.2-5.1,3.3
				c-2,1.3-2.1,1.9-0.8,3.9c3.8,6.2,8.2,12,12.1,18.1c0.2,0.3,0.4,0.6,0.5,0.8C255.6,154.1,256,154,257.2,153.2z"/>
			<g>
				<path class="st9" d="M259,145.2c-0.1,0.9-0.5,1.5-1.3,1.8c-0.9,0.3-1.7,0-2.3-0.8c-1.7-2.2-3-4.8-4.6-7.2c-1-1.5-1.9-3.1-3-4.5
					c-0.7-0.9-0.6-2,0.1-2.6c0.8-0.7,1.8-0.6,2.6,0.2c1.4,1.4,2.3,3.2,3.4,4.8c1.5,2.4,2.8,4.9,4.5,7.2
					C258.8,144.5,259,144.8,259,145.2z"/>
				<path class="st9" d="M255.1,116.6c0,0.8-0.4,1.4-1.2,1.7c-0.8,0.2-1.6,0.1-2.1-0.6c-2.6-3.8-4.9-7.7-6.2-12.1
					c-0.3-1.2,0.3-2.3,1.3-2.6c0.9-0.3,1.9,0.3,2.3,1.5c1.1,3.8,3.2,7.2,5.3,10.5C255,115.9,255.1,116.1,255.1,116.6z"/>
			</g>
		</g>
		<g>
			<path class="st7" d="M351.8,215.9c0.1,2.1,0.1,4.3,0.2,6.4c0.1,6.7-1.1,13.2-2.9,19.6c-1.7,5.9-4.3,11.4-8.4,16.1
				c-1.1,1.3-2.4,2.6-3.8,3.6c0.4,0.5,0.8,0.2,1.1,0.1c4.3-0.7,7.2-3.4,10-6.4c6.1-6.7,8.7-14.8,9.7-23.5c1.1-9.1,0.2-18-2.1-26.8
				c-0.1-0.3-0.1-0.5-0.1-0.7c-1.7,0-3.4,0-5.1,0C350.9,208.2,351.6,212,351.8,215.9z"/>
			<path class="st7" d="M345.3,209.7c0.3,8-0.1,15.9-2.2,23.7c-2.3,8.5-6,16.3-11.3,23.3c-1.7,2.3-3.9,4.2-6.2,5.8
				c-0.2,0.1-0.4,0.2-0.5,0.5c2.9,0.6,5.1-0.6,7.4-2.2c7.3-5.2,11.3-12.5,13.7-21c2.1-7.4,2.8-14.9,2.4-22.5
				c-0.2-4.1-0.8-8.1-1.6-12.1c0-0.2-0.1-0.5-0.1-0.7c0-0.1,0-0.2,0-0.3c-0.8,0-1.7,0-2.5,0C344.9,206.1,345.2,207.9,345.3,209.7z"
				/>
			<path class="st7" d="M374.7,204.1c0,0,0-0.1-0.1-0.1c0,0,0,0,0,0C374.7,204,374.7,204.1,374.7,204.1z"/>
			<path class="st7" d="M287,447.4c1,0.3,2.1,0.4,3.2,0.4c0.3,0,0.7,0,1,0C289.8,447.6,288.4,447.5,287,447.4
				C287,447.4,287,447.4,287,447.4z"/>
			<path class="st7" d="M273.6,425.7c0.1,0.9,0.1,1.7,0.2,2.6C273.8,427.5,273.7,426.6,273.6,425.7z"/>
			<path class="st7" d="M276.4,260.4c4.2,1.4,8.5,1.9,12.9,2.3c3.9,0.3,7.8,0.8,11.7,0.7c0.9,0,1.6-0.2,2.4-0.7
				c7.7-5.3,13.3-12.4,17-20.9c1.2-2.7,2.1-5.5,3-8.3c0.1-0.2,0.2-0.5,0.2-0.7c0.3-1,1.1-1.6,2.1-1.3c1,0.3,1.4,1.2,1.1,2.2
				c-0.9,3-1.8,6-3.1,8.9c-2,4.9-4.8,9.3-8.1,13.4c-1.9,2.4-4.1,4.4-6.4,6.4c-0.4,0.3-0.8,0.7-1.2,1.1c3.1,1.1,5.1-0.9,7.1-2.5
				c5.2-4.2,9.1-9.5,12.1-15.5c3.1-6.3,5.1-12.9,5.9-19.9c0.1-0.5,0.2-1.1,0.2-1.6c0.1-1.1,0.7-1.7,1.7-1.6c1,0,1.6,0.7,1.5,1.8
				c-0.1,1.7-0.4,3.3-0.7,5c-1.1,6.6-3.2,12.8-6.2,18.7c-3,5.9-7,11.1-12.2,15.4c0.5,0.3,0.8-0.1,1-0.2c6.1-3,10.7-7.4,14.1-13.3
				c2.7-4.6,5-9.4,6.5-14.5c1.4-4.6,2.2-9.4,2.7-14.2c0.2-2.2,0.3-4.5,0.3-6.6c-0.1-3.4,0.1-6.9-1.3-10.1c-0.7,0-1.4,0-2.1,0
				c0,0,0,0,0-0.1c-11,0-22,0.1-33.1,0c-4.9-0.1-9.9-0.1-14.8-0.2c-0.7,0-1.4-0.1-2.1-0.3c-0.3-0.1-0.6-0.2-0.8-0.4
				c-0.1-0.1-0.3-0.2-0.4-0.3c0,0.1-0.1,0.1-0.1,0.2c-0.7,1.2-0.9,2.6-1.5,3.9c-2.1,4.2-12.8,24-12.8,50.3c0.2,1.4,0.6,2.7,1,4
				c0-0.3,0.1-0.6,0.3-0.8C275,259.9,275.8,260.2,276.4,260.4z M333.2,214.6c0.2-0.8,0.7-1.3,1.6-1.2c0.9,0,1.4,0.5,1.6,1.3
				c0.1,0.5,0.1,1.1,0.1,1.6c0,0,0,0,0,0c0,0.4,0,0.7,0,1.1c0,1-0.5,1.7-1.5,1.8c-1,0.1-1.5-0.6-1.7-1.4
				C333,216.7,333,215.6,333.2,214.6z M324.5,223.6c0.1-1.3,0.7-2,1.7-2c1,0,1.5,0.7,1.6,2c0,0.5,0,0.9,0,1.4c0,0,0,0,0,0
				c0,0.7,0,1.3,0,2c-0.1,1.1-0.9,1.9-1.8,1.8c-1.1-0.1-1.5-0.9-1.5-1.9C324.5,225.8,324.4,224.7,324.5,223.6z"/>
			<path class="st7" d="M283,376.9c5.5,0,11,0,16.5,0c11.1-0.1,20.6-4,28.9-11.4c9.2-8.2,13.8-18.6,15.8-30.3
				c1.9-10.9,3.3-21.9,3.8-33c0.3-6.7,0.3-13.3-1.1-19.8c-0.3-1.6-1-3-1.9-4.4c-1.4-2.1-3.3-2.5-5.6-2.5c-0.7,0-0.8,0.2-0.5,0.8
				c1.7,3.5,2.7,7.2,3.2,11c0.4,2.6,0.7,5.3,0.8,8c0.2,2.8,0.4,5.5,0.3,8.3c0,1.3-0.1,2.6-0.3,3.8c-0.1,1-0.6,1.8-1.7,1.8
				c-0.9,0-1.7-1-1.5-2c0.3-2.2,0.3-4.4,0.2-6.7c-0.3-6-0.6-12.1-2.2-18c-0.6-2.2-1.5-4.3-2.7-6.2c-0.6-1.1-1.6-0.8-2.5-0.9
				c-0.5,0-0.3,0.4-0.2,0.8c1.8,5.1,2.6,10.4,3,15.7c0.4,5,0.5,10-0.3,14.9c-0.2,1.4-1,2.1-2,1.9c-1-0.2-1.4-1.1-1.2-2.4
				c0.7-4.7,0.5-9.4,0.2-14.2c-0.3-4.2-1-8.3-2-12.3c-0.3-1.2-0.8-2.3-1.2-3.5c-0.3-0.9-0.9-1.2-1.8-1.2c-3-0.2-5.9-0.3-8.9-0.5
				c-4.9-0.3-9.8-0.6-14.7-0.9c-1.4-0.1-2.8-0.1-4.2-0.1c-5.3,0-10.6-0.1-15.9-0.5c-1-0.1-1.9-0.5-2.6-1.2c-2.4-2.4-4.3-5-5.9-8
				c1.4,3.7,3.5,7,6.6,9.8c0.5,0.5,0.6,1.1,0.5,1.7c-0.5,3.8-1.5,49.2-1.6,58c-0.1,8.2-0.2,16.3-0.3,24.5
				c-0.1,6.1-0.2,12.3-0.3,18.4c0,0.5-0.1,1-0.1,1.5c-0.2,1-0.3,2.1-0.5,3.1c0.1-0.4,0.3-0.9,0.4-1.3
				C280.3,377.3,280.8,376.9,283,376.9z"/>
			<path class="st7" d="M387.9,430.6c-0.8,3.8-1.8,7.6-4.1,10.8c1.9-2.3,3.2-5.1,3.8-8.3c0.5-2.4,0.7-4.9,0.9-7.4
				c-0.1,0.3-0.1,0.7-0.2,1C388,428,388.2,429.3,387.9,430.6z"/>
			<path class="st7" d="M368.3,447.5c-12.2,0-24.4,0.1-36.6-0.1c-5.5-0.1-11,0-16.5,0.1c0.5,0,1,0,1.5,0c2.8,0,5.7,0,8.5,0.1
				c5.1,0.1,10.3-0.1,15.4-0.1c7.7,0,15.4,0,23.1,0c0,0.1,0,0.1,0,0.2c2.5,0,5-0.1,7.5,0c-0.2,0-0.4,0-0.6-0.1
				C369.8,447.5,369,447.5,368.3,447.5z"/>
			<path class="st8" d="M388.2,404c-0.9-7.1-3.2-13.8-4.8-20.7c-0.6-2.3-1-4.6-1-7.1c0-3.7,0-7.4-0.1-11.1
				c-0.2-5.7-0.1-11.5-0.3-17.2c-0.1-2.9-0.1-5.8-0.2-8.7c-0.2-8.1-0.3-16.2-0.5-24.2c-0.2-7.4-0.3-14.8-0.5-22.3
				c-0.1-5.9-0.1-11.9-0.5-17.8c-0.1-0.7,0.2-1.2,0.9-1.6c2.4-1.3,4.1-3.2,5.4-5.4c3.2-5.3,3.5-11.1,3-17
				c-0.4-4.7-11.4-38.7-14.9-46.9c0,0,0-0.1-0.1-0.1c-0.4,0.2-0.9,0.3-1.5,0.3c-5.9,0-11.9,0-17.8,0c0,0.2,0.1,0.5,0.1,0.7
				c2.3,8.8,3.2,17.8,2.1,26.8c-1,8.7-3.6,16.9-9.7,23.5c-2.8,3-5.7,5.7-10,6.4c-0.3,0.1-0.7,0.3-1.1-0.1c1.4-1.1,2.7-2.3,3.8-3.6
				c4-4.7,6.7-10.1,8.4-16.1c1.8-6.4,3-12.9,2.9-19.6c0-2.1,0-4.3-0.2-6.4c-0.3-3.9-0.9-7.8-1.6-11.6c-1.1,0-2.2,0-3.3,0
				c0,0.1,0,0.2,0,0.3c0,0.2,0.1,0.5,0.1,0.7c0.8,4,1.4,8,1.6,12.1c0.4,7.6-0.3,15.1-2.4,22.5c-2.4,8.5-6.4,15.7-13.7,21
				c-2.3,1.6-4.5,2.7-7.4,2.2c0-0.3,0.3-0.4,0.5-0.5c2.3-1.7,4.4-3.6,6.2-5.8c5.3-7,9-14.8,11.3-23.3c2.1-7.8,2.5-15.7,2.2-23.7
				c-0.1-1.8-0.4-3.6-0.8-5.4c-1.2,0-2.4,0-3.6,0c1.4,3.2,1.3,6.7,1.3,10.1c0,2.2-0.1,4.4-0.3,6.6c-0.5,4.8-1.3,9.5-2.7,14.2
				c-1.5,5.1-3.9,9.9-6.5,14.5c-3.4,5.8-8,10.3-14.1,13.3c-0.3,0.1-0.6,0.5-1,0.2c5.2-4.3,9.2-9.5,12.2-15.4
				c3-5.9,5.2-12.1,6.2-18.7c0.3-1.7,0.6-3.3,0.7-5c0.1-1.1-0.6-1.8-1.5-1.8c-1.1,0-1.6,0.5-1.7,1.6c-0.1,0.5-0.2,1.1-0.2,1.6
				c-0.8,7-2.8,13.6-5.9,19.9c-3,6-6.9,11.2-12.1,15.5c-2,1.7-4,3.6-7.1,2.5c0.4-0.4,0.8-0.7,1.2-1.1c2.3-2,4.5-4,6.4-6.4
				c3.2-4.1,6-8.6,8.1-13.4c1.2-2.9,2.1-5.9,3.1-8.9c0.3-1,0-1.9-1.1-2.2c-1-0.3-1.7,0.3-2.1,1.3c-0.1,0.2-0.2,0.5-0.2,0.7
				c-0.9,2.8-1.8,5.6-3,8.3c-3.8,8.5-9.3,15.6-17,20.9c-0.8,0.5-1.5,0.7-2.4,0.7c-3.9,0-7.8-0.5-11.7-0.7c-4.4-0.3-8.7-0.8-12.9-2.3
				c-0.7-0.2-1.4-0.5-2,0.1c-0.2,0.3-0.3,0.5-0.3,0.8c0,0.4,0.1,0.8,0.2,1.2c0.1,0.3,0.2,0.6,0.4,0.9c0,0.1,0.1,0.2,0.1,0.3
				c1.5,3,3.5,5.7,5.9,8c0.7,0.7,1.6,1.1,2.6,1.2c5.3,0.4,10.6,0.5,15.9,0.5c1.4,0,2.8,0,4.2,0.1c4.9,0.3,9.8,0.6,14.7,0.9
				c3,0.2,5.9,0.4,8.9,0.5c0.8,0,1.4,0.3,1.8,1.2c0.5,1.2,0.9,2.3,1.2,3.5c1.1,4,1.8,8.1,2,12.3c0.3,4.7,0.5,9.5-0.2,14.2
				c-0.2,1.4,0.2,2.2,1.2,2.4c1,0.2,1.8-0.5,2-1.9c0.8-5,0.6-9.9,0.3-14.9c-0.4-5.4-1.2-10.6-3-15.7c-0.1-0.3-0.3-0.8,0.2-0.8
				c0.9,0,1.9-0.2,2.5,0.9c1.2,2,2.1,4,2.7,6.2c1.6,5.9,1.9,11.9,2.2,18c0.1,2.2,0.1,4.4-0.2,6.7c-0.1,1,0.7,2,1.5,2
				c1.1,0,1.6-0.8,1.7-1.8c0.2-1.3,0.3-2.5,0.3-3.8c0.1-2.8-0.2-5.5-0.3-8.3c-0.2-2.7-0.5-5.3-0.8-8c-0.5-3.8-1.6-7.5-3.2-11
				c-0.3-0.6-0.1-0.8,0.5-0.8c2.2,0,4.2,0.4,5.6,2.5c0.9,1.4,1.6,2.8,1.9,4.4c1.3,6.6,1.4,13.2,1.1,19.8c-0.6,11.1-1.9,22.1-3.8,33
				c-2.1,11.7-6.7,22.2-15.8,30.3c-8.3,7.4-17.8,11.3-28.9,11.4c-5.5,0-11,0-16.5,0c-2.2,0-2.8,0.4-3.4,2.5
				c-0.1,0.4-0.3,0.9-0.4,1.3c-1.8,5.9-3.4,11.9-4.6,18c-1,5.1-1.2,10.2-1.4,15.4c-0.1,3.8-0.4,7.6,0.2,11.4c0,0.1,0,0.2,0,0.3
				c0.1,0.9,0.2,1.8,0.2,2.6c0,0.9-0.1,1.8-0.4,2.7c-0.5,1.4,0,2.8,0.5,4.2c1.6,4.5,5.2,7.3,8.3,10.6c1.2,1.3,3,1.4,4.8,1.6
				c0,0,0,0,0,0c1.4,0.1,2.8,0.3,4.3,0.3c1.4,0.1,2.8,0.1,4.1,0.2c6,0.1,12-0.2,17.9-0.4c0.6,0,1.2,0,1.8,0c5.5-0.1,11-0.2,16.5-0.1
				c12.2,0.2,24.4,0.1,36.6,0.1c0.8,0,1.6,0,2.3,0.1c0.2,0,0.4,0,0.6,0.1c4.6,0.4,8.3-1.6,11.3-4.9c0.4-0.5,0.8-0.9,1.2-1.4
				c2.3-3.2,3.4-6.9,4.1-10.8c0.3-1.3,0.1-2.6,0.4-3.9c0.1-0.3,0.1-0.7,0.2-1C389.7,418.5,389.1,411.2,388.2,404z"/>
			<path class="st8" d="M326,228.8c0.9,0.1,1.7-0.8,1.8-1.8c0.1-0.7,0-1.3,0-2c0,0,0,0,0,0c0-0.5,0-0.9,0-1.4c0-1.4-0.5-2-1.6-2
				c-1,0-1.7,0.7-1.7,2c-0.1,1.1,0,2.2,0,3.3C324.5,227.9,324.8,228.7,326,228.8z"/>
			<path class="st8" d="M334.9,219.1c1-0.1,1.5-0.8,1.5-1.8c0-0.4,0-0.7,0-1.1c0,0,0,0,0,0c0-0.5,0-1.1-0.1-1.6
				c-0.2-0.8-0.7-1.3-1.6-1.3c-0.9,0-1.4,0.5-1.6,1.2c-0.2,1-0.2,2.1,0,3C333.4,218.5,333.9,219.2,334.9,219.1z"/>
			<g>
				<path class="st9" d="M298.9,211.7c-0.3,1.8-1,3.6-1.5,5.4c-2.6,8.1-5.2,16.2-7.9,24.4c-0.4,1.2-0.7,2.5-1.1,3.8
					c-0.4,1.2-1.5,1.9-2.4,1.7c-1.2-0.3-1.6-1.4-1.2-2.8c2.6-8.7,5.4-17.3,8.3-25.9c0.8-2.3,1.4-4.7,2.2-7.1c0.3-1,1-1.6,2.1-1.4
					C298.4,209.8,298.8,210.6,298.9,211.7z"/>
				<path class="st9" d="M287,299.3c0.2-4.2,0.4-8.8,0.5-13.3c0.1-1.9,0.1-3.8,0.2-5.7c0-0.5,0-1,0.2-1.5c0.4-1.2,1-1.8,2.1-1.6
					c1.1,0.2,1.5,1,1.6,2c0.1,1.1-0.2,2.1-0.2,3.2c0.1,3.6-0.3,7.2-0.3,10.7c-0.1,2.3-0.1,4.7-0.2,7c0,1-0.4,1.8-1.4,2.3
					c-0.7,0.3-1.3,0-1.8-0.4C286.9,301.5,287,300.5,287,299.3z"/>
				<path class="st9" d="M296.4,286.6c-0.2-2,0.1-4.4,0.3-6.8c0.1-1.1,0.7-1.7,1.8-1.7c1.1,0,1.7,0.6,1.8,1.7
					c0.2,4.1-0.2,8.1-0.3,12.2c0,0.9-1.1,1.7-1.9,1.6c-1-0.2-1.7-0.7-1.7-1.8C296.4,290.1,296.4,288.6,296.4,286.6z"/>
				<path class="st9" d="M284.5,254.6c-1.4,0-2.6-1.2-2.6-2.5c0-1.4,1-2.4,2.3-2.4c1.4,0,2.8,1.2,2.7,2.5
					C286.9,253.6,285.8,254.7,284.5,254.6z"/>
			</g>
			<path class="st13" d="M370.8,190.1c-2.1,0-5.3,0-9.2-0.1c0.6,0,1.2,0.1,1.8,0.1C365.8,190.1,368.3,190.1,370.8,190.1z"/>
			<path class="st13" d="M288,203.3c-0.2-0.2-0.3-0.5-0.3-0.8c0-0.7,0.4-1.2,1.1-1.3c0.6-0.1,1.1-0.2,1.7-0.2
				c5.6,0,11.2-0.2,16.8-0.1c14.8,0.2,29.5,0.1,44.3,0.1c0.8,0,1.6,0,2.4,0c0.6,0,1-0.2,1-0.9c0-0.7-0.4-0.8-1-0.8
				c-3.9,0.1-7.8-0.3-11.7,0.2c-0.5,0.1-1.1,0-1.6,0c-12.9,0-25.7,0-38.6,0c-3.3,0-6.6,0.4-9.9,0.2c-0.5,0-1,0-1.5-0.2
				c-0.7-0.4-1.2-0.9-1.2-1.8c0.1-0.9,0.6-1.4,1.3-1.6c0.4-0.1,0.9-0.2,1.3-0.2c20.3,0.2,40.6-0.4,60.9-0.3c1.7,0,1.7,0,1.7-1.6
				c0-0.7,0-1.4,0-2.1c0-1.4,0.3-1.9,1.4-2.1c-24.3-0.2-65.3-0.4-66.5-0.3c-1.9,0.1-2.5,0.8-2.5,2.6c0,3,0,6,0.1,9
				c0,0.8,0.2,1.3,0.5,1.7C287.7,203.1,287.9,203.2,288,203.3z"/>
			<path class="st14" d="M354.7,192.1c0,0.7,0,1.4,0,2.1c0,1.6,0,1.6-1.7,1.6c-20.3-0.2-40.6,0.4-60.9,0.3c-0.4,0-0.9,0-1.3,0.2
				c-0.8,0.2-1.3,0.7-1.3,1.6c-0.1,0.9,0.4,1.5,1.2,1.8c0.5,0.2,1,0.2,1.5,0.2c3.3,0.1,6.6-0.2,9.9-0.2c12.9,0,25.7,0,38.6,0
				c0.5,0,1.1,0,1.6,0c3.9-0.5,7.8-0.1,11.7-0.2c0.6,0,1,0.1,1,0.8c0,0.6-0.4,0.9-1,0.9c-0.8,0-1.6,0-2.4,0
				c-14.8,0-29.5,0.1-44.3-0.1c-5.6-0.1-11.2,0.1-16.8,0.1c-0.6,0-1.2,0-1.7,0.2c-0.7,0.1-1.1,0.6-1.1,1.3c0,0.3,0.1,0.6,0.3,0.8
				c0.2,0.2,0.4,0.4,0.8,0.4c0.7,0.2,1.4,0.3,2.1,0.3c4.9,0.1,9.9,0.1,14.8,0.2c11,0.1,22,0,33.1,0c0,0,0,0,0,0.1c0.7,0,1.4,0,2.1,0
				c1.2,0,2.4,0,3.6,0c0.8,0,1.7,0,2.5,0c1.1,0,2.2,0,3.3,0c1.7,0,3.4,0,5.1,0c5.9,0,11.9,0,17.8,0c0.6,0,1.1-0.1,1.5-0.3
				c0,0,0,0,0,0c0.7-0.4,1-1.1,1.1-2.1c0.1-3.1-0.1-6.2-0.2-9.3c0-2.1-0.4-2.4-2.5-2.4c-0.8,0-1.5,0-2.3,0c-2.5,0-5,0-7.5,0
				c-0.6,0-1.2,0-1.8-0.1c-1.5-0.1-3.1-0.2-4.6-0.1c-0.3,0-0.6,0-0.8,0.1C355.1,190.2,354.7,190.7,354.7,192.1z"/>
		</g>
		<g>
			<path class="st12" d="M193.8,234.3c2.7,0.2,25.1-0.5,29-0.8c0.8-0.1,0.9-0.4,1-1.1c0.1-1.4-0.3-2.7-0.3-4.1
				c0-1.8-0.8-2.7-2.6-2.8c-2.1-0.1-4.1-0.3-6.2-0.3c-6,0-12,0-17.9,0c-2.1,0-4.3,0.2-6.4,0.3c-1.3,0.1-2.4,1.1-2.4,2.2
				c-0.1,1.6-0.1,3.1-0.1,4.7c0,0.2,0.1,0.4,0.2,0.6C189.1,234.2,192.7,234.2,193.8,234.3z"/>
			<path class="st14" d="M229.3,205.4c0,0.6-0.1,1.2-0.2,1.8c-0.1,0.4-0.4,0.7-0.9,0.7c-0.2,0-0.3-0.1-0.5-0.1
				c-1.5,0.6-2.2,0.7-2.3-1c-0.2-3.9,0.1-7.8,0.1-11.8c-0.1-1.6-0.2-3.1-0.2-4.7c0-0.6,0-2.2-0.6-2.2c-1.2-0.1-2.4-0.1-3.6-0.1
				c-0.8,0-1.7-0.7-1.6,0.1c0.2,4.1,0.2,10,0.2,13.9c-0.1,6.2-1.4,8.4-2.3,8.5c-2.3,0.2-4.5,0.4-6.8,0.6c-5.3,0.5-10.6-0.1-15.9-0.6
				c-2.2-0.2-1.9,0.2-2.3-1.9c-0.1-0.6-0.6-16.6-0.2-20.7c0.2-1.8,1.2-2.4,3.3-2.3c3.4,0.2,6.8,0.4,10.2,0.4c3.5,0,6.9-0.4,10.4-0.4
				c3.6,0,7.2-0.2,10.8,0.2c1.9,0.2,2.3,0.7,2.5,2.6C229.5,190.4,229.3,201.7,229.3,205.4z"/>
			<path class="st14" d="M205.8,214.9c4.4-0.1,8.7,0.1,12.8,1.7c2.2,0.8,4.3,1.8,5.8,3.8c1.9,2.5,1.4,5.2,1.1,8c-0.1,1-1,1-1.8,0.9
				c-4.6,0-35.3,0-36.4,0c-0.7,0-1.3-0.2-1.4-0.9c-0.1-2-0.6-3.9,0-5.9c0.8-2.6,2.8-4.2,5.3-5.3c4.2-1.9,8.7-2.4,13.3-2.3
				C205,214.9,205.4,214.9,205.8,214.9z"/>
			<path class="st10" d="M203.7,243.5c-1.4-0.2-2.9-0.4-4.4-0.7c0,0-0.1,0-0.1,0c11.1,0.5,22.2-0.6,33-3.2c1.3-0.3,2.6-0.6,3.8-0.7
				c-1.7-0.7-3.1-1.1-4.2-1c-0.5,0.1-8.6-4.3-9-4.4c-3.8,0.4-26.3,1.1-29,0.8c-1.1-0.1-4.8-0.1-5.7-1.3c-0.2,0.1-0.3,0.3-0.5,0.4
				c-0.7,0.9-1.7,1.4-2.7,1.9c-2.6,1.3-5.4,1.9-8.2,2.7c-0.5,0.1-0.9,0.3-1.4,0.3c4.8,2.2,9.9,3.2,15,3.9
				C194.7,242.9,199.2,243.3,203.7,243.5z"/>
			<path class="st10" d="M216.7,265.5c-4.4,4.9-9.6,8.6-15.3,11.7c-1,0.5-2.2,0.8-3.3,0.8c-0.5-0.1-0.9-0.1-1.3,0.1
				c-0.6,0.2-1.1,0.1-1.5-0.2c0.4,2.4,1.2,4.6,2.4,6.7c3.8-1.5,7.3-3.5,10.5-6.2c3.8-3.1,7.4-6.5,10.3-10.5c4.2-5.7,7.1-12.1,8-19.2
				c0.2-1.6,0-3.3,0.1-5c-0.3,0-0.5,0-0.8,0.1C225.4,247.8,222.8,259.9,216.7,265.5z"/>
			<path class="st10" d="M134.3,384.6c0.4-1.4,0.8-2.9,1.9-3.8c1.1-1,2.6-1.3,4.1-1.6c9.4-1.9,18.8-4.4,27.1-9.1
				c8.4-4.7,15.7-11.7,19.2-20.6c2.6-6.5,2.9-13.7,3-20.7c0.2-17.5-1.2-35-4.3-52.3c1.5-0.1,3.1-0.3,4.6-0.4
				c4.1-3.5,7.9-7.3,11.7-11.2c4.6-4.6,8.1-10.1,9.9-16.5c0.1-0.5,0.7-1.1,0-1.5c-0.7-0.4-2.3,0-2.7,0.7c-0.1,0.2-0.2,0.5-0.3,0.7
				c-2.4,5.4-4.9,10.7-8.4,15.5c-0.9,1.2-1.7,1.4-2.6,0.7c-0.8-0.6-0.9-1.6-0.1-2.6c3.2-4,5.2-8.6,7.4-13.1c0.2-0.4,1-1.1,0.1-1.6
				c-0.9-0.5-2.3,0-2.6,0.9c-0.9,2.7-2.2,5.3-3.4,7.8c-0.8,1.8-1.9,3.4-2.9,5c-0.6,1-1.5,1.3-2.4,0.8c-0.8-0.5-1.1-1.5-0.4-2.5
				c1.5-2.2,2.6-4.5,3.7-6.8c0.7-1.4,1.2-3,1.9-4.4c0.4-0.8,0.2-1.1-0.7-1.1c-8.4-0.3-16.4-2.3-24.1-5.2c-0.7-0.3-1.4-0.6-1.8-1.2
				c-0.3-0.5-0.5-1-0.3-1.5c-1.6,1-3.3,2-4.8,3.2c-5.6,4.2-21.3,16.5-23.2,18.8c-5.3,6.1-7.4,12.8-3.9,20.5c1.3,2.9,12,35.9,12,38.4
				c-0.1,4.7-0.2,9.3-0.7,13.9c-0.5,4.3-1.5,8.5-3.3,12.5c-4.5,10.4-9,20.8-12.2,31.7c-2.5,8.4-4.2,17-4.3,25.8
				c-0.1,3.8,0.5,7.6,1,11.3c0.8,5.2,2.1,10.2,4.2,14.8c-0.6-1.6-1.2-3.4-1.7-5.3C131.2,411.7,130.9,397.6,134.3,384.6z
				 M190.8,267.5c0.5-1,1.1-1.9,1.9-2.7c0.6-0.6,1.4-1,2.2-0.4c0.8,0.6,0.8,1.4,0.3,2.2c-0.5,0.9-1.1,1.8-1.7,2.7
				c-0.3,0.4-0.7,0.6-1,0.5C191.1,269.8,190.3,268.6,190.8,267.5z"/>
			<path class="st11" d="M226.4,248.8c-0.8,7.1-3.8,13.5-8,19.2c-2.9,4-16.9,15.2-20.7,16.7c2.7,4.7,7.1,8.6,12,11
				c7.8,3.8,16.7,4.6,25.4,5.1c1.8-4.5-0.9-10.2,1.6-14.4c14.3-24.6,8.8-32.1,1.8-40.4c-1-1.2-2.2-2.4-3.7-2.8
				c-0.6-0.2-3.7,0.3-8.3,0.7C226.5,245.5,226.6,247.2,226.4,248.8z"/>
			<path class="st11" d="M172.4,240.4c0.4,0.6,1.1,1,1.8,1.2c7.8,3,15.8,4.9,24.1,5.2c0.9,0,1.1,0.3,0.7,1.1c-0.7,1.5-1.2,3-1.9,4.4
				c-1.1,2.3-2.2,4.7-3.7,6.8c-0.7,1-0.5,2,0.4,2.5c0.9,0.5,1.7,0.2,2.4-0.8c1-1.6,2.1-3.3,2.9-5c1.2-2.6,2.5-5.1,3.4-7.8
				c0.3-0.8,1.7-1.4,2.6-0.9c0.8,0.5,0.1,1.1-0.1,1.6c-2.2,4.5-4.2,9.2-7.4,13.1c-0.8,1-0.7,2,0.1,2.6c0.9,0.7,1.7,0.5,2.6-0.7
				c3.6-4.7,6-10.1,8.4-15.5c0.1-0.2,0.2-0.5,0.3-0.7c0.4-0.7,2-1.1,2.7-0.7c0.7,0.4,0.1,1,0,1.5c-1.8,6.4-5.3,11.8-9.9,16.5
				c-3.8,3.8-7.6,7.7-11.7,11.2c1.7-0.1,3.4-0.3,5-0.4c0,0.8,0.1,1.6,0.2,2.3c0.4,0.3,4.2,1.2,4.7,1c0.4-0.2,12.2-8.5,16.6-13.3
				c6.2-5.7,8.7-17.8,9-21.6c-5.7,0.5-13.5,0.8-22-0.4c-4.5-0.2-8.9-0.6-13.4-1.2c-5.2-0.7-10.2-1.8-15-3.9c0,0-0.1,0-0.1,0
				c-0.4-0.2-0.8-0.3-1.3-0.4c-0.7-0.2-1.3,0.1-1.7,0.7c0,0.1-0.1,0.1-0.1,0.2C171.9,239.4,172.1,239.9,172.4,240.4z M217.4,246.4
				c3-0.1,2.6-0.3,1.8,2.1c-1.3,3.9-2.6,7.8-5.1,11.2c-4.3,5.5-9.3,10.2-15.4,13.6c-0.2,0.1-0.5,0.2-0.8,0.3
				c-0.1-0.1-0.1-0.2-0.2-0.3c1.9-1.9,3.9-3.8,5.8-5.7c5.4-5.5,9.5-11.8,11.5-19.3C215.4,247,216.1,246.5,217.4,246.4z"/>
			<path class="st11" d="M192.4,269.9c0.4,0.1,0.8-0.2,1-0.5c0.6-0.9,1.2-1.7,1.7-2.7c0.5-0.8,0.5-1.6-0.3-2.2
				c-0.8-0.6-1.6-0.2-2.2,0.4c-0.8,0.8-1.4,1.7-1.9,2.7C190.3,268.6,191.1,269.8,192.4,269.9z"/>
			<path class="st12" d="M256.3,327.7c-0.4-3.2-0.4-6.4-0.1-9.6c0.2-1.9,0.5-3.9,0.9-5.7c2.3-10.5,7.7-20.3,11.2-30.5
				c1.3-3.7,2.3-7.6,1.5-11.4c-0.8-3.7-3.3-6.8-5.8-9.6c-6.3-7-13.3-13.5-20.8-19.1c-1.5-1.2-3.2-2.3-5.1-2.7
				c-0.6-0.1-1.3-0.1-2-0.1c-1.3,0.1-2.6,0.4-3.8,0.7c-10.8,2.6-21.9,3.7-33,3.2c0,0,0.1,0,0.1,0c1.5,0.3,3,0.5,4.4,0.7
				c8.6,1.2,16.4,0.9,22,0.4c0.3,0,0.5,0,0.8-0.1c4.6-0.4,7.7-0.9,8.3-0.7c1.5,0.5,2.7,1.6,3.7,2.8c7,8.3,6.1,17.7-0.9,30.9
				c-1.4,2.6-13.6,9.7-21.5,5.9c-4.9-2.4-25-8.4-26.6-8.3c-1.5,0.1-2.5,1.9-4.1,2c3.1,17.2,4.5,34.8,4.3,52.3
				c-0.1,7-0.5,14.2-3,20.7c-3.5,8.9-10.8,15.9-19.2,20.6c-8.4,4.7-17.7,7.2-27.1,9.1c-1.4,0.3-3,0.6-4.1,1.6
				c-1.1,1-1.5,2.4-1.9,3.8c-3.5,13.1-3.1,27.1,0.8,40c0.6,1.9,1.1,3.6,1.7,5.3c2.4,6.5,5.2,11.2,9.9,14.3c0.9,0.6,1.9,1.1,3,1.6
				c2.7,1.2,5.9,2,9.7,2.4c29.9,3.3,60.2,3.3,90.1,0.1c3.7-0.4,7.4-0.9,10.6-2.7c0.2-0.1,0.3-0.2,0.5-0.2c0.2-0.1,0.4-0.3,0.6-0.4
				c2.6-1.8,4.6-4.3,6.3-7c12.1-19.1,11.5-44,4-65.3C266.4,357.7,258,343.1,256.3,327.7z"/>
			<path class="st13" d="M183.7,225.1c-1.8,0-2.2-0.4-2.3-2.2c-0.1-5.6-0.2-11.2-0.2-16.8c0-1.4,0.4-1.9,1.7-1.9
				c7.4,0,37.9-0.3,45.8,0c1.4,0.1,1.7,0.3,1.7,1.7c0,5.6,0,11.2-0.1,16.8c0,1.9-0.5,2.4-2.5,2.4C220.5,225,189.4,225,183.7,225.1z"
				/>
			<path class="st14" d="M197,213.7c0,2.6,0,5.1,0,7.7c0,0.6,0,1.3-0.8,1.3c-0.8,0-1-0.6-1-1.3c0-5.2,0-10.4,0-15.6
				c0-0.6,0.2-1.1,0.9-1.2c0.7,0,1,0.5,1,1.2C197,208.4,197,211.1,197,213.7C197,213.7,197,213.7,197,213.7z"/>
			<path class="st14" d="M228,214.9c0,2.4,0,4.9,0,7.3c0,0.7,0,1.5-0.9,1.5c-0.9,0-0.9-0.8-0.9-1.4c0-4.9,0-9.9,0-14.8
				c0-0.7,0.1-1.5,1-1.4c0.9,0,0.9,0.8,0.9,1.5C228,210,228,212.5,228,214.9z"/>
			<path class="st14" d="M214.8,222.8c0,0.7-0.1,1.4-0.9,1.4c-0.8,0-0.9-0.7-1-1.3c0-5.3,0-10.5,0-15.8c0-0.6,0.2-1,0.8-1
				c0.7,0,0.8,0.5,0.8,1.1C214.6,210.4,214.8,220.8,214.8,222.8z"/>
			<path class="st14" d="M206.9,207.8c0-0.4,0-0.8,0.1-1.1c0.1-0.4,0.4-0.7,0.9-0.7c0.4,0,0.7,0.3,0.8,0.7c0.1,0.2,0.1,0.5,0.1,0.7
				c-0.2,4.9,0.2,15.3,0.2,15.6c0,0.4-0.2,0.7-0.6,0.8c-0.5,0.1-0.8-0.2-1-0.6c-0.3-0.5-0.2-1-0.2-1.6
				C207.1,220.2,206.8,211,206.9,207.8z"/>
			<path class="st14" d="M190.4,213.8c0,2.4,0,4.8,0,7.2c0,0.6,0.1,1.4-0.8,1.3c-0.8,0-0.7-0.8-0.7-1.3c-0.1-4.6-0.4-9.3-0.3-13.9
				c0-0.3,0-0.7,0-1c0-0.6,0.1-1.1,0.9-1.1c0.7,0,0.9,0.5,0.9,1.1c0,1.3,0,2.6,0,3.8C190.4,211.2,190.4,212.5,190.4,213.8z"/>
			<path class="st14" d="M200.4,214.8c0-2.3,0-4.6,0-6.9c0-0.6-0.1-1.4,0.8-1.4c0.8,0,0.7,0.7,0.8,1.3c0.4,4.5,0.2,9,0.2,13.4
				c0,0.3,0,0.7,0,1c0,0.6-0.1,1.1-0.8,1.1c-0.8,0-1-0.5-1-1.1c0-1.1,0-2.2,0-3.3C200.4,217.5,200.4,216.1,200.4,214.8z"/>
			<path class="st14" d="M220.1,214.7c0-2.5,0-4.9,0-7.4c0-0.6-0.1-1.3,0.7-1.3c0.8,0,0.9,0.6,0.8,1.2c0,0.6,0.3,9.9,0.2,13.9
				c0,0.2,0,0.5,0,0.7c0,0.8,0.1,1.8-1,1.8c-1,0-0.9-1-0.9-1.7C220.1,219.5,220.1,217.1,220.1,214.7z"/>
			<path class="st13" d="M214.2,188.9c-7.5-0.4-14.9,0.1-22.4,0c-1.7,0-2.8-1.7-2.2-3.3c0.2-0.5,0.6-0.6,1-0.6
				c1.1-0.1,2.1-0.2,3.2-0.2c7.9,0,15.8,0,23.7,0c1.1,0,2.1,0.1,3.2,0.2c0.8,0,1.1,0.4,1,1.2c0,0.4,0,0.7-0.1,1.1
				c-0.1,1.1-0.5,1.6-1.7,1.6C218.1,188.9,216.2,188.9,214.2,188.9z"/>
			<g>
				<path class="st9" d="M172.8,245c0.9-0.1,1.5,0.3,1.7,1.1c0.2,1,0.1,1.9-1,2.4c-2.2,1.1-4.4,2.3-6.3,3.8
					c-6.9,5.4-11.7,12.2-13.6,20.8c-0.5,2.4-0.4,4.9-0.3,7.3c0,1.3-0.7,2.2-1.7,2.3c-1,0.1-1.7-0.7-1.9-2
					c-0.8-5.4,0.4-10.5,2.5-15.5c2.1-4.8,5.1-9.1,9-12.7c3.1-3,6.5-5.5,10.5-7.2C172,245.1,172.4,245,172.8,245z"/>
				<path class="st9" d="M187.3,220.4c-1.1,0-2.1-0.7-2-2c0.1-2.5-0.4-4.9-0.3-7.4c0-0.5,0-1-0.1-1.5c-0.2-1.3,0.6-2.5,1.8-2.7
					c1-0.1,1.9,0.8,2,2.1c0.1,2,0.2,4.1,0.3,6.1C188.9,218.8,188.4,220.4,187.3,220.4z"/>
				<path class="st9" d="M199.3,196.5c0,1.1,0,2.2,0,3.3c0,1.2-0.6,1.8-1.7,1.8c-1.2,0-1.9-0.6-1.9-1.8c0-1.2,0-2.3,0-3.5
					c0-0.9-0.2-3.7,0.1-4.3c0.4-0.7,0.9-1.5,1.9-1.3c1,0.2,1.6,0.8,1.7,1.8C199.4,193.9,199.3,195.2,199.3,196.5
					C199.3,196.5,199.3,196.5,199.3,196.5z"/>
				<path class="st9" d="M152.8,289.1c-0.9,0-1.9-1-1.9-1.8c0-1.1,1.2-2.1,2.2-2.1c1,0,1.9,1,1.8,2
					C154.9,288.2,153.9,289.1,152.8,289.1z"/>
			</g>
			<path class="st10" d="M197.7,273.4c0.1,0.1,0.1,0.2,0.2,0.3c0.3-0.1,0.5-0.2,0.8-0.3c6.2-3.4,11.2-8.1,15.4-13.6
				c2.6-3.3,3.8-7.3,5.1-11.2c0.8-2.4,1.1-2.3-1.8-2.1c-1.3,0.1-2,0.6-2.3,2c-2,7.5-6.1,13.8-11.5,19.3
				C201.7,269.6,199.7,271.5,197.7,273.4z"/>
		</g>
		<g>
			<g>
				<path class="st8" d="M160.9,287.8c6.1-1.5,12.2-3,18.3-4.5c8.5-2.1,16.9-4.2,25.4-6.3c8.1-2,16.3-4,24.4-5.9
					c-0.3-1.7-0.6-3.5-0.8-5.2c-0.3-1.9-0.8-3.7-1.2-5.5c-0.2-1-1-1.3-1.8-1.4c-0.4,0-0.9,0.2-1.4,0.4c-7.9,3.1-15.7,6.2-23.6,9.4
					c-7.7,3-15.3,6.1-23,9.1c-11.5,4.6-23.1,9.2-34.7,13.7c-1.6,0.6-3.1,1.3-4.5,1.8c3.6-0.8,7.2-1.7,10.8-2.6
					C152.8,289.8,156.8,288.8,160.9,287.8z"/>
				<path class="st7" d="M274,424.5c-1.2-4.8-2.4-9.5-3.5-14.3c-1.7-7.1-3.5-14.3-5.2-21.4c-2.1-8.5-4.2-17-6.3-25.5
					c-1.6-6.3-3.1-12.7-4.6-19c-1.8-7.2-3.6-14.5-5.4-21.7c-1.4-5.9-2.9-11.8-4.3-17.7c-1.7-6.8-3.4-13.5-5-20.3
					c-1.1-4.6-2.3-9.3-3.4-14c-0.2-0.9-0.7-1.2-1.6-1c-1.9,0.5-3.7,0.9-5.6,1.4c0,0,0,0,0,0c-8.1,2-16.3,3.9-24.4,5.9
					c-8.5,2.1-16.9,4.2-25.4,6.3c-6.1,1.5-12.2,3-18.3,4.5c-4.1,1-8.1,2-12.2,3c-3.6,0.9-7.2,1.7-10.8,2.6c0,0-0.1,0-0.1,0
					c-1,0.2-1.3,0.8-1.1,1.8c1.6,6.5,3.2,13,4.8,19.4c2,8.2,4.1,16.4,6.1,24.6c1.7,7.1,3.4,14.2,5.2,21.3c1.8,7.3,3.6,14.6,5.5,21.9
					c1.4,5.5,2.7,10.9,4,16.4c1.2,4.9,2.4,9.8,3.6,14.7c1,4.2,2.1,8.3,3.1,12.5c0.8,3.1,1.6,6.2,2.3,9.3c1.2,4.7,2.3,9.4,3.4,14.1
					c0.2,0.8,0.6,1,1.4,0.8c1.4-0.4,2.8-0.7,4.2-1c7.1-1.7,14.1-3.4,21.2-5.2c9.6-2.4,19.2-4.7,28.8-7.1c6.4-1.6,12.8-3.2,19.2-4.7
					c6.7-1.7,13.5-3.3,20.2-5c1.3-0.3,2.6-0.7,3.7-1C274.3,425.8,274.2,425.2,274,424.5z"/>
			</g>
			<g>
				<path class="st8" d="M266.2,392.5c0.3,2.2,2,4.2,0.3,6.4c-0.6,0.8-0.9,1.7-1.4,2.6c-0.3,0.5-0.2,0.7,0.3,1c1,0.5,1.9,1.2,3,1.7
					c0.8,0.4,1.1,0.9,1.3,1.7c0.2,0.9,0.4,1.8,0.7,2.7c0,0.2,0.2,0.5,0,0.6c-0.3,0.2-0.5,0-0.7-0.1c-1.9-1.1-3.8-2.2-5.6-3.3
					c-0.7-0.4-1-0.3-1.3,0.3c-3.1,5.6-6.1,11.3-9.2,16.9c-0.5,0.9-0.1,1.3,0.6,1.7c2.3,1.3,4.6,2.6,6.9,3.9c0.3,0.2,0.8,0.2,0.7,0.7
					c-0.1,0.4-0.6,0.3-0.9,0.4c-0.1,0-0.2,0-0.2,0.1c-2.6,1.3-4.8,0.4-6.9-1.1c-2.4-1.6-2.4-1.6-3.7,0.9c-0.1,0.1-0.1,0.2-0.2,0.3
					c-1.8,3.3-1.8,3.3-5.5,4.2c-0.2,0-0.5,0.2-0.6,0c-0.2-0.3,0-0.5,0.1-0.7c1.2-2.3,2.5-4.7,3.8-7c0.4-0.8,0.3-1.1-0.4-1.5
					c-3.8-2.1-7.6-4.3-11.4-6.5c-0.9-0.5-1.4-0.5-1.9,0.5c-2.8,5.2-5.6,10.3-8.5,15.5c-0.4,0.8-0.4,1.2,0.5,1.6c1,0.5,2,1.2,3,1.9
					c-1.8,0.4-3.3,1.8-5.3,0.9c-0.2-0.1-0.5-0.2-0.6,0.1c-0.7,1.4-2.1,1.2-3.2,1.6c-0.6,0.2-1.4,0.7-1.8,0.3
					c-0.3-0.5,0.5-1.1,0.8-1.6c0.3-0.8,1.2-1.4,1-2.2c-0.1-0.7-1.2-0.9-1.9-1.3c-3.4-2-6.9-4-10.4-6c-0.7-0.4-1-0.2-1.4,0.5
					c-1.8,3.4-3.5,6.8-5.3,10.1c-0.3,0.6-0.2,0.9,0.4,1.2c1.6,0.8,3.1,1.7,5,2.7c-1.8,0.5-3.3,0.9-4.8,1.2c-0.7,0.1-1.3-0.5-2-0.8
					c-0.3-0.1-0.8-0.4-1,0.1c-0.6,2-2.5,2.1-4.1,2.5c-0.4,0.1-0.8,0.1-1.5,0.2c0.7-1.3,1.3-2.5,1.9-3.6c0.7-1.3,0.7-1.3-0.6-2
					c-4.1-2.2-8.1-4.3-12.2-6.5c-0.9-0.5-1.2-0.2-1.6,0.6c-1.8,3.6-3.6,7.1-5.4,10.7c-0.1,0.2-0.2,0.3-0.5,0.7
					c-0.6-2.6-1.9-4.8-0.2-7.3c1.2-1.9,2.1-4,3.2-6c0.3-0.6,0.3-0.9-0.4-1.2c-2.1-1.1-4.2-2.3-6.3-3.4c-0.6-0.3-0.9-0.7-1-1.4
					c-0.1-0.8-0.4-1.6-0.5-2.4c-0.1-0.3-0.4-0.7,0-0.9c0.3-0.2,0.6,0.1,0.8,0.3c2.8,1.5,5.6,2.9,8.4,4.4c0.8,0.4,1.2,0.4,1.6-0.5
					c1.7-3.5,3.5-7,5.3-10.5c0.5-1,0.4-1.4-0.5-1.9c-3.4-1.9-6.8-3.9-10.2-5.9c-1.1-0.7-2.3-1.3-3.4-2c-1-0.7-1.4-0.3-1.8,0.6
					c-0.7,1.6-1.6,3.1-2.4,4.6c-0.1,0.2-0.3,0.3-0.5,0.7c-0.4-1.7-0.9-3.2-1.1-4.7c-0.2-0.9,0.6-1.6,1-2.3c0.7-1.3,0.7-1.4-0.6-2
					c-1.3-0.6-2-1.5-2.2-2.9c-0.1-0.9-0.4-1.8-0.7-2.9c1.7,1,3.2,1.8,4.7,2.7c1.2,0.7,1.1,0.7,1.8-0.5c2.1-4,4.2-7.9,6.3-11.9
					c0.6-1.1,1.2-2.2,1.8-3.3c0.3-0.6,0.3-1-0.4-1.4c-4.1-2.3-8.1-4.6-12.2-6.9c-0.9-0.5-1.3-0.4-1.8,0.5c-0.9,1.9-1.9,3.7-2.9,5.5
					c-0.1,0.2-0.2,0.7-0.6,0.6c-0.4,0-0.3-0.5-0.4-0.7c-0.3-1.1-0.5-2.1-0.8-3.2c-0.1-0.5,0-0.9,0.2-1.3c0.5-1,1.1-2,1.6-3
					c0.3-0.6,0.4-1-0.3-1.2c-3-0.9-4-3.3-4.3-6.2c0-0.1,0-0.1,0-0.3c0.8,0.1,1.3,0.6,1.9,1c1.4,0.8,2.8,1.5,4.1,2.4
					c0.6,0.3,0.8,0.3,1.1-0.3c3.3-6.2,6.7-12.3,10.1-18.5c0.4-0.7,0.3-1.1-0.4-1.5c-3.1-1.8-6.2-3.6-9.3-5.4c-0.6-0.3-0.8-0.1-1,0.4
					c-1.8,3.2-3.5,6.3-5.3,9.5c-0.8,1.5-1.7,3-2.5,4.4c-0.1,0.2-0.3,0.5-0.4,0.5c-0.4,0-0.3-0.3-0.4-0.6c-0.3-1.1-0.5-2.1-0.8-3.2
					c-0.2-0.7,0-1.3,0.3-1.8c1.9-3.4,3.8-6.8,5.8-10.2c0.4-0.8,0.5-1.2-0.4-1.7c-3.3-1.8-6.4-3.8-9.7-5.6c-0.6-0.3-0.8-0.7-1.1-1.3
					c-0.9-2.6-0.9-4.8,0.7-7.3c3.2-5,5.9-10.3,8.9-15.5c0.5-0.8,0.4-1.2-0.5-1.7c-5.7-3.2-11.3-6.5-16.9-9.8c-0.4-0.2-0.7-0.5-0.8-1
					c-0.3-1.1-0.5-2.2-0.8-3.3c-0.1-0.2-0.2-0.5,0.1-0.6c0.1-0.1,0.4,0,0.5,0.1c4.9,2.9,9.8,5.7,14.7,8.6c1.8,1,3.6,2,5.4,3.1
					c0.7,0.4,0.8,0,1.1-0.5c1.4-2.5,2.8-5,4.3-7.5c2.1-3.6,4.1-7.3,6.2-10.9c0.5-0.8,0.3-1.2-0.5-1.6c-1.2-0.6-2.4-1.4-3.6-2.1
					c-0.9-0.5-1.3-1.7-0.7-2.5c0.5-0.8,1.7-1.1,2.6-0.6c1.2,0.7,2.4,1.4,3.6,2.1c0.7,0.4,1.1,0.5,1.5-0.3c0.9-1.7,2-3.4,2.9-5.1
					c0.7-1.2,1.6-1.6,2.5-1.1c1.1,0.6,1.3,1.5,0.6,2.8c-1,1.8-2,3.6-3,5.3c-0.3,0.5-0.3,0.8,0.3,1.2c3.3,1.9,6.6,3.8,9.9,5.8
					c0.5,0.3,0.8,0.1,1.1-0.4c0.7-1.2,1.4-2.4,2.1-3.6c1.9-3.3,3.7-6.6,5.6-9.8c0.3-0.6,0.6-1.2,0.4-1.9c-0.1-0.6,0.1-1.2,0.6-1.5
					c1.3-0.5,1.7-1.7,2.4-2.7c0.4-0.6,0.9-1,1.7-1c0.8,0,1.2,0.5,1.5,1.2c0.3,0.7,0,1.3-0.3,1.9c-1,1.9-1.1,1.5,0.8,2.5
					c2.5,1.3,5,2.6,7.5,4c0.7,0.4,1.1,0.4,1.6-0.4c2-3.4,3.7-6.8,5.6-10.2c0.3-0.5,0.5-1.1,1.1-1.4c0.8-0.4,1.6-0.2,2.2,0.4
					c0.6,0.6,0.6,1.3,0.2,2.1c-0.9,1.6-1.8,3.2-2.7,4.8c-1.1,2-2.2,4.1-3.3,6.1c-0.4,0.7-0.3,1,0.4,1.4c3.9,2,7.8,4.1,11.6,6.2
					c0.9,0.5,1-0.1,1.3-0.6c2.5-4.7,5-9.4,7.5-14.1c0.3-0.6,0.5-1.6,1.2-1.4c0.7,0.1,0.5,1.1,0.8,1.7c0.8,1.8,0.3,3.3-0.7,5
					c-2,3.4-3.7,7-5.6,10.5c-0.5,0.9-0.4,1.3,0.5,1.7c3.6,1.7,7,3.7,10.5,5.5c0.8,0.4,1.2,0.9,1.4,1.8c0.5,2,1,4,1.5,6
					c0.2,0.8-0.2,1.5-0.5,2.1c-2.1,4.2-4.3,8.4-6.5,12.6c-0.5,1-0.3,1.3,0.6,1.8c3.9,2.2,7.8,4.5,11.7,6.7c0.5,0.3,0.8,0.7,0.9,1.2
					c0.6,2.4,1.2,4.8,1.8,7.2c0.2,0.9,0.1,1.6-0.3,2.4c-2.8,5.2-5.5,10.4-8.3,15.6c-0.3,0.6-0.5,1,0.3,1.5c4.2,2.4,8.3,4.8,12.4,7.2
					c0.8,0.4,1.4,0.7,1.7-0.4c0.1-0.2,0.2-0.5,0.5-0.4c0.3,0,0.3,0.3,0.3,0.5c0.5,1.9,1,3.8,1.4,5.7c0.1,0.5,0.2,1.1-0.6,0.6
					c-0.8-0.4-1-0.1-1.4,0.5c-1.9,3.6-3.9,7.1-5.9,10.7c-1.5,2.6-2.9,5.3-4.4,7.9c-0.4,0.7-0.3,1,0.4,1.4c3.8,2.2,7.6,4.4,11.4,6.7
					c0.9,0.5,1.3,0.3,1.8-0.5c1-1.9,2-3.7,3-5.6C265.5,393.3,265.7,392.9,266.2,392.5z M240.9,356.6c0.1-0.2,0.3-0.4,0.4-0.6
					c3.3-6.2,6.6-12.5,10-18.7c0.4-0.8,0.3-1.1-0.5-1.5c-4.6-2.7-9.3-5.3-13.9-8.1c-0.7-0.4-1.1-0.3-1.5,0.4
					c-1.4,2.9-2.9,5.7-4.4,8.6c-1.8,3.5-3.5,6.9-5.3,10.4c-0.3,0.6-0.3,1,0.4,1.3c1.2,0.6,2.3,1.4,3.5,2.1c3.4,2,6.9,4,10.3,5.9
					C240.2,356.6,240.5,356.8,240.9,356.6z M238.8,360c-0.2-0.1-0.4-0.2-0.6-0.4c-4.5-2.6-9.1-5.2-13.6-7.9
					c-0.9-0.5-1.2-0.3-1.6,0.5c-1.7,3.4-3.5,6.7-5.2,10c-1.5,2.9-2.9,5.9-4.4,8.8c-0.3,0.6-0.2,0.9,0.4,1.2c4.5,2.6,9,5.2,13.5,7.9
					c0.7,0.4,1,0.2,1.3-0.4c1.5-2.9,3-5.7,4.5-8.6c1.8-3.4,3.6-6.7,5.4-10.1C238.7,360.8,239.1,360.5,238.8,360z M210.1,369.6
					c0.2-0.3,0.3-0.5,0.5-0.8c1.6-3.1,3.2-6.2,4.8-9.2c1.6-3.1,3.1-6.2,4.7-9.3c0.3-0.6,0.4-1.1-0.4-1.5c-4.3-2.5-8.6-4.9-12.9-7.4
					c-0.8-0.5-1.1-0.3-1.5,0.5c-3.2,6.1-6.5,12.2-9.7,18.3c-0.5,0.8-0.3,1.3,0.5,1.7c1.5,0.8,2.9,1.7,4.3,2.5
					c2.9,1.7,5.8,3.4,8.8,5.1C209.3,369.6,209.6,369.9,210.1,369.6z M182.9,384.4c0.2,0.1,0.4,0.3,0.6,0.5c4.6,2.6,9.2,5.2,13.8,7.8
					c0.7,0.4,1,0.3,1.3-0.4c3.1-6.1,6.1-12.1,9.2-18.1c0.4-0.7,0.2-1-0.4-1.4c-4-2.3-8.1-4.7-12.1-7.1c-2.1-1.2-2.1-1.2-3.2,0.9
					c-3,5.6-5.9,11.1-8.9,16.7C183,383.6,182.7,383.9,182.9,384.4z M232.4,325.2c-0.1-0.1-0.3-0.2-0.5-0.3c-4.3-2.5-8.6-5-12.9-7.5
					c-0.5-0.3-0.7-0.2-1,0.3c-0.4,0.8-0.8,1.6-1.2,2.3c-3,5.6-5.9,11.1-8.9,16.7c-0.4,0.7-0.3,1.1,0.4,1.5c4.3,2.4,8.5,4.9,12.7,7.4
					c0.7,0.4,1.1,0.4,1.6-0.4c2.4-4.7,4.8-9.3,7.2-14c0.9-1.7,1.7-3.4,2.5-5.1C232.5,325.8,232.7,325.6,232.4,325.2z M231.6,382.6
					c0.1,0.1,0.2,0.2,0.4,0.3c4.3,2.5,8.5,5,12.8,7.5c0.5,0.3,0.6,0,0.9-0.3c3.5-6.3,7-12.7,10.5-19c0.3-0.6,0.2-0.9-0.4-1.3
					c-4.2-2.5-8.5-4.9-12.7-7.4c-0.7-0.4-1-0.2-1.3,0.4c-1.1,2.3-2.3,4.5-3.5,6.7c-2.1,4-4.3,8.1-6.4,12.1
					C231.6,381.9,231.3,382.2,231.6,382.6z M216.3,402.9c0.1-0.2,0.3-0.4,0.4-0.7c0.7-1.4,1.4-2.8,2.1-4.1c2.3-4.4,4.7-8.9,7.1-13.3
					c0.4-0.8,0.3-1.2-0.5-1.6c-4.4-2.5-8.8-5.1-13.2-7.7c-0.7-0.4-0.9-0.3-1.2,0.3c-0.8,1.6-1.6,3.2-2.4,4.7c-2.3,4.5-4.6,9-7,13.6
					c-0.3,0.6-0.2,0.9,0.4,1.2c1.1,0.6,2.2,1.2,3.4,1.9c3.3,1.9,6.7,3.8,10,5.7C215.7,403,215.9,403.2,216.3,402.9z M189.8,362.3
					c-0.1-0.1-0.3-0.2-0.4-0.3c-4-2.4-8.1-4.7-12.1-7.1c-0.7-0.4-1-0.3-1.4,0.4c-3.2,6-6.5,12-9.8,17.9c-0.6,1-0.4,1.5,0.6,2
					c3.9,2.1,7.8,4.3,11.6,6.5c0.9,0.5,1.3,0.5,1.8-0.5c3.1-6,6.3-11.9,9.5-17.9c0.1-0.2,0.2-0.4,0.3-0.6
					C190,362.7,190,362.5,189.8,362.3z M192,359c0.1-0.2,0.2-0.4,0.3-0.6c0.5-0.9,0.9-1.8,1.4-2.7c2.8-5.3,5.8-10.4,8.4-15.8
					c0.2-0.5,0.7-0.9-0.1-1.4c-4-2.3-8-4.6-12-7c-0.6-0.3-0.9-0.3-1.2,0.3c-3.4,6.2-6.7,12.4-10.1,18.6c-0.4,0.7-0.2,1,0.4,1.3
					c4,2.3,8.1,4.7,12.1,7.1C191.3,359.1,191.6,359.3,192,359z M215,315.1c-0.6-0.4-1.3-0.8-2-1.2c-3.4-2-6.8-3.9-10.2-5.9
					c-0.6-0.3-0.9-0.3-1.2,0.4c-0.9,1.7-1.9,3.3-2.8,5c-2.4,4.4-4.8,8.8-7.2,13.2c-0.8,1.4-0.8,1.4,0.6,2.2
					c3.8,2.2,7.5,4.3,11.2,6.5c0.8,0.5,1.1,0.2,1.4-0.5c3.3-6.2,6.6-12.4,9.9-18.7c0.1-0.2,0.2-0.3,0.3-0.5
					C215.1,315.5,215.2,315.3,215,315.1z M187.7,413.5c0.1-0.2,0.2-0.4,0.3-0.6c0.4-0.7,0.7-1.4,1-2.1c2.4-4.6,4.7-9.2,7.1-13.8
					c0.3-0.5,0.4-0.8-0.2-1.2c-4.7-2.6-9.4-5.3-14.1-7.9c-0.7-0.4-1-0.2-1.4,0.5c-2.7,5.2-5.5,10.3-8.2,15.5c-0.3,0.6-0.3,1,0.4,1.3
					c1.4,0.8,2.7,1.6,4.1,2.4c3.4,1.9,6.7,3.9,10.1,5.8C187,413.5,187.3,413.8,187.7,413.5z M243.2,393.6c-0.1,0-0.2-0.1-0.3-0.2
					c-4.1-2.4-8.1-4.7-12.2-7.2c-0.9-0.5-1.3-0.3-1.7,0.5c-2.6,5-5.3,9.9-7.9,14.9c-0.5,0.9-1,1.8-1.5,2.7c-0.3,0.5-0.2,0.7,0.3,1
					c4.1,2.3,8.3,4.7,12.4,7c0.6,0.4,0.9,0.2,1.2-0.4c0.4-0.8,0.9-1.7,1.3-2.5c2.8-5,5.5-10,8.3-15
					C243.3,394.2,243.5,394,243.2,393.6z M205.2,423.7c0.1-0.2,0.3-0.5,0.4-0.7c2.8-5.2,5.5-10.5,8.4-15.7c0.4-0.8,0.1-1.1-0.5-1.5
					c-3.9-2.2-7.8-4.3-11.7-6.5c-0.7-0.4-1.3-1.2-2-1.1c-0.8,0.2-0.8,1.3-1.2,2c-2.5,4.8-5,9.7-7.5,14.5c-0.3,0.6-0.2,0.9,0.3,1.2
					c1,0.6,2,1.2,3,1.8c3.3,1.9,6.6,3.9,10,5.8C204.6,423.7,204.8,423.9,205.2,423.7z M259.6,403.4c-0.2-0.1-0.4-0.3-0.7-0.4
					c-3.8-2.2-7.6-4.4-11.3-6.7c-0.9-0.5-1.3-0.3-1.8,0.5c-3,5.6-6.1,11.2-9.2,16.8c-0.5,0.8-0.3,1.2,0.5,1.6
					c3.9,2.2,7.8,4.4,11.7,6.6c0.7,0.4,1,0.3,1.3-0.4c0.5-1,1-1.9,1.5-2.9c2.5-4.6,5-9.3,7.5-13.9
					C259.5,404.2,259.9,403.9,259.6,403.4z M221.8,433.2c0.1-0.1,0.1-0.2,0.2-0.4c3-5.3,5.9-10.7,8.9-16c0.4-0.7,0.3-1-0.4-1.4
					c-4-2.2-8-4.5-12-6.8c-0.7-0.4-1-0.1-1.3,0.5c-2.8,5.3-5.6,10.6-8.5,15.9c-0.3,0.6-0.3,0.9,0.3,1.3c4,2.3,8,4.6,12,6.9
					C221.3,433.3,221.5,433.5,221.8,433.2z M234.6,321.8c0.1-0.2,0.2-0.4,0.4-0.6c1-1.9,2-3.8,3-5.7c1.6-3.2,3.2-6.3,4.8-9.5
					c0.4-0.8,0.2-1.2-0.5-1.5c-4.1-2.2-8.3-4.3-12.4-6.6c-0.7-0.4-1.1-0.3-1.5,0.5c-2.6,4.9-5.2,9.9-7.9,14.8
					c-0.4,0.7-0.3,1,0.4,1.3c1.6,0.9,3.2,1.8,4.8,2.8c2.6,1.5,5.3,3,7.9,4.5C233.9,321.8,234.2,322.1,234.6,321.8z M174.3,317.8
					c0.2-0.3,0.5-0.8,0.8-1.2c1.9-3.3,3.8-6.7,5.6-10c1.5-2.6,2.9-5.2,4.3-7.8c0.3-0.5,0.3-0.8-0.2-1.1c-3.3-1.9-6.5-3.7-9.8-5.6
					c-0.7-0.4-1-0.2-1.4,0.5c-1.9,3.3-3.8,6.6-5.7,9.9c-1.6,2.8-3.2,5.7-4.9,8.5c-0.2,0.4-0.4,0.8,0.1,1.1c3.4,1.9,6.7,3.9,10.1,5.8
					C173.7,318,173.9,318.2,174.3,317.8z M161.3,340.9c0.1-0.2,0.2-0.4,0.3-0.6c3.4-6,6.8-12,10.2-18c0.4-0.7,0.3-1-0.4-1.4
					c-3.3-1.9-6.5-3.8-9.8-5.7c-0.5-0.3-0.9-0.3-1.2,0.3c-0.5,1-1,1.9-1.6,2.9c-2.9,5.1-5.8,10.3-8.8,15.4c-0.4,0.7-0.2,1,0.4,1.3
					c1.1,0.6,2.1,1.2,3.1,1.9c2.2,1.3,4.4,2.5,6.6,3.8C160.6,341,160.9,341.3,161.3,340.9z M175.1,349.1c0.2-0.4,0.6-0.8,0.8-1.3
					c3.1-5.7,6.1-11.5,9.3-17.1c0.8-1.4,0.8-1.4-0.7-2.3c-2.8-1.6-5.6-3.2-8.3-4.8c-0.7-0.4-1-0.2-1.3,0.4c-0.5,1.1-1.1,2.1-1.7,3.2
					c-2.9,5.1-5.8,10.3-8.6,15.4c-0.2,0.4-0.2,0.6,0.2,0.9c3.1,1.8,6.2,3.7,9.4,5.5C174.4,349.2,174.7,349.4,175.1,349.1z
					 M177.5,320.3c0.1,0.1,0.3,0.2,0.4,0.3c3,1.7,5.9,3.4,8.9,5.2c0.8,0.5,1.1,0.2,1.5-0.5c3.3-6,6.6-12.1,9.8-18.1
					c0.7-1.3,0.7-1.3-0.6-2.1c-2.7-1.6-5.5-3.1-8.2-4.7c-0.6-0.4-0.8-0.1-1.1,0.4c-1.5,2.6-3,5.2-4.5,7.9c-2,3.5-4,7.1-6,10.6
					C177.6,319.5,177.2,319.8,177.5,320.3z M217.1,311.8c0.1-0.1,0.2-0.2,0.3-0.4c0.8-1.8,1.8-3.5,2.7-5.2c1.7-3.1,3.4-6.2,5-9.4
					c0.3-0.5,0.7-1-0.2-1.5c-4-2-7.8-4.3-11.8-6.2c-0.6-0.3-0.9-0.2-1.2,0.4c-2.5,4.6-5,9.3-7.6,13.9c-0.5,0.8-0.3,1.3,0.5,1.7
					c3.9,2.2,7.7,4.4,11.6,6.6C216.6,311.8,216.8,312,217.1,311.8z M197.2,438.8c0.1-0.1,0.2-0.2,0.2-0.3c1.8-3.4,3.6-6.9,5.5-10.3
					c0.5-0.9,0.2-1.3-0.6-1.7c-1.8-1-3.5-2-5.3-3c-2.4-1.4-4.8-2.8-7.2-4.2c-0.6-0.3-0.9-0.2-1.2,0.4c-1.8,3.6-3.6,7.2-5.5,10.7
					c-0.4,0.8-0.3,1.2,0.5,1.6c2.2,1.1,4.4,2.3,6.6,3.4c2,1,4,2.1,6,3.1C196.5,438.8,196.8,439,197.2,438.8z M200.8,302.2
					c0.1-0.1,0.2-0.3,0.3-0.4c2.6-4.7,5.1-9.4,7.7-14.1c0.4-0.7,0.1-1-0.5-1.3c-2.8-1.5-5.7-2.9-8.5-4.5c-0.8-0.4-1.1-0.2-1.5,0.5
					c-2.5,4.5-5,9-7.6,13.5c-0.2,0.4-0.4,0.7,0.2,1c3,1.7,6,3.5,9,5.2C200.1,302.3,200.4,302.5,200.8,302.2z"/>
			</g>
		</g>
		<g>
			<path class="st10" d="M129.1,444.7c-0.3,1.2,0.4,1.2,1.2,1.3c0.5,0,1.1,0.1,1.6,0.1c0.1,0,0.1,0,0.2,0c-1.1-0.5-2.1-1-3-1.6
				C129.1,444.6,129.1,444.6,129.1,444.7z"/>
			<path class="st10" d="M238.6,328c-0.1-4.6,0-10,0.8-15.4c-0.4,1.9-0.7,3.8-0.9,5.7C238.2,321.6,238.3,324.8,238.6,328z"/>
			<g>
				<path class="st3" d="M292.2,414.4c0.1-2.2,0.2-4.4,0.3-6.7c0.3-6.7,0.5-13.4,0.8-20.1c0.5-8.4,0.7-16.7,1.4-25.1
					c0.1-0.8-0.2-1.3-1.1-1.2c-0.1,0-0.2,0-0.2,0c-8-0.1-15.9-0.2-23.9-0.2c-1.6,0-1.8,0.1-1.9,1.7c-0.1,1.7-0.1,3.5-0.2,5.2
					c-0.2,3.8-0.2,7.7-0.4,11.5c-0.3,6.1-0.1,12.1-0.3,18.2c-0.3,8.2-0.1,16.3-0.2,24.5c4.6,0,9.3,0,13.9,0c3.7,0,7.5,0,11.2,0
					C291.9,419.5,292,417,292.2,414.4z"/>
				<path class="st3" d="M353.5,410.6c0.5-6.1,0.9-12.2,1.4-18.4c0.3-4,0.6-8.1,0.8-12.1c0.2-5.8,0.4-11.6,0.9-17.4
					c0.1-0.6,0-1-0.8-1c-8.7,0.3-17.5-0.2-26.2-0.1c-1.7,0-1.7,0-1.8,1.7c-0.3,5.3-0.6,10.5-1,15.8c-0.3,5.1-0.8,10.2-1.1,15.3
					c-0.4,4.9-0.7,9.9-1.1,14.8c-0.3,4.3-0.7,8.7-1,13c5,0,10,0,15,0c0,0,0,0,0,0c4.7,0,9.4,0,14.1,0
					C353,418.3,353.2,414.4,353.5,410.6z"/>
				<path class="st3" d="M179.4,408.1c-0.4-4.9-0.7-9.9-1.1-14.8c-0.4-5.3-0.8-10.6-1.2-15.9c-0.3-4.8-0.6-9.5-0.8-14.3
					c0-1.1-0.3-1.6-1.6-1.6c-8.7,0.1-17.3,0.2-26,0.2c-1,0-1.4,0.2-1.3,1.3c0.3,3.2,0.6,6.4,0.6,9.6c0.2,10,1.1,19.9,1.8,29.9
					c0.5,6.5,1,13.1,1.5,19.6c9.7,0,19.4,0,29,0C180.1,417.5,179.8,412.8,179.4,408.1z"/>
				<path class="st3" d="M236.8,370.2c-0.1-2.6-0.3-5.3-0.4-7.9c0-0.9-0.4-1.2-1.3-1.2c-4.5,0.1-8.9,0-13.4,0.2
					c-3.6,0.2-7.3,0.1-10.9,0.1c-1.1,0-1.5,0.4-1.4,1.5c0.7,8.7,0.9,17.5,1.4,26.2c0.2,4,0.4,8.1,0.5,12.1c0.3,7,0.6,14,1,21.1
					c8.4,0,16.8,0,25.2,0c-0.1-11.1-0.1-22.2-0.2-33.3C237.2,382.6,237,376.4,236.8,370.2z"/>
				<path class="st14" d="M266.8,397.6c0.2-6.1,0-12.1,0.3-18.2c0.2-3.8,0.1-7.7,0.4-11.5c0.1-1.7,0.1-3.5,0.2-5.2
					c0.1-1.6,0.2-1.7,1.9-1.7c8,0.1,15.9,0.2,23.9,0.2c0.1,0,0.2,0,0.2,0c0.9-0.1,1.1,0.4,1.1,1.2c-0.7,8.3-0.9,16.7-1.4,25.1
					c-0.4,6.7-0.6,13.4-0.8,20.1c-0.1,2.2-0.2,4.4-0.3,6.7c-0.1,2.6-0.2,5.2-0.4,7.7c2.5,0,5,0,7.6,0c1.2,0,1.6-0.3,1.6-1.5
					c0.1-4,0.3-8,0.4-12c0.2-8.4,0.6-16.7,1-25.1c0.1-3.2,0.2-6.4,0.4-9.6c0.3-6.8,0.6-13.6,1-20.4c0.1-1-0.3-1.4-1.3-1.4
					c-2.9,0-5.8,0-8.7,0c-10.7-0.1-21.4-0.1-32.1-0.3c-1.1,0-1.6,0.3-1.5,1.5c0.1,1.9,0.2,3.8,0.2,5.7c0,9.8,0.1,19.6-0.1,29.3
					c-0.2,10.7,0,21.5-0.1,32.2c0,1.2,0.3,1.6,1.6,1.6c1.6,0,3.3,0,4.9,0C266.6,414,266.5,405.8,266.8,397.6z"/>
				<path class="st14" d="M243.8,353.7c0-1.8,0-1.8-1.8-1.8c-10.5,0.1-21,0.2-31.4,0.2c-3,0-5.9,0-8.9,0c-1,0-1.3,0.2-1.3,1.3
					c0.4,8.5,0.7,17,1.1,25.4c0.2,4.4,0.3,8.9,0.5,13.3c0.4,9.4,0.8,18.8,1.2,28.2c0.1,1.7,0,1.7,1.7,1.7c2.5,0,5,0,7.4,0
					c-0.3-7-0.6-14-1-21.1c-0.2-4-0.3-8.1-0.5-12.1c-0.5-8.7-0.7-17.5-1.4-26.2c-0.1-1.2,0.3-1.5,1.4-1.5c3.6,0,7.3,0.1,10.9-0.1
					c4.5-0.2,8.9-0.1,13.4-0.2c0.9,0,1.2,0.3,1.3,1.2c0.1,2.6,0.3,5.3,0.4,7.9c0.2,6.2,0.4,12.4,0.5,18.7
					c0.1,11.1,0.2,22.2,0.2,33.3c1.5,0,3,0,4.5,0c1.8,0,1.8,0,1.8-1.8c0-11.1,0-22.2,0-33.3c0,0,0,0,0,0
					C243.8,375.9,243.8,364.8,243.8,353.7z"/>
				<path class="st14" d="M325.6,394.3c0.4-5.1,0.8-10.2,1.1-15.3c0.4-5.3,0.6-10.5,1-15.8c0.1-1.7,0.1-1.6,1.8-1.7
					c8.7-0.1,17.5,0.4,26.2,0.1c0.8,0,0.8,0.4,0.8,1c-0.5,5.8-0.7,11.6-0.9,17.4c-0.2,4-0.5,8.1-0.8,12.1
					c-0.4,6.1-0.9,12.2-1.4,18.4c-0.3,3.9-0.5,7.7-0.9,11.6c2.1,0,4.2,0,6.3,0c1.1,0,1.5-0.3,1.5-1.4c0-2.1,0.2-4.1,0.3-6.2
					c0.2-3.3,0.3-6.5,0.5-9.7c0.4-6.4,0.8-12.8,1.2-19.2c0.3-4.5,0.5-9,0.8-13.4c0.4-6.2,0.8-12.4,1.2-18.6c0.1-1-0.3-1.2-1.2-1.2
					c-13.8,0-27.6,0-41.3-0.1c-1,0-1.4,0.3-1.4,1.3c-0.4,7.5-0.8,15-1.2,22.5c-0.3,5.2-0.5,10.5-0.8,15.7
					c-0.5,9.5-1.1,19.1-1.6,28.6c-0.1,1.7,0,1.7,1.7,1.7c1.6,0,3.3,0,4.9,0c0.3-4.3,0.7-8.7,1-13
					C324.9,404.2,325.2,399.2,325.6,394.3z"/>
				<path class="st14" d="M148.2,372.7c-0.1-3.2-0.4-6.4-0.6-9.6c-0.1-1.1,0.4-1.3,1.3-1.3c8.7,0,17.3-0.1,26-0.2
					c1.2,0,1.5,0.4,1.6,1.6c0.2,4.8,0.5,9.6,0.8,14.3c0.4,5.3,0.8,10.6,1.2,15.9c0.4,4.9,0.7,9.9,1.1,14.8c0.3,4.7,0.7,9.3,1,14
					c1.7,0,3.3,0,5,0c0.2,0,0.5,0,0.7,0c0.7,0,1-0.3,1-1.1c-0.4-6.3-0.8-12.5-1.1-18.8c-0.5-9.2-1-18.4-1.5-27.5
					c-0.4-7.1-0.7-14.2-1-21.2c0-0.9-0.3-1.2-1.2-1.2c-6.9,0-13.8,0-20.7,0c0,0,0,0,0,0.1c-6.9,0-13.9,0-20.8,0
					c-1.1,0-1.4,0.4-1.3,1.5c0.2,1.6,0.3,3.2,0.4,4.8c0.4,6.1,0.7,12.2,1.1,18.3c0.5,8.6,1.1,17.3,1.7,25.9c0.4,6.1,0.7,12.3,1,18.4
					c0,0.8,0.3,0.9,1,0.9c2.2,0,4.5,0,6.7,0c-0.5-6.5-1-13.1-1.5-19.6C149.3,392.6,148.4,382.7,148.2,372.7z"/>
				<path class="st13" d="M414.8,304.8c-9.3,0-317.4,0-325.1,0c-0.5,0-1,0-1.5,0c-1.5,0.2-2.2,1-2.2,2.5c0,2.1,0.1,8.9,0.2,10.1
					c0.1,0.7,5.1,0.2,5.8,0.2c0.3-0.2,325.8,0.7,325.8-0.9c0-2.9,0-5.8,0.2-8.7C418.2,305.5,417.4,304.8,414.8,304.8z"/>
				<path class="st13" d="M357.7,327.1c0,0,0-0.1,0-0.1c-6,0-12-0.1-17.9,0c-9.7,0.2-19.4,0.2-29.1,0.1
					c-34.7-0.3-69.5-0.1-104.2-0.1c-9.1,0-18.2,0.1-27.3,0.1c-6.6,0-13.1-0.2-19.7-0.1c-12.3,0.2-24.5,0.1-36.8,0.1
					c-5.4,0-10.8,0-16.2,0c1.7,26.6,6.9,104,7.8,107.8c0.8,3.9,2.1,7.5,4.7,10.5c0.8,0.9,1.6,1.7,2.4,2.5c3.7,4.1,8.3,6.7,13.5,8.4
					c0.6,0.2,1.3,0.3,1.9,0.3c3.2,0.1,6.4,0.1,9.6,0.2c10.8,0.2,21.6,0.2,32.4,0.2c24.4,0.2,175.2-0.1,187.9-0.4
					c0.8,0,1.6-0.1,2.4-0.3c6.3-1.9,11.2-5.6,15.4-10.5c2.4-2.8,4.1-6,4.8-9.6c0.3-1.8,5.8-82.2,7.9-109.1c-2.9,0-5.8,0-8.6,0
					C378.3,327.1,368,327.1,357.7,327.1z M243.8,420.4c0,1.8,0,1.8-1.8,1.8c-1.5,0-3,0-4.5,0c-8.4,0-16.8,0-25.2,0c-2.5,0-5,0-7.4,0
					c-1.7,0-1.7,0-1.7-1.7c-0.4-9.4-0.8-18.8-1.2-28.2c-0.2-4.4-0.3-8.9-0.5-13.3c-0.3-8.5-0.7-17-1.1-25.4
					c-0.1-1.2,0.3-1.3,1.3-1.3c3,0,5.9,0,8.9,0c10.5-0.1,21-0.2,31.4-0.2c1.8,0,1.8,0,1.8,1.8c0,11.1,0,22.3,0,33.4c0,0,0,0,0,0
					C243.8,398.2,243.8,409.3,243.8,420.4z M151.5,422.2c-2.2,0-4.5,0-6.7,0c-0.7,0-1-0.2-1-0.9c-0.3-6.1-0.6-12.3-1-18.4
					c-0.5-8.6-1.1-17.3-1.7-25.9c-0.4-6.1-0.7-12.2-1.1-18.3c-0.1-1.6-0.2-3.2-0.4-4.8c-0.1-1.1,0.2-1.5,1.3-1.5
					c6.9,0,13.9,0,20.8,0c0,0,0,0,0-0.1c6.9,0,13.8,0,20.7,0c1,0,1.2,0.3,1.2,1.2c0.3,7.1,0.6,14.2,1,21.2c0.5,9.2,1,18.4,1.5,27.5
					c0.3,6.3,0.7,12.5,1.1,18.8c0,0.7-0.2,1.1-1,1.1c-0.2,0-0.5,0-0.7,0c-1.7,0-3.3,0-5,0C170.8,422.1,161.1,422.2,151.5,422.2z
					 M280.6,422.1c-4.6,0-9.3,0-13.9,0c-1.6,0-3.3,0-4.9,0c-1.3,0-1.6-0.4-1.6-1.6c0.1-10.7-0.1-21.5,0.1-32.2
					c0.2-9.8,0.1-19.6,0.1-29.3c0-1.9-0.1-3.8-0.2-5.7c-0.1-1.2,0.4-1.5,1.5-1.5c10.7,0.1,21.4,0.2,32.1,0.3c2.9,0,5.8,0,8.7,0
					c1,0,1.4,0.4,1.3,1.4c-0.3,6.8-0.7,13.6-1,20.4c-0.1,3.2-0.2,6.4-0.4,9.6c-0.4,8.4-0.8,16.7-1,25.1c-0.1,4-0.4,8-0.4,12
					c0,1.2-0.5,1.5-1.6,1.5c-2.5,0-5,0-7.6,0C288.1,422.1,284.3,422.1,280.6,422.1z M338.5,422.2
					C338.5,422.1,338.5,422.1,338.5,422.2c-5,0-10,0-15,0c-1.6,0-3.3,0-4.9,0c-1.7,0-1.8,0-1.7-1.7c0.5-9.5,1.1-19.1,1.6-28.6
					c0.3-5.2,0.5-10.5,0.8-15.7c0.4-7.5,0.8-15,1.2-22.5c0-1,0.4-1.3,1.4-1.3c13.8,0,27.6,0.1,41.3,0.1c0.9,0,1.2,0.2,1.2,1.2
					c-0.4,6.2-0.8,12.4-1.2,18.6c-0.3,4.5-0.5,9-0.8,13.4c-0.4,6.4-0.8,12.8-1.2,19.2c-0.2,3.2-0.4,6.5-0.5,9.7
					c-0.1,2.1-0.2,4.1-0.3,6.2c0,1.1-0.4,1.4-1.5,1.4c-2.1,0-4.2,0-6.3,0C347.9,422.2,343.2,422.2,338.5,422.2z"/>
				<path class="st14" d="M97.5,316.9c-1.4,0-2.7,0-4.1,0.3c-0.6,0.1-1,0.2-1.3,0.4c-0.4,0.3-0.6,0.8-0.6,1.6c0,2,0.2,4,0.3,5.9
					c0,0.6,0.3,1.2,0.9,1.3c0.9,0.1,1.8,0.6,2.8,0.6c3.7,0,7.4,0,11.1,0c5.4,0,10.8,0,16.2,0c12.3,0,24.5,0.1,36.8-0.1
					c6.6-0.1,13.1,0.1,19.7,0.1c9.1,0,178.6,0,178.6,0c10.3,0,20.6,0,30.9,0c2.9,0,5.8,0,8.6,0c3.7,0,13-0.4,14.1-0.5
					c0.5-0.1,0.8-0.6,0.8-1.1c0.2-2.2,0.4-4.4,0.3-6.5c0-0.5-0.2-0.9-0.5-1.2c-0.3-0.2-0.6-0.4-1.1-0.5
					C408.4,316.7,199.4,316.9,97.5,316.9z"/>
			</g>
			<g>
				<path class="st14" d="M389,353.6c-0.3,3-0.6,6.3-0.9,9.5c-0.3,2.9-0.6,5.9-0.8,8.8c-0.1,0.8-0.2,1.7-1,2.1
					c-0.7,0.4-1.3,0.4-2-0.1c-0.7-0.5-0.9-1.1-0.8-1.9c0.4-4,0.8-8,1.2-12c0.3-2.5,0.5-4.9,0.5-7.4c0-0.3,0.1-0.6,0.2-0.8
					c0.2-0.9,0.8-1.5,1.7-1.5c1,0,1.6,0.8,1.9,1.7C389,352.5,388.9,353,389,353.6z"/>
				<path class="st14" d="M378,374.2c0.1,4.8-0.5,9.3-0.8,13.9c0,1-0.9,1.7-1.9,1.7c-1,0-1.6-0.7-1.7-1.8c-0.1-2.6,0.3-5.2,0.4-7.9
					c0.1-3.1,0.4-6.2,0.3-9.4c0-1.4,0.6-2,1.7-2.1c1.1-0.1,1.8,0.5,1.8,1.6C378.1,371.6,378,373,378,374.2z"/>
				<path class="st14" d="M374.7,359.4c0.3-2.2,0.5-4.7,0.8-7.2c0.3-2.6,0.6-5.2,0.9-7.8c0-0.1,0-0.2,0-0.2c0.1-1.6,0.9-2.5,2.1-2.4
					c1.3,0.1,1.9,1.3,1.7,2.9c-0.6,4.8-1.1,9.5-1.7,14.3c-0.1,0.5-0.2,1.1-0.2,1.6c-0.2,1.2-0.9,1.9-1.9,1.8c-1.1-0.1-1.6-0.7-1.6-2
					C374.7,360.1,374.7,359.9,374.7,359.4z"/>
				<path class="st14" d="M371.6,356.2c-0.3,4.6-0.5,9-0.8,13.4c-0.1,2.1-1.7,3.1-3.1,2.1c-0.7-0.5-1.1-1.1-0.7-2
					c0.2-0.4,0.3-0.9,0.3-1.3c0.1-4.4,0.4-8.7,0.7-13.1c0.1-1.5,0.8-2.3,1.9-2.2c1.1,0.1,1.7,0.9,1.7,2.3
					C371.6,355.8,371.6,356.1,371.6,356.2z"/>
				<path class="st14" d="M376,399.6c-0.2,4-0.5,7.9-0.7,11.9c-0.1,1.1-0.6,1.9-1.7,2.2c-0.8,0.3-1.4,0-2-0.6
					c-0.4-0.5-0.6-1-0.3-1.5c0.7-1.6,0.5-3.4,0.6-5.1c0.1-2.6,0.5-5.2,0.3-7.8c0-0.7,0.2-1.2,0.7-1.7c0.8-0.8,2.1-0.6,2.6,0.4
					C375.9,398,376.1,398.8,376,399.6z"/>
				<path class="st14" d="M369.2,388.8c-0.2,3.4-0.4,6.8-0.6,10.2c0,0.4-0.1,0.9-0.4,1.3c-0.5,0.7-1.1,1.3-2.1,1
					c-1-0.3-1.4-1.1-1.3-2.1c0.2-2.3,0.3-4.7,0.4-7c0.1-2.1,0.3-4.1,0.3-6.2c0-1.2,0.8-2,1.8-1.9c1,0,1.7,0.8,1.7,2
					C369.2,387,369.1,387.9,369.2,388.8C369.1,388.8,369.2,388.8,369.2,388.8z"/>
				<path class="st14" d="M118.4,383.9c0-2.3,1-3.2,2.5-2.7c0.8,0.3,1,1,1.1,1.7c0.6,3.3,0.7,6.7,1,10c0.1,0.7,0.1,1.4,0.3,2.1
					c0.3,1-0.1,2-1,2.4c-1,0.4-1.9,0-2.5-1c-0.6-1.1-0.5-2.3-0.6-3.4C119,389.8,118.7,386.7,118.4,383.9z"/>
				<path class="st14" d="M386.7,386.1c-0.3,3.1-0.5,6.5-1,9.9c-0.2,1-0.8,1.7-1.8,2c-1.5,0.3-2.7-1-2.1-2.5c0.9-2.4,0.8-5,1.1-7.5
					c0.1-1,0.2-2,0.3-3.1c0.1-1.2,0.8-2,1.8-2c1,0,1.7,0.9,1.8,2.1C386.7,385.2,386.7,385.5,386.7,386.1z"/>
				<path class="st14" d="M134.4,418.5c0.1,0.8-0.5,1.4-1.5,1.6c-0.9,0.2-1.6-0.3-2-1.1c-0.6-1.4-0.6-3-0.8-4.5
					c-0.3-2.2-0.7-4.4-0.6-6.6c0.1-1.3,0.6-1.9,1.6-1.9c1,0,1.9,0.7,2,1.8c0.4,3.4,0.7,6.8,1.2,10.1
					C134.4,418.1,134.4,418.2,134.4,418.5z"/>
				<path class="st14" d="M124.5,411.9c0.1,1.6-0.1,3.4,0.2,5.3c0.2,1-0.5,1.7-1.5,1.9c-1,0.2-2.1-0.5-2.1-1.6
					c-0.2-3.5-0.8-7,0-10.6c0.2-1,0.8-1.7,2-1.6c1.2,0.1,1.6,0.9,1.6,2C124.5,408.7,124.5,410.2,124.5,411.9z"/>
				<path class="st14" d="M133.6,424.1c1,0.1,1.6,0.6,1.8,1.6c0.4,2.5,0.7,4.9,1,7.4c0.1,0.6,0.2,1.2,0.4,1.8c0.4,1.3,0,2.2-1.1,2.6
					c-0.9,0.3-2-0.3-2.4-1.4c-0.4-0.9-0.4-1.8-0.5-2.8c-0.3-2.4-0.9-4.9-0.9-7.3C131.8,424.7,132.5,424,133.6,424.1z"/>
				<path class="st14" d="M127.7,436.5c0,1.2-0.8,2-1.8,2.1c-1,0-1.8-0.8-2-1.8c-0.5-2.9-1.1-5.9-1.6-8.8c-0.2-1.2,0.5-2.2,1.5-2.3
					c1.1-0.1,2,0.5,2.2,1.7c0.4,2.9,1.1,5.8,1.6,8.7C127.6,436.2,127.6,436.4,127.7,436.5z"/>
				<path class="st14" d="M142.6,429.7c1,0,1.8,0.8,1.9,2.1c0.3,2.8,1,5.6,1.6,8.3c0.2,1.1-0.3,2.1-1.2,2.4c-1,0.3-2.2-0.3-2.4-1.4
					c-0.7-2.9-1.3-5.8-1.8-8.8C140.5,430.9,141.5,429.7,142.6,429.7z"/>
				<path class="st14" d="M371.9,335.3c-0.4,3-0.7,5.7-1,8.3c-0.2,1.2-1.3,2-2.3,1.8c-1.1-0.2-1.7-1.2-1.4-2.6
					c0.4-2.5,0.8-4.9,0.9-7.4c0.1-1.3,0.9-2.2,2-2.1C371.2,333.3,371.9,334.3,371.9,335.3z"/>
				<path class="st14" d="M390.9,334.3c-0.2,2.4-0.3,4.8-0.6,7.1c-0.1,1.1-0.8,1.9-1.9,2.1c-0.9,0.1-1.5-0.4-1.9-1.1
					c-0.2-0.3-0.2-0.6-0.1-1c0.6-2.1,0.6-4.3,0.7-6.5c0-0.3,0-0.7,0-1c0.2-1.5,0.9-2.3,2.1-2.2C390.3,331.8,390.9,332.8,390.9,334.3
					z"/>
				<path class="st14" d="M127.5,392.3c0-0.7,0-1.4,0.6-2c1-0.9,2.7-0.4,3,1.1c0.5,2.7,0.7,5.4,1.2,8.1c0.2,0.9-0.5,1.6-1.4,1.8
					c-1,0.2-1.8-0.2-2.2-1.2c-0.4-0.9-0.4-1.8-0.5-2.8C128,395.7,127.8,394,127.5,392.3z"/>
				<path class="st14" d="M357.8,340.2c0-1.1,0-2.1,0-3.2c0-1.2,0.6-1.9,1.6-2c1.2-0.1,1.8,0.4,2.1,1.6c0.6,2.5,0.1,4.9-0.1,7.4
					c-0.1,0.9-0.8,1.6-1.8,1.5c-1-0.1-1.7-0.7-1.7-1.8C357.9,342.5,357.9,341.3,357.8,340.2C357.8,340.2,357.8,340.2,357.8,340.2z"
					/>
			</g>
			<path class="st14" d="M194.3,312.8c-10.7,0-19.4,0.2-28,0c-20.5-0.4-41-0.1-61.5-0.2c-2.6,0-5.3-0.3-7.9-0.2
				c-1,0-1.9-0.8-1.9-1.7c0-0.9,0.8-1.7,1.8-1.8c0.4,0,0.8,0,1.2,0c8.9,0,17.8-0.2,26.7,0c20.3,0.5,40.7-0.1,61,0.3
				c19.3,0.3,38.6-0.1,57.9,0.2c20.4,0.4,40.8-0.1,61.1,0.3c19.5,0.3,39-0.1,58.5,0.2c15.7,0.3,31.3,0.1,47,0.2c0.8,0,1.5,0,2.1,0.6
				c0.9,1,0.6,2.5-0.6,2.9c-0.4,0.1-0.8,0.2-1.2,0.2c-3.4,0-6.8,0.1-10.1-0.2c-0.6-0.1-1.2-0.1-1.9-0.1c-18.1,0-36.2,0.2-54.2-0.1
				c-20.2-0.3-40.3,0.1-60.5-0.2c-19.7-0.3-39.4,0.1-59-0.3C214,312.8,203.1,313,194.3,312.8z"/>
			<g>
				<path class="st9" d="M142.9,311.3c-18.7,0-34.1,0-49.5,0c-0.6,0-1.1,0-1.7-0.1c-1-0.3-1.5-1-1.4-2c0.1-1,0.8-1.6,1.8-1.7
					c0.4,0,0.8,0,1.2,0c9.3,0,18.6,0,27.8,0.1c36.4,0.4,72.8-0.1,109.1,0.2c23.5,0.2,47,0.1,70.5,0.2c1.2,0,1.6,0.3,1.5,1.5
					c-0.1,2.9,0,2.5-2.4,2.3c-2.8-0.2-5.5-0.1-8.3-0.1c-34,0-68,0.2-102-0.1C172.9,311.4,156.2,311.6,142.9,311.3z"/>
				<path class="st9" d="M123.3,394.9c0,0.5,0,0.9,0,1.4c0,1.3-0.6,1.9-1.7,2c-1,0-1.8-0.7-1.9-1.8c-0.2-2.2-0.4-4.4-0.5-6.6
					c-0.3-4.8-0.6-9.6-1-14.4c-0.3-3.1-0.3-6.1-0.5-9.2c-0.3-4.3-0.6-8.5-1-12.8c-0.1-0.9-0.1-1.8,0-2.7c0-0.9,1-1.7,1.8-1.6
					c0.9,0.1,1.7,0.6,1.7,1.6c0.2,2.5,0.3,5.1,0.5,7.6c0.3,4.2,0.7,8.3,0.9,12.5c0.1,1.4,0.1,2.9,0.3,4.3c0.3,4.4,0.5,8.8,0.8,13.1
					C122.9,390.5,123.2,392.7,123.3,394.9C123.3,394.9,123.3,394.9,123.3,394.9z"/>
				<path class="st9" d="M333.8,311.8c-4.9,0-9.7,0-14.6,0c-1.1,0-1.5-0.4-1.5-1.5c0.1-2.7-0.2-2.4,2.4-2.4c8.2,0,16.4,0,24.6,0
					c1.6,0,3.1,0.2,4.7,0.2c0.6,0,0.7,0.2,0.7,0.7c0,0.1,0,0.2,0,0.2c0,3.2,0.3,2.7-2.6,2.7C342.9,311.9,338.4,311.8,333.8,311.8z"
					/>
				<path class="st9" d="M395.5,311.8c-5.2,0-10.3,0-15.5,0c-1.1,0-1.6-0.4-1.5-1.5c0-0.4,0-0.7,0-1.1c-0.1-0.8,0.3-1.1,1.1-1.1
					c2.2,0,4.5,0,6.7,0c8.1,0,16.2,0,24.2,0c1.1,0,2,0.2,2.3,1.4c0.4,1.2-0.5,2.4-1.7,2.4C406,311.9,400.8,311.9,395.5,311.8
					C395.5,311.9,395.5,311.9,395.5,311.8z"/>
				<path class="st9" d="M122.5,403.5c0.6,0,1.1,0.7,1.2,1.7c0.3,2.9,0.5,5.7,0.8,8.6c0,0.5,0.2,0.9,0.3,1.3c0.4,1.2,0,2.1-1.1,2.6
					c-1,0.4-2.3-0.2-2.5-1.3c-0.3-1.6-0.6-3.2-0.7-4.9c-0.1-2-0.5-4.1-0.3-6.1C120.2,404.1,120.8,403.5,122.5,403.5z"/>
				<path class="st9" d="M366,311.8c-0.1,0-0.2,0-0.4,0c-3.1,0-3.1,0-3-3c0-0.5,0.3-0.6,0.7-0.6c1.8,0,3.5,0,5.3,0
					c0.6,0,0.8,0.3,0.8,0.9c0,0.3,0,0.7,0,1c-0.1,1.6-0.3,1.8-1.9,1.8C367,311.8,366.5,311.8,366,311.8z"/>
			</g>
		</g>
	</g>
</g>
</svg>
