<?xml version="1.0" encoding="utf-8"?>
<!-- Generator: Adobe Illustrator 25.4.0, SVG Export Plug-In . SVG Version: 6.00 Build 0)  -->
<svg version="1.1" xmlns="http://www.w3.org/2000/svg" xmlns:xlink="http://www.w3.org/1999/xlink" x="0px" y="0px"
	 viewBox="0 0 500 500" style="enable-background:new 0 0 500 500;" xml:space="preserve">
<g id="Background_Simple">
	<g>
		<path style="opacity:0.5;fill:#048392;" d="M332.3,54.7c0,0-76.99-27.38-152.56,16.21c-75.57,43.58-113.7,130.1-146.45,199.41
			c-32.75,69.3-13.9,139.8,43.79,171.94c57.69,32.14,96.92-15.24,177.84-17.55c80.93-2.31,102.69,9.26,169.85-36.45
			c67.15-45.72,79.29-153.69,26.32-233.58C398.12,74.79,332.3,54.7,332.3,54.7z"/>
		<path style="opacity:0.7;fill:#FFFFFF;" d="M332.3,54.7c0,0-76.99-27.38-152.56,16.21c-75.57,43.58-113.7,130.1-146.45,199.41
			c-32.75,69.3-13.9,139.8,43.79,171.94c57.69,32.14,96.92-15.24,177.84-17.55c80.93-2.31,102.69,9.26,169.85-36.45
			c67.15-45.72,79.29-153.69,26.32-233.58C398.12,74.79,332.3,54.7,332.3,54.7z"/>
	</g>
</g>
<g id="Picture">
	<g>
		
			<rect x="31" y="60.4" style="fill:none;stroke:#676F74;stroke-linecap:round;stroke-linejoin:round;stroke-miterlimit:10;" width="98.02" height="131.63"/>
		
			<rect x="40.38" y="73" style="fill:none;stroke:#676F74;stroke-linecap:round;stroke-linejoin:round;stroke-miterlimit:10;" width="79.25" height="106.42"/>
	</g>
	<g>
		
			<rect x="141.34" y="139.17" style="fill:none;stroke:#676F74;stroke-linecap:round;stroke-linejoin:round;stroke-miterlimit:10;" width="67.66" height="90.86"/>
		
			<rect x="147.82" y="147.87" style="fill:none;stroke:#676F74;stroke-linecap:round;stroke-linejoin:round;stroke-miterlimit:10;" width="54.7" height="73.46"/>
	</g>
</g>
<g id="Window">
	<g>
		<g>
			<path style="fill:none;stroke:#676F74;stroke-linecap:round;stroke-linejoin:round;stroke-miterlimit:10;" d="M482.97,333.53
				H355.28V102.05c0-34.24,27.76-62,62-62h3.69c34.24,0,62,27.76,62,62V333.53z"/>
			<path style="fill:none;stroke:#676F74;stroke-linecap:round;stroke-linejoin:round;stroke-miterlimit:10;" d="M369.7,332.84
				V105.96c0-27.3,22.13-49.43,49.43-49.43h0c27.3,0,49.43,22.13,49.43,49.43v226.88"/>
			
				<line style="fill:none;stroke:#676F74;stroke-linecap:round;stroke-linejoin:round;stroke-miterlimit:10;" x1="419.13" y1="40.05" x2="419.13" y2="333.18"/>
			
				<line style="fill:none;stroke:#676F74;stroke-linecap:round;stroke-linejoin:round;stroke-miterlimit:10;" x1="355.97" y1="96.52" x2="482.11" y2="96.52"/>
			
				<line style="fill:none;stroke:#676F74;stroke-linecap:round;stroke-linejoin:round;stroke-miterlimit:10;" x1="432.02" y1="126.47" x2="429.38" y2="128.47"/>
			
				<line style="fill:none;stroke:#676F74;stroke-linecap:round;stroke-linejoin:round;stroke-miterlimit:10;" x1="465.12" y1="101.31" x2="437.31" y2="122.45"/>
			
				<line style="fill:none;stroke:#676F74;stroke-linecap:round;stroke-linejoin:round;stroke-miterlimit:10;" x1="452.97" y1="117.75" x2="437.96" y2="129.19"/>
			
				<line style="fill:none;stroke:#676F74;stroke-linecap:round;stroke-linejoin:round;stroke-miterlimit:10;" x1="404.77" y1="228.05" x2="380.06" y2="248.55"/>
			
				<line style="fill:none;stroke:#676F74;stroke-linecap:round;stroke-linejoin:round;stroke-miterlimit:10;" x1="413.66" y1="220.68" x2="409.36" y2="224.24"/>
			
				<line style="fill:none;stroke:#676F74;stroke-linecap:round;stroke-linejoin:round;stroke-miterlimit:10;" x1="391.5" y1="232.11" x2="375.06" y2="244.98"/>
			
				<line style="fill:none;stroke:#676F74;stroke-linecap:round;stroke-linejoin:round;stroke-miterlimit:10;" x1="435.54" y1="283.79" x2="432.24" y2="286.43"/>
			
				<line style="fill:none;stroke:#676F74;stroke-linecap:round;stroke-linejoin:round;stroke-miterlimit:10;" x1="460.83" y1="263.56" x2="440.79" y2="279.59"/>
			
				<line style="fill:none;stroke:#676F74;stroke-linecap:round;stroke-linejoin:round;stroke-miterlimit:10;" x1="449.39" y1="280" x2="440.1" y2="287.15"/>
			
				<line style="fill:none;stroke:#676F74;stroke-linecap:round;stroke-linejoin:round;stroke-miterlimit:10;" x1="355.97" y1="136.33" x2="482.11" y2="136.33"/>
			
				<line style="fill:none;stroke:#676F74;stroke-linecap:round;stroke-linejoin:round;stroke-miterlimit:10;" x1="355.97" y1="176.15" x2="482.11" y2="176.15"/>
			
				<line style="fill:none;stroke:#676F74;stroke-linecap:round;stroke-linejoin:round;stroke-miterlimit:10;" x1="355.97" y1="215.97" x2="482.11" y2="215.97"/>
			
				<line style="fill:none;stroke:#676F74;stroke-linecap:round;stroke-linejoin:round;stroke-miterlimit:10;" x1="355.97" y1="255.78" x2="482.11" y2="255.78"/>
			
				<line style="fill:none;stroke:#676F74;stroke-linecap:round;stroke-linejoin:round;stroke-miterlimit:10;" x1="355.97" y1="295.6" x2="482.11" y2="295.6"/>
			
				<line style="fill:none;stroke:#676F74;stroke-linecap:round;stroke-linejoin:round;stroke-miterlimit:10;" x1="372.84" y1="59.98" x2="384.28" y2="70.4"/>
			
				<line style="fill:none;stroke:#676F74;stroke-linecap:round;stroke-linejoin:round;stroke-miterlimit:10;" x1="464.94" y1="59.98" x2="453.5" y2="70.4"/>
		</g>
		<g>
			
				<line style="fill:none;stroke:#676F74;stroke-linecap:round;stroke-linejoin:round;stroke-miterlimit:10;" x1="16.48" y1="257.25" x2="355.29" y2="257.25"/>
			
				<line style="fill:none;stroke:#676F74;stroke-linecap:round;stroke-linejoin:round;stroke-miterlimit:10;" x1="16.48" y1="263.22" x2="355.29" y2="263.22"/>
			
				<line style="fill:none;stroke:#676F74;stroke-linecap:round;stroke-linejoin:round;stroke-miterlimit:10;" x1="16.48" y1="446.22" x2="492" y2="446.22"/>
		</g>
		
			<line style="fill:none;stroke:#676F74;stroke-linecap:round;stroke-linejoin:round;stroke-miterlimit:10;" x1="115" y1="263" x2="115" y2="446"/>
		
			<line style="fill:none;stroke:#676F74;stroke-linecap:round;stroke-linejoin:round;stroke-miterlimit:10;" x1="222" y1="263" x2="222" y2="446"/>
		
			<line style="fill:none;stroke:#676F74;stroke-linecap:round;stroke-linejoin:round;stroke-miterlimit:10;" x1="329" y1="263" x2="329" y2="446"/>
		
			<line style="fill:none;stroke:#676F74;stroke-linecap:round;stroke-linejoin:round;stroke-miterlimit:10;" x1="436" y1="342" x2="436" y2="446"/>
		
			<rect x="352" y="333.67" style="fill:none;stroke:#676F74;stroke-linecap:round;stroke-linejoin:round;stroke-miterlimit:10;" width="135" height="8.33"/>
	</g>
</g>
<g id="Floor">
	
		<line style="fill:none;stroke:#263238;stroke-linecap:round;stroke-linejoin:round;stroke-miterlimit:10;" x1="16.48" y1="477" x2="493" y2="477"/>
</g>
<g id="Plants">
	<g>
		<g>
			<g>
				<g>
					<g>
						<path style="fill:#92E3A9;" d="M83.62,234.4c0,0,0-5.59-7.82-13.41c-7.82-7.82-12.85-12.29-12.85-12.29
							s-3.91,12.85,3.35,20.67c7.26,7.82,17.32,15.08,17.32,15.08V234.4z"/>
						<path style="fill:#92E3A9;" d="M72.27,269.29c0,0,0-5.59-7.82-13.41c-7.82-7.82-12.85-12.29-12.85-12.29
							s-3.91,12.85,3.35,20.67c7.26,7.82,17.32,15.08,17.32,15.08V269.29z"/>
						<path style="fill:#92E3A9;" d="M83.13,243.92c0,0,0.59-5.56,9.19-12.51c8.6-6.95,14.08-10.86,14.08-10.86
							s2.53,13.19-5.52,20.2c-8.05,7.01-18.82,13.17-18.82,13.17L83.13,243.92z"/>
						<path style="fill:#92E3A9;" d="M69.41,285.12c0,0,1.17-5.46,10.46-11.47c9.29-6.01,15.14-9.33,15.14-9.33
							s1.13,13.38-7.61,19.51c-8.74,6.13-20.1,11.12-20.1,11.12L69.41,285.12z"/>
						<path style="fill:#92E3A9;" d="M71.99,330.05c0,0,0-5.59,7.82-13.41c7.82-7.82,12.85-12.29,12.85-12.29s3.91,12.85-3.35,20.67
							c-7.26,7.82-17.32,15.08-17.32,15.08V330.05z"/>
						<path style="fill:#92E3A9;" d="M71.86,341.02c0,0,0.79-5.53-5.84-14.38c-6.63-8.85-10.97-13.99-10.97-13.99
							s-5.7,12.16,0.38,20.94c6.08,8.77,15,17.39,15,17.39L71.86,341.02z"/>
						<path style="fill:#92E3A9;" d="M64.15,373.51c0,0,0-5.59,7.82-13.41c7.82-7.82,12.85-12.29,12.85-12.29s3.91,12.85-3.35,20.67
							c-7.26,7.82-17.32,15.08-17.32,15.08V373.51z"/>
						<path style="fill:#92E3A9;" d="M69.37,402.98c0,0-1.42-5.4,4.17-14.95c5.59-9.55,9.32-15.14,9.32-15.14s7.04,11.44,1.99,20.85
							c-5.05,9.41-12.93,18.98-12.93,18.98L69.37,402.98z"/>
					</g>
					<path style="fill:none;stroke:#263238;stroke-linecap:round;stroke-linejoin:round;stroke-miterlimit:10;" d="M84.33,232.97
						c-0.46,5.97-1.14,12.15-2.14,17.35c-3.09,15.97-10.82,26.28-13.91,40.71c-3.09,14.43,5.78,33.02,3.41,51.55
						c-2.38,18.53-9.59,28.84-7.53,41.21c2.06,12.37,12.88,45.86,12.88,45.86"/>
					
						<line style="fill:none;stroke:#263238;stroke-linecap:round;stroke-linejoin:round;stroke-miterlimit:10;" x1="83.05" y1="247.63" x2="91.48" y2="241.16"/>
					
						<line style="fill:none;stroke:#263238;stroke-linecap:round;stroke-linejoin:round;stroke-miterlimit:10;" x1="83.44" y1="240.18" x2="79.91" y2="233.91"/>
					<path style="fill:none;stroke:#263238;stroke-linecap:round;stroke-linejoin:round;stroke-miterlimit:10;" d="M68.74,290.36
						c0,0,7.06-5.29,14.31-10.59"/>
					<path style="fill:none;stroke:#263238;stroke-linecap:round;stroke-linejoin:round;stroke-miterlimit:10;" d="M72.27,279.35
						c0,0-5.88-11.53-12.54-19.17"/>
					<path style="fill:none;stroke:#263238;stroke-linecap:round;stroke-linejoin:round;stroke-miterlimit:10;" d="M72.27,338
						c0,0,5.49-10.78,15.09-20.19"/>
					<path style="fill:none;stroke:#263238;stroke-linecap:round;stroke-linejoin:round;stroke-miterlimit:10;" d="M70.89,345.84
						c0,0-3.53-8.43-7.64-14.51c-4.12-6.08-4.7-6.86-4.7-6.86"/>
					<path style="fill:none;stroke:#263238;stroke-linecap:round;stroke-linejoin:round;stroke-miterlimit:10;" d="M64.15,383.78
						c0,0,2.83-7.17,6.36-12.85c3.53-5.68,8.23-10.78,8.23-10.78"/>
					<path style="fill:none;stroke:#263238;stroke-linecap:round;stroke-linejoin:round;stroke-miterlimit:10;" d="M71.92,412.71
						c0,0-0.83-6.69,2.11-12.38c2.94-5.68,6.27-13.13,7.64-16.07"/>
				</g>
				<g>
					<g>
						<path style="fill:#92E3A9;" d="M32.4,309.04c0,0-0.61-3.5,3.45-9.26c4.06-5.75,6.72-9.1,6.72-9.1s3.85,7.63,0.14,13.33
							c-3.71,5.69-9.22,11.34-9.22,11.34L32.4,309.04z"/>
						<path style="fill:#92E3A9;" d="M43.3,329.69c0,0-0.61-3.5,3.45-9.26c4.06-5.75,6.72-9.1,6.72-9.1s3.85,7.63,0.14,13.33
							c-3.71,5.69-9.22,11.34-9.22,11.34L43.3,329.69z"/>
						<path style="fill:#92E3A9;" d="M33.74,314.95c0,0-0.97-3.42-7.12-6.84c-6.15-3.43-10.01-5.29-10.01-5.29
							s-0.16,8.55,5.65,12.07c5.81,3.52,13.23,6.22,13.23,6.22L33.74,314.95z"/>
						<path style="fill:#92E3A9;" d="M46.81,339.3c0,0-1.33-3.3-7.8-6.06c-6.48-2.76-10.51-4.2-10.51-4.2s0.74,8.52,6.89,11.41
							c6.15,2.89,13.81,4.79,13.81,4.79L46.81,339.3z"/>
						<path style="fill:#92E3A9;" d="M50.07,367.76c0,0-0.61-3.5-6.36-7.56c-5.75-4.06-9.39-6.31-9.39-6.31s-1.06,8.48,4.35,12.6
							c5.4,4.12,12.5,7.58,12.5,7.58L50.07,367.76z"/>
						<path style="fill:#92E3A9;" d="M51.34,374.62c0,0-1.1-3.38,2.1-9.65c3.2-6.27,5.36-9.97,5.36-9.97s4.89,7.01,2.03,13.17
							c-2.86,6.16-7.52,12.54-7.52,12.54L51.34,374.62z"/>
						<path style="fill:#92E3A9;" d="M61.16,402.88c0,0,0.41-3.53,5.92-7.91c5.51-4.38,9.02-6.84,9.02-6.84s1.54,8.41-3.62,12.83
							c-5.16,4.42-12.05,8.28-12.05,8.28L61.16,402.88z"/>
						<path style="fill:#92E3A9;" d="M59.71,394.16c0,0-0.61-3.5-6.36-7.56c-5.75-4.06-9.39-6.31-9.39-6.31s-1.06,8.48,4.35,12.6
							c5.4,4.12,12.5,7.58,12.5,7.58L59.71,394.16z"/>
						<path style="fill:#92E3A9;" d="M59.63,413.2c0,0,0.3-3.54-4.24-8.92c-4.54-5.38-7.49-8.49-7.49-8.49s-3.17,7.94,1.01,13.29
							c4.18,5.35,10.17,10.5,10.17,10.5L59.63,413.2z"/>
					</g>
					<path style="fill:none;stroke:#263238;stroke-linecap:round;stroke-linejoin:round;stroke-miterlimit:10;" d="M31.8,308.22
						c0.94,3.69,2.03,7.5,3.23,10.65c3.67,9.68,9.64,15.31,13.14,24.02c3.51,8.71-0.04,21.33,3.46,32.7
						c3.5,11.36,9.15,17.04,9.2,25.02c0.05,7.98-3.1,30.16-3.1,30.16"/>
					
						<line style="fill:none;stroke:#263238;stroke-linecap:round;stroke-linejoin:round;stroke-miterlimit:10;" x1="34.19" y1="317.27" x2="28.2" y2="314.13"/>
					
						<line style="fill:none;stroke:#263238;stroke-linecap:round;stroke-linejoin:round;stroke-miterlimit:10;" x1="33.14" y1="312.64" x2="34.67" y2="308.33"/>
					<path style="fill:none;stroke:#263238;stroke-linecap:round;stroke-linejoin:round;stroke-miterlimit:10;" d="M47.8,342.52
						c0,0-5-2.55-10.12-5.08"/>
					<path style="fill:none;stroke:#263238;stroke-linecap:round;stroke-linejoin:round;stroke-miterlimit:10;" d="M44.4,335.99
						c0,0,2.44-7.87,5.78-13.39"/>
					<path style="fill:none;stroke:#263238;stroke-linecap:round;stroke-linejoin:round;stroke-miterlimit:10;" d="M50.76,372.77
						c0,0-4.61-6.17-11.66-11.02"/>
					<path style="fill:none;stroke:#263238;stroke-linecap:round;stroke-linejoin:round;stroke-miterlimit:10;" d="M52.47,377.54
						c0,0,1.3-5.67,3.22-9.93c1.92-4.26,2.21-4.81,2.21-4.81"/>
					<path style="fill:none;stroke:#263238;stroke-linecap:round;stroke-linejoin:round;stroke-miterlimit:10;" d="M60.55,406.65
						c0,0,3.97-4.86,6.44-6.69c2.47-1.82,4.18-3.64,4.18-3.64"/>
					<path style="fill:none;stroke:#263238;stroke-linecap:round;stroke-linejoin:round;stroke-miterlimit:10;" d="M60.82,400.6
						c0,0-2.55-4.19-5.38-7.37c-2.83-3.18-6.33-5.87-6.33-5.87"/>
					<path style="fill:none;stroke:#263238;stroke-linecap:round;stroke-linejoin:round;stroke-miterlimit:10;" d="M59.09,419.58
						c0,0-0.21-4.28-2.67-7.53c-2.46-3.25-5.36-7.56-6.54-9.25"/>
				</g>
			</g>
		</g>
		<path style="fill:#263238;stroke:#263238;stroke-linecap:round;stroke-linejoin:round;stroke-miterlimit:10;" d="M88.35,447.69
			c0-8.1-2.47-15.41-6.45-20.67H51.87c-3.98,5.25-6.45,12.57-6.45,20.67c0,12.34,5.73,22.86,13.8,27.02V477h15.61v-2.29h-0.28
			C82.62,470.55,88.35,460.03,88.35,447.69z"/>
	</g>
</g>
<g id="Character">
	<g>
		<g>
			<g>
				<rect x="196.17" y="183.54" style="fill:#545454;" width="34.86" height="12.81"/>
				<rect x="198.18" y="183.54" style="fill:#263238;" width="32.86" height="12.81"/>
			</g>
			<rect x="198.18" y="183.54" style="fill:#545454;" width="32.86" height="2.97"/>
		</g>
		<g>
			<g>
				<polygon style="fill:#545454;" points="215.27,195.1 202.13,195.1 303.88,477 317.02,477 				"/>
			</g>
			<g>
				<polygon style="fill:#263238;" points="217.65,195.1 204.51,195.1 306.26,477 319.4,477 				"/>
			</g>
			<rect x="296.56" y="441.47" style="fill:#FFFFFF;stroke:#263238;stroke-miterlimit:10;" width="24.48" height="5.21"/>
			<rect x="276.57" y="386.36" style="fill:#FFFFFF;stroke:#263238;stroke-miterlimit:10;" width="24.48" height="5.21"/>
			<rect x="256.58" y="331.26" style="fill:#FFFFFF;stroke:#263238;stroke-miterlimit:10;" width="24.48" height="5.21"/>
			<rect x="236.59" y="276.15" style="fill:#FFFFFF;stroke:#263238;stroke-miterlimit:10;" width="24.48" height="5.21"/>
			<rect x="216.6" y="221.04" style="fill:#FFFFFF;stroke:#263238;stroke-miterlimit:10;" width="24.48" height="5.21"/>
		</g>
		<g>
			<path style="fill:#263238;stroke:#263238;stroke-miterlimit:10;" d="M242.13,242.73l17.12-12.06l5.94-44.23
				c0,0-17.82,37.57-20.2,42.09C242.61,233.05,242.13,242.73,242.13,242.73z"/>
			<path style="fill:#263238;stroke:#263238;stroke-miterlimit:10;" d="M280.91,365.66c0,0-3.88,6.1-13.66,6.6
				c-4.75,0.24-6.42,1.43-6.66,4.28c-0.24,2.85,2.14,4.52,7.13,6.18c4.99,1.66,13.79,2.85,18.06,3.09
				c4.28,0.24,10.46,1.66,11.17-1.43c0.71-3.09,2.14-10.7,2.14-11.41C299.1,372.25,280.91,365.66,280.91,365.66z"/>
			<path style="fill:#5C5C5C;stroke:#263238;stroke-miterlimit:10;" d="M259.07,220.93c-1.25,15.48-2.68,35.76-2.68,47.53
				c0,20.92,7.61,39.69,10.46,46.59c2.85,6.89,7.76,21.31,8,22.26c0.24,0.95,2.61,14.26,3.57,17.59c0.95,3.33,1.43,5.7,1.43,5.7
				s-2.61,4.99-2.61,7.13c0,2.14,2.93-0.93,2.93-0.93s5.7,2.14,12.12,3.57c6.42,1.43,8.05,5.55,8.05,5.55s0.43-4.62,0.9-24.82
				s-11.57-60.06-11.57-66.24c0-6.18,4.52-59.66,4.52-59.66s-24.96,0.24-32.56-3.33L259.07,220.93z"/>
			<path style="fill:#263238;stroke:#263238;stroke-miterlimit:10;" d="M295.53,370.35c0,0-6.18,4.04-8.08,4.99
				c-1.9,0.95-9.98,2.61-10.7,4.52s0.48,5.23,0.48,5.23s15.92,3.09,23.29,3.57c7.37,0.48,17.35,1.19,18.54,0
				c1.19-1.19,0.95-13.79,0.95-13.79S299.33,368.69,295.53,370.35z"/>
			<path style="fill:#5C5C5C;stroke:#263238;stroke-miterlimit:10;" d="M278.97,250.4c0,0,3.09,38.27,4.99,44.92
				c1.9,6.66,12.52,42.7,12.99,47.22c0.48,4.52,0.71,10.22,0.48,11.65c-0.24,1.43-1.43,3.09-1.66,6.66
				c-0.24,3.57-0.24,9.51-0.24,9.51s4.04,0.48,7.84,3.33c3.8,2.85,9.98,3.57,13.07,3.09c3.09-0.48,3.57-0.24,3.57-1.9
				c0-1.66,0-1.66,0-6.18s-0.48-8.56,0-16.88c0.48-8.32-2.54-34.15-3.96-41.75c-1.43-7.61-5.94-17.83-6.18-20.92
				c-0.24-3.09,4.99-27.81,4.99-35.89c0-8.08-1.43-27.1-1.43-27.1l-30.66-0.71"/>
			<path style="fill:#263238;stroke:#263238;stroke-miterlimit:10;" d="M287.13,138.35l-6.58,0.3c0,0-13.15,20.93-15.54,35.27
				c-2.39,14.35-6.56,51.46-6.56,51.46s7.77,2.69,23.62,2.99c15.84,0.3,31.09-0.6,31.09-0.6s7.76-40.7,10.45-57.74
				c2.69-17.04-2.09-20.93-6.88-25.11c-4.78-4.19-10.46-5.38-10.46-5.38L287.13,138.35z"/>
			<g>
				<path style="fill:#FFFFFF;stroke:#263238;stroke-miterlimit:10;" d="M259.04,218.2c0,0,9.57,3.59,21.22,3.89
					c11.66,0.3,33.78-0.6,33.78-0.6v8.07l-11.96,0.6c0,0,0,23.62-0.3,24.51c-0.3,0.9,1.49,1.79-10.16,1.79
					c-11.66,0-22.72-2.09-23.32-4.48s2.04-22.67,2.04-22.67l-11.9-3.94L259.04,218.2z"/>
				<g>
					<g>
						<path style="fill:#FFFFFF;stroke:#263238;stroke-miterlimit:10;" d="M280.07,227.31l-5.23-0.09l0.19-10.58
							c0.03-1.45,1.22-2.6,2.66-2.57l0,0c1.45,0.03,2.6,1.22,2.57,2.66L280.07,227.31z"/>
						<line style="fill:#FFFFFF;stroke:#263238;stroke-miterlimit:10;" x1="277.57" y1="227.04" x2="277.26" y2="244.33"/>
						
							<rect x="273.91" y="226.81" transform="matrix(0.9998 0.0178 -0.0178 0.9998 4.1046 -4.904)" style="fill:#FFFFFF;stroke:#263238;stroke-miterlimit:10;" width="6.83" height="2.28"/>
					</g>
					<path style="fill:#FFFFFF;stroke:#263238;stroke-miterlimit:10;" d="M277.33,225.59L277.33,225.59c-0.58,0-1.05-0.47-1.05-1.05
						v-7.5c0-0.58,0.47-1.05,1.05-1.05l0,0c0.58,0,1.05,0.47,1.05,1.05v7.5C278.38,225.12,277.91,225.59,277.33,225.59z"/>
				</g>
				<g>
					<g>
						<path style="fill:#FFFFFF;stroke:#263238;stroke-miterlimit:10;" d="M291.11,229.76l-5.23-0.09l0.19-10.58
							c0.03-1.44,1.22-2.6,2.66-2.57l0,0c1.44,0.03,2.6,1.22,2.57,2.66L291.11,229.76z"/>
						<line style="fill:#FFFFFF;stroke:#263238;stroke-miterlimit:10;" x1="288.61" y1="229.49" x2="288.3" y2="246.78"/>
						
							<rect x="284.95" y="229.25" transform="matrix(0.9998 0.0178 -0.0178 0.9998 4.1498 -5.1001)" style="fill:#FFFFFF;stroke:#263238;stroke-miterlimit:10;" width="6.83" height="2.28"/>
					</g>
					<path style="fill:#FFFFFF;stroke:#263238;stroke-miterlimit:10;" d="M288.37,228.04L288.37,228.04c-0.58,0-1.05-0.47-1.05-1.05
						v-7.49c0-0.58,0.47-1.05,1.05-1.05l0,0c0.58,0,1.05,0.47,1.05,1.05v7.49C289.42,227.57,288.95,228.04,288.37,228.04z"/>
				</g>
				<path style="fill:#FFFFFF;stroke:#263238;stroke-miterlimit:10;" d="M271.24,231.1c0,0,4.22,1.41,10.77,0.94l-0.94,22.95
					c0,0-7.73,1.64-11.95-3.51L271.24,231.1z"/>
				<path style="fill:#FFFFFF;stroke:#263238;stroke-miterlimit:10;" d="M282.01,232.03c0,0,4.68,2.34,14.05,0.94l1.17,22.72
					c0,0-9.37,3.28-16.16-0.7L282.01,232.03z"/>
			</g>
			<path style="fill:#B2B2B2;stroke:#263238;stroke-miterlimit:10;" d="M261.74,170.57c0,0-19.11,0.46-21.62-0.46
				c-2.5-0.91-1.37-5.69,0.46-16.38c1.82-10.69,13.2-47.78,13.2-47.78s-3.87-4.1-4.1-6.37c-0.23-2.28,1.82-10.69,1.82-10.69
				s-4.1,1.82-5.23,0.68c-1.14-1.14,3.41-5.46,3.41-5.46s4.32-1.37,7.28,0.68c2.96,2.05,5.92,5.46,6.37,9.78
				c0.46,4.32-0.91,13.65-2.05,20.48c-1.14,6.83-3.19,31.17-3.19,31.17s10.24-6.6,13.43-7.96c3.19-1.37,8.42-2.73,14.11-1.59
				c0,0-3.87,17.07-5.92,22.98c-2.05,5.92-14.83,33.48-20.07,45.54c-5.23,12.06-17.52,37.54-17.52,37.54s-1.82-10.01,3.64-24.35
				C251.23,204.05,261.74,170.57,261.74,170.57z"/>
			<polygon style="fill:#FFFFFF;stroke:#263238;stroke-miterlimit:10;" points="251.63,109.2 263.28,110.86 261.62,117.75 
				250.44,115.62 			"/>
			<g>
				<path style="fill:#048392;stroke:#263238;stroke-miterlimit:10;" d="M249.73,113.48l14.02,2.61l-4.04,27.57
					c0,0,9.03-4.99,13.31-6.42c4.28-1.43,11.17,0,11.17,0s1.74,1.92-0.32,7.02s-8,24.83-10.85,31.96
					c-2.85,7.13-31.84,69.66-31.84,69.66s-1.19-10.22,1.43-18.3c2.61-8.08,17.58-57.06,17.58-57.06s-18.3,1.19-20.44,0.48
					c-2.14-0.71-1.9-8.32-1.66-10.22C238.32,158.87,249.73,113.48,249.73,113.48z"/>
				<path style="fill:#FFFFFF;stroke:#263238;stroke-miterlimit:10;" d="M260.32,195.64l23.88-58.4l-4.87-0.57L256.4,194.1
					l-2.72-0.91c-0.46,1.44-1.28,3.77-1.76,5.26l2.45,1.73l5.27,5c1.13-2.35,3.12-6.31,4.16-8.49L260.32,195.64z"/>
			</g>
			<g>
				<path style="fill:#FFFFFF;stroke:#263238;stroke-miterlimit:10;" d="M282.49,94.61c0,0,4.62-9.93,9.7-12.47
					c5.08-2.54,14.32,1.15,14.32,1.15s12.24,5.31,15.48,13.63c3.23,8.31-2.54,23.56-2.54,23.56L281.8,96.23L282.49,94.61z"/>
				<path style="fill:none;stroke:#263238;stroke-miterlimit:10;" d="M294.73,93.43c0,0,1.59-2.73,2.5-5.23
					c0.91-2.5-0.23-5.46-0.23-5.46s2.5-0.46,6.6,0.91"/>
			</g>
			<path style="fill:#FFFFFF;stroke:#263238;stroke-miterlimit:10;" d="M279.49,106.39c0,0-7.62-6.93-7.62-9.47
				c0-2.54,20.33-4.62,25.18-3s12.01,12.01,15.01,15.01s12.01,9.01,10.16,13.17c-1.85,4.16-7.85,7.39-15.01,3
				c-7.16-4.39-27.25-17.78-27.25-17.78c2.54-2.31,4.16-0.23,4.16-0.23"/>
			<g>
				<path style="fill:#B2B2B2;stroke:#263238;stroke-miterlimit:10;" d="M314.6,114.24c0,0-8.78-10.39-15.94-13.4
					s-15.48-0.92-17.55,1.39c-2.08,2.31-6.24,13.4-6.47,16.86c-0.23,3.46-0.69,14.09,1.39,15.24c2.08,1.15,8.55,1.85,8.55,1.85
					s-1.39,9.01-1.15,15.01c0.23,6.01,4.45,5.81,7.69,4.42c3.23-1.39,16.57-14.36,16.57-15.97s-0.69-5.08-0.69-5.08l2.77-7.62
					C309.75,126.94,318.52,121.63,314.6,114.24z"/>
				<path style="fill:#263238;stroke:#263238;stroke-miterlimit:10;" d="M303.69,103.84c0.66,1.3,1.44,3.08,1.44,4.16
					c0,1.85-2.08,12.47-2.08,12.47s2.54,1.39,3.23-0.69c0.69-2.08,1.62-7.39,8.32-5.54C314.6,114.24,309.37,108.05,303.69,103.84z"
					/>
				<path style="fill:none;stroke:#263238;stroke-miterlimit:10;" d="M284.8,119.09c-0.69-0.23-6.01-2.08-6.24-3.46
					c-0.23-1.39,6.47-6.7,6.47-6.7v-2.31c0,0-1.97-1.87-5.08,0.69"/>
				<path style="fill:#263238;stroke:#263238;stroke-miterlimit:10;" d="M282.03,118.63c0,0-7.62-1.62-6.47,3.23
					c0.36,1.51,8.08,2.77,10.62,3c2.54,0.23,8.78,0.46,7.62-2.31C292.65,119.78,285.03,117.94,282.03,118.63z"/>
				<path style="fill:none;stroke:#263238;stroke-miterlimit:10;" d="M290.81,107.54c0,0,5.31-2.77,7.62,2.08"/>
				<path style="fill:#263238;" d="M295.18,112.11c-0.18,1.13-0.84,1.97-1.47,1.87c-0.63-0.1-0.99-1.1-0.81-2.24
					c0.18-1.13,0.84-1.97,1.47-1.87C295,109.98,295.36,110.98,295.18,112.11z"/>
				<path style="fill:#263238;" d="M282.03,110.31c-0.15,0.93-0.69,1.62-1.21,1.54c-0.52-0.08-0.82-0.91-0.67-1.84
					c0.15-0.93,0.69-1.62,1.21-1.54C281.88,108.56,282.18,109.38,282.03,110.31z"/>
				<path style="fill:none;stroke:#263238;stroke-miterlimit:10;" d="M291.04,113.78c0,0,1.15,3,5.54,2.77"/>
				<polygon style="fill:#263238;stroke:#263238;stroke-miterlimit:10;" points="284.57,136.18 293.35,136.88 283.88,144.27 				"/>
			</g>
			<g>
				<path style="fill:#048392;stroke:#263238;stroke-miterlimit:10;" d="M307.67,139.65c0,0-12.93,27.95-15.24,35.34
					c-2.31,7.39,0.67,40.37,0.67,46.83c0,6.47,4,37.11,4,37.11s14.09-1.62,22.4-5.31c8.32-3.7,12.93-7.16,12.93-7.16l-13.23-41.27
					c0,0,14.12-36.9,15.96-45.68s-3-13.63-9.01-15.94C320.14,141.27,307.67,139.65,307.67,139.65z"/>
				<path style="fill:#FFFFFF;stroke:#263238;stroke-miterlimit:10;" d="M319.2,205.23l-15.12-3.59c0,0-2.61-17.85,3.08-35.67
					s12.51-23.88,12.51-23.88l-8.34-1.52c0,0-7.96,17.06-11.75,27.29c-3.79,10.24-2.7,35.29-2.7,35.29l-4.76,1.35
					c0.3,3.16,0.5,5.14,0.77,7.87c4.85-1.31,12.74-2.65,14.6-2.39c1.67,0.24,8.89,1.53,14.02,2.45L319.2,205.23z"/>
			</g>
			<g>
				<path style="fill:#FFFFFF;stroke:#263238;stroke-miterlimit:10;" d="M247.91,119.57l-3.76-10.87h-8.55l-3.43,11.1
					c-0.75,1.33-1.19,2.86-1.19,4.49c0,5.04,4.08,9.12,9.12,9.12s9.12-4.08,9.12-9.12C249.23,122.56,248.74,120.95,247.91,119.57z"
					/>
				<rect x="235.6" y="101.77" style="fill:#263238;stroke:#263238;stroke-miterlimit:10;" width="8.78" height="6.93"/>
				<rect x="235.14" y="75.9" style="fill:#263238;stroke:#263238;stroke-miterlimit:10;" width="4.39" height="4.62"/>
				<path style="fill:none;stroke:#263238;stroke-miterlimit:10;" d="M236.53,79.83c0,0-2.54,5.31-5.77,8.78
					c-3.23,3.46-1.39,6.01,1.15,6.47c2.54,0.46,6.93,0.46,6.93,2.08c0,1.62,0,4.39,0,4.39"/>
				<path style="fill:none;stroke:#263238;stroke-miterlimit:10;" d="M238.15,80.75c0,0-7.16,9.47-6.93,10.86
					c0.23,1.39,8.08,2.77,9.7,3.46c1.62,0.69,1.15,6.47,1.15,6.47"/>
				<line style="fill:none;stroke:#263238;stroke-miterlimit:10;" x1="236.53" y1="76.13" x2="236.53" y2="14.23"/>
				<line style="fill:none;stroke:#263238;stroke-miterlimit:10;" x1="238.84" y1="14" x2="238.84" y2="77.29"/>
			</g>
			<g>
				<path style="fill:#B2B2B2;stroke:#263238;stroke-miterlimit:10;" d="M256.62,142.88l-3.46-6.47c0,0-2.31-10.86-2.31-11.78
					c0-0.92-3-7.16-4.16-9.24c-1.15-2.08-2.31-1.85-2.31,0.46c0,2.31,2.08,6.24,2.08,6.93s-0.69,2.54-0.69,2.54
					s-9.7-6.93-10.86-8.08c-1.15-1.15-3.23,0.46-3.23,1.85c0,1.39,0.46,2.77,0.69,3.46c0.23,0.69-1.15,5.54-1.15,7.16
					c0,1.62,0.92,3.93,2.08,5.77c1.15,1.85,9.47,4.62,9.47,4.62l7.39,10.39L256.62,142.88z"/>
				<path style="fill:#FFFFFF;stroke:#263238;stroke-miterlimit:10;" d="M261.94,144.5l-6.47-5.31l-9.84,9.58
					c0,0,6.97,7.32,7.67,7.32C253.99,156.08,261.94,144.5,261.94,144.5z"/>
				<path style="fill:#048392;stroke:#263238;stroke-miterlimit:10;" d="M316.68,149.12l-20.56,15.94l-35.57-22.4l-11.09,14.55
					c0,0,21.25,16.86,28.41,23.79c7.16,6.93,18.48,13.4,24.02,10.39c5.54-3,27.72-19.86,28.41-20.56"/>
				<path style="fill:#FFFFFF;stroke:#263238;stroke-miterlimit:10;" d="M301.43,160.9c0,0,13.17-0.23,15.48,20.09l9.47-6.93
					c0,0-2.08-16.17-17.09-18.71L301.43,160.9z"/>
			</g>
			<g>
				<polygon style="fill:#FFFFFF;stroke:#263238;stroke-miterlimit:10;" points="265.63,71.51 210.2,71.51 228.82,49.34 
					247.01,49.34 				"/>
				<rect x="228.82" y="40.1" style="fill:#FFFFFF;stroke:#263238;stroke-miterlimit:10;" width="17.64" height="9.24"/>
			</g>
			<line style="fill:none;stroke:#263238;stroke-miterlimit:10;" x1="219.72" y1="66.33" x2="217.41" y2="69.31"/>
			<polyline style="fill:none;stroke:#263238;stroke-miterlimit:10;" points="221.91,63.49 232.5,49.82 232.5,42.9 			"/>
			<path style="fill:#B2B2B2;stroke:#263238;stroke-miterlimit:10;" d="M257.11,81.36c0,0-2.27-1.9-3.92-1.94
				c-1.66-0.04-6.67,1.49-5.85,2.7C248.15,83.32,257.11,81.36,257.11,81.36z"/>
			<path style="fill:#B2B2B2;stroke:#263238;stroke-miterlimit:10;" d="M260.47,83.6c0,0-1.4-1.63-3.35-2.24
				c-1.95-0.61-7.53,1.22-7.37,2.22c0.16,1,4.41,1.14,5.42,0.98C256.16,84.4,260.47,83.6,260.47,83.6z"/>
			<path style="fill:#B2B2B2;stroke:#263238;stroke-miterlimit:10;" d="M265.11,91.6c0,0-1.44-7.7-2.57-8.72
				c-1.14-1.02-7.46,0.56-8.36,1.26c-0.9,0.7,0.56,2.28,1.22,2.45c0.66,0.18,4.69,0.1,4.69,0.1l0.72,5.15L265.11,91.6z"/>
			<g>
				<path style="fill:#FFFFFF;stroke:#263238;stroke-miterlimit:10;" d="M247.9,87.58l3.28-4.08l8.24,6.64
					c1.13,0.91,1.3,2.55,0.4,3.68l0,0c-0.91,1.13-2.55,1.3-3.68,0.4L247.9,87.58z"/>
				<line style="fill:#FFFFFF;stroke:#263238;stroke-miterlimit:10;" x1="249.65" y1="85.77" x2="236.18" y2="74.92"/>
				
					<rect x="245.67" y="83.88" transform="matrix(-0.6274 0.7787 -0.7787 -0.6274 471.5621 -55.6027)" style="fill:#FFFFFF;stroke:#263238;stroke-miterlimit:10;" width="6.83" height="2.28"/>
			</g>
			<path style="fill:#B2B2B2;stroke:#263238;stroke-miterlimit:10;" d="M258.1,102.76c-0.91-3.41,2.5-8.65,2.5-8.65
				s-2.73-1.37-3.87-2.5c-1.14-1.14-1.14-3.87,0.46-3.41c1.59,0.46,7.74,2.96,7.74,2.96s2.28,1.14,1.82,4.1
				c-0.46,2.96-4.32,11.6-4.32,11.6"/>
		</g>
		<rect x="176.6" y="354.35" style="fill:#545454;" width="109.34" height="5.23"/>
		<g>
			<polygon style="fill:#545454;" points="219.16,237.55 132.73,477 141.12,477 223.8,247.93 220.2,237.55 			"/>
			<polygon style="fill:#263238;" points="216.78,237.55 130.35,477 133.99,477 220.3,237.86 220.2,237.55 			"/>
		</g>
		<g>
			<g>
				<polygon style="fill:#545454;" points="236.67,195.1 223.53,195.1 325.28,477 338.42,477 				"/>
			</g>
			<g>
				<polygon style="fill:#263238;" points="239.04,195.1 225.9,195.1 327.65,477 340.79,477 				"/>
			</g>
		</g>
		<g>
			<polygon style="fill:#545454;" points="241.03,237.55 154.6,477 162.98,477 245.67,247.93 242.06,237.55 			"/>
			<polygon style="fill:#263238;" points="238.65,237.55 152.22,477 155.85,477 242.17,237.86 242.06,237.55 			"/>
		</g>
		<g>
			<rect x="212.06" y="183.54" style="fill:#545454;" width="34.86" height="12.81"/>
			<rect x="214.07" y="183.54" style="fill:#454545;" width="32.86" height="12.81"/>
		</g>
	</g>
</g>
</svg>
