<?xml version="1.0" encoding="utf-8"?>
<!-- Generator: Adobe Illustrator 25.4.0, SVG Export Plug-In . SVG Version: 6.00 Build 0)  -->
<svg version="1.1" xmlns="http://www.w3.org/2000/svg" xmlns:xlink="http://www.w3.org/1999/xlink" x="0px" y="0px"
	 viewBox="0 0 3710 3710" style="enable-background:new 0 0 3710 3710;" xml:space="preserve">
<style type="text/css">
	.st0{display:none;}
	.st1{display:inline;}
	.st2{fill:#FFFFFF;}
	.st3{fill:url(#SVGID_1_);}
	.st4{fill:url(#SVGID_00000096751704327246094150000004315396608539463046_);}
	.st5{fill:url(#SVGID_00000073723842185910523670000001535532182387307697_);}
	.st6{fill:#91B3FA;}
	.st7{fill:url(#SVGID_00000075121518299875829940000009103570744016286594_);}
	.st8{opacity:0.53;}
	.st9{fill:url(#SVGID_00000026870254554667035520000000817691959641430949_);}
	.st10{fill:url(#SVGID_00000177456925593301300740000004736061669673473963_);}
	.st11{fill:url(#SVGID_00000135665729881542292980000014353072670379066547_);}
	.st12{fill:url(#SVGID_00000170268268055329936710000003778100809663221401_);}
	.st13{fill:url(#SVGID_00000090279298559057882160000012394164129725664163_);}
	.st14{fill:url(#SVGID_00000026885273167515226250000000839807846485347754_);}
	.st15{fill:url(#SVGID_00000158714547661212446460000004523716698362412941_);}
	
		.st16{clip-path:url(#SVGID_00000050660353951574501150000016629735512601779612_);fill:url(#SVGID_00000098917603854231184190000016640940270756887987_);}
	
		.st17{clip-path:url(#SVGID_00000069386736396751271360000002323578801500901035_);fill:url(#SVGID_00000140714584417338652950000006842718424604118155_);}
	
		.st18{clip-path:url(#SVGID_00000103234241714839239150000011122184696120865191_);fill:url(#SVGID_00000038400437398681487310000010045462963452109744_);}
	.st19{opacity:0.44;fill:#FFFFFF;}
	.st20{fill:url(#SVGID_00000093884625668980022390000013594365410737212070_);}
	.st21{fill:url(#SVGID_00000073679874769650473830000013708969774606422198_);}
	.st22{fill:url(#SVGID_00000173146782375260939400000007516974047988613562_);}
	.st23{fill:url(#SVGID_00000041256810131753494050000008053314664969924024_);}
	.st24{fill:url(#SVGID_00000054256755159653554440000007499748314780215690_);}
	.st25{fill:url(#SVGID_00000083771998019751420310000008270176896015913904_);}
	.st26{opacity:0.48;}
	.st27{fill:#BDD0FB;}
	.st28{fill:url(#SVGID_00000007403455104685463090000006662530009444534402_);}
	.st29{opacity:0.57;fill:#FFFFFF;}
	.st30{fill:url(#SVGID_00000078027398734365928090000004088733141518598037_);}
	.st31{fill:url(#SVGID_00000078022463390299945110000014626586753639271302_);}
	.st32{fill:url(#SVGID_00000160888338948862471290000010758616189535327661_);}
	.st33{fill:url(#SVGID_00000141444495628042805080000013298870001607879818_);}
	.st34{fill:url(#SVGID_00000122711845202519714220000010096151016188836794_);}
	.st35{fill:url(#SVGID_00000067954917495544955060000018295034460104671878_);}
	.st36{fill:url(#SVGID_00000141427220851460736560000008191457661983608471_);}
	.st37{fill:url(#SVGID_00000158004467311044124010000000079352705948416696_);}
	.st38{fill:url(#SVGID_00000172398380798968964460000008143883911313697435_);}
	.st39{fill:url(#SVGID_00000124160362731131565490000002652379972903318455_);}
	.st40{fill:url(#SVGID_00000149366896286606462740000010527063285058082695_);}
	.st41{fill:url(#SVGID_00000053509561251557259050000013044988453106799504_);}
	.st42{fill:url(#SVGID_00000160887977709344830020000013156208812767347101_);}
	.st43{fill:url(#SVGID_00000176017696676807683570000003645777902129883570_);}
	.st44{fill:url(#SVGID_00000026845364412895543110000000357100292847640479_);}
	.st45{fill:url(#SVGID_00000064318098071639826180000010213152094319568824_);}
	.st46{fill:url(#SVGID_00000010278421770636502940000002398935828356777898_);}
	.st47{fill:url(#SVGID_00000178187912701218841130000014011952234298007966_);}
	.st48{fill:url(#SVGID_00000104694620783323592220000000659938639215282323_);}
	.st49{fill:url(#SVGID_00000055684120820877214730000008101642147759860364_);}
	.st50{fill:url(#SVGID_00000042727856259618328270000010100899504344443782_);}
	.st51{fill:url(#SVGID_00000024686517185072883900000018256017744494472586_);}
	.st52{fill:url(#SVGID_00000081628800635433470210000017491054059980044436_);}
	.st53{fill:url(#SVGID_00000152953093603255792600000014534600238251734205_);}
	.st54{fill:url(#SVGID_00000004520391077916545740000000447438385618232973_);}
	.st55{fill:url(#SVGID_00000103226567175801665200000000145711109003504317_);}
	.st56{fill:url(#SVGID_00000062152906546887995890000008068085942364743314_);}
	.st57{fill:url(#SVGID_00000072239435581287330550000007948013341516933051_);}
	.st58{fill:url(#SVGID_00000181786471565987290690000017228884372915802547_);}
	.st59{fill:url(#SVGID_00000063618103329734967620000002171334487815209388_);}
	.st60{fill:url(#SVGID_00000165937074124929565590000002872636776133053103_);}
	.st61{fill:url(#SVGID_00000102517555205546636450000018350135789171605176_);}
	.st62{fill:url(#SVGID_00000088824747624416877700000002476753797011490490_);}
	.st63{fill:url(#SVGID_00000067204931605439481700000004468733274204568705_);}
	.st64{fill:url(#SVGID_00000117640605905380962960000013532058543625068171_);}
</style>
<g id="Background" class="st0">
	<g class="st1">
		<g>
			<rect class="st2" width="3710" height="3710"/>
		</g>
	</g>
</g>
<g id="Illustration">
	<g>
		<linearGradient id="SVGID_1_" gradientUnits="userSpaceOnUse" x1="3563.6731" y1="4022.4846" x2="1112.6835" y2="978.5092">
			<stop  offset="0" style="stop-color:#DAE3FE"/>
			<stop  offset="1" style="stop-color:#E9EFFD"/>
		</linearGradient>
		<path class="st3" d="M2889.4,2822.1c-56.3,59.3-109.6,97.5-151.7,127.7c-494.7,355-1080.1,251.5-1204.5,226.2
			c-183.7-37.3-538.8-109.4-795.6-411.4C349.2,2307.8,409.7,1588.1,711,1113.1c55.1-86.9,346.2-569.2,937.9-646.5
			c358.1-46.8,775.5,47.6,1077.8,300.8C3361.2,1299,3316,2372.9,2889.4,2822.1z"/>
		<g>
			<g>
				
					<linearGradient id="SVGID_00000059273440179893789080000003531808309115824564_" gradientUnits="userSpaceOnUse" x1="1920.9211" y1="3200.9636" x2="1946.342" y2="1980.7678">
					<stop  offset="0" style="stop-color:#09005D"/>
					<stop  offset="1" style="stop-color:#1A0F91"/>
				</linearGradient>
				<polygon style="fill:url(#SVGID_00000059273440179893789080000003531808309115824564_);" points="1633.8,2663.5 1573.4,3079.9 
					2273.4,3079.9 2182.3,2663.5 				"/>
				
					<linearGradient id="SVGID_00000075850902536267791860000012536681702579224488_" gradientUnits="userSpaceOnUse" x1="1857.6792" y1="606.3083" x2="1852.5948" y2="2746.7405">
					<stop  offset="0" style="stop-color:#09005D"/>
					<stop  offset="1" style="stop-color:#1A0F91"/>
				</linearGradient>
				<path style="fill:url(#SVGID_00000075850902536267791860000012536681702579224488_);" d="M457.9,1330.3v1239.3
					c0,101.9,81.2,185.3,183.2,187.9c452.7,11.7,2035.8,40,2466.7,33.6c74.1-1.1,134.1-60.4,136.2-134.4
					c8.3-287.9,21.8-980.2-28.1-1301.7c-10.5-67.7-67.7-118.3-136.1-120.5c-379.3-12.1-2057.5-50.7-2488.2-41
					C517.2,1195.3,457.9,1256,457.9,1330.3z"/>
				<path class="st6" d="M535.6,1324.3v1177.4c0,59.5,47.8,108,107.3,108.9l2402.8,29.7c59,0.9,107.4-46.6,107.6-105.6l4-1166.9
					c0.2-42.2-33.5-76.8-75.6-77.8l-2460.1-49.7C574.5,1239.2,535.6,1277.1,535.6,1324.3z"/>
				<path class="st6" d="M3171.5,2688.9C3171.5,2688.9,3171.4,2688.9,3171.5,2688.9L535.6,2644c-2,0-3.7-1.7-3.6-3.7
					c0-2,1.8-3.7,3.7-3.6l2635.8,44.9c2,0,3.7,1.7,3.6,3.7C3175.1,2687.3,3173.5,2688.9,3171.5,2688.9z"/>
				<path class="st6" d="M1879.6,2743.8c-17.2,0-31.1-14-31.1-31.1c0-17.2,14-31.1,31.1-31.1c17.2,0,31.1,14,31.1,31.1
					C1910.7,2729.8,1896.7,2743.8,1879.6,2743.8z M1879.6,2688.9c-13.1,0-23.7,10.7-23.7,23.7c0,13.1,10.7,23.7,23.7,23.7
					c13.1,0,23.7-10.7,23.7-23.7C1903.3,2699.6,1892.7,2688.9,1879.6,2688.9z"/>
				
					<linearGradient id="SVGID_00000137122895848520562420000001306480001773870465_" gradientUnits="userSpaceOnUse" x1="1953.5328" y1="3771.3059" x2="1902.6907" y2="3018.8503">
					<stop  offset="0" style="stop-color:#09005D"/>
					<stop  offset="1" style="stop-color:#1A0F91"/>
				</linearGradient>
				<path style="fill:url(#SVGID_00000137122895848520562420000001306480001773870465_);" d="M2424.2,3190.6H1399.7
					c-27.8,0-48.7-19.8-43.4-41.1l13.1-52c4-15.6,21.2-27.1,41.6-27.8l987.7-30.8c21.3-0.7,40.2,10.7,44.9,26.9l23.7,82.8
					C2473.5,3170.2,2452.5,3190.6,2424.2,3190.6z"/>
				<path class="st6" d="M1951.2,3084.2c-2,0-3.7-1.6-3.7-3.6c0-2,1.6-3.7,3.6-3.7l42.3-0.6c2,0,3.7,1.6,3.7,3.6
					c0,2-1.6,3.7-3.6,3.7L1951.2,3084.2C1951.3,3084.2,1951.3,3084.2,1951.2,3084.2z"/>
				<path class="st6" d="M1394.3,3162.3c-0.2,0-0.4,0-0.6,0c-2-0.3-3.4-2.2-3.1-4.2l6-37.8c3.3-20.5,20.7-35.6,41.4-35.9l448.9-6.6
					c2-0.1,3.7,1.6,3.7,3.6c0,2-1.6,3.7-3.6,3.7l-448.9,6.6c-17.2,0.3-31.6,12.7-34.3,29.7l-6,37.8
					C1397.6,3161,1396.1,3162.3,1394.3,3162.3z"/>
			</g>
			<g>
				<g class="st8">
					<rect x="1972.4" y="1416.7" class="st2" width="93" height="480.6"/>
					<rect x="2127.7" y="1416.7" class="st2" width="93" height="480.6"/>
					<rect x="2283.1" y="1416.7" class="st2" width="93" height="480.6"/>
					<rect x="2438.4" y="1416.7" class="st2" width="93" height="480.6"/>
					<rect x="2593.7" y="1416.7" class="st2" width="93" height="480.6"/>
					<rect x="2749.1" y="1416.7" class="st2" width="93" height="480.6"/>
					<rect x="2904.4" y="1416.7" class="st2" width="93" height="480.6"/>
				</g>
				
					<linearGradient id="SVGID_00000055678704396921263830000017377601363571149218_" gradientUnits="userSpaceOnUse" x1="2018.7892" y1="1762.5956" x2="2021.8909" y2="2082.041">
					<stop  offset="0" style="stop-color:#FF928E"/>
					<stop  offset="1" style="stop-color:#FE7062"/>
				</linearGradient>
				
					<rect x="1972.4" y="1645.8" style="fill:url(#SVGID_00000055678704396921263830000017377601363571149218_);" width="93" height="251.5"/>
				
					<linearGradient id="SVGID_00000131333397826371416130000006369220713007758248_" gradientUnits="userSpaceOnUse" x1="2173.696" y1="1761.6183" x2="2176.8003" y2="2081.3162">
					<stop  offset="0" style="stop-color:#FF928E"/>
					<stop  offset="1" style="stop-color:#FE7062"/>
				</linearGradient>
				
					<rect x="2127.7" y="1732.2" style="fill:url(#SVGID_00000131333397826371416130000006369220713007758248_);" width="93" height="165.1"/>
				
					<linearGradient id="SVGID_00000171715183203117880490000011540039156975248040_" gradientUnits="userSpaceOnUse" x1="2330.0627" y1="1760.9099" x2="2333.1628" y2="2080.1948">
					<stop  offset="0" style="stop-color:#FF928E"/>
					<stop  offset="1" style="stop-color:#FE7062"/>
				</linearGradient>
				
					<rect x="2283.1" y="1518.6" style="fill:url(#SVGID_00000171715183203117880490000011540039156975248040_);" width="93" height="378.7"/>
				
					<linearGradient id="SVGID_00000148638287535666244620000010788058911244271275_" gradientUnits="userSpaceOnUse" x1="2483.9895" y1="1759.6161" x2="2487.0994" y2="2079.9058">
					<stop  offset="0" style="stop-color:#FF928E"/>
					<stop  offset="1" style="stop-color:#FE7062"/>
				</linearGradient>
				
					<rect x="2438.4" y="1806.3" style="fill:url(#SVGID_00000148638287535666244620000010788058911244271275_);" width="93" height="91"/>
				
					<linearGradient id="SVGID_00000169533464329872066880000007871875270321321658_" gradientUnits="userSpaceOnUse" x1="2640.4722" y1="1759.1427" x2="2643.5728" y2="2078.4771">
					<stop  offset="0" style="stop-color:#FF928E"/>
					<stop  offset="1" style="stop-color:#FE7062"/>
				</linearGradient>
				
					<rect x="2593.7" y="1569.2" style="fill:url(#SVGID_00000169533464329872066880000007871875270321321658_);" width="93" height="328.1"/>
				
					<linearGradient id="SVGID_00000132784576614033328010000010376762992000114060_" gradientUnits="userSpaceOnUse" x1="2795.5234" y1="1758.2377" x2="2798.6248" y2="2077.6487">
					<stop  offset="0" style="stop-color:#FF928E"/>
					<stop  offset="1" style="stop-color:#FE7062"/>
				</linearGradient>
				
					<rect x="2749.1" y="1626" style="fill:url(#SVGID_00000132784576614033328010000010376762992000114060_);" width="93" height="271.3"/>
				
					<linearGradient id="SVGID_00000033335724893153697300000009900628839089100693_" gradientUnits="userSpaceOnUse" x1="2950.551" y1="1757.3085" x2="2953.6538" y2="2076.8521">
					<stop  offset="0" style="stop-color:#FF928E"/>
					<stop  offset="1" style="stop-color:#FE7062"/>
				</linearGradient>
				
					<rect x="2904.4" y="1687.8" style="fill:url(#SVGID_00000033335724893153697300000009900628839089100693_);" width="93" height="209.5"/>
			</g>
			<g>
				<g>
					<g>
						<defs>
							<path id="SVGID_00000178892021209209198170000014878828228286374322_" d="M901.1,1993.4c-95,0-172.1,77-172.1,172.1
								c0,95,77,172.1,172.1,172.1c95,0,172.1-77,172.1-172.1C1073.1,2070.4,996.1,1993.4,901.1,1993.4z M901.1,2263.4
								c-54.1,0-98-43.9-98-98c0-54.1,43.9-98,98-98c54.1,0,98,43.9,98,98C999.1,2219.6,955.2,2263.4,901.1,2263.4z"/>
						</defs>
						
							<use xlink:href="#SVGID_00000178892021209209198170000014878828228286374322_"  style="overflow:visible;opacity:0.57;fill:#FFFFFF;"/>
						<clipPath id="SVGID_00000015350492989191287940000002059634014089514884_">
							<use xlink:href="#SVGID_00000178892021209209198170000014878828228286374322_"  style="overflow:visible;opacity:0.57;"/>
						</clipPath>
						
							<linearGradient id="SVGID_00000131349976188800612980000007686642969627086976_" gradientUnits="userSpaceOnUse" x1="924.5872" y1="1990.3196" x2="900.3347" y2="2711.824">
							<stop  offset="0" style="stop-color:#FF928E"/>
							<stop  offset="1" style="stop-color:#FE7062"/>
						</linearGradient>
						
							<rect x="660.8" y="2127.6" style="clip-path:url(#SVGID_00000015350492989191287940000002059634014089514884_);fill:url(#SVGID_00000131349976188800612980000007686642969627086976_);" width="511.1" height="216.3"/>
					</g>
				</g>
				<g>
					<g>
						<defs>
							<path id="SVGID_00000063606306546005077820000007468236793147505031_" d="M1320.5,1993.4c-95,0-172.1,77-172.1,172.1
								c0,95,77,172.1,172.1,172.1c95,0,172.1-77,172.1-172.1C1492.6,2070.4,1415.5,1993.4,1320.5,1993.4z M1320.5,2263.4
								c-54.1,0-98-43.9-98-98c0-54.1,43.9-98,98-98c54.1,0,98,43.9,98,98C1418.5,2219.6,1374.6,2263.4,1320.5,2263.4z"/>
						</defs>
						
							<use xlink:href="#SVGID_00000063606306546005077820000007468236793147505031_"  style="overflow:visible;opacity:0.57;fill:#FFFFFF;"/>
						<clipPath id="SVGID_00000067934129797820032360000012488235562274705037_">
							<use xlink:href="#SVGID_00000063606306546005077820000007468236793147505031_"  style="overflow:visible;opacity:0.57;"/>
						</clipPath>
						
							<linearGradient id="SVGID_00000103229190636688572930000017508611830002557626_" gradientUnits="userSpaceOnUse" x1="1342.1356" y1="2004.3545" x2="1317.8832" y2="2725.8601">
							<stop  offset="0" style="stop-color:#FF928E"/>
							<stop  offset="1" style="stop-color:#FE7062"/>
						</linearGradient>
						
							<rect x="1080.2" y="2044" style="clip-path:url(#SVGID_00000067934129797820032360000012488235562274705037_);fill:url(#SVGID_00000103229190636688572930000017508611830002557626_);" width="511.1" height="299.9"/>
					</g>
				</g>
				<g>
					<g>
						<defs>
							<path id="SVGID_00000139987306907542373960000008418987316032554166_" d="M1739.9,1993.4c-95,0-172.1,77-172.1,172.1
								c0,95,77,172.1,172.1,172.1c95,0,172.1-77,172.1-172.1C1912,2070.4,1834.9,1993.4,1739.9,1993.4z M1739.9,2263.4
								c-54.1,0-98-43.9-98-98c0-54.1,43.9-98,98-98c54.1,0,98,43.9,98,98C1837.9,2219.6,1794.1,2263.4,1739.9,2263.4z"/>
						</defs>
						
							<use xlink:href="#SVGID_00000139987306907542373960000008418987316032554166_"  style="overflow:visible;opacity:0.57;fill:#FFFFFF;"/>
						<clipPath id="SVGID_00000085213987466848515700000000956154733727371928_">
							<use xlink:href="#SVGID_00000139987306907542373960000008418987316032554166_"  style="overflow:visible;opacity:0.57;"/>
						</clipPath>
						
							<linearGradient id="SVGID_00000116915173777741261090000014923568957816766108_" gradientUnits="userSpaceOnUse" x1="1764.3071" y1="2018.5461" x2="1740.0547" y2="2740.05">
							<stop  offset="0" style="stop-color:#FF928E"/>
							<stop  offset="1" style="stop-color:#FE7062"/>
						</linearGradient>
						
							<rect x="1499.6" y="2235.7" style="clip-path:url(#SVGID_00000085213987466848515700000000956154733727371928_);fill:url(#SVGID_00000116915173777741261090000014923568957816766108_);" width="511.1" height="108.1"/>
					</g>
				</g>
			</g>
			<g>
				<path class="st19" d="M2992.4,2572.5l-984.9-7.4c-19.4-0.1-35.1-15.9-35.1-35.4v-506c0-19.5,15.8-35.4,35.4-35.4h984.9
					c19.5,0,35.4,15.8,35.4,35.4v513.4C3028,2556.8,3012,2572.7,2992.4,2572.5z"/>
				<path class="st19" d="M2839.6,2216.8L2713,2082.9l-181.6,197.5l-128.1-138.3L2283.1,2278l-92.2-112l-181.6,189.1v136.7
					c0,18.1,14.6,32.8,32.6,32.9l916,6.9c18.3,0.1,33.1-14.6,33.1-32.9v-372L2839.6,2216.8z"/>
				<rect x="2840.2" y="2213.1" class="st2" width="3.7" height="318.5"/>
				<rect x="2711.1" y="2082.9" class="st2" width="3.7" height="446.9"/>
				<rect x="2529.5" y="2278" class="st2" width="3.7" height="250.4"/>
				<rect x="2404.8" y="2147.1" class="st2" width="3.7" height="381.4"/>
				<rect x="2281.2" y="2274" class="st2" width="3.7" height="254.5"/>
				<rect x="2191" y="2156.6" class="st2" width="3.7" height="369.4"/>
				
					<linearGradient id="SVGID_00000002349901187533801590000002436649391941946014_" gradientUnits="userSpaceOnUse" x1="2216.1409" y1="2086.2178" x2="2099.377" y2="2439.2256">
					<stop  offset="0" style="stop-color:#FF928E"/>
					<stop  offset="1" style="stop-color:#FE7062"/>
				</linearGradient>
				<path style="fill:url(#SVGID_00000002349901187533801590000002436649391941946014_);" d="M2220.7,2156.6
					c0,15.4-12.5,27.8-27.8,27.8s-27.8-12.5-27.8-27.8c0-15.4,12.5-27.8,27.8-27.8S2220.7,2141.2,2220.7,2156.6z"/>
				
					<linearGradient id="SVGID_00000137839465959401345290000007007920147411042708_" gradientUnits="userSpaceOnUse" x1="2298.3982" y1="2227.6208" x2="2221.4783" y2="2460.1694">
					<stop  offset="0" style="stop-color:#FF928E"/>
					<stop  offset="1" style="stop-color:#FE7062"/>
				</linearGradient>
				<circle style="fill:url(#SVGID_00000137839465959401345290000007007920147411042708_);" cx="2283.1" cy="2274" r="18.3"/>
				
					<linearGradient id="SVGID_00000065782615084152177440000017665011631827870394_" gradientUnits="userSpaceOnUse" x1="2421.9719" y1="2100.7324" x2="2345.0522" y2="2333.2808">
					<stop  offset="0" style="stop-color:#FDF53F"/>
					<stop  offset="1" style="stop-color:#D93C65"/>
				</linearGradient>
				<path style="fill:url(#SVGID_00000065782615084152177440000017665011631827870394_);" d="M2425,2147.1
					c0,10.1-8.2,18.3-18.3,18.3c-10.1,0-18.3-8.2-18.3-18.3c0-10.1,8.2-18.3,18.3-18.3C2416.8,2128.8,2425,2137,2425,2147.1z"/>
				
					<linearGradient id="SVGID_00000053508183381091638020000016554036425749127604_" gradientUnits="userSpaceOnUse" x1="2546.6995" y1="2231.6787" x2="2469.7798" y2="2464.2266">
					<stop  offset="0" style="stop-color:#FF928E"/>
					<stop  offset="1" style="stop-color:#FE7062"/>
				</linearGradient>
				<circle style="fill:url(#SVGID_00000053508183381091638020000016554036425749127604_);" cx="2531.4" cy="2278" r="18.3"/>
				
					<linearGradient id="SVGID_00000163768261969025415940000008723516862854191008_" gradientUnits="userSpaceOnUse" x1="2728.2881" y1="2036.5834" x2="2651.3682" y2="2269.1318">
					<stop  offset="0" style="stop-color:#FDF53F"/>
					<stop  offset="1" style="stop-color:#D93C65"/>
				</linearGradient>
				<circle style="fill:url(#SVGID_00000163768261969025415940000008723516862854191008_);" cx="2713" cy="2082.9" r="18.3"/>
				
					<linearGradient id="SVGID_00000072248270745693412600000017015672743646227857_" gradientUnits="userSpaceOnUse" x1="2857.3713" y1="2166.7561" x2="2780.4514" y2="2399.3047">
					<stop  offset="0" style="stop-color:#53D8FF"/>
					<stop  offset="1" style="stop-color:#3840F7"/>
				</linearGradient>
				<circle style="fill:url(#SVGID_00000072248270745693412600000017015672743646227857_);" cx="2842" cy="2213.1" r="18.3"/>
			</g>
			<g class="st26">
				<path class="st2" d="M1050.1,1416.7H746.3c-12.7,0-23,9.4-23,21.1c0,11.7,10.3,21.1,23,21.1h303.8c12.7,0,23-9.4,23-21.1
					C1073.1,1426.2,1062.8,1416.7,1050.1,1416.7z"/>
				<path class="st2" d="M1050.1,1510.2H746.3c-12.7,0-23,9.4-23,21.1c0,11.7,10.3,21.1,23,21.1h303.8c12.7,0,23-9.4,23-21.1
					C1073.1,1519.6,1062.8,1510.2,1050.1,1510.2z"/>
				<path class="st2" d="M1050.1,1883.9H746.3c-12.7,0-23,9.4-23,21.1c0,11.7,10.3,21.1,23,21.1h303.8c12.7,0,23-9.4,23-21.1
					C1073.1,1893.4,1062.8,1883.9,1050.1,1883.9z"/>
				<path class="st2" d="M1050.1,1790.5H746.3c-12.7,0-23,9.4-23,21.1c0,11.7,10.3,21.1,23,21.1h303.8c12.7,0,23-9.4,23-21.1
					C1073.1,1799.9,1062.8,1790.5,1050.1,1790.5z"/>
				<path class="st2" d="M1050.1,1697.1H746.3c-12.7,0-23,9.4-23,21.1c0,11.7,10.3,21.1,23,21.1h303.8c12.7,0,23-9.4,23-21.1
					C1073.1,1706.5,1062.8,1697.1,1050.1,1697.1z"/>
			</g>
			<g class="st26">
				<path class="st2" d="M1472.4,1416.7h-303.8c-12.7,0-23,9.4-23,21.1c0,11.7,10.3,21.1,23,21.1h303.8c12.7,0,23-9.4,23-21.1
					C1495.4,1426.2,1485.1,1416.7,1472.4,1416.7z"/>
				<path class="st2" d="M1472.4,1510.2h-303.8c-12.7,0-23,9.4-23,21.1c0,11.7,10.3,21.1,23,21.1h303.8c12.7,0,23-9.4,23-21.1
					C1495.4,1519.6,1485.1,1510.2,1472.4,1510.2z"/>
				<path class="st2" d="M1472.4,1883.9h-303.8c-12.7,0-23,9.4-23,21.1c0,11.7,10.3,21.1,23,21.1h303.8c12.7,0,23-9.4,23-21.1
					C1495.4,1893.4,1485.1,1883.9,1472.4,1883.9z"/>
				<path class="st2" d="M1472.4,1790.5h-303.8c-12.7,0-23,9.4-23,21.1c0,11.7,10.3,21.1,23,21.1h303.8c12.7,0,23-9.4,23-21.1
					C1495.4,1799.9,1485.1,1790.5,1472.4,1790.5z"/>
				<path class="st2" d="M1472.4,1697.1h-303.8c-12.7,0-23,9.4-23,21.1c0,11.7,10.3,21.1,23,21.1h303.8c12.7,0,23-9.4,23-21.1
					C1495.4,1706.5,1485.1,1697.1,1472.4,1697.1z"/>
			</g>
			<g class="st26">
				<path class="st2" d="M1894.6,1416.7h-303.8c-12.7,0-23,9.4-23,21.1c0,11.7,10.3,21.1,23,21.1h303.8c12.7,0,23-9.4,23-21.1
					C1917.7,1426.2,1907.3,1416.7,1894.6,1416.7z"/>
				<path class="st2" d="M1894.6,1510.2h-303.8c-12.7,0-23,9.4-23,21.1c0,11.7,10.3,21.1,23,21.1h303.8c12.7,0,23-9.4,23-21.1
					C1917.7,1519.6,1907.3,1510.2,1894.6,1510.2z"/>
				<path class="st2" d="M1894.6,1883.9h-303.8c-12.7,0-23,9.4-23,21.1c0,11.7,10.3,21.1,23,21.1h303.8c12.7,0,23-9.4,23-21.1
					C1917.7,1893.4,1907.3,1883.9,1894.6,1883.9z"/>
				<path class="st2" d="M1894.6,1790.5h-303.8c-12.7,0-23,9.4-23,21.1c0,11.7,10.3,21.1,23,21.1h303.8c12.7,0,23-9.4,23-21.1
					C1917.7,1799.9,1907.3,1790.5,1894.6,1790.5z"/>
				<path class="st2" d="M1894.6,1697.1h-303.8c-12.7,0-23,9.4-23,21.1c0,11.7,10.3,21.1,23,21.1h303.8c12.7,0,23-9.4,23-21.1
					C1917.7,1706.5,1907.3,1697.1,1894.6,1697.1z"/>
			</g>
		</g>
		<g>
			<g>
				<path class="st6" d="M1630.7,3106.8c0,0-164.7,181.5-302.2,104.8c-110.5-61.7,46.5-45.5,179.7-74.7c10.5-2.3,7.7-17.9-2.9-16.5
					c-104.2,13.8-263.2,25.1-290.8-29.2c-41.7-82-1.3-55.4,125.6-43.6c126.9,11.8,151.3-19.5,68.5-39
					c-82.8-19.5-214.6,23.6-245.3-16.5c-30.7-40.1-47.5-119.8-59.7-154.1c-12.2-34.3,158-85.7,204-40.7c46,45,83.4,145.4,138,163.7
					c54.6,18.3-4.1-70.5-40.3-116.3c-36.2-45.8-50.6-79.9,21.8-69c72.3,10.9,110.6,99.2,118.2,165.1c7.6,65.9,33.1,102.8,32,70.2
					c-1.2-32.6-13-132.6-36.1-162.7C1517.9,2818.4,1683,2855.1,1630.7,3106.8z"/>
				<path class="st27" d="M1617.3,3108.6c-0.7,0.3-1.6,0.2-2.2-0.4c-141.3-123.6-378.4-213.5-380.7-214.4c-1.1-0.4-1.7-1.7-1.3-2.8
					c0.4-1.1,1.7-1.7,2.8-1.3c2.4,0.9,240.1,91,382.1,215.2c0.9,0.8,1,2.2,0.2,3.1C1617.9,3108.3,1617.6,3108.5,1617.3,3108.6z"/>
			</g>
			<g>
				<path class="st27" d="M1730.1,3222.8c0,0-300.7,9.9-350.5-176.9c-40.1-150.1,79.9,2.1,219.3,94.6c10.9,7.3,22.4-8.5,12.1-16.6
					c-101.2-80.1-247-210.6-222.7-281.4c36.7-106.8,47.8-48.5,145.7,73.5c98,122,146.5,116.8,92.9,27.1
					c-53.6-89.7-204.2-169-195-230.3c9.2-61.3,65.1-144.2,84.8-184.3c19.8-40.1,210.5,66.1,210.1,145c-0.3,79-56.9,197.7-26.5,261.5
					c30.5,63.8,58.6-63.9,68.1-134.9c9.5-71.1,27.2-112.8,79.4-39.7c52.2,73.1,7,182.3-44.6,245.3s-62.3,117-34.6,88.1
					c27.8-28.9,105.8-124.7,112.6-170.8C1888,2877,1996.7,3053.8,1730.1,3222.8z"/>
				
					<linearGradient id="SVGID_00000004536869188634063450000004412044740518167227_" gradientUnits="userSpaceOnUse" x1="1579.0972" y1="2950.1655" x2="1720.8828" y2="2950.1655">
					<stop  offset="0" style="stop-color:#DAE3FE"/>
					<stop  offset="1" style="stop-color:#E9EFFD"/>
				</linearGradient>
				<path style="fill:url(#SVGID_00000004536869188634063450000004412044740518167227_);" d="M1717.1,3212.4
					c-0.9-0.4-1.5-1.3-1.5-2.3c-11.7-230.2-135-516-136.3-518.8c-0.6-1.3,0-2.9,1.4-3.5c1.3-0.6,2.9,0,3.5,1.4
					c1.2,2.9,124.9,289.5,136.7,520.7c0.1,1.5-1.1,2.7-2.5,2.8C1717.9,3212.7,1717.5,3212.6,1717.1,3212.4z"/>
			</g>
		</g>
		<g>
			<g>
				
					<ellipse transform="matrix(0.7071 -0.7071 0.7071 0.7071 -410.7168 1517.8333)" class="st29" cx="1626.8" cy="1254.7" rx="599.8" ry="599.8"/>
				<g>
					
						<linearGradient id="SVGID_00000160868881540036857650000012080264124815380882_" gradientUnits="userSpaceOnUse" x1="2072.7571" y1="662.6532" x2="920.2316" y2="2192.8174">
						<stop  offset="0" style="stop-color:#4F52FF"/>
						<stop  offset="1" style="stop-color:#4042E2"/>
					</linearGradient>
					<circle style="fill:url(#SVGID_00000160868881540036857650000012080264124815380882_);" cx="1626.8" cy="1254.7" r="511.9"/>
					<path class="st2" d="M1626.8,1792.2c-296.4,0-537.5-241.1-537.5-537.5s241.1-537.5,537.5-537.5s537.5,241.1,537.5,537.5
						S1923.2,1792.2,1626.8,1792.2z M1626.8,742.8c-282.2,0-511.9,229.6-511.9,511.9c0,282.2,229.6,511.9,511.9,511.9
						c282.2,0,511.9-229.6,511.9-511.9C2138.7,972.5,1909.1,742.8,1626.8,742.8z"/>
				</g>
				<g>
					
						<linearGradient id="SVGID_00000175292203982782609270000009013608175422637453_" gradientUnits="userSpaceOnUse" x1="2072.7568" y1="662.6533" x2="920.2332" y2="2192.8149">
						<stop  offset="0" style="stop-color:#4F52FF"/>
						<stop  offset="1" style="stop-color:#4042E2"/>
					</linearGradient>
					<circle style="fill:url(#SVGID_00000175292203982782609270000009013608175422637453_);" cx="1626.8" cy="1254.7" r="312.1"/>
					<path class="st2" d="M1626.8,1592.4c-186.2,0-337.7-151.5-337.7-337.7S1440.6,917,1626.8,917c186.2,0,337.7,151.5,337.7,337.7
						S1813,1592.4,1626.8,1592.4z M1626.8,968.3c-157.9,0-286.4,128.5-286.4,286.4s128.5,286.4,286.4,286.4
						c157.9,0,286.4-128.5,286.4-286.4S1784.8,968.3,1626.8,968.3z"/>
				</g>
				<g>
					
						<linearGradient id="SVGID_00000100352265254712971470000013782150237807711916_" gradientUnits="userSpaceOnUse" x1="2072.7566" y1="662.6535" x2="920.2341" y2="2192.8135">
						<stop  offset="0" style="stop-color:#4F52FF"/>
						<stop  offset="1" style="stop-color:#4042E2"/>
					</linearGradient>
					<circle style="fill:url(#SVGID_00000100352265254712971470000013782150237807711916_);" cx="1626.8" cy="1254.7" r="120.9"/>
					<path class="st2" d="M1626.8,1401.2c-80.8,0-146.5-65.7-146.5-146.5s65.7-146.5,146.5-146.5c80.8,0,146.5,65.7,146.5,146.5
						S1707.6,1401.2,1626.8,1401.2z M1626.8,1159.4c-52.5,0-95.3,42.7-95.3,95.3c0,52.5,42.7,95.3,95.3,95.3
						c52.5,0,95.3-42.7,95.3-95.3C1722.1,1202.2,1679.4,1159.4,1626.8,1159.4z"/>
				</g>
			</g>
			<g>
				
					<linearGradient id="SVGID_00000067219522518211122890000009266108256784393660_" gradientUnits="userSpaceOnUse" x1="578.5513" y1="4974.8276" x2="395.6722" y2="5717.7715" gradientTransform="matrix(-0.5954 -0.8034 0.8034 -0.5954 -2176.4268 4591.3066)">
					<stop  offset="0" style="stop-color:#09005D"/>
					<stop  offset="1" style="stop-color:#1A0F91"/>
				</linearGradient>
				<polygon style="fill:url(#SVGID_00000067219522518211122890000009266108256784393660_);" points="2465.1,626.2 2478.7,644.6 
					1783.2,1160 1769.6,1141.7 				"/>
				
					<linearGradient id="SVGID_00000115496889926759010850000008543446424640943279_" gradientUnits="userSpaceOnUse" x1="1661.5465" y1="121.9584" x2="1702.2202" y2="762.5598">
					<stop  offset="0" style="stop-color:#FF928E"/>
					<stop  offset="1" style="stop-color:#FE7062"/>
				</linearGradient>
				<path style="fill:url(#SVGID_00000115496889926759010850000008543446424640943279_);" d="M1786.7,1104.8
					c10.5-7.8,47.3,41.9,36.8,49.7l-179.1,102.2c-6.6,3.8-13.2-5-7.6-10.3L1786.7,1104.8z"/>
				<path class="st6" d="M2478.3,644.9l80.2,20.2l-128.4,95.2c-42.1,31.2-95.9,41.9-146.7,29.1l0,0L2478.3,644.9z"/>
				<path class="st6" d="M2464.7,626.5l4-82.7l-128.4,95.2c-42.1,31.2-68,79.6-70.5,131.9l0,0L2464.7,626.5z"/>
			</g>
		</g>
		<g>
			
				<linearGradient id="SVGID_00000044169434096455540520000015176968847086367110_" gradientUnits="userSpaceOnUse" x1="-6475.6709" y1="1801.7219" x2="-6387.79" y2="2022.1692" gradientTransform="matrix(-1 0 0 1 -5442.7979 0)">
				<stop  offset="0" style="stop-color:#09005D"/>
				<stop  offset="1" style="stop-color:#1A0F91"/>
			</linearGradient>
			<path style="fill:url(#SVGID_00000044169434096455540520000015176968847086367110_);" d="M980.8,1920.3c0,0-29.6,14.4-35.1,31
				c-4.4,13.3-37.1,15-40.4,41.1c-1.7,13.5-11.7,24.3-25.1,26.3c-33.5,5.1-85,22.5-93.3,80.6c-6.3,44.3,16.3,61.2,40,67
				c17.4,4.3,29,21.2,25.5,38.8c-3.4,16.9,1.7,36.4,30.9,51.8c65.5,34.6,130.9-81.9,130.9-81.9l13.4-203.3L980.8,1920.3z"/>
			
				<linearGradient id="SVGID_00000067230824712337146080000014369897935629929373_" gradientUnits="userSpaceOnUse" x1="-6154.416" y1="3213.0479" x2="-6079.8965" y2="3213.0479" gradientTransform="matrix(-1 0 0 1 -5442.7979 0)">
				<stop  offset="0" style="stop-color:#09005D"/>
				<stop  offset="1" style="stop-color:#1A0F91"/>
			</linearGradient>
			<path style="fill:url(#SVGID_00000067230824712337146080000014369897935629929373_);" d="M711.5,3195.2l-4.2,34.8
				c-0.8,6.6-6,11.8-12.6,12.6c-11.2,1.3-29.1,2.6-46.6,0.7c-7.7-0.8-12.7-8.6-10.4-16c4.3-13.5,12.1-33.6,23.4-45.5h38.7
				C706.9,3181.8,712.4,3188.1,711.5,3195.2z"/>
			
				<linearGradient id="SVGID_00000139998607465438558190000012825412392406949781_" gradientUnits="userSpaceOnUse" x1="-6469.2993" y1="3506.9116" x2="-6362.0605" y2="2253.5554" gradientTransform="matrix(-1 0 0 1 -5442.7979 0)">
				<stop  offset="0" style="stop-color:#A22B25"/>
				<stop  offset="1" style="stop-color:#C0423C"/>
			</linearGradient>
			<path style="fill:url(#SVGID_00000139998607465438558190000012825412392406949781_);" d="M1014.3,2787l6.5,38.4
				c0,0-21.8,221.3-25.7,309.8c-0.6,13.9,3,27.6,10.3,39.4l38,61.7l-96.6-57l-1.9-11.8l15.8-21.7L940,2897.9
				c-1.2-14.6,1.8-29.2,8.7-42.1l20-37.5L1014.3,2787z"/>
			
				<linearGradient id="SVGID_00000045604227661838835780000001575994563923205027_" gradientUnits="userSpaceOnUse" x1="-6500.6274" y1="3199.4421" x2="-6380.0488" y2="3199.4421" gradientTransform="matrix(-1 0 0 1 -5442.7979 0)">
				<stop  offset="0" style="stop-color:#09005D"/>
				<stop  offset="1" style="stop-color:#1A0F91"/>
			</linearGradient>
			<path style="fill:url(#SVGID_00000045604227661838835780000001575994563923205027_);" d="M1049.7,3245.2h-30.8
				c-5.8,0-11.2-2.6-14.7-7.2c-9.6-12.5-29.5-36.8-39-37.5c-12.8-0.9-11.2,44.7-11.2,44.7h-7.2l-9.1-56.6
				c-2.3-14.2,4.8-28.3,17.6-35l0,0c0,0,2.9,21.7,18.8,31.2c15.9,9.6,64.6,43.9,64.6,43.9s6-0.9,12.5,0.3
				C1060.9,3230.8,1059.6,3245.2,1049.7,3245.2z"/>
			
				<linearGradient id="SVGID_00000119812835158093455460000010651291499362850182_" gradientUnits="userSpaceOnUse" x1="-6253.5815" y1="3525.5608" x2="-6146.3145" y2="2271.8752" gradientTransform="matrix(-1 0 0 1 -5442.7979 0)">
				<stop  offset="0" style="stop-color:#A22B25"/>
				<stop  offset="1" style="stop-color:#C0423C"/>
			</linearGradient>
			<path style="fill:url(#SVGID_00000119812835158093455460000010651291499362850182_);" d="M882,2805.2c0,0-128,242.8-148.3,298.2
				c-20.3,55.4-27.5,101.7-27.7,106.1c-0.4,6.8-8.9,13.4-32.4,13.4c-12.1,0-18-4.9-20.9-9.6c-2.5-4-2.6-9-0.5-13.2
				c7.4-15,30.9-62.9,39.6-84.6c10.4-25.9,32.7-143.4,45-184.3c12.3-40.9,26.1-85.2,79.5-126C816.2,2805.2,852.8,2769.3,882,2805.2z
				"/>
			
				<linearGradient id="SVGID_00000041266622714308909790000006442055514742668693_" gradientUnits="userSpaceOnUse" x1="1509.2449" y1="1896.2845" x2="853.3901" y2="2414.8667">
				<stop  offset="0" style="stop-color:#4F52FF"/>
				<stop  offset="1" style="stop-color:#4042E2"/>
			</linearGradient>
			<path style="fill:url(#SVGID_00000041266622714308909790000006442055514742668693_);" d="M962.9,2407.4
				c33-139.9-50.6-219-50.6-219c52.8-50.7,148.9-73.7,148.9-73.7s91.8,67.1,80.9,119.6c-6.4,30.8-64.5,184.3-64.5,184.3
				S1023.8,2444,962.9,2407.4z"/>
			
				<linearGradient id="SVGID_00000140722231664588759140000011450581118789373630_" gradientUnits="userSpaceOnUse" x1="878.8456" y1="2494.7937" x2="1082.2117" y2="2860.8525">
				<stop  offset="0" style="stop-color:#4F52FF"/>
				<stop  offset="1" style="stop-color:#4042E2"/>
			</linearGradient>
			<path style="fill:url(#SVGID_00000140722231664588759140000011450581118789373630_);" d="M889.7,2476.7
				c13.4-40.5,73.2-69.3,73.2-69.3c60.9,36.6,114.7,11.2,114.7,11.2s12.1,46.1,3.7,88.9c-8.3,42.8-60.5,317.9-60.5,317.9
				c-82.2,16.7-208.7-16.8-208.7-16.8C864.5,2715.6,876.3,2517.1,889.7,2476.7z"/>
			
				<linearGradient id="SVGID_00000171702256059488437720000014700630895058598284_" gradientUnits="userSpaceOnUse" x1="1047.9612" y1="1999.9902" x2="966.6107" y2="2220.3142">
				<stop  offset="0" style="stop-color:#A22B25"/>
				<stop  offset="1" style="stop-color:#C0423C"/>
			</linearGradient>
			<path style="fill:url(#SVGID_00000171702256059488437720000014700630895058598284_);" d="M1001.2,2022.2l-26.8,120.6
				c-2.6,10.6,7.1,8.9,17.8,6.9c17.6-3.3,40.2-10.1,47.8-23.8c0.8-1.4,1.2-3,1.4-4.5l11.5-83.6c0.9-6.6-2.7-13.1-8.8-15.8l-22.3-9.9
				C1013.3,2008.2,1003.4,2013.1,1001.2,2022.2z"/>
			
				<linearGradient id="SVGID_00000176005028864972693910000004349738351310052269_" gradientUnits="userSpaceOnUse" x1="922.1877" y1="2138.9055" x2="871.3461" y2="2525.2991">
				<stop  offset="0" style="stop-color:#A22B25"/>
				<stop  offset="1" style="stop-color:#C0423C"/>
			</linearGradient>
			<path style="fill:url(#SVGID_00000176005028864972693910000004349738351310052269_);" d="M912.3,2188.4c0,0-187.4,134-24,274.9
				c0,0,6.2,7,18.5,10.7c6.2,1.8,24.5,15.7,33.8,22.9c3,2.3,7.3,1.5,9.3-1.7l0,0c1.6-2.5,1.8-5.6,0.5-8.3l-23.2-49
				c-6.4-6-16.3-6.4-23.2-1l0,0c-4.4,3.5-10.9,2-13.4-3c-12.6-25.7-36.5-101.4,61.1-186.9c3.7-3.2,4.6-8.5,2.3-12.9
				C947.2,2220.9,931.5,2194.7,912.3,2188.4z"/>
			<g>
				
					<linearGradient id="SVGID_00000017502009130159295390000000226977490896841899_" gradientUnits="userSpaceOnUse" x1="5339.5767" y1="19726.832" x2="5198.9082" y2="19503.1191" gradientTransform="matrix(-0.9809 -0.1943 -0.1943 0.9809 -5213.708 -99.2406)">
					<stop  offset="0" style="stop-color:#A22B25"/>
					<stop  offset="1" style="stop-color:#C0423C"/>
				</linearGradient>
				<path style="fill:url(#SVGID_00000017502009130159295390000000226977490896841899_);" d="M1052.6,1912.3
					c0,0,28.6,19.3,40.9,68.6c12.3,49.3-7.7,66.9-28.1,65.9c-20.5-1.1-50.1-7.4-75.8-42.8C963.8,1968.7,1015.2,1888.7,1052.6,1912.3
					z"/>
				
					<linearGradient id="SVGID_00000092450731450205953100000007872360056783544502_" gradientUnits="userSpaceOnUse" x1="-6556.6328" y1="657.2899" x2="-6468.748" y2="877.7463" gradientTransform="matrix(-0.9809 -0.1943 -0.1943 0.9809 -5213.708 -99.2406)">
					<stop  offset="0" style="stop-color:#09005D"/>
					<stop  offset="1" style="stop-color:#1A0F91"/>
				</linearGradient>
				<path style="fill:url(#SVGID_00000092450731450205953100000007872360056783544502_);" d="M1015.5,1984.1
					c0,0-10.5-70.6,48.1-59.8l11.8,12.3c0,0,28.7-32.3-3.1-56.7c-31.7-24.4-75.8-18.2-100.2,26.3c-24.4,44.5-33.2,75.7-12.8,103.3
					c20.4,27.6,35.8,3.9,35.8,3.9s-9.4-23.9-1.6-34.2c7.8-10.3,17.8,6,17.8,6L1015.5,1984.1z"/>
				
					<linearGradient id="SVGID_00000071535890779897025180000012159941129242728083_" gradientUnits="userSpaceOnUse" x1="5371.4878" y1="19706.7559" x2="5230.8193" y2="19483.043" gradientTransform="matrix(-0.9809 -0.1943 -0.1943 0.9809 -5213.708 -99.2406)">
					<stop  offset="0" style="stop-color:#A22B25"/>
					<stop  offset="1" style="stop-color:#C0423C"/>
				</linearGradient>
				<path style="fill:url(#SVGID_00000071535890779897025180000012159941129242728083_);" d="M1007.4,1990.2c0,0-5.2-36.3-23.7-25.9
					c-18.5,10.4,6.7,33.9,16.8,41.9L1007.4,1990.2z"/>
			</g>
		</g>
		<g>
			
				<linearGradient id="SVGID_00000023970232899708532970000004322991883947139480_" gradientUnits="userSpaceOnUse" x1="-5890.9746" y1="2234.5073" x2="-5985.4478" y2="2376.2166" gradientTransform="matrix(-1 0 0 1 -3242.584 0)">
				<stop  offset="0" style="stop-color:#FEBBBA"/>
				<stop  offset="1" style="stop-color:#FF928E"/>
			</linearGradient>
			<path style="fill:url(#SVGID_00000023970232899708532970000004322991883947139480_);" d="M2780.3,2462.4l-104.4,1.3l36.5-34.4
				c9.1-8.5,22.9-9.9,33.4-3.1c6.1,4,12.8,9.4,18.6,16.5c0,0,65.1-23.8,96.7-77c9.8,14.6,21.3,34.5,31.3,59.2
				C2864.1,2441.5,2827.4,2454.5,2780.3,2462.4z"/>
			
				<linearGradient id="SVGID_00000158708863420358865260000003554816426341240704_" gradientUnits="userSpaceOnUse" x1="-6044.7485" y1="3214.4878" x2="-5882.5615" y2="3214.4878" gradientTransform="matrix(-1 0 0 1 -3242.584 0)">
				<stop  offset="0" style="stop-color:#4F52FF"/>
				<stop  offset="1" style="stop-color:#4042E2"/>
			</linearGradient>
			<path style="fill:url(#SVGID_00000158708863420358865260000003554816426341240704_);" d="M2644.6,3206.6c27.8,2.4,76,6.3,114,8
				c22.9,1,36-1.2,43.6-4.3c0,0.9,0,1.7-0.1,2.4c-0.2,4-3.4,7.2-7.5,7.4c-71.8,4-129,1.4-149.3,0.2c-4.2-0.3-6.7-4.8-4.6-8.4
				C2641.8,3210.1,2643.1,3208.4,2644.6,3206.6z"/>
			
				<linearGradient id="SVGID_00000026135177847669465510000000094181237580536463_" gradientUnits="userSpaceOnUse" x1="-5883.1016" y1="2943.1519" x2="-5920.0259" y2="3057.812" gradientTransform="matrix(-1 0 0 1 -3242.584 0)">
				<stop  offset="0" style="stop-color:#09005D"/>
				<stop  offset="1" style="stop-color:#1A0F91"/>
			</linearGradient>
			<path style="fill:url(#SVGID_00000026135177847669465510000000094181237580536463_);" d="M2758.6,3214.6c-38-1.7-86.2-5.6-114-8
				c27.3-33.5,114-56.1,114-56.1h24.5c16.8,24.3,19.3,47.4,19.1,59.8C2794.6,3213.4,2781.4,3215.6,2758.6,3214.6z"/>
			
				<linearGradient id="SVGID_00000145762679169454991600000004581722643557725354_" gradientUnits="userSpaceOnUse" x1="-6029.7749" y1="3138.3232" x2="-5984.0903" y2="3138.3232" gradientTransform="matrix(-1 0 0 1 -3242.584 0)">
				<stop  offset="0" style="stop-color:#FEBBBA"/>
				<stop  offset="1" style="stop-color:#FF928E"/>
			</linearGradient>
			<path style="fill:url(#SVGID_00000145762679169454991600000004581722643557725354_);" d="M2787.2,3110.6l-2.3,45.3
				c-0.2,4.9-3.9,9-8.8,9.7c-4.9,0.7-11.4,0.8-18.4-1.5c-4.3-1.4-7.4-5-8.2-9.4l-7.9-44.1H2787.2z"/>
			<g>
				
					<linearGradient id="SVGID_00000030472527044115655430000017790608317992027327_" gradientUnits="userSpaceOnUse" x1="-6334.23" y1="3241.7949" x2="-6272.0771" y2="3241.7949" gradientTransform="matrix(-1 0 0 1 -3242.584 0)">
					<stop  offset="0" style="stop-color:#4F52FF"/>
					<stop  offset="1" style="stop-color:#4042E2"/>
				</linearGradient>
				<path style="fill:url(#SVGID_00000030472527044115655430000017790608317992027327_);" d="M3071.4,3245.6c12-2,17.5-9.2,19.8-17
					c0,0.1,0,0.1,0,0.2c1.8,8.2-2.3,16.7-10.6,20.8c-9.9,4.9-20.8,5.7-29.2,5.3c-9-0.4-17.3-4.8-21.9-11.8l-0.1-0.1
					C3038.6,3248.3,3051.3,3248.9,3071.4,3245.6z"/>
				
					<linearGradient id="SVGID_00000162322602043964375410000005075693858004397991_" gradientUnits="userSpaceOnUse" x1="-6176.8164" y1="2848.5657" x2="-6213.7407" y2="2963.2256" gradientTransform="matrix(-1 0 0 1 -3242.584 0)">
					<stop  offset="0" style="stop-color:#09005D"/>
					<stop  offset="1" style="stop-color:#1A0F91"/>
				</linearGradient>
				<path style="fill:url(#SVGID_00000162322602043964375410000005075693858004397991_);" d="M3014.6,3124.5h20.2
					c30.8-0.7,50.1,74.8,56.4,104.1c-2.3,7.8-7.7,15.1-19.8,17c-20.1,3.3-32.8,2.6-41.9-2.6c-16.6-25.5-24.9-62.8-28.8-84.5
					C2996.2,3133.8,3014.6,3124.5,3014.6,3124.5z"/>
			</g>
			
				<linearGradient id="SVGID_00000130640631860989556190000001521591149025760923_" gradientUnits="userSpaceOnUse" x1="-6286.3589" y1="3114.5005" x2="-6231.7612" y2="3114.5005" gradientTransform="matrix(-1 0 0 1 -3242.584 0)">
				<stop  offset="0" style="stop-color:#FEBBBA"/>
				<stop  offset="1" style="stop-color:#FF928E"/>
			</linearGradient>
			<path style="fill:url(#SVGID_00000130640631860989556190000001521591149025760923_);" d="M3032.2,3082.4l11.2,44.6
				c1.4,5.5-1.2,11.1-6.3,13.7c-6.3,3.2-15.1,6.6-23.2,5.6c-3.8-0.5-7-3.1-8.2-6.7l-16.5-46.9L3032.2,3082.4z"/>
			
				<linearGradient id="SVGID_00000012444389384307362220000017980222691467728805_" gradientUnits="userSpaceOnUse" x1="-5844.7412" y1="2525.3223" x2="-6310.8813" y2="3288.9045" gradientTransform="matrix(-1 0 0 1 -3242.584 0)">
				<stop  offset="0" style="stop-color:#4F52FF"/>
				<stop  offset="1" style="stop-color:#4042E2"/>
			</linearGradient>
			<path style="fill:url(#SVGID_00000012444389384307362220000017980222691467728805_);" d="M2637.7,2495
				c0,0,100.2,626.4,98.6,629.9c0,0,27.7,12.6,57.9,1.6c0,0-9.1-334.9-30.3-463.3c0,0,171,299.3,225.3,448.4c0,0,28.3-3.4,51.8-18.8
				c0,0-184.2-538.7-233.3-610.5L2637.7,2495z"/>
			
				<linearGradient id="SVGID_00000065771082638780020250000014327185987181044415_" gradientUnits="userSpaceOnUse" x1="2946.1951" y1="1619.7582" x2="2747.9136" y2="2529.8228">
				<stop  offset="0" style="stop-color:#4F52FF"/>
				<stop  offset="1" style="stop-color:#4042E2"/>
			</linearGradient>
			<path style="fill:url(#SVGID_00000065771082638780020250000014327185987181044415_);" d="M2759.8,2662.2c0.9,0,1.9-0.3,2.7-0.8
				c2.4-1.5,3.1-4.7,1.6-7.1l-37.4-59.8c-0.8-1.2-2-2-3.4-2.3l-27.6-5.5c-2.8-0.6-5.5,1.2-6.1,4c-0.6,2.8,1.2,5.5,4,6.1l25.4,5.1
				l36.3,57.9C2756.4,2661.3,2758.1,2662.2,2759.8,2662.2z"/>
			
				<linearGradient id="SVGID_00000165225979294599140380000018156236259341015180_" gradientUnits="userSpaceOnUse" x1="-5535.3916" y1="1964.457" x2="-5751.6294" y2="2245.7759" gradientTransform="matrix(-1 0 0 1 -3242.584 0)">
				<stop  offset="0" style="stop-color:#FEBBBA"/>
				<stop  offset="1" style="stop-color:#FF928E"/>
			</linearGradient>
			<path style="fill:url(#SVGID_00000165225979294599140380000018156236259341015180_);" d="M2177.8,1881.6
				c0,0,67.6,14.9,108.8,33.9c8.2,3.8,14.7,10.4,18.4,18.5c12.3,26.9,49.1,94.5,120.5,126.8c-10.3,13.6-26.8,42-34,89.7
				c-42.9-31.9-79.9-85.2-97.6-172.6c0,0-13.5,7.4-30.4-0.8c-8.9-4.3-19.2-10.5-26.9-15.3c-7.7-4.8-13.4-12.3-15.7-21
				c-2.9-11.5-1.2-21.7-1.2-32.6l-34.8-10.8C2184.8,1897.4,2174.4,1893.4,2177.8,1881.6z"/>
			
				<linearGradient id="SVGID_00000047053665828768872290000015656410990435125408_" gradientUnits="userSpaceOnUse" x1="3181.3125" y1="1587.0887" x2="2984.7158" y2="1837.9189">
				<stop  offset="0" style="stop-color:#09005D"/>
				<stop  offset="1" style="stop-color:#1A0F91"/>
			</linearGradient>
			<path style="fill:url(#SVGID_00000047053665828768872290000015656410990435125408_);" d="M2391.4,2150.5
				c7.2-47.7,23.8-76.1,34-89.7c44.3,20,102,26.4,175.5,1c6.8-2.3,13.8-3.7,21-4.1c39.1-2.3,167.9-6.5,274.5,28.7
				c22.4,7.4,40.6,24,50,45.5c28.8,66.2,75.5,216.9-54.1,293c-10-24.7-21.5-44.6-31.3-59.2c20.9-35.2,27.1-83.3-10-145.9
				c-27,72.9-39.7,179.4-42.3,226.4c-0.9,15.5,1.8,31,7.9,45.3l0.7,1.6c1.3,3.1-0.5,6.6-3.8,7.3c-73,16.4-148.9,11.9-171.5,10.1
				c-4-0.3-7.4-3.2-8.3-7.1c-35.5-149.5-35.6-251.5-26.9-316C2573.6,2194.7,2472.1,2210.6,2391.4,2150.5z"/>
			
				<linearGradient id="SVGID_00000178910926263925629750000009616117234445022102_" gradientUnits="userSpaceOnUse" x1="3236.9868" y1="1609.5579" x2="2807.6377" y2="1980.1543">
				<stop  offset="0" style="stop-color:#4F52FF"/>
				<stop  offset="1" style="stop-color:#4042E2"/>
			</linearGradient>
			<path style="fill:url(#SVGID_00000178910926263925629750000009616117234445022102_);" d="M2606.7,2193.5c2.5,0,4.8-1.9,5.1-4.5
				c8.3-62.3,25-89.5,25.2-89.8c1.5-2.4,0.8-5.6-1.6-7.1c-2.4-1.5-5.6-0.8-7.1,1.6c-0.7,1.2-18.1,29.1-26.7,94
				c-0.4,2.8,1.6,5.4,4.4,5.8C2606.2,2193.5,2606.5,2193.5,2606.7,2193.5z"/>
			
				<linearGradient id="SVGID_00000124882830771401902670000012224366421266551709_" gradientUnits="userSpaceOnUse" x1="-6017.3804" y1="2146.2781" x2="-5993.7236" y2="2022.08" gradientTransform="matrix(-1 0 0 1 -3242.584 0)">
				<stop  offset="0" style="stop-color:#FEBBBA"/>
				<stop  offset="1" style="stop-color:#FF928E"/>
			</linearGradient>
			<path style="fill:url(#SVGID_00000124882830771401902670000012224366421266551709_);" d="M2786.8,1970.5c0,0,7.4,78.1,13.9,101.1
				c1,3.5-0.5,7.2-3.7,9c-11,6.3-37.5,16.6-73.7-1.2c-5.9-2.9-9.4-9-9.1-15.5l3.2-75.4L2786.8,1970.5z"/>
			<g>
				
					<linearGradient id="SVGID_00000044891193450931500210000003922206965152996786_" gradientUnits="userSpaceOnUse" x1="-5953.3687" y1="1918.4142" x2="-6088.3452" y2="2021.6918" gradientTransform="matrix(-1 0 0 1 -3242.584 0)">
					<stop  offset="0" style="stop-color:#FEBBBA"/>
					<stop  offset="1" style="stop-color:#FF928E"/>
				</linearGradient>
				<path style="fill:url(#SVGID_00000044891193450931500210000003922206965152996786_);" d="M2715.7,1870.7
					c0,0-23.6,54.2-25.2,82.7c-1.6,28.5-7.7,46.9,25.2,52.7c32.9,5.7,60.6-10.7,75.7-39c0,0,23.5-43.7,18.3-61.6
					C2804.4,1887.5,2715.7,1870.7,2715.7,1870.7z"/>
				
					<linearGradient id="SVGID_00000177461487669312148190000004457320276633144722_" gradientUnits="userSpaceOnUse" x1="-6048.3857" y1="1836.6412" x2="-5922.6772" y2="1998.4912" gradientTransform="matrix(-1 0 0 1 -3242.584 0)">
					<stop  offset="0" style="stop-color:#09005D"/>
					<stop  offset="1" style="stop-color:#1A0F91"/>
				</linearGradient>
				<path style="fill:url(#SVGID_00000177461487669312148190000004457320276633144722_);" d="M2780.2,1946.6l-1.9-0.8
					c-2.4-1.1-3.4-3.9-2.2-6.2c4.6-9,13.7-29.5,2-34.3c-15.1-6.2-74.7-18.3-87.6-39.5c-12.4-20.4-1.4-46.6,15.1-54.1
					c1.1-0.5,2.4-0.1,3,1l1.4,2.6c0.9,1.8,3.6,1.5,4.1-0.4l0,0c0.5-1.9,3-2.2,4-0.6c4,6.3,14.6,16.6,43.2,21.9
					c40.6,7.5,67.5,23.9,68.1,52c0,1.8,1.9,2.8,3.5,1.8c3-1.8,7.8-2.7,14.2,2.7c11.2,9.4,6.6,33.7-17.9,53.7c-1.2,1-1.2,2.8,0.1,3.6
					c4.4,2.9,11,9.8-6.1,18.9c-17.7,9.5-30.9,8.7-36,7.8c-1.3-0.2-2.1-1.4-1.8-2.7l5.4-24.7c0.3-1.4-0.8-2.7-2.2-2.7H2780.2z"/>
				
					<linearGradient id="SVGID_00000049209934839539078300000001107784351944133012_" gradientUnits="userSpaceOnUse" x1="-5970.1108" y1="1896.5333" x2="-6105.0869" y2="1999.8107" gradientTransform="matrix(-1 0 0 1 -3242.584 0)">
					<stop  offset="0" style="stop-color:#FEBBBA"/>
					<stop  offset="1" style="stop-color:#FF928E"/>
				</linearGradient>
				<path style="fill:url(#SVGID_00000049209934839539078300000001107784351944133012_);" d="M2779.1,1951.8c0,0,9-34.6,24.5-24.9
					c15.5,9.7-8.1,38.8-20.5,40.1L2779.1,1951.8z"/>
			</g>
			
				<linearGradient id="SVGID_00000096753086312897231740000014772058297486217642_" gradientUnits="userSpaceOnUse" x1="2275.4395" y1="1606.3762" x2="2264.1406" y2="1830.0897">
				<stop  offset="0" style="stop-color:#FEBBBA"/>
				<stop  offset="1" style="stop-color:#FF928E"/>
			</linearGradient>
			<path style="fill:url(#SVGID_00000096753086312897231740000014772058297486217642_);" d="M2275.8,1972.1c1.1,0,2.3-0.4,3.3-1.2
				c2.2-1.8,2.5-5,0.7-7.3c-2.6-3.2-25.5-31.2-34.6-36.4c-2.6-1.5-3.9-2.8-4.3-3.6l23.8,4.8l14.7,12.6c2.2,1.9,5.4,1.6,7.3-0.6
				c1.9-2.2,1.6-5.4-0.6-7.3l-15.7-13.5c-0.7-0.6-1.5-1-2.3-1.1l-29.5-5.9c-2-0.4-4.1,0.4-5.3,2.2c-2.5,3.7-3.3,7.3-2.5,10.8
				c1,4.1,4,7.5,9.4,10.6c5.6,3.2,22.4,22.5,31.7,33.9C2272.8,1971.4,2274.3,1972.1,2275.8,1972.1z"/>
			
				<linearGradient id="SVGID_00000018919852429864246620000009232424909096737921_" gradientUnits="userSpaceOnUse" x1="-6003.5581" y1="2393.1541" x2="-6065.832" y2="2486.5647" gradientTransform="matrix(-1 0 0 1 -3242.584 0)">
				<stop  offset="0" style="stop-color:#FEBBBA"/>
				<stop  offset="1" style="stop-color:#FF928E"/>
			</linearGradient>
			<path style="fill:url(#SVGID_00000018919852429864246620000009232424909096737921_);" d="M2824,2420.3c0,0-8.9-14.8-29.6-14.8
				S2750,2444,2750,2444s32.6,14.8,44.4,26.6S2824,2444,2824,2420.3z"/>
		</g>
	</g>
</g>
</svg>
