<?xml version="1.0" encoding="utf-8"?>
<!-- Generator: Adobe Illustrator 25.4.0, SVG Export Plug-In . SVG Version: 6.00 Build 0)  -->
<svg version="1.1" xmlns="http://www.w3.org/2000/svg" xmlns:xlink="http://www.w3.org/1999/xlink" x="0px" y="0px"
	 viewBox="0 0 3710 3710" style="enable-background:new 0 0 3710 3710;" xml:space="preserve">
<style type="text/css">
	.st0{display:none;}
	.st1{display:inline;}
	.st2{fill:#FFFFFF;}
	.st3{fill:#E9FFFF;}
	.st4{fill:#91B3FA;}
	.st5{opacity:0.5;fill:#FFFFFF;}
	.st6{fill:#BDD0FB;}
	.st7{fill:#0CB9C1;}
	.st8{opacity:0.54;}
	.st9{fill:url(#SVGID_1_);}
	.st10{fill:url(#SVGID_00000023965661211370089040000016847927501121270426_);}
	.st11{fill:url(#SVGID_00000145775345395639789800000015769292933161787834_);}
	.st12{fill:url(#SVGID_00000031203194197794853280000018432245831118220470_);}
	.st13{fill:#0CB5C6;}
	.st14{fill:url(#SVGID_00000134949292949001491940000004911415024277736850_);}
	.st15{fill:url(#SVGID_00000147931087556540699090000003326223297713744295_);}
	.st16{fill:url(#SVGID_00000133488322377756840060000006205279456384383876_);}
	.st17{fill:url(#SVGID_00000005233547467747813380000017827489761768971142_);}
	.st18{fill:url(#SVGID_00000144314599724990968130000009357718330389769115_);}
	.st19{fill:url(#SVGID_00000094607458123370736940000006893853435213017241_);}
	.st20{fill:url(#SVGID_00000135651426823052267030000001616734934277034917_);}
	.st21{fill:url(#SVGID_00000046316857351609677690000015702491001840645250_);}
	.st22{fill:url(#SVGID_00000048472189885095233950000004074252504363250584_);}
	.st23{fill:url(#SVGID_00000103943081510131529540000006851753752368971911_);}
	.st24{fill:url(#SVGID_00000175293694374694851330000008557394772217999288_);}
	.st25{fill:url(#SVGID_00000119819317750061438820000007520555384306809021_);}
	.st26{fill:url(#SVGID_00000176760569495354192850000000561438974287532960_);}
	.st27{fill:url(#SVGID_00000034785761427837846150000002269644796771406496_);}
	.st28{fill:url(#SVGID_00000097494792710037699380000002399850140057045401_);}
	.st29{fill:url(#SVGID_00000083051691201511564060000016652978074339962507_);}
	.st30{fill:url(#SVGID_00000043451159691559948330000009343930252694373819_);}
	.st31{fill:url(#SVGID_00000105429230303089995990000008171032172893666442_);}
</style>
<g id="Background" class="st0">
	<g class="st1">
		<g>
			<rect class="st2" width="3710" height="3710"/>
		</g>
	</g>
</g>
<g id="Illustration">
	<g>
		<path class="st3" d="M2925.4,2861.1c-57.2,60.2-111.4,99.1-154.2,129.8c-502.9,360.8-1097.9,255.7-1224.4,230
			c-186.8-37.9-547.7-111.2-808.7-418.2C343.3,2338.4,404.8,1606.9,711,1124c56-88.3,351.9-578.6,953.4-657.2
			c364-47.6,788.3,48.4,1095.6,305.8C3405,1312.9,3359.1,2404.6,2925.4,2861.1z"/>
		<g>
			<g>
				<path class="st4" d="M1319.8,2305.7c0,0,8.9-374.9-163.7-475.2c-172.7-100.3-501-163.1-513.3-701.3
					c-7.2-315.1-15-452.9-20.2-513c-2-23.4,18.8-42.4,41.9-38c163.5,30.8,694.7,157.6,806.1,520.2
					C1602.6,1528.2,1319.8,2305.7,1319.8,2305.7z"/>
				<path class="st5" d="M790.9,727.9c179.5,160.1,387.1,443.4,497.7,726.7c14.2,46.7,55.7,146,73.8,322.4
					c16.1,147.1,8.1,302.6-11.4,405.6c-1.2,6.5-7.5,10.8-14,9.5c-11.2-2.1-9.7-14.2-9.6-13.8c22.3-175.8,13.1-394.7-38.1-592.2
					c-65.3-242.5-211-477.6-361.7-677l-15.5-19.6c-116.7-149.9-141.3-151-130.4-161.5C784.3,725.6,788.3,725.6,790.9,727.9z"/>
			</g>
			<g>
				<path class="st6" d="M1597.2,3026.4c23.4,11.5-221.2-296-297.7-778.9c-36.1-227.6-36.6-512.7-166.2-622.6
					c-107.9-91.4-475-33.7-595.1-11.8c-15,2.7-20.1,21.7-8.4,31.5c57.6,48.4,180.8,162.5,212.9,277.5
					c42.3,151.6,186.4,248,315.5,274.1c129,26.1,200.8,51.4,263.6,257.7C1384.7,2660.3,1530.9,2993.9,1597.2,3026.4z"/>
				<path class="st4" d="M707.1,1677.2c153.3,6.4,317.8,76.3,401.3,207.5l7.9,12.5c18.2,29.3,121.3,237.9,178.6,410.8
					c0.7,2.2-0.5,4.5-2.6,5.2c-3.7,1.2-5.5-2.8-5.1-2.5c-39.9-97.7-97.2-221.5-142.9-314.1c-49-101.1-83.2-169.5-194.9-235.1
					c-124.3-70.6-243-77.9-242.7-77.8c-1.8-0.2-3.1-1.8-2.9-3.6C703.9,1678.4,705.4,1677.1,707.1,1677.2z"/>
			</g>
			<g>
				<path class="st4" d="M1492.4,3066.9c13.9,7.3-78.1-151-85.1-290.4c-7.1-139.4-38.5-377.4-158.7-519.8
					c-120.2-142.4-251.9-155.3-417.8-25.9c-138.3,107.8-224.5,162.3-275.1,172.4c-12.5,2.5-18.9,16.6-12.8,27.9
					c32.4,59.7,124.2,197,278.2,187.3c196.4-12.3,434.5-140,507.1-33.5c72.6,106.5,63.2,166.1,65.5,216.6
					C1395.7,2851.9,1400.7,3018.5,1492.4,3066.9z"/>
				<path class="st5" d="M886.4,2401.7c60.2-57.7,158.2-114.4,243.8-103.8c111.4,18,185.7,92.4,226.2,203.2
					c15.8,47,22.3,72.1,31.7,129.8c0.7,4.6-6,6-7.2,1.5c-6.8-27.1-13.6-55.4-23.6-84.8c-58.7-189.2-184.1-214.7-189-218.6
					c-9.5,0.9-66.9-42.1-203.3,31.3c-25.5,13.9-50.3,29.7-73.5,47.1l-0.1,0.1c-1.7,1.3-4.1,0.9-5.3-0.8
					C884.9,2405.2,885.1,2403,886.4,2401.7z"/>
			</g>
		</g>
		<g>
			<g>
				<path class="st7" d="M2129.1,933.9l-738,74.6c-8,0.8-15.1,5.6-18.9,12.7l-199.3,373.5c-6.5,12.2-9,26.2-7,39.9L1419.3,3188
					c1.9,13.1,14.3,22.1,27.3,19.8l1220-215.9c15.3-2.7,25.6-17,23.4-32.4L2444,1256.2c-2.6-17.8-10.6-34.3-23-47.4L2175.3,951
					C2163.4,938.4,2146.3,932.1,2129.1,933.9z"/>
			</g>
			<g class="st8">
				<path class="st2" d="M1500.6,3125.7c-5.4,0-10.7-1.7-15.2-5c-5.9-4.3-9.9-11-11-18.3l-236-1633.3c-2-13.9,0.3-27.8,6.6-40.2
					L1423,1082c4.2-8.2,12.1-13.6,21.1-14.5l664.6-66.2c17-1.7,34.2,5,46,17.8l222.5,241.1c12,13,19.7,29.2,22.3,46.9l229.3,1586.6
					c2.5,17.1-8.6,32.9-25.2,35.9l-1098.4,195.6C1503.7,3125.5,1502.1,3125.7,1500.6,3125.7z M2109.2,1006.5l0.5,5.1l-664.6,66.2
					c-5.5,0.5-10.3,3.9-12.9,8.9l-177.9,346.8c-5.4,10.5-7.3,22.2-5.6,34l236,1633.3c0.7,4.7,3.1,8.7,6.8,11.4
					c3.5,2.5,7.7,3.5,11.9,2.8l1098.4-195.6c11.1-2,18.4-12.6,16.7-24.2l-229.3-1586.6c-2.3-15.6-9-29.9-19.6-41.4l-222.5-241.1
					c-9.8-10.6-23.4-15.9-37.4-14.5L2109.2,1006.5z"/>
			</g>
			<g>
				<path class="st2" d="M1948.7,2669.6l-13.7-82.2c-86.2,10.8-174.3,4.7-238.9-11.6c-23.1-5.8-38-28.1-35.6-51.8l8.1-80
					c3-29.4,31.1-49,59.8-42.2c63.9,15.1,140.9,22.6,220.4,9.4c82.5-13.7,139.4-52,129.8-109.3c-8.6-51.7-61.3-74.6-181.1-86.3
					c-171.1-17.5-300.5-69.3-324.4-213.3c-21.7-130.1,56.9-245.2,217.5-299.3l-13.7-82.2c-4.4-26.4,13.5-51.5,39.9-55.9l48.3-8
					c26.4-4.4,51.5,13.5,55.9,39.9l12.3,73.8c79.8-10,139.8-6.1,188.2,2.4c24.8,4.3,41.9,27.5,39.4,52.6l-7.4,74
					c-2.9,28.5-29.5,48.3-57.7,42.7c-44.8-8.9-107.2-15.6-184.7-2.7c-97.9,16.3-119.1,61.5-113.1,97.9
					c7.5,44.8,71.3,65.7,205.1,83.7c190.9,24.3,279,87.2,301.6,222.9c20.7,124.5-52.9,251.7-227.3,309.5l15.3,92
					c4.4,26.4-13.5,51.5-39.9,55.9l-48.3,8C1978.1,2714,1953.1,2696.1,1948.7,2669.6z"/>
			</g>
			<linearGradient id="SVGID_1_" gradientUnits="userSpaceOnUse" x1="2099.7178" y1="141.8816" x2="1712.1071" y2="1625.1338">
				<stop  offset="0" style="stop-color:#FDF53F"/>
				<stop  offset="1" style="stop-color:#D93C65"/>
			</linearGradient>
			<circle class="st9" cx="1816" cy="1227.7" r="122.9"/>
			
				<ellipse transform="matrix(0.7071 -0.7071 0.7071 0.7071 -336.2271 1643.6666)" class="st2" cx="1816" cy="1227.7" rx="100.2" ry="100.2"/>
			
				<linearGradient id="SVGID_00000074401650147430130590000000128600475864693648_" gradientUnits="userSpaceOnUse" x1="1467.3647" y1="860.7066" x2="1946.8583" y2="860.7066">
				<stop  offset="0" style="stop-color:#09005D"/>
				<stop  offset="1" style="stop-color:#1A0F91"/>
			</linearGradient>
			<path style="fill:url(#SVGID_00000074401650147430130590000000128600475864693648_);" d="M1719.9,1256.3
				c-4.7-15.7-5.4-32.2-2-49.5l6.6-5.1c217-166.7,208.8-381.1,128.7-526.2c-65.9-119.4-176.7-191.1-252.4-163.3
				c-93.6,34.5-114.6,215.5-60.3,481l-43.4,4.4l0.4,2.1c-81.7-399.3,20.6-501.1,88.9-526.2c95.9-35.3,226.1,42.9,302.9,182.1
				c88.3,160.1,98,396.3-139.8,579L1719.9,1256.3z"/>
		</g>
		<g>
			<g>
				
					<linearGradient id="SVGID_00000085946455000188014420000008129693538583064491_" gradientUnits="userSpaceOnUse" x1="2051.8718" y1="1347.2228" x2="2869.3784" y2="1735.2567" gradientTransform="matrix(0.9999 -1.500000e-02 1.500000e-02 0.9999 -78.3148 17.0219)">
					<stop  offset="0" style="stop-color:#09005D"/>
					<stop  offset="1" style="stop-color:#1A0F91"/>
				</linearGradient>
				<path style="fill:url(#SVGID_00000085946455000188014420000008129693538583064491_);" d="M2543.5,1286.8
					c0,0-45.2-110.7,125.2-88.4c170.4,22.3,129,86.7,142.5,136.9c13.5,50.3,85,107.3,283.9,184.8c199,77.6,140,289.1,50.6,359.3
					c-89.4,70.2-138.1,23.5-158.9,144.7c-20.8,121.2-103.7,219.6-207.2,116.9c-103.5-102.7-221.1-224.2-188.2-383.4
					c32.9-159.3-4.4-129.1-68.6-202.2C2458.8,1482.3,2594.9,1411.6,2543.5,1286.8z"/>
				
					<linearGradient id="SVGID_00000018231095352558968040000003678790308425426564_" gradientUnits="userSpaceOnUse" x1="2297.9961" y1="1763.0605" x2="2559.8606" y2="1446.0671">
					<stop  offset="0" style="stop-color:#FEBBBA"/>
					<stop  offset="1" style="stop-color:#FF928E"/>
				</linearGradient>
				<path style="fill:url(#SVGID_00000018231095352558968040000003678790308425426564_);" d="M2581.6,1583.2
					c-27.1-27.4-53.4,38.5-60.4,55.1c-17.7,41.7-36.2,79.2-73.6,107.8c-23.2,17.7-54.5,29-83.8,20.5
					c-105.6-30.6-106.1-115.4-108.4-179c2.4-18-8.4-35.9-21.5-41.4c-15.2-6.5-21-22.2-21-22.2s-10.3,22.9,2.4,33.6
					c4.4,3.8,5.7,8.2,5.6,12.4c-1.5-0.2-3-0.5-4.6-0.7c-31.7-4,0.1,41.5,0.1,41.5s-30.7,166.3,110,232.4
					c69.7,32.7,123.1,25,159.4,8.8c18.3-6.4,34.2-17.9,47.7-32.6c5.4-5.4,8.2-9.1,8.2-9.1l0-0.5
					C2597.8,1738.3,2607.5,1609.5,2581.6,1583.2z"/>
				<path class="st13" d="M2582.7,1572.7c27.7-8.3,108.2-23.6,184.8,47.1c13,12,18.3,30.2,13.7,47.3
					c-20.6,75.7-74.8,299.5-27.3,396.3c0,0-83.9,92.4-175.4,17.9c0,0-41.1-178.9-94.8-257.4c-37.1-54.2,59.2-203.6,83.6-239.7
					C2571,1578.6,2576.4,1574.6,2582.7,1572.7z"/>
				
					<linearGradient id="SVGID_00000009588657803098875410000006146087022678747781_" gradientUnits="userSpaceOnUse" x1="-6106.0693" y1="2660.5183" x2="-6083.9351" y2="2503.3674" gradientTransform="matrix(0.9602 0.2794 -0.2794 0.9602 9200.4277 797.6744)">
					<stop  offset="0" style="stop-color:#FEBBBA"/>
					<stop  offset="1" style="stop-color:#FF928E"/>
				</linearGradient>
				<path style="fill:url(#SVGID_00000009588657803098875410000006146087022678747781_);" d="M2659.1,1422.2
					c0,0,40.9,115.7,44,166.7c0,0-45.2,20.6-87.8-14.1c0,0-4.5-115.5-10.9-136.2L2659.1,1422.2z"/>
				
					<linearGradient id="SVGID_00000060016580062814125750000003855951096083993533_" gradientUnits="userSpaceOnUse" x1="-6207.543" y1="2323.7888" x2="-6000.5859" y2="2561.7341" gradientTransform="matrix(0.9602 0.2794 -0.2794 0.9602 9200.4277 797.6744)">
					<stop  offset="0" style="stop-color:#FEBBBA"/>
					<stop  offset="1" style="stop-color:#FF928E"/>
				</linearGradient>
				<path style="fill:url(#SVGID_00000060016580062814125750000003855951096083993533_);" d="M2602.3,1264.5c0,0-107,149.7-43,193.2
					c63.9,43.5,140.1-62.9,140.1-62.9s24.8-81.9-1.1-109.7C2672.3,1257.2,2602.3,1264.5,2602.3,1264.5z"/>
				
					<linearGradient id="SVGID_00000064319671170565534570000007321759530248232071_" gradientUnits="userSpaceOnUse" x1="2156.4788" y1="1054.2211" x2="2973.9929" y2="1442.2585">
					<stop  offset="0" style="stop-color:#09005D"/>
					<stop  offset="1" style="stop-color:#1A0F91"/>
				</linearGradient>
				<path style="fill:url(#SVGID_00000064319671170565534570000007321759530248232071_);" d="M2735.1,1263
					c-20.2-48.7-83.3-34.3-83.3-34.3s-49.1,11.6-56,33.9c-3.1,10,10.7,19.7,28.8,27.4c40.2,17.2,69.5,53.3,77.8,96.3l1.9,9.9
					C2704.2,1396.2,2755.3,1311.8,2735.1,1263z"/>
				
					<linearGradient id="SVGID_00000017505004435649463580000014181784683200969134_" gradientUnits="userSpaceOnUse" x1="-6155.8369" y1="2278.8123" x2="-5948.8823" y2="2516.7544" gradientTransform="matrix(0.9602 0.2794 -0.2794 0.9602 9200.4277 797.6744)">
					<stop  offset="0" style="stop-color:#FEBBBA"/>
					<stop  offset="1" style="stop-color:#FF928E"/>
				</linearGradient>
				<path style="fill:url(#SVGID_00000017505004435649463580000014181784683200969134_);" d="M2678.6,1383.7
					c0,0,41.6-48.2,58.2-16.8c16.6,31.4-37.5,55-56.2,39.6L2678.6,1383.7z"/>
				
					<linearGradient id="SVGID_00000174571362540538155260000016416365833923346072_" gradientUnits="userSpaceOnUse" x1="5313.5415" y1="3441.9241" x2="5807.2935" y2="2570.3452" gradientTransform="matrix(-1 -9.500000e-03 -9.500000e-03 1 8305.918 56.9446)">
					<stop  offset="0" style="stop-color:#FEBBBA"/>
					<stop  offset="1" style="stop-color:#FF928E"/>
				</linearGradient>
				<path style="fill:url(#SVGID_00000174571362540538155260000016416365833923346072_);" d="M2471.7,2456.9
					c0.3,8.1-13.9,72.5-21.7,106.9c-3.1,13.8-0.9,28.3,6.1,40.6l268.8,452.4c3.3,5.5,5.6,11.4,7.1,17.6
					c4.9,21.2,15.1,73.3,9.8,120.6l-13.9,28.9l60.1-13.7l13.1-161.5l-17-10.4c-14.7-9-26.2-22.4-32.7-38.3
					c-24.3-59-84.7-209.3-100.2-282.5c-17.7-83.2-110.1-150.8-110.1-150.8l16.2-38.4L2471.7,2456.9z"/>
				
					<linearGradient id="SVGID_00000163775963759810284170000008479843257847355797_" gradientUnits="userSpaceOnUse" x1="5421.1763" y1="3133.7715" x2="5565.5005" y2="3133.7715" gradientTransform="matrix(-1 -9.500000e-03 -9.500000e-03 1 8305.918 56.9446)">
					<stop  offset="0" style="stop-color:#09005D"/>
					<stop  offset="1" style="stop-color:#1A0F91"/>
				</linearGradient>
				<path style="fill:url(#SVGID_00000163775963759810284170000008479843257847355797_);" d="M2854.8,3154.6
					c0,0-32.5-51.5-36.3-71.5c-3.8-20-14.5-55.4-34.5-44.8c0,0-9.4,97.3-6.2,135.4c3.3,38-43,36.8-43,36.8s-12.7,1.8-22.1,11.1
					c-6.4,6.4-1.8,17.6,7.3,18.2c15.1,1,39.2,1.2,64.4-3.6c8.8-1.7,15.4-9.2,15.9-18.2l6.7-112l41,51.7L2854.8,3154.6z"/>
				
					<linearGradient id="SVGID_00000071530581237266096480000001903318640128658105_" gradientUnits="userSpaceOnUse" x1="5736.0293" y1="2840.9783" x2="4997.604" y2="3077.1028" gradientTransform="matrix(-1 -9.500000e-03 -9.500000e-03 1 8305.918 56.9446)">
					<stop  offset="0" style="stop-color:#FEBBBA"/>
					<stop  offset="1" style="stop-color:#FF928E"/>
				</linearGradient>
				<path style="fill:url(#SVGID_00000071530581237266096480000001903318640128658105_);" d="M2632.3,2528.9
					c0,0,9.5,404.6,10.8,462.1c1.3,57.5-9.1,184.8-66.7,222.9l25.1,18.6c0,0,31.3-26.6,61.9-77.9c34.4-57.6,44.8-68.1,44.8-68.1
					l-11.4-23.4c-5-10.2-6.5-21.8-4.2-32.9c12.4-60.3,54-260.7,65.3-303.8c13.4-50.9,14.3-119-32.2-175.9
					C2679.2,2493.5,2632.3,2528.9,2632.3,2528.9z"/>
				
					<linearGradient id="SVGID_00000051352327843412105120000009219623760656678043_" gradientUnits="userSpaceOnUse" x1="5554.9834" y1="3159.8379" x2="5727.0332" y2="3159.8379" gradientTransform="matrix(-1 -9.500000e-03 -9.500000e-03 1 8305.918 56.9446)">
					<stop  offset="0" style="stop-color:#09005D"/>
					<stop  offset="1" style="stop-color:#1A0F91"/>
				</linearGradient>
				<path style="fill:url(#SVGID_00000051352327843412105120000009219623760656678043_);" d="M2685.5,3250.7c1.8,0,3.3-1.3,3.6-3
					c1.9-13.5,9.9-67.6,16.4-81.6c7.5-16,31.9-83.5,0-89.3c0,0-79.4,116-94.6,131.6c-15.2,15.6-34.5,5.5-34.5,5.5s-14.8,4.4-26,18.7
					c-5.3,6.8-0.4,16.8,8.3,16.9l53.5,0.5c15.5,0.1,29.5-9.3,35.3-23.7c9.4-23.5,25.6-58,44.4-73.3l-9.8,93.8
					C2681.8,3248.9,2683.4,3250.7,2685.5,3250.7L2685.5,3250.7z"/>
				
					<linearGradient id="SVGID_00000044139823109401344250000017808921477551360140_" gradientUnits="userSpaceOnUse" x1="5631.3848" y1="2384.2026" x2="5390.2168" y2="3485.3862" gradientTransform="matrix(-1 -9.500000e-03 -9.500000e-03 1 8305.918 56.9446)">
					<stop  offset="0" style="stop-color:#09005D"/>
					<stop  offset="1" style="stop-color:#1A0F91"/>
				</linearGradient>
				<path style="fill:url(#SVGID_00000044139823109401344250000017808921477551360140_);" d="M2565.9,2037.6c0,0,12,38.4-6.5,101.7
					l-114.8,401c-1.8,6.3,1.6,12.9,7.8,15.1c34.3,12.3,147.3,47.2,301.4,36.5c7.8-0.5,14.3-6,16-13.6
					c10.2-45.7,44.8-201.7,51.9-233.7c27.2-122.1,57.5-253.8-76-333.4C2684.1,2037.5,2626.7,2053,2565.9,2037.6z"/>
				<g>
					
						<linearGradient id="SVGID_00000179639774057850049180000000750876681740444076_" gradientUnits="userSpaceOnUse" x1="2263.0288" y1="1562.5507" x2="2274.5603" y2="1836.4283">
						<stop  offset="0" style="stop-color:#09005D"/>
						<stop  offset="1" style="stop-color:#1A0F91"/>
					</linearGradient>
					<path style="fill:url(#SVGID_00000179639774057850049180000000750876681740444076_);" d="M2332,1678.4c3.7-8.2,2.8-18.9,2-27.4
						c-1.9-19.6-1.8-39.2-2.1-59c-0.8-51.1-0.4-102.4-4.4-153.4c-0.9-11,0.3-22.1-0.6-33c-2.2-27.8-18.5-36-45.7-41.9
						c-23-4.9-48-11.7-71.7-6.6c-9.3,2-18.3,7.1-19.5,16.9c-4.7,39.4-3.5,297.5,44,304.6c16.1,2.4,32,5.2,47.9,8.1
						c11.3,2,26.5,6.4,37.9,2.5C2326.1,1687.1,2329.8,1683.2,2332,1678.4z"/>
					
						<linearGradient id="SVGID_00000021835921159911139520000015310263609689001601_" gradientUnits="userSpaceOnUse" x1="2387.4331" y1="1346.152" x2="2148.4851" y2="1639.905">
						<stop  offset="0" style="stop-color:#09005D"/>
						<stop  offset="1" style="stop-color:#1A0F91"/>
					</linearGradient>
					<path style="fill:url(#SVGID_00000021835921159911139520000015310263609689001601_);" d="M2313.2,1678.4
						c3.7-8.2,2.8-18.9,2-27.4c-1.9-19.6-1.8-39.2-2.1-59c-0.8-51.1-0.4-102.4-4.4-153.4c-0.9-11,0.3-22.1-0.6-33
						c-2.2-27.8-18.5-36-45.7-41.9c-23-4.9-48-11.7-71.7-6.6c-9.3,2-18.3,7.1-19.5,16.9c-4.7,39.4-3.5,297.5,44,304.6
						c16.1,2.4,32,5.2,47.9,8.1c11.3,2,26.5,6.4,37.9,2.5C2307.3,1687.1,2311,1683.2,2313.2,1678.4z"/>
				</g>
				
					<linearGradient id="SVGID_00000103227902067891517490000003508591800233710244_" gradientUnits="userSpaceOnUse" x1="2237.3945" y1="1478.5846" x2="2144.5806" y2="1592.6865">
					<stop  offset="0" style="stop-color:#FEBBBA"/>
					<stop  offset="1" style="stop-color:#FF928E"/>
				</linearGradient>
				<path style="fill:url(#SVGID_00000103227902067891517490000003508591800233710244_);" d="M2176,1606.2c0,0-8.6-5.9-15.7-40.9
					c-7.1-35-14.1-56.2,0-72.5c14.1-16.2,36-17,36,0c0,17-3.7,48.2-1.1,72.5C2197.8,1589.6,2191.8,1647,2176,1606.2z"/>
				<path class="st4" d="M2719.1,1251.2c16.3,3.5,32.1,11.2,44.1,23.3c5.9,6.2,10.5,13.6,13.5,21.6l2,6.1l1.1,6.4
					c0.8,4.3,1.2,8.2,1.9,12.3c6,32.4,20.2,63.4,41.4,88.7c10.4,12.7,22.6,24.1,36.1,33.6c13.4,9.6,28.4,16.7,43.5,23.9
					c15.1,7.1,30.4,13.8,45.9,20c15.5,6.3,31.2,12,47.3,16.5c-32.8-7-64.2-19.2-95-32.5c-15.3-6.6-30.7-14-44.6-23.7
					c-13.9-9.6-26.6-21.2-37.5-34.2c-21.4-26.3-36.1-58.1-41.3-91.6c-0.6-4.2-0.9-8.5-1.5-12.5l-0.9-6l-1.7-5.8
					c-2.6-7.7-6.8-14.8-12.2-20.9C2750.3,1264.1,2735.1,1255.8,2719.1,1251.2z"/>
				<path class="st4" d="M3151.8,1602c13.6,20,23.2,42.7,29.4,66.2c6.1,23.6,7.9,48.4,4.9,72.7c-3.6,24.2-12.2,47.8-25.5,68.3
					c-3.5,5-6.8,10.1-10.8,14.7c-1.9,2.3-3.8,4.8-5.8,7l-6.2,6.7c-4,4.5-8.8,8.3-13.2,12.5c-4.5,4-9.4,7.6-14.1,11.4
					c18-16.1,34-34.2,46.4-54.6c5.8-10.4,11.5-20.9,15.3-32.2c3.9-11.2,6.7-22.8,8.3-34.5c3.3-23.5,1.6-47.6-3.5-70.9
					c-2.5-11.7-6-23.2-10.3-34.4C3162.6,1623.5,3157.6,1612.6,3151.8,1602z"/>
			</g>
			<g>
				<path class="st2" d="M2945.4,2347.5c-1.3,0-2.5-1-2.7-2.3c-0.1-0.9-14.4-89.2-41.5-104.7c-4.4-2.5-8.7-2.8-13.3-1
					c-36.5,14.5-17.9,97.7-17.7,98.6c0.3,1.5-0.6,2.9-2,3.3c-1.5,0.3-2.9-0.6-3.3-2c-0.8-3.6-19.8-88.6,21-104.9
					c6.1-2.4,12.2-2,18,1.3c29.4,16.7,43.6,104.8,44.2,108.6c0.2,1.5-0.8,2.9-2.3,3.1C2945.7,2347.5,2945.6,2347.5,2945.4,2347.5z"
					/>
				
					<linearGradient id="SVGID_00000060725541767545106350000003028181015356251016_" gradientUnits="userSpaceOnUse" x1="3020.8198" y1="1913.4756" x2="2851.9863" y2="2495.7798">
					<stop  offset="0" style="stop-color:#FF928E"/>
					<stop  offset="1" style="stop-color:#FE7062"/>
				</linearGradient>
				<polygon style="fill:url(#SVGID_00000060725541767545106350000003028181015356251016_);" points="2983,2338.6 2842.2,2325.6 
					2810.8,2342.9 2837.7,2376.6 2966.4,2363.5 				"/>
				
					<linearGradient id="SVGID_00000122704610719465130340000001374724509493419914_" gradientUnits="userSpaceOnUse" x1="3531.2634" y1="1916.0466" x2="2793.9067" y2="2773.9993">
					<stop  offset="0" style="stop-color:#FF928E"/>
					<stop  offset="1" style="stop-color:#FE7062"/>
				</linearGradient>
				<polygon style="fill:url(#SVGID_00000122704610719465130340000001374724509493419914_);" points="3051,2675.4 3099.3,2647.6 
					2983,2338.6 2955.1,2357.4 				"/>
				<path class="st2" d="M2919.9,2381.1c-0.1,0-0.1,0-0.2,0c-1.5-0.1-2.6-1.4-2.5-2.9c0.1-0.9,6.3-90.4-19.1-119.5
					c-4.8-5.5-10.2-8.3-16.6-8.7c-6.3-0.4-11.7,1.8-16.8,6.5c-27.4,25.5-29,114.2-29,115.1c0,1.5-1.2,2.7-2.7,2.7c0,0,0,0,0,0
					c-1.5,0-2.7-1.3-2.7-2.8c0.1-3.7,1.7-91.9,30.8-119c6.1-5.7,13.2-8.4,20.8-8c7.8,0.4,14.7,4,20.4,10.5
					c27.3,31.3,20.5,122.6,20.5,123.5C2922.5,2380,2921.3,2381.1,2919.9,2381.1z"/>
				
					<linearGradient id="SVGID_00000114773743934668419310000007853216027506840709_" gradientUnits="userSpaceOnUse" x1="2873.2351" y1="2620.8022" x2="3445.2019" y2="1518.2144">
					<stop  offset="0" style="stop-color:#FF928E"/>
					<stop  offset="1" style="stop-color:#FE7062"/>
				</linearGradient>
				<polygon style="fill:url(#SVGID_00000114773743934668419310000007853216027506840709_);" points="2810.8,2343.9 2955.1,2357.4 
					3051,2675.4 2843.7,2680.8 				"/>
				<g>
					
						<linearGradient id="SVGID_00000181047699166849904820000015199201961258803079_" gradientUnits="userSpaceOnUse" x1="3020.4421" y1="2539.6099" x2="3368.4473" y2="1919.4038">
						<stop  offset="0" style="stop-color:#FF928E"/>
						<stop  offset="1" style="stop-color:#FE7062"/>
					</linearGradient>
					<path style="fill:url(#SVGID_00000181047699166849904820000015199201961258803079_);" d="M3053.9,2670.4c-0.2,0-0.3,0-0.5-0.1
						c-1-0.3-1.6-1.3-1.4-2.3l9.3-35.3l-73.1-226.9c-0.3-1,0.2-2.1,1.2-2.4c1-0.3,2.1,0.2,2.4,1.2l73.3,227.4c0.1,0.4,0.1,0.7,0,1.1
						l-9.4,35.9C3055.6,2669.9,3054.8,2670.4,3053.9,2670.4z"/>
				</g>
				<g>
					
						<linearGradient id="SVGID_00000059293931522536872010000014053738371615317911_" gradientUnits="userSpaceOnUse" x1="3111.269" y1="2590.574" x2="3459.2739" y2="1970.368">
						<stop  offset="0" style="stop-color:#FF928E"/>
						<stop  offset="1" style="stop-color:#FE7062"/>
					</linearGradient>
					<path style="fill:url(#SVGID_00000059293931522536872010000014053738371615317911_);" d="M3095.8,2648.3
						c-0.3,0-0.6-0.1-0.8-0.2l-25-12c-1-0.5-1.4-1.6-0.9-2.6c0.5-1,1.6-1.4,2.6-0.9l25,12c1,0.5,1.4,1.6,0.9,2.6
						C3097.2,2647.9,3096.5,2648.3,3095.8,2648.3z"/>
				</g>
			</g>
			
				<linearGradient id="SVGID_00000101814465458773666840000010609596332499369135_" gradientUnits="userSpaceOnUse" x1="2757.0598" y1="1981.5632" x2="2696.9102" y2="1362.882" gradientTransform="matrix(0.997 7.770000e-02 -7.770000e-02 0.997 229.9389 -157.9383)">
				<stop  offset="0" style="stop-color:#FEBBBA"/>
				<stop  offset="1" style="stop-color:#FF928E"/>
			</linearGradient>
			<path style="fill:url(#SVGID_00000101814465458773666840000010609596332499369135_);" d="M2719.1,1730
				c-1.5,11.4,100.4,122.1,130.4,261.1c30,138.9,19.9,231.7,19.9,231.7s-30.5,22.7-19.5,38.8c10.9,16.1,8.1,27.1,22.1,30.2
				c14,3.1,31.3,7.5,29.2-20.1c-2.1-27.6,30.9-33.2,25.4-49.9c-5.5-16.6,31.9-465-148.7-586.7c-0.9-0.6-1.7-1.1-2.6-1.7
				C2719.1,1668.9,2721.2,1714,2719.1,1730z"/>
		</g>
	</g>
</g>
</svg>
