<svg xmlns="http://www.w3.org/2000/svg" viewBox="0 0 500 372.61"><defs><style>.cls-1{isolation:isolate;}.cls-2{fill:#d1e3ff;}.cls-3{fill:#eef9ff;}.cls-4{fill:#e3eeff;}.cls-5{fill:#f5fcff;}.cls-6{fill:#fff;}.cls-7{fill:#ebf3ff;}.cls-8{fill:#f3f8ff;}.cls-9{fill:#f0f6ff;}.cls-10,.cls-13{fill:#318fff;}.cls-10,.cls-15{mix-blend-mode:multiply;}.cls-10{opacity:0.2;}.cls-11,.cls-15{fill:#9fc6ff;}.cls-12{fill:#0053cc;}.cls-14{fill:#197bdd;}.cls-16{fill:#4ea4f9;}.cls-17{fill:#d4e8ff;opacity:0.4;}.cls-18{fill:#ff8b7b;}.cls-19{fill:#0f264c;}.cls-20{fill:#ff5652;}.cls-21{fill:#14365b;}.cls-22{fill:#ea7063;}.cls-23{fill:#77b3fc;}.cls-24{fill:#004daa;}</style></defs><g class="cls-1"><g id="Layer_2" data-name="Layer 2"><g id="Background_2" data-name="Background 2"><rect class="cls-2" y="327.45" width="500" height="0.25"/><rect class="cls-2" x="376.32" y="335.05" width="16.86" height="0.25"/><rect class="cls-2" x="404" y="334.92" width="44.56" height="0.25"/><rect class="cls-2" x="265.26" y="336.6" width="55.47" height="0.25"/><rect class="cls-2" x="238.78" y="336.6" width="20.72" height="0.25"/><rect class="cls-2" x="142.46" y="334.67" width="9.1" height="0.25"/><rect class="cls-2" x="157.11" y="334.67" width="15.04" height="0.25"/><rect class="cls-2" x="66.89" y="339.19" width="66.56" height="0.25"/><path class="cls-2" d="M237,282.85H43.91a5.71,5.71,0,0,1-5.7-5.71V5.71A5.71,5.71,0,0,1,43.91,0H237a5.71,5.71,0,0,1,5.71,5.71V277.14A5.71,5.71,0,0,1,237,282.85ZM43.91.25a5.46,5.46,0,0,0-5.45,5.46V277.14a5.46,5.46,0,0,0,5.45,5.46H237a5.47,5.47,0,0,0,5.46-5.46V5.71A5.47,5.47,0,0,0,237,.25Z"/><path class="cls-2" d="M453.31,282.85H260.21a5.72,5.72,0,0,1-5.71-5.71V5.71A5.72,5.72,0,0,1,260.21,0h193.1A5.71,5.71,0,0,1,459,5.71V277.14A5.71,5.71,0,0,1,453.31,282.85ZM260.21.25a5.47,5.47,0,0,0-5.46,5.46V277.14a5.47,5.47,0,0,0,5.46,5.46h193.1a5.47,5.47,0,0,0,5.46-5.46V5.71A5.47,5.47,0,0,0,453.31.25Z"/><rect class="cls-2" x="270.43" y="205.58" width="47.36" height="121.86"/><polygon class="cls-3" points="308.79 327.45 317.79 327.45 317.79 301.86 299.36 301.86 308.79 327.45"/><rect class="cls-2" x="93.43" y="205.58" width="47.36" height="121.86"/><rect class="cls-3" x="132.94" y="205.58" width="184.84" height="106.16"/><rect class="cls-2" x="236.37" y="205.32" width="66.46" height="82.43" transform="translate(23.07 516.13) rotate(-90)"/><rect class="cls-2" x="147.9" y="205.32" width="66.46" height="82.43" transform="translate(-65.4 427.66) rotate(-90)"/><rect class="cls-2" x="267.15" y="258.2" width="4.89" height="82.43" transform="translate(569.01 29.82) rotate(90)"/><rect class="cls-2" x="178.69" y="258.2" width="4.89" height="82.43" transform="translate(480.55 118.28) rotate(90)"/><rect class="cls-2" x="267.15" y="248.75" width="4.89" height="82.43" transform="translate(559.56 20.37) rotate(90)"/><rect class="cls-2" x="178.69" y="248.75" width="4.89" height="82.43" transform="translate(471.1 108.83) rotate(90)"/><path class="cls-3" d="M189.29,220.46H173a25.78,25.78,0,0,1-18.73-8.06H208A25.76,25.76,0,0,1,189.29,220.46Z"/><path class="cls-3" d="M278.58,220.46h-16.3a25.76,25.76,0,0,1-18.73-8.06h53.76A25.76,25.76,0,0,1,278.58,220.46Z"/><polygon class="cls-3" points="141.94 327.45 132.94 327.45 132.94 301.86 151.37 301.86 141.94 327.45"/><rect class="cls-2" x="68.35" y="19.04" width="248.42" height="141.9"/><path class="cls-2" d="M330.51,14.66H60a1.27,1.27,0,0,0-1.27,1.27h0A1.27,1.27,0,0,0,60,17.2H330.51a1.27,1.27,0,0,0,1.27-1.27h0A1.27,1.27,0,0,0,330.51,14.66Z"/><rect class="cls-4" x="70.89" y="19.04" width="251.32" height="141.9"/><rect class="cls-2" x="68.35" y="160.93" width="248.42" height="10.11"/><rect class="cls-4" x="79.95" y="160.93" width="251.32" height="10.11"/><rect class="cls-5" x="133.22" y="-28.06" width="126.66" height="236.08" transform="translate(286.53 -106.56) rotate(90)"/><polygon class="cls-6" points="195.34 153.32 240.05 26.66 261.15 26.66 216.44 153.32 195.34 153.32"/><polygon class="cls-6" points="220.98 153.32 265.69 26.66 273.91 26.66 229.21 153.32 220.98 153.32"/><rect class="cls-2" x="250.77" y="89.5" width="126.66" height="0.97" transform="translate(404.09 -224.12) rotate(90)"/><rect class="cls-7" x="65.48" y="12.38" width="13.11" height="122.22"/><rect class="cls-2" x="73.49" y="12.38" width="10.21" height="122.22"/><rect class="cls-7" x="78.59" y="12.38" width="13.11" height="122.22"/><rect class="cls-2" x="86.6" y="12.38" width="10.21" height="122.22"/><rect class="cls-7" x="91.7" y="12.38" width="13.11" height="122.22"/><rect class="cls-7" x="302.15" y="12.38" width="7.55" height="122.22"/><rect class="cls-2" x="306.77" y="12.38" width="5.89" height="122.22"/><rect class="cls-7" x="309.71" y="12.38" width="7.55" height="122.22"/><rect class="cls-2" x="314.32" y="12.38" width="5.89" height="122.22"/><rect class="cls-7" x="317.26" y="12.38" width="7.55" height="122.22"/><rect class="cls-4" x="376.77" y="65.4" width="16.76" height="45.73"/><polygon class="cls-8" points="370.4 118.75 366.52 129.33 370.4 129.33 394.13 118.75 370.4 118.75"/><polygon class="cls-2" points="366.52 118.75 366.52 129.33 390.26 118.75 366.52 118.75"/><polygon class="cls-8" points="410.99 118.75 407.11 129.33 410.99 129.33 434.72 118.75 410.99 118.75"/><polygon class="cls-2" points="407.11 118.75 407.11 129.33 430.85 118.75 407.11 118.75"/><rect class="cls-2" x="349.1" y="111.2" width="25.81" height="8.05" transform="translate(724.02 230.44) rotate(180)"/><rect class="cls-8" x="374.91" y="111.2" width="73.65" height="8.05"/><polygon class="cls-2" points="421.45 111.13 380.66 111.13 375.61 55.71 416.4 55.71 421.45 111.13"/><polygon class="cls-3" points="423.56 111.13 382.77 111.13 377.73 55.71 418.52 55.71 423.56 111.13"/><polygon class="cls-6" points="388.35 104.99 384.42 61.85 412.94 61.85 416.87 104.99 388.35 104.99"/><path class="cls-2" d="M157.41,187.8s-17.59-30.32,6.81-54.45c0,0,6.37,4.15,6.27,9.73s-6.82,7-5.37,11.65,7.79,9.23,3.62,13.07.67,7.28.39,12S157.41,187.8,157.41,187.8Z"/><path class="cls-2" d="M158.74,190.57s7.13-34.31-23.63-49.52c0,0-4.73,5.95-2.88,11.21s8.67,4.48,8.77,9.36-4.48,11.21.68,13.55,1.66,7.12,3.42,11.5S158.74,190.57,158.74,190.57Z"/><path class="cls-3" d="M131.8,183s.58,22.61,23,22.61,23-22.61,23-22.61Z"/><path class="cls-7" d="M396.35,327.45h2.29l6.52-32.16,1.15-5.63,7.11-35h27.29l14.79,72.83h2.29l-15.07-74.18a1.12,1.12,0,0,0-1.1-.89H412.51a1.1,1.1,0,0,0-1.09.89l-6.25,30.78L404,289.67Z"/><path class="cls-7" d="M352.54,327.45h2.29l14.79-72.83h27.29L404,289.67l1.14,5.62,6.53,32.16H414l-7.67-37.79-1.14-5.61-6.25-30.78a1.12,1.12,0,0,0-1.1-.89H368.71a1.12,1.12,0,0,0-1.1.89Z"/><path class="cls-4" d="M419.81,253.5H369.67a17.59,17.59,0,0,1-17.58-17.23l-1.87-76.2A12.8,12.8,0,0,1,363,147h31.43a12.8,12.8,0,0,1,12.73,11.36Z"/><path class="cls-4" d="M392.46,243.89h49.07a6.87,6.87,0,0,1,6.87,6.87V251a2.5,2.5,0,0,1-2.5,2.5H392.46a0,0,0,0,1,0,0v-9.61A0,0,0,0,1,392.46,243.89Z"/></g><g id="Objects"><ellipse class="cls-9" cx="250" cy="361.29" rx="193.89" ry="11.32"/><path class="cls-10" d="M186.55,73.33s0,0,0,0,0,0,0,0a33.63,33.63,0,0,0-.45-5.56,34.93,34.93,0,0,0-34.17-29.3h-.3a33.71,33.71,0,0,0-5.56.45,34.64,34.64,0,0,0-22.7,14c-.53.72-1,1.47-1.48,2.23a.86.86,0,0,0-.1.16,34.64,34.64,0,0,0-5,18v.07A34.88,34.88,0,0,0,180,93.68c.52-.73,1-1.48,1.47-2.23a1.4,1.4,0,0,0,.1-.16A34.48,34.48,0,0,0,186.55,73.33Zm-68.27-.79a33,33,0,0,1,4.63-16.2h10.91a55.08,55.08,0,0,0-2.59,16.2Zm17.07-16.2h15.56v16.2H132.73A53.38,53.38,0,0,1,135.35,56.34Zm17.06-1.5V39.92a12.18,12.18,0,0,1,6,2.22c3.71,2.55,6.82,7,9,12.7ZM168,56.34a51.81,51.81,0,0,1,2.4,11.55c.15,1.56.22,3.11.24,4.65H152.41V56.34Zm-19.24-16a10.57,10.57,0,0,1,2.2-.38V54.84h-15C138.71,47.33,143.25,41.84,148.71,40.31ZM150.91,74v16.2H135.38A51.37,51.37,0,0,1,133,78.69q-.21-2.34-.24-4.65Zm0,17.7v14.91a12.12,12.12,0,0,1-6-2.22c-3.7-2.54-6.81-7-9-12.69Zm3.7,14.53a10.45,10.45,0,0,1-2.2.38V91.74h15C164.61,99.24,160.07,104.73,154.61,106.27Zm-2.2-16V74h18.18A53.13,53.13,0,0,1,168,90.24ZM172.09,74h13a33.15,33.15,0,0,1-4.63,16.2H169.5A55.08,55.08,0,0,0,172.09,74Zm13-1.5h-13c0-1.59-.1-3.18-.25-4.79a52.89,52.89,0,0,0-2.29-11.41h10.89a33.41,33.41,0,0,1,4.19,11.6A35.75,35.75,0,0,1,185.05,72.54ZM171.18,46.21a33.58,33.58,0,0,1,8.32,8.63H169c-2.24-6.19-5.61-11.09-9.74-13.93L159,40.7A33.44,33.44,0,0,1,171.18,46.21Zm-26.87-5.49c-4.21,2.76-7.67,7.81-10,14.12H123.85c.24-.36.48-.72.73-1.07A33.14,33.14,0,0,1,144.31,40.72ZM118.28,74h12.95c0,1.58.1,3.18.25,4.79a53.5,53.5,0,0,0,2.29,11.41H122.89a33.21,33.21,0,0,1-4.19-11.6A32.64,32.64,0,0,1,118.28,74Zm5.54,17.7h10.46c2.24,6.19,5.61,11.09,9.74,13.93l.33.21a33.62,33.62,0,0,1-20.53-14.14ZM159,105.86c4.2-2.77,7.66-7.81,10-14.12h10.48l-.73,1.07A33.2,33.2,0,0,1,159,105.86Z"/><rect class="cls-11" x="99.89" y="89.95" width="314.4" height="76.18"/><rect class="cls-12" x="92.8" y="97.04" width="314.4" height="76.18"/><rect class="cls-13" x="85.71" y="104.12" width="314.4" height="76.18"/><rect class="cls-6" x="219.83" y="0.01" width="46.18" height="284.4" transform="translate(385.13 -100.7) rotate(90)"/><rect class="cls-11" x="315.01" y="141.38" width="46.18" height="1.67" transform="translate(195.89 480.31) rotate(-90)"/><rect class="cls-11" x="91.91" y="141.38" width="33.44" height="1.67" transform="translate(-33.58 250.85) rotate(-90)"/><path class="cls-11" d="M360.43,148a7.38,7.38,0,1,1,5.22-12.6h0a7.38,7.38,0,0,1-5.22,12.6Zm0-12.76a5.38,5.38,0,1,0,3.8,1.58h0A5.34,5.34,0,0,0,360.43,135.24Z"/><path class="cls-11" d="M370,151.18a1,1,0,0,1-.71-.29l-5.05-5a1,1,0,1,1,1.41-1.41l5.05,5a1,1,0,0,1,0,1.41A1,1,0,0,1,370,151.18Z"/><rect class="cls-11" x="261.15" y="43.9" width="31.44" height="0.78"/><rect class="cls-11" x="261.15" y="47.21" width="31.44" height="0.78"/><rect class="cls-11" x="261.15" y="50.52" width="31.44" height="0.78"/><rect class="cls-11" x="261.15" y="53.84" width="31.44" height="0.78"/><rect class="cls-11" x="261.15" y="57.15" width="31.44" height="0.78"/><rect class="cls-11" x="261.15" y="60.47" width="20.5" height="0.78"/><rect class="cls-11" x="69.85" y="186.88" width="33.5" height="0.5"/><rect class="cls-11" x="69.85" y="189.01" width="33.5" height="0.5"/><rect class="cls-11" x="69.85" y="191.13" width="33.5" height="0.5"/><rect class="cls-11" x="69.85" y="193.25" width="33.5" height="0.5"/><rect class="cls-11" x="69.85" y="195.37" width="33.5" height="0.5"/><rect class="cls-11" x="69.85" y="197.49" width="21.06" height="0.5"/><path class="cls-13" d="M213.45,48.81h0a6.32,6.32,0,0,0-6.32,6.32V76a6.32,6.32,0,0,0,6.32,6.32h0A6.32,6.32,0,0,0,219.77,76V55.13A6.32,6.32,0,0,0,213.45,48.81Z"/><path class="cls-12" d="M229.29,36.38h0A6.32,6.32,0,0,0,223,42.7V76a6.32,6.32,0,0,0,6.32,6.32h0A6.32,6.32,0,0,0,235.61,76V42.7A6.32,6.32,0,0,0,229.29,36.38Z"/><path class="cls-11" d="M245.12,61.24h0a6.32,6.32,0,0,0-6.32,6.32V76a6.32,6.32,0,0,0,6.32,6.32h0A6.32,6.32,0,0,0,251.45,76V67.56A6.32,6.32,0,0,0,245.12,61.24Z"/><polyline class="cls-14" points="378.61 204.17 404.16 204.17 360.54 158.93 360.54 158.93 378.61 204.17"/><polygon class="cls-15" points="354.05 180.3 360.54 158.93 364.22 180.3 354.05 180.3"/><polygon class="cls-16" points="360.54 158.93 360.54 222.24 365.06 217.72 378.61 204.17 360.54 158.93"/><path class="cls-14" d="M405.72,23.16h-56A10.76,10.76,0,0,0,339,33.87V62.79A10.76,10.76,0,0,0,349.73,73.5h41.09l-.3,10.11L400.89,73.5h4.83a10.76,10.76,0,0,0,10.72-10.71V33.87A10.76,10.76,0,0,0,405.72,23.16ZM348.46,35.48a3,3,0,0,1,3-3h12.89a3,3,0,0,1,0,5.95H351.45A3,3,0,0,1,348.46,35.48Zm54.08,28H380.26a3,3,0,1,1,0-5.92h22.28a3,3,0,0,1,0,5.92Zm0-12.51H354.45a3,3,0,1,1,0-5.92h48.09a3,3,0,0,1,0,5.92Zm0-12.51H374.07a3,3,0,0,1,0-5.95h28.47a3,3,0,0,1,0,5.95Z"/><path class="cls-13" d="M318.14,114.83a53.7,53.7,0,0,0-10.75-17.78H227.88a53.7,53.7,0,0,0-10.75,17.78l11,54.76a53.73,53.73,0,0,0,90-54.76Z"/><path class="cls-6" d="M321.31,135.66a53.55,53.55,0,0,1-14.16,33.93h-79a53.81,53.81,0,0,1-11-54.76h101A53.42,53.42,0,0,1,321.31,135.66Z"/><path class="cls-17" d="M321.31,135.66a53.61,53.61,0,1,1-3.17-20.83A53.55,53.55,0,0,1,321.31,135.66Z"/><path class="cls-17" d="M297.92,88.81l-77.26,70.46c-.39-.71-.77-1.44-1.14-2.17a52.91,52.91,0,0,1-4.87-15h0l66.73-60.86A53.42,53.42,0,0,1,297.92,88.81Z"/><path class="cls-17" d="M318.59,116.12,246,182.36a53.79,53.79,0,0,1-19.48-14.64L305.8,95.38A53.75,53.75,0,0,1,318.59,116.12Z"/><path class="cls-14" d="M321.29,102.2a62,62,0,1,0-22.66,84.64A62,62,0,0,0,321.29,102.2Zm-96,55.44a48.89,48.89,0,1,1,66.79,17.88A48.89,48.89,0,0,1,225.3,157.64Z"/><path class="cls-18" d="M125.06,196.94l7.66,1.78-6.35,4.74s-4.55-2.07-4.76-5.3Z"/><polygon class="cls-18" points="136.82 203.82 131.3 207.5 126.37 203.46 132.72 198.72 136.82 203.82"/><path class="cls-14" d="M223.47,165.83c-8.14,6-16.49,11.69-24.88,17.27s-16.89,11-25.43,16.32S156,210,147.35,215.08c-4.32,2.59-8.68,5.09-13,7.63a25.62,25.62,0,0,1-6.94,3.07,21.75,21.75,0,0,1-4,.67,16.64,16.64,0,0,1-4.49-.24,8.2,8.2,0,0,1-6.45-9.65,7.24,7.24,0,0,1,.28-1,16.37,16.37,0,0,1,2-4,21.31,21.31,0,0,1,2.56-3.11,25.48,25.48,0,0,1,6.13-4.47c4.37-2.49,8.71-5,13.11-7.47,8.76-5,17.6-9.77,26.46-14.53s17.83-9.37,26.85-13.87,18.11-8.88,27.39-12.93a6.22,6.22,0,0,1,6.18,10.7Z"/><path class="cls-18" d="M136.16,149.57c-.5.8-1.07,1.79-1.61,2.7s-1.07,1.89-1.57,2.85c-1,1.91-2,3.85-3,5.82s-1.81,4-2.63,6c-.4,1-.82,2-1.19,3l-.56,1.53c-.11.29-.13.41-.2.61s-.1.42-.16.62a31.05,31.05,0,0,0-.59,6c-.05,2.14,0,4.34.12,6.55s.24,4.43.44,6.65.4,4.47.61,6.68l-3.86.79c-.68-2.24-1.21-4.45-1.74-6.7s-.93-4.52-1.32-6.81-.65-4.61-.82-7a34.68,34.68,0,0,1,.19-7.5c.06-.35.11-.68.2-1s.18-.78.26-1l.49-1.7c.32-1.13.69-2.25,1.07-3.37.77-2.22,1.61-4.42,2.55-6.57s1.94-4.27,3-6.36c.55-1,1.13-2.06,1.72-3.09s1.18-2,1.92-3.09Z"/><path class="cls-12" d="M131.89,356.05a9.4,9.4,0,0,1-2-.28.18.18,0,0,1-.14-.15.18.18,0,0,1,.08-.18c.27-.18,2.63-1.7,3.54-1.29a.6.6,0,0,1,.36.51,1,1,0,0,1-.3,1A2.2,2.2,0,0,1,131.89,356.05Zm-1.53-.54c1.36.27,2.38.22,2.77-.14a.68.68,0,0,0,.19-.65.27.27,0,0,0-.16-.24C132.69,354.27,131.32,354.92,130.36,355.51Z"/><path class="cls-12" d="M129.88,355.78l-.09,0a.17.17,0,0,1-.09-.16c0-.09,0-2.34.85-3.08a1,1,0,0,1,.78-.25.63.63,0,0,1,.62.51c.18.88-1.24,2.56-2,3Zm1.33-3.16a.57.57,0,0,0-.41.16,4.17,4.17,0,0,0-.72,2.45c.74-.59,1.62-1.85,1.51-2.38,0-.09-.07-.2-.3-.23Z"/><path class="cls-12" d="M167.31,356.05a13.33,13.33,0,0,1-2.45-.28.18.18,0,0,1-.05-.34c.35-.18,3.45-1.77,4.4-1.25a.59.59,0,0,1,.32.49,1,1,0,0,1-.34.9A2.9,2.9,0,0,1,167.31,356.05Zm-1.84-.54c1.73.29,3,.21,3.48-.21a.68.68,0,0,0,.21-.59.23.23,0,0,0-.12-.2C168.52,354.22,166.74,354.9,165.47,355.51Z"/><path class="cls-12" d="M164.89,355.78a.18.18,0,0,1-.1,0,.16.16,0,0,1-.08-.16c0-.09.19-2.19,1.16-3a1.35,1.35,0,0,1,1-.32c.51.05.65.31.69.52.14.88-1.69,2.56-2.62,3Zm1.86-3.16a1,1,0,0,0-.64.24,4.29,4.29,0,0,0-1,2.4c.94-.57,2.19-1.89,2.1-2.42,0,0,0-.18-.36-.21Z"/><path class="cls-18" d="M148,119.54c.61,4.67,2,14.14-1.38,17,0,0,1,4.76,9.52,5.32,9.42.61,4.8-4.38,4.8-4.38-5.06-1.57-4.68-5.37-3.55-8.89Z"/><path class="cls-19" d="M165.47,110a.33.33,0,0,1-.17,0,.37.37,0,0,1-.15-.5,3.68,3.68,0,0,1,2.73-2,.38.38,0,0,1,.4.34.37.37,0,0,1-.33.4h0a2.88,2.88,0,0,0-2.15,1.58A.39.39,0,0,1,165.47,110Z"/><path class="cls-20" d="M168.16,114.15a16.73,16.73,0,0,0,2.6,3.78,2.7,2.7,0,0,1-2.19.63Z"/><path class="cls-19" d="M167.5,113.13c.06.62.44,1.1.84,1.06s.7-.58.64-1.2-.44-1.1-.85-1.06S167.44,112.5,167.5,113.13Z"/><path class="cls-19" d="M168,112l1.46-.58S168.76,112.65,168,112Z"/><polygon class="cls-18" points="156.33 355.59 164.12 355.59 164.64 337.56 156.85 337.56 156.33 355.59"/><polygon class="cls-18" points="120.96 355.59 128.75 355.59 131.25 337.56 123.47 337.56 120.96 355.59"/><path class="cls-21" d="M129.23,354.69h-8.75a.62.62,0,0,0-.62.53l-1,6.92a1.25,1.25,0,0,0,1.24,1.39c3-.06,4.52-.24,8.37-.24,2.36,0,5.82.25,9.09.25s3.44-3.23,2.08-3.52c-6.1-1.32-7.06-3.13-9.12-4.85A2,2,0,0,0,129.23,354.69Z"/><path class="cls-21" d="M164.38,354.69h-8.74a.61.61,0,0,0-.62.53l-1,6.92a1.26,1.26,0,0,0,1.25,1.39c3-.06,4.52-.24,8.36-.24,2.37,0,7.26.25,10.53.25s3.44-3.23,2.08-3.52c-6.1-1.32-8.5-3.13-10.56-4.85A2,2,0,0,0,164.38,354.69Z"/><polygon class="cls-22" points="164.63 337.57 164.37 346.86 156.58 346.86 156.85 337.57 164.63 337.57"/><polygon class="cls-22" points="123.46 337.57 131.25 337.57 129.96 346.86 122.17 346.86 123.46 337.57"/><path class="cls-11" d="M139.48,150.77a39.94,39.94,0,0,1-5.11,6.42l-.89-.59L123.62,150s5.41-11.92,9.43-12.57c3.87-.62,6.69,3.38,8,7.66C141.55,146.65,140.72,148.75,139.48,150.77Z"/><path class="cls-23" d="M139.48,150.77a39.94,39.94,0,0,1-5.11,6.42l-.89-.59c.44-3.6,1.84-7.17,3.44-8.3C137.9,148.4,138.77,149.44,139.48,150.77Z"/><path class="cls-11" d="M173.21,156.76h0c-.47,3-1.08,6.53-1.9,10.72-1,5.36-2.4,11.79-4.17,19.48l-31.55-2.05c1.36-12.81,1.89-20.73-2.54-47.48a92.82,92.82,0,0,1,13.52-.89,100.56,100.56,0,0,1,14.32.93c6.12,1,13,2.84,13,2.84S175.65,141.07,173.21,156.76Z"/><path class="cls-23" d="M173.21,156.76h0c-.47,3-1.08,6.53-1.9,10.72A77.48,77.48,0,0,1,167,156.05h5.86Z"/><path class="cls-18" d="M146.28,113c1.19,7.64,1.54,10.89,5.79,14.47,6.39,5.38,15.5,2.24,16.61-5.6,1-7-1.12-18.35-8.93-20.7A10.53,10.53,0,0,0,146.28,113Z"/><path class="cls-12" d="M158.8,186.42s-.5,13.89-1.7,31.41c-1,14.7-2.51,31.94-4.62,45.68l-.06.38c-3.79,24.32-20.58,81.17-20.58,81.17H121.22s8.75-54.9,10.67-79c4.87-60.87-7.33-67.76,3.7-81.18Z"/><path class="cls-24" d="M157.1,217.83c-1,14.7-2.51,31.94-4.62,45.68-3.59-17.85-9.49-43.92-1.57-61C152.8,207.36,155,212.84,157.1,217.83Z"/><path class="cls-12" d="M167.14,187s9,53.35,8.46,77.09c-.53,24.69-9.58,81-9.58,81H155.5s1.66-54.87.73-79.12c-1-26.44-12.2-80.48-12.2-80.48Z"/><polygon class="cls-19" points="153.7 345.55 167.81 345.55 168.91 340.82 153.2 340.92 153.7 345.55"/><polygon class="cls-19" points="119.68 345.55 133.79 345.55 134.89 340.82 119.78 340.92 119.68 345.55"/><path class="cls-19" d="M135.23,183l-1.6,2.73c-.13.22.12.46.48.48l33.09,2.15c.28,0,.53-.11.56-.28l.47-2.81c0-.19-.21-.38-.52-.4l-32-2.07A.58.58,0,0,0,135.23,183Z"/><path class="cls-12" d="M139.29,186.88l-.85,0c-.17,0-.3-.11-.28-.22l.64-3.64c0-.11.17-.18.34-.17l.86,0c.17,0,.29.11.28.22l-.64,3.64C139.62,186.82,139.46,186.89,139.29,186.88Z"/><path class="cls-12" d="M160,188.23l-.85-.06c-.17,0-.3-.1-.28-.21l.64-3.64c0-.11.17-.19.35-.18l.85.06c.17,0,.3.11.28.21l-.64,3.65C160.36,188.16,160.2,188.24,160,188.23Z"/><path class="cls-18" d="M175.68,148.36c1.2,4,2.34,8,3.45,12.09l3.35,12.09.42,1.5.11.37.05.19,0,.09a3.1,3.1,0,0,0,.13.4,6.21,6.21,0,0,0,1,1.67,16.22,16.22,0,0,0,4.1,3.16,51.8,51.8,0,0,0,11,4.44l-.58,3.91a41.87,41.87,0,0,1-13.08-2.83,20.93,20.93,0,0,1-6.29-3.88,12.36,12.36,0,0,1-2.6-3.43,8.5,8.5,0,0,1-.47-1.06l-.11-.27-.07-.19-.13-.38-.53-1.5c-1.4-4-2.7-8-3.93-12.06s-2.44-8.07-3.54-12.14Z"/><path class="cls-11" d="M173.89,140.32c4,1.31,8.2,14.39,8.2,14.39l-14.44,6.22s-6-14.68-3.34-18S169.3,138.82,173.89,140.32Z"/><path class="cls-19" d="M166.17,100.7c-2.55-3.15-22.25-5.4-23.3,3.18-7,4.9-.36,17.56.64,20.78-4.83,1.33-20.39,6.66-9,17s28.47,8.57,31.81-2.12c2.34-7.48-5.09-20-4.93-24.38S170.54,106.09,166.17,100.7Z"/><path class="cls-19" d="M144.89,126.24a.23.23,0,0,1-.19-.09c-1.81-2.21-8.11-13.76-5.9-19.27a4.8,4.8,0,0,1,4.23-3,.24.24,0,0,1,.27.22.25.25,0,0,1-.21.28,4.32,4.32,0,0,0-3.83,2.66c-2.13,5.32,4.05,16.6,5.82,18.76a.26.26,0,0,1,0,.36A.33.33,0,0,1,144.89,126.24Z"/><path class="cls-18" d="M159.83,114.69a6.64,6.64,0,0,0,2,3.82c1.42,1.36,2.76.43,2.89-1.3.12-1.55-.48-4.13-2.16-4.84S159.62,113,159.83,114.69Z"/><path class="cls-18" d="M194.39,183.29l5.68-1.93-.89,6.82s-2.24,1-5.14-1.51l-2.77-1.78,2.18-1.19A6.07,6.07,0,0,1,194.39,183.29Z"/><polygon class="cls-18" points="204.04 181.34 202.3 187.31 199.18 188.18 200.07 181.36 204.04 181.34"/></g></g></g></svg>