<svg xmlns="http://www.w3.org/2000/svg" viewBox="0 0 500 372.61"><defs><style>.cls-1{fill:#ebebeb;}.cls-2{fill:#e0e0e0;}.cls-3{fill:#e9e9e9;}.cls-4{fill:#f4f4f4;}.cls-10,.cls-12,.cls-18,.cls-19,.cls-20,.cls-24,.cls-5,.cls-8{fill:#fff;}.cls-6{fill:#f5f5f5;}.cls-7{fill:#407bff;}.cls-10,.cls-12,.cls-15,.cls-17,.cls-18,.cls-19,.cls-20,.cls-21,.cls-25,.cls-8{isolation:isolate;}.cls-21,.cls-8{opacity:0.4;}.cls-11,.cls-22,.cls-23,.cls-9{fill:none;stroke-linecap:round;stroke-linejoin:round;}.cls-9{stroke:#407bff;}.cls-11,.cls-9{stroke-width:2px;}.cls-10,.cls-17{opacity:0.3;}.cls-11{stroke:#fff;}.cls-12,.cls-24{opacity:0.5;}.cls-13{fill:#2e353a;}.cls-14{fill:#e4897b;}.cls-15,.cls-19{opacity:0.2;}.cls-16{fill:#de5753;}.cls-18{opacity:0.6;}.cls-20,.cls-25{opacity:0.1;}.cls-22,.cls-23{stroke:#2e353a;}.cls-22{stroke-width:0.5px;}.cls-23{stroke-width:0.72px;}</style></defs><g id="Layer_2" data-name="Layer 2"><g id="Background_Complete" data-name="Background Complete"><rect class="cls-1" y="327.45" width="500" height="0.25"/><rect class="cls-1" x="416.78" y="343.54" width="33.12" height="0.25"/><rect class="cls-1" x="322.53" y="346.26" width="8.69" height="0.25"/><rect class="cls-1" x="396.59" y="334.26" width="19.19" height="0.25"/><rect class="cls-1" x="52.46" y="335.94" width="43.19" height="0.25"/><rect class="cls-1" x="104.56" y="335.94" width="6.33" height="0.25"/><rect class="cls-1" x="131.47" y="340.16" width="93.68" height="0.25"/><path class="cls-1" d="M237,282.85H43.91a5.71,5.71,0,0,1-5.7-5.71V5.71A5.71,5.71,0,0,1,43.91,0H237a5.71,5.71,0,0,1,5.71,5.71V277.14A5.71,5.71,0,0,1,237,282.85ZM43.91.25a5.46,5.46,0,0,0-5.45,5.46V277.14a5.46,5.46,0,0,0,5.45,5.46H237a5.47,5.47,0,0,0,5.46-5.46V5.71A5.47,5.47,0,0,0,237,.25Z"/><path class="cls-1" d="M453.31,282.85H260.21a5.72,5.72,0,0,1-5.71-5.71V5.71A5.72,5.72,0,0,1,260.21,0h193.1A5.71,5.71,0,0,1,459,5.71V277.14A5.71,5.71,0,0,1,453.31,282.85ZM260.21.25a5.47,5.47,0,0,0-5.46,5.46V277.14a5.47,5.47,0,0,0,5.46,5.46h193.1a5.47,5.47,0,0,0,5.46-5.46V5.71A5.47,5.47,0,0,0,453.31.25Z"/><rect class="cls-2" x="55.76" y="204.87" width="109.39" height="123.08"/><rect class="cls-1" x="61.19" y="209.78" width="98.53" height="19.82"/><rect class="cls-1" x="61.19" y="234.75" width="98.53" height="19.82"/><rect class="cls-1" x="61.19" y="259.72" width="98.53" height="59.1"/><path class="cls-2" d="M115,213.17h-9.17a6.9,6.9,0,0,1-5.94-3.39h21A6.9,6.9,0,0,1,115,213.17Z"/><path class="cls-2" d="M115,238.11h-9.17a6.9,6.9,0,0,1-5.94-3.39h21A6.9,6.9,0,0,1,115,238.11Z"/><path class="cls-2" d="M115,263.13h-9.17a6.9,6.9,0,0,1-5.94-3.39h21A6.9,6.9,0,0,1,115,263.13Z"/><rect class="cls-3" x="307.87" y="65.11" width="124.62" height="124.62"/><rect class="cls-4" x="313" y="70.05" width="115" height="115"/><polygon class="cls-5" points="342.11 70.05 313 179.07 313 120.05 326.32 70.05 342.11 70.05"/><polygon class="cls-5" points="355.12 70.05 324.42 185.05 318.63 185.05 349.33 70.05 355.12 70.05"/><polygon class="cls-5" points="428 101.41 428 160.44 421.48 185.05 405.69 185.05 428 101.41"/><rect class="cls-3" x="368.18" y="65.11" width="4" height="124.62"/><path class="cls-2" d="M405.52,61.16s2.73,41,18.73,61c0,0-12.58,51.91-12.58,71.91H433v-133Z"/><path class="cls-2" d="M334.24,61.16s-2.85,41-18.85,61c0,0,12.46,51.91,12.46,71.91H307v-133Z"/></g><g id="Shadow"><ellipse id="_Path_" data-name="&lt;Path&gt;" class="cls-6" cx="250" cy="361.29" rx="193.89" ry="11.32"/></g><g id="Chat"><path class="cls-7" d="M132.72,192.73H256l7.7,8V152.21A10.7,10.7,0,0,0,253,141.52H132.72A10.7,10.7,0,0,0,122,152.21V182A10.7,10.7,0,0,0,132.72,192.73Z"/><path class="cls-8" d="M132.72,192.73H256l7.7,8V152.21A10.7,10.7,0,0,0,253,141.52H132.72A10.7,10.7,0,0,0,122,152.21V182A10.7,10.7,0,0,0,132.72,192.73Z"/><line class="cls-9" x1="249" y1="154.05" x2="138" y2="154.05"/><line class="cls-9" x1="249" y1="166.05" x2="138" y2="166.05"/><line class="cls-9" x1="227" y1="178.05" x2="138" y2="178.05"/><path class="cls-10" d="M132.72,192.73H256l7.7,8V152.21A10.7,10.7,0,0,0,253,141.52H132.72A10.7,10.7,0,0,0,122,152.21V182A10.7,10.7,0,0,0,132.72,192.73Z"/><path class="cls-7" d="M221,125.73H97.73l-7.7,8V85.21a10.7,10.7,0,0,1,10.69-10.69H221a10.7,10.7,0,0,1,10.69,10.69V115A10.7,10.7,0,0,1,221,125.73Z"/><line class="cls-11" x1="137" y1="87.05" x2="216" y2="87.05"/><line class="cls-11" x1="137" y1="99.05" x2="216" y2="99.05"/><line class="cls-11" x1="137" y1="111.05" x2="194" y2="111.05"/><path class="cls-7" d="M176.72,58.73H256l7.7,8V28.22A10.69,10.69,0,0,0,253,17.53H176.72A10.69,10.69,0,0,0,166,28.22V48A10.7,10.7,0,0,0,176.72,58.73Z"/><path class="cls-8" d="M176.72,58.73H256l7.7,8V28.22A10.69,10.69,0,0,0,253,17.53H176.72A10.69,10.69,0,0,0,166,28.22V48A10.7,10.7,0,0,0,176.72,58.73Z"/><line class="cls-9" x1="249" y1="32.05" x2="182" y2="32.05"/><line class="cls-9" x1="227" y1="44.05" x2="182" y2="44.05"/><path class="cls-10" d="M176.72,58.73H256l7.7,8V28.22A10.69,10.69,0,0,0,253,17.53H176.72A10.69,10.69,0,0,0,166,28.22V48A10.7,10.7,0,0,0,176.72,58.73Z"/></g><g id="Character2"><path class="cls-7" d="M127.41,91a25,25,0,1,1-25-25A24.84,24.84,0,0,1,127.41,91Z"/><path class="cls-12" d="M127.41,91a25,25,0,1,1-25-25A24.84,24.84,0,0,1,127.41,91Z"/><path class="cls-13" d="M120.6,108.17a24.95,24.95,0,0,1-36,.31c1.17-.22,2.44-.45,3.74-.65,1.1-.18,2.24-.35,3.36-.48a154.22,154.22,0,0,1,17.84-1.24c.73,0,1.45.08,2.17.08,1.86.11,3.63.3,5.16.49A7.88,7.88,0,0,1,120.6,108.17Z"/><path class="cls-13" d="M115.05,72.46s1.33,8.92-4.42,13.09-5.75-16-5.75-16Z"/><path class="cls-14" d="M91.67,107.3c3.83,3.48,13.21,2.19,13.21,2.19s5.86-1.6,4.63-3.43c-3.45-.57-5.12-2.18-5.81-4.24a10,10,0,0,1-.35-3.94,20.71,20.71,0,0,1,.29-2.2L92,87.09C93.56,92.76,95.42,103.19,91.67,107.3Z"/><path class="cls-15" d="M94.72,92.55c.46,7,6.18,8.88,9,9.27a10,10,0,0,1-.35-3.94Z"/><path class="cls-14" d="M93.94,94.16A9.83,9.83,0,0,0,105.23,98a11,11,0,0,0,6.25-5.09,11.2,11.2,0,0,0,.52-1c2.83-6.62,3.73-18.2-3.27-22.54a10.66,10.66,0,0,0-16.28,8C91.59,85.07,90.72,89.58,93.94,94.16Z"/><path class="cls-13" d="M103.73,81.46c-.15.62.14,1.19.55,1.26s.83-.39.94-1-.15-1.19-.55-1.25S103.85,80.83,103.73,81.46Z"/><path class="cls-13" d="M110.8,82.67c-.15.61.14,1.19.55,1.25s.82-.38.93-1-.14-1.19-.55-1.26S110.9,82.08,110.8,82.67Z"/><path class="cls-16" d="M108.5,82.59a23,23,0,0,0,2.07,5.86,3.69,3.69,0,0,1-3.1,0Z"/><path class="cls-13" d="M101.93,78.8a.4.4,0,0,0,.38-.08,3,3,0,0,1,2.56-.83.37.37,0,0,0,.18-.72h0a3.69,3.69,0,0,0-3.24,1,.38.38,0,0,0,0,.53h0A.65.65,0,0,0,101.93,78.8Z"/><path class="cls-13" d="M105.91,91.56h0A5.67,5.67,0,0,1,101.28,89a.19.19,0,0,1,.07-.27.19.19,0,0,1,.26.06h0a5.45,5.45,0,0,0,4.31,2.32.19.19,0,0,1,.19.19v0a.19.19,0,0,1-.19.19Z"/><path class="cls-13" d="M114.25,80.75a.31.31,0,0,0,.21,0,.36.36,0,0,0,.26-.45h0a3.67,3.67,0,0,0-2.29-2.51.37.37,0,0,0-.46.24h0a.37.37,0,0,0,.25.46h0a3,3,0,0,1,1.78,2A.35.35,0,0,0,114.25,80.75Z"/><path class="cls-7" d="M93.38,102.88l11.09,5,.65-4,4.07,1.44a3.32,3.32,0,0,1,2.22,3.51l-.46,4.39-5.62-3.07-2.8,4-13.32-6.41Z"/><path class="cls-13" d="M102.44,71.55a21.6,21.6,0,0,0,6.58,4l-2.14-4s5,4.4,10.12,6.26c0,0,2.25-11.14-10.88-15.51C95,58.6,93,66.05,93,66.05c-7-2.13-14.91,17.88.32,27.18,0,0-1.23-7.79.65-9.3S103.12,77.67,102.44,71.55Z"/><path class="cls-14" d="M88,83.05a7.45,7.45,0,0,0,3.56,4.41c2.29,1.23,4-.69,3.84-3.15-.16-2.18-1.51-5.52-4-5.71S87.37,80.73,88,83.05Z"/></g><g id="Table"><polygon class="cls-7" points="257 277.05 257 360.05 263 360.05 263 289.05 358 289.05 358 360.05 365 360.05 365 277.05 257 277.05"/><polygon class="cls-17" points="257 277.05 257 360.05 263 360.05 263 289.05 358 289.05 358 360.05 365 360.05 365 277.05 257 277.05"/><polygon class="cls-18" points="257 277.05 257 360.05 263 360.05 263 289.05 358 289.05 358 360.05 365 360.05 365 277.05 257 277.05"/><polygon class="cls-7" points="312 277.05 312 360.05 318 360.05 318 289.05 413 289.05 413 360.05 420 360.05 420 277.05 312 277.05"/><polygon class="cls-18" points="312 277.05 312 360.05 318 360.05 318 289.05 413 289.05 413 360.05 420 360.05 420 277.05 312 277.05"/><path class="cls-7" d="M350.12,233.45c-1.34-2.2-3.54-.29-3.54-.29.31-4.22-3.57-7.11-3.57-7.11s4.51,0,5.14-4.3-1.57-2.31-3.64-2.34-4.23,6-1.5,9.41,2,9.2-4.3,14.77a12.3,12.3,0,0,0-3.29,5.13c.48-5.12.75-12.34-.76-17.16-2.56-8.18,2.32-10.38,3.73-14.48s-3.73-7.55-3.73-7.55,4.83-2.2,2.47-4.72-7.24-2.18-7.24,1.11,3.31,4.55,3.31,4.55,3.78,3.94,3.78,6-3.78,6.46-3.78,6.46,1.73-3.78-1.73-3.94-4.57,4.41-3.15,6.45,3.78.32,3.78.32a39.44,39.44,0,0,0,1.08,7.08c.35,1.18.19,5.79-.11,10.6a11.8,11.8,0,0,0-3.07-4.55c-6.29-5.58-7-11.37-4.3-14.77s.57-9.44-1.5-9.41-4.27-2-3.64,2.34,5.14,4.3,5.14,4.3-3.88,2.89-3.57,7.11c0,0-2.2-1.91-3.54.29-2.39,3.93,3.15,6.37,4.08,4.44,0,0,11.74,8.31,8.91,20.27l.66,1c-.09,1-.14,1.55-.14,1.55l.92-.4,1,1.54a36,36,0,0,0,.27,5.2l2.8-4.14c-2.83-12,8.91-20.27,8.91-20.27C347,239.83,352.51,237.39,350.12,233.45Z"/><path class="cls-15" d="M350.12,233.45c-1.34-2.2-3.54-.29-3.54-.29.31-4.22-3.57-7.11-3.57-7.11s4.51,0,5.14-4.3-1.57-2.31-3.64-2.34-4.23,6-1.5,9.41,2,9.2-4.3,14.77a12.3,12.3,0,0,0-3.29,5.13c.48-5.12.75-12.34-.76-17.16-2.56-8.18,2.32-10.38,3.73-14.48s-3.73-7.55-3.73-7.55,4.83-2.2,2.47-4.72-7.24-2.18-7.24,1.11,3.31,4.55,3.31,4.55,3.78,3.94,3.78,6-3.78,6.46-3.78,6.46,1.73-3.78-1.73-3.94-4.57,4.41-3.15,6.45,3.78.32,3.78.32a39.44,39.44,0,0,0,1.08,7.08c.35,1.18.19,5.79-.11,10.6a11.8,11.8,0,0,0-3.07-4.55c-6.29-5.58-7-11.37-4.3-14.77s.57-9.44-1.5-9.41-4.27-2-3.64,2.34,5.14,4.3,5.14,4.3-3.88,2.89-3.57,7.11c0,0-2.2-1.91-3.54.29-2.39,3.93,3.15,6.37,4.08,4.44,0,0,11.74,8.31,8.91,20.27l.66,1c-.09,1-.14,1.55-.14,1.55l.92-.4,1,1.54a36,36,0,0,0,.27,5.2l2.8-4.14c-2.83-12,8.91-20.27,8.91-20.27C347,239.83,352.51,237.39,350.12,233.45Z"/><polygon class="cls-7" points="343.01 277.05 339.22 255.36 340.29 249.05 328.36 249.05 329.43 255.36 325.65 277.05 343.01 277.05"/><polygon class="cls-19" points="343.01 277.05 339.22 255.36 340.29 249.05 328.36 249.05 329.43 255.36 325.65 277.05 343.01 277.05"/><rect class="cls-7" x="299.56" y="256.71" width="18.37" height="20.33"/><rect class="cls-10" x="299.56" y="256.71" width="18.37" height="20.33"/><rect class="cls-7" x="298.63" y="254.05" width="20.25" height="5.77"/><rect class="cls-20" x="298.63" y="254.05" width="20.25" height="5.77"/></g><g id="Character"><polygon class="cls-14" points="118.63 351.91 118.94 358.66 128.4 359.35 137.08 359.96 138.02 351.88 127.76 351.89 118.63 351.91"/><path class="cls-13" d="M119.44,360.09c.74,0-.26-9.18-.26-9.18s-6-5.37-7.51-10.78-4.68-2.2-4.4,3.91.48,10.78.68,15.12S111.73,360.62,119.44,360.09Z"/><path class="cls-7" d="M118.17,350.05H118s0,0,0,0,0,0,0-.08c-.31-.59-1.85-3.6-1.13-4.55a.88.88,0,0,1,1-.27,1,1,0,0,1,.64.46,3.78,3.78,0,0,1,.32,2c.36-.76.82-1.43,1.3-1.48.31,0,.58.16.79.57a1.36,1.36,0,0,1,.09,1.18c-.46,1.26-2.54,2.11-2.65,2.15Zm1.92-3h0c-.41,0-1.07,1.17-1.52,2.55a4.27,4.27,0,0,0,1.9-1.77.62.62,0,0,0-.06-.63A.33.33,0,0,0,120.09,347.05Zm-2.63-1.48a.3.3,0,0,0-.27.11c-.33.44.25,2.1.88,3.42.18-1,.34-2.62-.06-3.26a.52.52,0,0,0-.34-.25Z"/><polygon class="cls-15" points="127.55 351.9 128.21 359.36 136.99 359.96 137.97 351.88 127.55 351.9"/><polygon class="cls-14" points="107.61 349.89 109.75 356.31 119.04 354.39 127.56 352.62 126.26 344.59 116.39 347.39 107.61 349.89"/><path class="cls-13" d="M110.62,357.55c.7-.25-2.75-8.76-2.75-8.76s-7.21-3.54-10.16-8.33-5.11-.85-3.18,5,3.41,10.24,4.78,14.36S103.34,360.16,110.62,357.55Z"/><path class="cls-7" d="M106.6,348.18s0,0,0,0h-.06a.14.14,0,0,1-.08-.05c-.47-.48-2.77-3-2.35-4.07a.88.88,0,0,1,.86-.51.93.93,0,0,1,.74.27,3.7,3.7,0,0,1,.86,1.88c.15-.84.4-1.61.85-1.78.29-.12.6,0,.92.32a1.42,1.42,0,0,1,.4,1.12c-.1,1.34-1.88,2.75-2,2.81H107v-.18h-.14S106.65,348.18,106.6,348.18Zm1-3.77h0c-.38.16-.64,1.62-.7,3.07a4,4,0,0,0,1.37-2.11.93.93,0,0,0-.27-.74C107.87,344.54,107.73,344.41,107.61,344.41Zm-2.6-.33h0c-.37,0-.42.17-.44.21-.2.52.81,2,1.78,3.06-.11-1.05-.38-2.61-1-3.12A.52.52,0,0,0,105,344.08Z"/><polygon class="cls-15" points="116.19 347.46 118.86 354.45 127.47 352.65 126.22 344.6 116.19 347.46"/><path class="cls-13" d="M257.37,360.16c-23.37,0-49.45-14.15-61-18.31a14.15,14.15,0,0,0-4.74-1.15c-5.07.24-42.57,8.91-60.28,13.06l-.08,0-9.14,2.16-3-10.78s67.46-35.11,76.79-33.25c7.08,1.42,27,6.72,36.24,9.19l4.76,1.28L243,312l33,2.53S285,360.16,257.37,360.16Z"/><path class="cls-13" d="M130.11,347.93l2.65,12.88L195,360s45.07.2,62.37.2.95-31.11.95-31.11Z"/><path class="cls-15" d="M243,312l-.78,21.41-45.81,8.4-65,11.91,69.25-23,36.2,1.43a18.15,18.15,0,0,0-4.6-11.11l4.76,1.28Z"/><polygon class="cls-7" points="276 309.73 276 314.56 243 312.03 243 306.32 276 309.73"/><polygon class="cls-21" points="276 309.73 276 314.56 243 312.03 243 306.32 276 309.73"/><rect class="cls-13" x="264.89" y="307.74" width="1.64" height="8.35" transform="translate(515.17 636.97) rotate(-177.08)"/><rect class="cls-7" x="250.56" y="307.81" width="7.24" height="5.49" transform="translate(479.64 642.55) rotate(-174.88)"/><rect class="cls-13" x="244.73" y="305.52" width="1.64" height="8.35" transform="translate(475.01 631.5) rotate(-177.08)"/><rect class="cls-18" x="250.56" y="307.81" width="7.24" height="5.49" transform="translate(479.64 642.55) rotate(-174.88)"/><path class="cls-14" d="M225.12,259.8s-4.19.25-4.28,1,.66,6.86,1.28,7.68a13.1,13.1,0,0,0,2.26,1.94L222,279.8l5.38,2.22,1.5-10.14s2.37-2.71,1.37-5.83S225.12,259.8,225.12,259.8Z"/><path class="cls-15" d="M225.12,259.8s-4.19.25-4.28,1,.66,6.86,1.28,7.68a13.1,13.1,0,0,0,2.26,1.94L222,279.8l5.38,2.22,1.5-10.14s2.37-2.71,1.37-5.83S225.12,259.8,225.12,259.8Z"/><path class="cls-22" d="M276,227.88s8,14.26-1.53,33.55"/><path class="cls-7" d="M250.48,269.05l-2.78,14.2-.83.9c-2.7,2.88-11.43,11.85-18.66,15.21-3.16,1.47-6,1.86-8,.19-7.27-6.25,2-27.67,2-27.67L230.5,275l-.67,8.93,9-19.93Z"/><path class="cls-15" d="M246.87,284.15c-2.7,2.88-11.43,11.85-18.66,15.21,11.11-6.31,14-20.14,14-20.14Z"/><path class="cls-13" d="M268.68,218.71c5.87,1.13,12,12.16,9.15,26.5a114.67,114.67,0,0,1-9.15,26.67l-18.2-2.83S247,214.55,268.68,218.71Z"/><path class="cls-7" d="M243.05,306.9l33,2.85c.78-12.27,1.57-20.18,8.83-42.05.35-1.06.72-2.15,1.1-3.28a2.87,2.87,0,0,0-1.93-3.68,99.71,99.71,0,0,0-10.8-2.43,107,107,0,0,0-14.82-1.57c-6.43-.05-13.8.68-13.8.68s-1,.25-1.71,7.05C242.31,270.87,241.72,283.65,243.05,306.9Z"/><path class="cls-14" d="M265.07,256.74a128.17,128.17,0,0,1,16.55,3.34s-20.4,10.72-43.81,6.17c0,0,2.94-8.39,6.82-8.83C251.23,256.67,260,256.2,265.07,256.74Z"/><path class="cls-13" d="M268.62,221.33s1.37-6.28-8.71-7.12-21.08,9.93-18.24,25,7.12,19.28,3.88,27.79.4,10.83,3.34,12.16c0,0-2-1.83-1.19-4s8.09-3.18,7.86-11.17,9-8.33,9-8.33Z"/><path class="cls-14" d="M271.73,259.52S269.28,263,261.15,264c0,0-4-2.65-2.32-5.87,0,0,1.76-.55,2.14-3.35a13.58,13.58,0,0,0-.75-5.83c-.09-.3-.2-.62-.31-.94l10.28-6.43S266.57,254.65,271.73,259.52Z"/><path class="cls-15" d="M267.88,245.35s-.55,7.35-6.91,9.47a13.58,13.58,0,0,0-.75-5.83C264,247,267.88,245.35,267.88,245.35Z"/><path class="cls-14" d="M257.37,221.27c-8.4,1.43-10.34,6.39-9.48,15.15,1.08,11,4.79,18.24,14.9,14.13C276.53,245,271.32,218.88,257.37,221.27Z"/><path class="cls-16" d="M253.24,235a18.07,18.07,0,0,1-1.85,3.9,2.35,2.35,0,0,0,2.38.57Z"/><path class="cls-13" d="M258.27,233.46c.1.7.56,1.2,1,1.13s.75-.68.65-1.37-.56-1.2-1-1.14S258.17,232.77,258.27,233.46Z"/><path class="cls-13" d="M259.12,232.09l-1.59-.37S258.46,232.88,259.12,232.09Z"/><path class="cls-13" d="M249.63,234.58c.11.69.56,1.2,1,1.13s.76-.68.66-1.37-.56-1.2-1-1.14S249.53,233.89,249.63,234.58Z"/><path class="cls-13" d="M250.48,233.21l-1.59-.37S249.83,234,250.48,233.21Z"/><path class="cls-23" d="M257.36,227.65a4.45,4.45,0,0,1,3.86.64"/><path class="cls-23" d="M251.2,228.33A4,4,0,0,0,248,229.6"/><path class="cls-13" d="M255.56,242.6a21.47,21.47,0,0,1,1.48,2.75l.53-.14c2.4-.67,3.3-1.77,3.56-2.79a3.1,3.1,0,0,0,0-1.52,3,3,0,0,0-.3-.82,11.69,11.69,0,0,1-4.44,2.28C255.88,242.52,255.56,242.6,255.56,242.6Z"/><path class="cls-5" d="M256.38,242.36l.45.8c2.27-.63,3.77-1.38,4.29-2.26a3,3,0,0,0-.3-.82A11.69,11.69,0,0,1,256.38,242.36Z"/><path class="cls-16" d="M257.57,245.21c2.4-.67,3.3-1.77,3.56-2.79a8.08,8.08,0,0,0-2.52,1.27A3,3,0,0,0,257.57,245.21Z"/><path class="cls-13" d="M269,233.86s-5.11-6.23-5.42-11.66c0,0-17.81-4-15.75,13.08,0,0-4.19-14.73,10.2-17.53s17.93,18.34,11.55,25.91C269.55,243.66,272.14,237.76,269,233.86Z"/><path class="cls-14" d="M267.9,235.87a3.75,3.75,0,0,1,3.39-4.05c2.66-.16,4.81,5-1.45,7.37C268.94,239.53,268.26,238.71,267.9,235.87Z"/><path class="cls-22" d="M253.77,216s-18.51,8-12.56,30.67,1.79,22,1.79,22"/><path class="cls-13" d="M233.9,266.13a.82.82,0,0,1-.83.92h-9.14a1.05,1.05,0,0,1-1-.92l-2.05-18a.92.92,0,0,1,.83-1h9.14a1.17,1.17,0,0,1,1,1Z"/><path class="cls-24" d="M230.84,248l2.07,18.22a.69.69,0,0,1-.72.86h-7.75c-.52,0-1.47-.29-1.53-.8L220.84,248c-.06-.51.83-.92,1.35-.92h7.75A.94.94,0,0,1,230.84,248Z"/><path class="cls-14" d="M242.25,273.92l-4.71-5.2s-1.54-8.42-2-9.3-7.38,0-8.12,0,0,8.46.83,9.3,3.67,1.33,3.67,1.33l5.66,7.87Z"/><path class="cls-7" d="M285.94,262.61c5.06,14.69-16.69,39.79-27.19,40s-25.5-27.8-25.5-27.8l6.87-4.25s17.45,16,19.79,16.25c1.32.14,14-20,20.71-24.31C284.38,260.05,285.94,262.61,285.94,262.61Z"/><path class="cls-25" d="M285.94,262.61c5.06,14.69-16.69,39.79-27.19,40s-25.5-27.8-25.5-27.8l6.87-4.25s17.45,16,19.79,16.25c1.32.14,14-20,20.71-24.31C284.38,260.05,285.94,262.61,285.94,262.61Z"/></g><g id="Jar"><rect class="cls-7" x="269.01" y="336.79" width="21.38" height="25.34"/><rect class="cls-19" x="269.01" y="336.79" width="21.38" height="25.34"/><rect class="cls-7" x="268.07" y="334.13" width="23.25" height="5.77"/></g></g></svg>