<?xml version="1.0" encoding="utf-8"?>
<!-- Generator: Adobe Illustrator 25.4.0, SVG Export Plug-In . SVG Version: 6.00 Build 0)  -->
<svg version="1.1" xmlns="http://www.w3.org/2000/svg" xmlns:xlink="http://www.w3.org/1999/xlink" x="0px" y="0px"
	 viewBox="0 0 500 500" style="enable-background:new 0 0 500 500;" xml:space="preserve">
<style type="text/css">
	.st0{display:none;}
	.st1{display:inline;fill:#FFFFFF;}
	.st2{fill:#F3F5F4;}
	.st3{fill:none;stroke:#BBBFBD;stroke-miterlimit:10;}
	.st4{fill:#D9D9D9;}
	.st5{fill:none;stroke:#BBBFBD;stroke-linecap:round;stroke-linejoin:round;stroke-miterlimit:10;}
	.st6{fill:#0F9692;}
	.st7{font-family:'CeraPro-Medium';}
	.st8{font-size:35.6206px;}
	.st9{fill:#20B0B7;}
	.st10{fill:#FFFFFF;}
	.st11{fill:#14A7AF;}
	.st12{fill:none;stroke:#FFFFFF;stroke-linecap:round;stroke-linejoin:round;stroke-miterlimit:10;}
	.st13{fill:#FF996A;}
	.st14{fill:#D3AA7D;}
	.st15{fill:#C1966B;}
	.st16{fill:#048392;}
	.st17{fill:#649176;}
	.st18{fill:#13A3A3;}
	.st19{fill:#FFD294;}
	.st20{fill:#D37A57;}
	.st21{fill:#3F2D1F;}
	.st22{fill:#9C897A;}
	.st23{fill:#20BEC6;}
	.st24{fill:#E5BC89;}
	.st25{fill:#23C1C9;}
	.st26{fill:#0DB7BF;}
	.st27{fill:#35BDC4;}
	.st28{fill:#1AB0B7;}
	.st29{fill:#17A6AD;}
	.st30{fill:#1BC9C9;}
	.st31{fill:none;stroke:#9C897A;stroke-linecap:round;stroke-linejoin:round;stroke-miterlimit:10;}
	.st32{fill:none;stroke:#E5BC89;stroke-linecap:round;stroke-linejoin:round;stroke-miterlimit:10;}
	.st33{fill:none;stroke:#543E2F;stroke-linecap:round;stroke-linejoin:round;stroke-miterlimit:10;}
	.st34{fill:#B0F1F4;}
	.st35{fill:#0AD6E0;}
	.st36{fill:#A6D1D1;}
	.st37{fill:#5B7E7F;}
	.st38{fill:#72CACE;}
	.st39{fill:#847062;}
	.st40{fill:none;stroke:#847062;stroke-linecap:round;stroke-linejoin:round;stroke-miterlimit:10;}
</style>
<g id="BACKGROUND" class="st0">
	<rect class="st1" width="500" height="500"/>
</g>
<g id="OBJECT">
	<g>
		<g>
			<path class="st2" d="M232.2,118.6c0,0-56.5,2.5-86.4,61.5c-29.9,59-60.8,40.6-79,93.9c-18.2,53.3,18.5,113.8,43.2,120.4
				s306.3,0,306.3,0s37.2-25.4,40.1-91.5c2.9-66.1-52.5-88.1-75.5-97.5C357.8,195.9,322.4,117.1,232.2,118.6z"/>
			<path class="st3" d="M313.1,280.1c65-43.8,77.7-66.2,109.8-70.4c78.2-10.2,20.9,192-158.2,235.2
				c-85.1,20.5-190.5-35.5-205.5-78.9c-14.6-42,24.7-57.8,82.6-35.3C199.6,353.1,279.9,302.4,313.1,280.1z"/>
			
				<ellipse transform="matrix(0.675 -0.7378 0.7378 0.675 -45.6313 356.7103)" class="st4" cx="382.1" cy="230.2" rx="9.9" ry="9.9"/>
			
				<ellipse transform="matrix(0.7071 -0.7071 0.7071 0.7071 -189.6 391.7771)" class="st3" cx="378.1" cy="424.8" rx="9.9" ry="9.9"/>
			<circle class="st3" cx="249.1" cy="199.5" r="9.9"/>
			<polygon class="st5" points="221.1,239 211.1,253 230.1,253 			"/>
			<polygon class="st4" points="173.9,416.7 167.6,428.8 186.7,428.8 			"/>
			<g>
				
					<ellipse transform="matrix(0.2298 -0.9732 0.9732 0.2298 -208.1279 262.6512)" class="st5" cx="61.9" cy="262.8" rx="18.9" ry="18.9"/>
				<text transform="matrix(1 0 0 1 54.5595 276.6644)" class="st6 st7 st8">?</text>
			</g>
			<g>
				
					<ellipse transform="matrix(0.7071 -0.7071 0.7071 0.7071 -13.0638 217.8497)" class="st9" cx="256.4" cy="124.7" rx="18.9" ry="18.9"/>
				<text transform="matrix(1 0 0 1 249.1225 138.5423)" class="st10 st7 st8">?</text>
			</g>
		</g>
		
			<ellipse transform="matrix(0.2288 -0.9735 0.9735 0.2288 -177.9381 316.8274)" class="st4" cx="111" cy="270.7" rx="9.5" ry="9.5"/>
	</g>
	<g>
		<g>
			<line class="st4" x1="364.2" y1="129.8" x2="445.6" y2="129.8"/>
			<path class="st11" d="M448.1,100.7h-85.2c-4.9,0-8.8,3.9-8.8,8.8v51.3c0,4.9,3.9,8.8,8.8,8.8h17.3l-3.4,8.9c-1,2.6,2,4.9,4.2,3.2
				l16.5-12.1h50.6c4.9,0,8.8-3.9,8.8-8.8v-51.3C456.9,104.6,453,100.7,448.1,100.7z"/>
			<line class="st12" x1="364.2" y1="115" x2="445.6" y2="115"/>
			<line class="st12" x1="364.2" y1="122.4" x2="445.6" y2="122.4"/>
			<line class="st12" x1="364.2" y1="129.8" x2="445.6" y2="129.8"/>
			<line class="st12" x1="364.2" y1="137.2" x2="445.6" y2="137.2"/>
			<line class="st12" x1="364.2" y1="144.6" x2="445.6" y2="144.6"/>
			<line class="st12" x1="364.2" y1="152" x2="445.6" y2="152"/>
		</g>
		<g>
			<path class="st13" d="M181.8,263.6c0,0-0.9-7.3-2-10.7c-1.1-3.5-5.9-10.1-5.9-10.1s-1.9,4.1,0.9,7.5c0,0-0.2,5.4,0.1,7.3
				c0,0-9-7.7-10.7-8.5l0,0c-1.1-0.9-2.4-1.9-4.1-3.3c-6-4.8-10-3.3-9.4-2.9c0.4,0.2,7.2,5.8,11.4,9.2l-0.6,0.8
				c-1.3-1-3.3-2.7-6.4-5.1c-6-4.8-10-3.3-9.4-2.9c0.4,0.3,10.4,8.4,13.7,11l-1,1.4c-1.3-1-3.4-2.7-6.6-5.3c-6-4.8-10-3.3-9.4-2.9
				c0.4,0.3,10.9,8.8,13.9,11.2l-1,1.5c-1.1-1-4.2-3.8-7.2-5.8c-3.7-2.6-6.4-1.4-6.4-1.4s0,0,1.6,1.5c1.6,1.5,10.2,8.2,10.2,8.2
				s13.1,11.7,16.4,12.8l3.2,3.1l11.8-12.8L181.8,263.6z"/>
			<path class="st14" d="M276.1,344.4c-7,10.1-16.9,16.4-29.9,13.7c-35-7.1-76.4-75.1-76.4-75.1l2.1-2.3l15.4-16.7l53.7,48.8
				l16.8-24.3l16.4-23.7l8.1-11.7c0,0,4.7,7.5,7.7,31.3C291.9,299.4,288,327.4,276.1,344.4z"/>
			<path class="st15" d="M276.1,344.4c-7,10.1-16.9,16.4-29.9,13.7c-35-7.1-76.4-75.1-76.4-75.1l2.1-2.3l1.3-0.7
				c0,0,49.3,67.8,70,57.7c12.8-6.2,14.9-31.1,14.6-49.2l16.4-23.7L276.1,344.4z"/>
			<polygon class="st16" points="407.7,337.8 404.5,394 392.1,394 397,337.8 			"/>
			<polygon class="st17" points="331.9,337.8 328.7,394 316.4,394 321.2,337.8 			"/>
			<path class="st16" d="M408.9,347.5h-98c-9.7,0-17.6-7.9-17.6-17.6V275c0-9.7,7.9-17.6,17.6-17.6h98c9.7,0,17.6,7.9,17.6,17.6
				v54.8C426.6,339.6,418.7,347.5,408.9,347.5z"/>
			<path class="st18" d="M400.7,347.5h-98c-9.7,0-17.6-7.9-17.6-17.6V275c0-9.7,7.9-17.6,17.6-17.6h98c9.7,0,17.6,7.9,17.6,17.6
				v54.8C418.3,339.6,410.4,347.5,400.7,347.5z"/>
			<path class="st19" d="M326.8,232.1c0,0,19.3-3.1,45.3,23.8l6,138.1H269.4c0,0-11.9-93.2,2-126.3
				C285.2,234.5,310.1,230.6,326.8,232.1z"/>
			<path class="st13" d="M288.8,157.2l4.8-6.5l40.7,13.6l-0.4,15.3h2.7c5.5,0,9.9,4.4,9.9,9.9l0,0c0,5.5-4.4,9.9-9.9,9.9h-3.1
				l-0.5,20.7v18.2l-29.5,4.1l-0.7-12.2l-0.4-6.4l-4.3-2c-12.2-5.8-20-18.2-20-31.8C278.2,178.2,281.9,166.7,288.8,157.2z"/>
			<path class="st20" d="M302.5,223.7l0.4,6.4c1.1-0.1,2.2-0.3,3.4-0.5c18.2-3.3,25.3-19.8,24.6-28.2
				C330.8,201.4,324.7,221.8,302.5,223.7z"/>
			<path class="st20" d="M336.9,186.6c-0.8,0.6-1.5,1.3-1.7,2.3c0,0,1.5,0.5,1.7,2.2c0.1,1.7-1.7,2.4-1.7,2.4s1.4,2.3,3.7,1.1
				c2.3-1.2,1.9-5.6-0.4-6.5c0,0,3.6-0.4,5,0.9c0,0,0.3-1.3-1.2-2.5C340.7,185.3,338.5,185.4,336.9,186.6z"/>
			<path class="st21" d="M288.8,157.2c0,0,5.5,9.5,12.6,12.6c7.1,3.1,14.7-1.4,21.9,2.7c7.1,4.1,2.6,11.7,4.2,15.4
				c1.6,3.7,3.4,4.2,3.4,4.2s1-10.4,3.1-12.4c0,0,6.4-0.1,8.4,1.8c0,0,3.6-7.2,4.2-12.9c0.6-5.6-5.6-7.5-5.6-7.5s-1.5-13.5-18-18.5
				c-16.6-5-29.2,2.9-35.8,0c-6.6-2.9-12.6,1.5-13,8.2c-0.4,6.7,4.2,9.1,4.2,9.1s-3.1,2.6-1.8,6.6c1.2,4,5.1,4.9,5.1,4.9
				S285.9,161.2,288.8,157.2z"/>
			<path class="st10" d="M292.1,205.7l16.9-0.8c0,0-3.9,6.1-9.5,6C294.4,210.9,292.1,205.7,292.1,205.7z"/>
			<g>
				<path class="st21" d="M311.5,178.2c-0.2,0-0.4-0.1-0.6-0.2c-3.6-2.9-7.1-0.4-7.1-0.4c-0.4,0.3-1,0.2-1.3-0.2
					c-0.3-0.4-0.2-1,0.2-1.3c1.6-1.2,5.7-2.6,9.4,0.5c0.4,0.3,0.5,0.9,0.1,1.3C312.1,178.1,311.8,178.2,311.5,178.2z"/>
			</g>
			<g>
				<path class="st21" d="M290.6,178.2c-0.2,0-0.4-0.1-0.6-0.2c-3.6-2.9-7.1-0.4-7.1-0.4c-0.4,0.3-1,0.2-1.3-0.2
					c-0.3-0.4-0.2-1,0.2-1.3c1.6-1.2,5.7-2.6,9.4,0.5c0.4,0.3,0.5,0.9,0.1,1.3C291.1,178.1,290.8,178.2,290.6,178.2z"/>
			</g>
			<path class="st22" d="M338.4,233.5l-5.3-6.9l-21.2,7.5l-3.4,6l-2.3-5.4l-3.2-3.5l-3.3,6.4c0,0,0.1,6.5,8.3,8.2
				C316,247.5,333.9,240.8,338.4,233.5z"/>
			<path class="st16" d="M342.3,181.4c0,0-3.3-1.3-6.4,1.6s-2.1,5.7-2.1,5.7s1.4-3.4,4.5-3c3.1,0.4,5.4,8.7,1.2,10.3
				c-4.1,1.6-9.4-0.8-9.2-7.3c0.2-6.5,2.6-10.1,6.5-10.7C340.7,177.5,342.3,180.8,342.3,181.4z"/>
			<g>
				<path class="st23" d="M313.1,213.8c-0.4,0-0.8-0.3-0.8-0.7c-0.1-0.5,0.2-0.9,0.7-1c16-3.1,21.5-18.2,21.5-18.3
					c0.2-0.4,0.6-0.7,1.1-0.5c0.4,0.2,0.7,0.6,0.5,1.1c-0.1,0.2-5.8,16.2-22.8,19.5C313.2,213.8,313.1,213.8,313.1,213.8z"/>
			</g>
			<path class="st16" d="M309.5,213.2c0,2,1.6,3.6,3.6,3.6s3.6-1.6,3.6-3.6c0-2-1.6-3.6-3.6-3.6S309.5,211.3,309.5,213.2z"/>
			<path class="st16" d="M338,187.2c0,0-0.5,4,0.4,6.1c0.9,2.1,2.2,1,2.5-1.6C341.2,189.2,338.6,185.5,338,187.2z"/>
			<path class="st10" d="M303.9,185.9c0,0,0,3.7,4.9,4.3c4.8,0.6,5.7-4.3,5.7-4.3s-2.8-2.6-6.3-2.7
				C304.6,183.1,303.9,185.9,303.9,185.9z"/>
			<path class="st10" d="M281.7,185.9c0,0,0,3.7,4.7,4.3c4.7,0.6,5.4-4.3,5.4-4.3s-2.5-2.6-5.9-2.7
				C282.4,183.1,281.7,185.9,281.7,185.9z"/>
			<path class="st21" d="M291.8,185.9c0,0-2.5-2.8-5.3-3.3c-2.7-0.5-4.6,0.8-4.9,3.3c0,0,0.5-2,3.3-2.3
				C287.7,183.3,291.8,185.9,291.8,185.9z"/>
			<path class="st21" d="M314.4,185.9c0,0-2.7-2.9-5.5-3.4c-2.8-0.5-4.8,0.9-5.1,3.4c0,0,0.6-2.1,3.4-2.4
				C310.1,183.2,314.4,185.9,314.4,185.9z"/>
			<path class="st20" d="M296.5,186l-2.2,13.5c0,0-1.8,0.1-4.2-0.9C290,198.6,295.9,187.5,296.5,186z"/>
			<path class="st16" d="M230,394c0,0-0.4-10.8,11.8-14.1c12.1-3.4,26.9,6.5,29.3,14.1H230z"/>
			<ellipse class="st21" cx="308.5" cy="186.8" rx="3" ry="3.8"/>
			<path class="st21" d="M290.2,186.9c0,2.1-1.3,3.7-3,3.7c-1.6,0-3-1.7-3-3.7c0-2.1,1.3-3.7,3-3.7
				C288.9,183.2,290.2,184.9,290.2,186.9z"/>
			<path class="st20" d="M321.9,196.4c0,1.7-2,3-4.4,3c-2.4,0-4.4-1.4-4.4-3c0-1.7,2-3,4.4-3C320,193.4,321.9,194.8,321.9,196.4z"/>
			<path class="st20" d="M285.7,195c0,1.7-2,3-4.4,3c-2.4,0-4.4-1.4-4.4-3c0-1.7,2-3,4.4-3C283.7,191.9,285.7,193.3,285.7,195z"/>
			<path class="st24" d="M402,359.7c-3.1,9.2-8.7,16.2-15.3,21.2c-4.5,3.4-9.5,5.8-14.5,7.3c-20.9,6.3-98.2,5.8-98.2,5.8l2.9-23.3
				l86.5-19.5c0,0-11.2-35.5-10.7-64.2c0.4-26.7,8.4-37.7,17.4-32.5c0.7,0.4,1.3,0.9,2,1.4c0,0,13.7,20.4,27.8,62.2
				C405.6,335.2,405.5,348.9,402,359.7z"/>
			<path class="st13" d="M268.1,373.7l-18.4-3.3c0,0-3.4-0.6-6.7,0.9c-3.4,1.5-7.2,8.6-7.2,8.6s3.1,0,5.2-1.8
				c2.1-1.9,2.4-3.5,2.4-3.5l6.7,0.5l0.1,1.6c-2.2,0.5-8.7,2-11.8,3.3c-3.8,1.6-5.8,6.7-5.8,6.7s5-0.7,7.6-3.8l10.4-1.2l0.1,1
				c-2.1,0.1-6,0.6-9.6,2.2c-5.4,2.4-7,5.6-7,5.6s5.4,0,9.2-2.9l2.5-0.2c-2.5,1.6-4.7,5.5-4.7,5.5s1.1,0.3,3.6-0.8
				c2.5-1.1,3.1-2.3,3.1-2.3l7.2,0.5v0c3.7,0.5,9.4,1.1,12.6,0l6.9,1.1l2.2-17.3H268.1z"/>
			<path class="st16" d="M420.9,405.3H75.7c-3.1,0-5.6-2.5-5.6-5.6l0,0c0-3.1,2.5-5.6,5.6-5.6h345.3c3.1,0,5.6,2.5,5.6,5.6l0,0
				C426.6,402.7,424,405.3,420.9,405.3z"/>
			<path class="st25" d="M288.6,405.3H73.4c-1.9,0-3.4-2.5-3.4-5.6l0,0c0-3.1,1.5-5.6,3.4-5.6H181h107.6c1.9,0,3.4,2.5,3.4,5.6l0,0
				C292,402.7,290.4,405.3,288.6,405.3z"/>
			<path class="st26" d="M223.5,372.2H104.6c-4,0-7.5-2.8-8.3-6.7l-15.4-69.8c-0.8-3.4,1.9-6.7,5.4-6.7h120.2c3.6,0,6.6,2.5,7.4,5.9
				l15.4,70C230.1,368.7,227.3,372.2,223.5,372.2z"/>
			<path class="st27" d="M124.1,360.4c-1,5-6.8,8.1-13,6.8c-6.2-1.2-10.4-6.3-9.4-11.3c1-5,6.8-8.1,13-6.8
				C120.9,350.3,125.1,355.4,124.1,360.4z"/>
			<path class="st16" d="M229.3,365l-15.4-70c-0.8-3.5-3.8-5.9-7.4-5.9h-6.9c3.6,0,6.6,2.5,7.4,5.9l15.4,70c0.8,3.7-2,7.2-5.8,7.2
				h6.9C227.3,372.2,230.1,368.7,229.3,365z"/>
			<path class="st28" d="M208.7,391.1c0,1.5-1.3,2.8-2.8,2.8h-98.7c-1.6,0-3-0.6-4.1-1.7c-1-1-1.7-2.5-1.7-4.1c0-1.1,0.3-2.2,1-3.2
				l24.4-36.6c0.7-1,1.9-1.7,3.1-1.7h42.7c1.5,0,2.5,1.7,1.7,3l-20.6,35.6c-0.8,1.3,0.2,3,1.7,3h50.4c0.8,0,1.5,0.3,2,0.8
				C208.4,389.7,208.7,390.4,208.7,391.1z"/>
			<path class="st16" d="M179.4,330.1h-60.6c-0.7,0-1.3-0.6-1.3-1.3l0,0c0-0.7,0.6-1.3,1.3-1.3h60.6c0.7,0,1.3,0.6,1.3,1.3l0,0
				C180.7,329.5,180.1,330.1,179.4,330.1z"/>
			<path class="st16" d="M182.3,337.8h-60.6c-0.7,0-1.3-0.6-1.3-1.3l0,0c0-0.7,0.6-1.3,1.3-1.3h60.6c0.7,0,1.3,0.6,1.3,1.3l0,0
				C183.6,337.2,183.1,337.8,182.3,337.8z"/>
			<path class="st29" d="M82.2,293.1h128.2c1,0,2,0.2,3,0.5c-1.2-2.8-3.9-4.7-7-4.7H86.1c-2.7,0-4.8,1.9-5.4,4.3
				C81.2,293.2,81.7,293.1,82.2,293.1z"/>
			
				<ellipse transform="matrix(0.1947 -0.9809 0.9809 0.1947 -188.0779 487.16)" class="st30" cx="202.6" cy="358.1" rx="9.2" ry="11.5"/>
			<path class="st16" d="M208.7,391.4c-0.1,1.5-1.4,2.6-2.9,2.6h-56.2c-2.3,0-4.1-1.8-4.1-4.1l0,0c0-0.8,0.2-1.5,0.6-2.2l25.8-40.9
				h0.7c1.5,0,2.5,1.7,1.7,3l-20.6,35.6c-0.8,1.3,0.2,3,1.7,3h50.4c0.8,0,1.5,0.3,2,0.8C208.5,389.7,208.8,390.5,208.7,391.4z"/>
			<path class="st14" d="M372.1,388.1c-20.9,6.3-98.2,5.8-98.2,5.8l99.9-26.6c10.4-2.8,17.1-13,15.4-23.7
				c-4.4-27.6-12.9-77.1-19.1-89.3c0.7,0.4,1.3,0.9,2,1.4c0,0,13.7,20.4,27.8,62.2C414,359.9,393,381.8,372.1,388.1z"/>
			<path class="st31" d="M366.2,352.1c0,0,14.3-0.2,25.9,10.4"/>
			<path class="st32" d="M336.3,236c0,0,18.8,6.4,28,17.3"/>
			<path class="st31" d="M242.8,316.1c0,0,10.4,13.4,11.7,28.9"/>
			<path class="st32" d="M296.5,237.7c0,0-3.9,11.1,12.5,12.4c16.5,1.4,34.5-14.8,34.5-14.8"/>
			<polygon class="st20" points="274,373.7 270.1,390.3 274.3,391 276.5,373.7 			"/>
			<path class="st32" d="M307.8,245.8c0,0-4.9,13.9-8.3,49.9"/>
			<path class="st33" d="M339.4,161.2c0,0-7.7-1.8-14.7,0.9"/>
			<path class="st33" d="M288.8,157.2c0,0-0.8,11.3,13.5,12.9"/>
			<path class="st33" d="M340.7,153.7c0,0,1.7,4.5,0.2,7.3"/>
			<path class="st33" d="M276.1,149.2c0,0-0.6,6.9,6.4,9.6"/>
			<path class="st33" d="M278.7,162c0,0-1.3,5.2,3.6,7.4"/>
			<path class="st33" d="M301.5,144.4c0,0,9.1-4,22.1,1.8c11.7,5.2,12.8,11.8,12.8,11.8"/>
			<path class="st33" d="M340.7,164c0,0,2.6,1.2,2.6,4.9c0,3.6-1.8,7.4-1.8,7.4"/>
			<path class="st33" d="M297.8,162.7c0,0,1.8,4.8,12.4,5.4c10.6,0.5,14,0.5,16.9,4c2.9,3.4,1.9,7.2,1.9,7.2"/>
		</g>
	</g>
	<g>
		<g>
			<path class="st4" d="M293.9,50.8h-96.5c-5.6,0-10.1,4.5-10.1,10.1v16.5c0,5.6,4.5,10.1,10.1,10.1h12.8l-3,10.3
				c-0.6,1.9,1.6,3.5,3.2,2.4l20-12.7h63.5c5.6,0,10.1-4.5,10.1-10.1V61C304,55.4,299.5,50.8,293.9,50.8z"/>
			<line class="st12" x1="200.3" y1="60.7" x2="291.4" y2="60.7"/>
			<line class="st12" x1="200.3" y1="68.5" x2="291.4" y2="68.5"/>
			<line class="st12" x1="200.3" y1="76.2" x2="291.4" y2="76.2"/>
		</g>
		<g>
			<circle class="st3" cx="136.6" cy="151.1" r="82.2"/>
			<path class="st34" d="M213.6,151.1c0,28.7-15.7,53.8-39.1,67c-2.6,1.5-5.3,2.8-8.1,4c-9.2,3.9-19.2,6-29.8,6c-0.7,0-1.4,0-2.1,0
				c-0.4,0-0.9,0-1.3-0.1c-0.3,0-0.6,0-0.9,0c-0.5,0-0.9,0-1.4-0.1c-0.2,0-0.4,0-0.6,0c-0.5,0-1.1-0.1-1.6-0.1
				c-0.6-0.1-1.2-0.1-1.8-0.2l19-27.5l-50.6-54.8l-33,26.7c-0.3-1.2-0.7-2.5-0.9-3.7c-0.1-0.5-0.2-1-0.3-1.4
				c-0.1-0.6-0.3-1.3-0.4-1.9c-0.1-0.4-0.2-0.8-0.2-1.3c-0.1-0.6-0.2-1.2-0.3-1.8c0-0.3-0.1-0.7-0.1-1c-0.1-0.5-0.1-1.1-0.2-1.6
				l0-0.3c-0.1-0.6-0.1-1.1-0.2-1.7c0-0.6-0.1-1.3-0.1-1.9v0c0-0.7-0.1-1.3-0.1-2c0-0.7,0-1.3,0-2c0-12.8,3.1-24.8,8.6-35.4
				c11.5-22,33.3-37.9,59-41c3.1-0.4,6.2-0.6,9.4-0.6c12.9,0,25.1,3.2,35.8,8.8L138.9,110l22.4,67.9l43.4-62.8
				C210.3,125.8,213.6,138.1,213.6,151.1z"/>
			<path class="st35" d="M68,115.5L95.2,145l-33,26.7c-0.3-1.2-0.7-2.5-0.9-3.7c-0.1-0.5-0.2-1-0.3-1.4c-0.1-0.6-0.3-1.3-0.4-1.9
				c-0.1-0.4-0.2-0.8-0.2-1.3c-0.1-0.6-0.2-1.2-0.3-1.8c0-0.3-0.1-0.7-0.1-1c-0.1-0.5-0.1-1.1-0.2-1.6l0-0.3
				c-0.1-0.6-0.1-1.1-0.2-1.7c0-0.6-0.1-1.3-0.1-1.9v0c0-0.7-0.1-1.3-0.1-2c0-0.7,0-1.3,0-2C59.4,138.2,62.5,126.2,68,115.5z"/>
			<path class="st36" d="M166.2,222c-9.2,3.9-19.2,6-29.8,6c-0.7,0-1.4,0-2.1,0c-0.4,0-0.9,0-1.3-0.1c-0.3,0-0.6,0-0.9,0
				c-0.5,0-0.9,0-1.4-0.1c-0.2,0-0.4,0-0.6,0c-0.5,0-1.1-0.1-1.6-0.1c-0.6-0.1-1.2-0.1-1.8-0.2l19-27.5L166.2,222z"/>
			<path class="st37" d="M172.2,82.8l-33.5,27.1L127,74.6c3.1-0.4,6.2-0.6,9.4-0.6C149.3,74,161.5,77.2,172.2,82.8z"/>
			<path class="st36" d="M213.4,151c0,28.7-15.7,53.8-39.1,67L161,177.8l43.4-62.8C210.1,125.7,213.4,138,213.4,151z"/>
			<path class="st16" d="M145.8,199.8l-19,27.5c-0.5-0.1-1-0.1-1.5-0.2c-0.4-0.1-0.8-0.1-1.2-0.2c-0.4-0.1-0.9-0.1-1.3-0.2
				c-0.6-0.1-1.2-0.2-1.8-0.3c-0.5-0.1-1-0.2-1.5-0.3c-0.3-0.1-0.6-0.1-0.9-0.2c-0.4-0.1-0.8-0.2-1.2-0.3c-1.4-0.3-2.7-0.7-4-1.1
				c-0.5-0.2-1-0.3-1.4-0.5c-0.6-0.2-1.3-0.4-1.9-0.7c-0.6-0.2-1.2-0.4-1.8-0.7c-0.6-0.2-1.2-0.5-1.7-0.7c-0.6-0.2-1.1-0.5-1.7-0.7
				c0,0,0,0,0,0c-0.6-0.3-1.1-0.5-1.7-0.8c-1.7-0.8-3.4-1.7-5-2.6c-0.5-0.3-1-0.6-1.5-0.9c-1.1-0.6-2.1-1.3-3.1-2
				c-0.5-0.3-1-0.7-1.5-1.1c-0.5-0.4-1-0.7-1.5-1.1c0,0,0,0-0.1,0c-0.5-0.4-0.9-0.7-1.4-1.1c-0.4-0.3-0.8-0.6-1.2-1
				c-0.6-0.5-1.2-1-1.7-1.5c-0.4-0.4-0.9-0.8-1.3-1.1c-0.4-0.4-0.9-0.8-1.3-1.2c0,0-0.1-0.1-0.1-0.1c-0.4-0.4-0.8-0.8-1.3-1.2
				c-0.4-0.4-0.7-0.7-1.1-1.1c-0.5-0.5-1-1-1.5-1.6c-0.4-0.5-0.8-0.9-1.2-1.4c-0.3-0.4-0.6-0.7-0.9-1.1c-0.2-0.2-0.4-0.4-0.5-0.6
				c-0.3-0.4-0.6-0.7-0.9-1.1c-0.3-0.4-0.7-0.8-1-1.3c-0.4-0.6-0.8-1.1-1.2-1.7c-0.4-0.5-0.7-1-1.1-1.5c-0.2-0.4-0.5-0.7-0.7-1.1
				c-0.2-0.2-0.3-0.4-0.4-0.7c-0.6-1-1.3-2-1.9-3.1c-0.3-0.5-0.6-1-0.8-1.5c-0.6-1.1-1.2-2.3-1.8-3.5c-0.2-0.5-0.5-1-0.7-1.5
				c-0.2-0.5-0.5-1.1-0.7-1.6c0,0,0-0.1,0-0.1c-0.2-0.6-0.5-1.1-0.7-1.7c0,0,0,0,0-0.1c-0.2-0.6-0.4-1.1-0.7-1.7
				c-0.2-0.6-0.4-1.1-0.6-1.7c-0.2-0.5-0.3-1-0.5-1.5c-0.1-0.4-0.2-0.8-0.4-1.1c0,0,0,0,0-0.1c-0.1-0.4-0.3-0.9-0.4-1.3l33-26.7
				L145.8,199.8z"/>
			<path class="st16" d="M204.4,115L161,177.8l-22.4-67.9l33.5-27.1C185.9,90.1,197.2,101.3,204.4,115z"/>
			<polygon class="st38" points="161,177.8 145.8,199.8 95.2,145 138.7,109.9 			"/>
			<path class="st13" d="M150.6,140.3l0.2-4.1l2.7-1.3c7.7-3.7,12.7-11.5,12.7-20.1c0-7.5-2.4-14.7-6.8-20.7l-3-4.1l-25.7,8.6
				l0.2,9.7h-1.7c-3.5,0-6.3,2.8-6.3,6.3l0,0c0,3.5,2.8,6.3,6.3,6.3h2l0.3,13.1v4.6c0,0-4.7,4.5-13.5,8.3c0,0,9.8,12.4,26.1,13.2
				c16.3,0.8,16.9-9,16.9-9s-6.7-4-10.6-7.4L150.6,140.3z"/>
			<path class="st20" d="M150.9,136.2l-0.2,4.1c-0.7-0.1-1.4-0.2-2.1-0.3c-11.5-2.1-16-12.5-15.6-17.9
				C132.9,122.1,136.8,135,150.9,136.2z"/>
			<path class="st20" d="M129,112.7c0.5,0.4,0.9,0.8,1.1,1.5c0,0-1,0.3-1,1.4c-0.1,1.1,1,1.5,1,1.5s-0.9,1.5-2.3,0.7
				c-1.5-0.8-1.2-3.5,0.2-4.1c0,0-2.3-0.3-3.1,0.6c0,0-0.2-0.8,0.8-1.6C126.6,111.9,128,112,129,112.7z"/>
			<g>
				<path class="st21" d="M150.3,105.1c-0.1,0-0.3,0.1-0.4,0.1c-2.2,1.9-4.5,0.4-4.5,0.4c-0.3-0.2-0.6-0.1-0.8,0.2
					c-0.2,0.3-0.1,0.6,0.2,0.8c1,0.7,3.6,1.5,6-0.5c0.3-0.2,0.3-0.6,0.1-0.8C150.7,105.2,150.5,105.1,150.3,105.1z"/>
			</g>
			<g>
				<path class="st21" d="M163.8,106.6c-0.1-0.1-0.3-0.1-0.4-0.1c-2.9,0.5-4-1.9-4.1-1.9c-0.1-0.3-0.5-0.4-0.8-0.3
					c-0.3,0.1-0.4,0.5-0.3,0.8c0.5,1.2,2.3,3.2,5.4,2.6c0.3-0.1,0.5-0.4,0.5-0.7C164.1,106.8,164,106.7,163.8,106.6z"/>
			</g>
			<path class="st10" d="M150,112.3c0,0,0,2.3-3.1,2.7s-3.6-2.7-3.6-2.7s1.7-1.6,4-1.7C149.5,110.5,150,112.3,150,112.3z"/>
			<path class="st10" d="M164,112.3c0,0,0,2.3-3,2.7c-3,0.4-3.4-2.7-3.4-2.7s1.6-1.6,3.8-1.7C163.5,110.5,164,112.3,164,112.3z"/>
			<path class="st21" d="M157.6,112.3c0,0,1.6-1.8,3.3-2.1c1.7-0.3,2.9,0.5,3.1,2.1c0,0-0.3-1.3-2.1-1.4
				C160.2,110.7,157.6,112.3,157.6,112.3z"/>
			<path class="st21" d="M143.3,112.3c0,0,1.7-1.8,3.5-2.2c1.8-0.3,3,0.5,3.2,2.2c0,0-0.4-1.3-2.2-1.5
				C146,110.6,143.3,112.3,143.3,112.3z"/>
			<path class="st20" d="M154.6,112.3l1.4,8.5c0,0,1.1,0.1,2.7-0.5C158.7,120.3,155,113.3,154.6,112.3z"/>
			<path class="st21" d="M145.1,112.9c0,1.3,0.9,2.4,1.9,2.4c1.1,0,1.9-1.1,1.9-2.4c0-1.3-0.9-2.4-1.9-2.4
				C146,110.4,145.1,111.5,145.1,112.9z"/>
			<path class="st21" d="M158.6,112.9c0,1.3,0.8,2.4,1.9,2.4c1,0,1.9-1.1,1.9-2.4c0-1.3-0.8-2.4-1.9-2.4
				C159.4,110.6,158.6,111.6,158.6,112.9z"/>
			<ellipse class="st20" cx="141.3" cy="118.9" rx="2.8" ry="1.9"/>
			<ellipse class="st20" cx="164.3" cy="118" rx="2.8" ry="1.9"/>
			<path class="st10" d="M155.7,124.1c0,0-4.5,0.2-6.4,1.8s4.9,2.2,6.4,1.5C157.1,126.8,157.7,123.9,155.7,124.1z"/>
			<path class="st21" d="M144.6,111.3c0,0-0.9,0.4-1.9-0.2c0,0,0.1,0.9,0.6,1.1L144.6,111.3z"/>
			<path class="st21" d="M163,110.7c0,0,1.1,0.9,1.9,0.6c0.3-0.1-0.8,0.9-0.8,0.9C163.7,111.3,163,110.7,163,110.7z"/>
			<path class="st39" d="M169.1,155.9c0,0,14.4,26.4,19.9,48.4l-14.9,8.7c0,0-5.9-11.8-7.9-29.9C164.2,165,169.1,155.9,169.1,155.9z
				"/>
			<path class="st21" d="M161,96.4c0,0-14.4,13.6-27.6,12.1c0,0-1.4,9.6,1,13.2c0,0-1,1-2.4-2.8c-1.4-3.8-0.3-9.1-1-10.7
				c0,0-4.4-1-7.3,3.4c-2.9,4.5,3.4,9.9,7.6,9.1l0.2,8.2c0,0-4.7,1.8-8.7-1.6c-4-3.4-2-6.9-2-6.9s-6-6-6.3-14.2s6.6-13.5,6.6-13.5
				s2.3-12.3,17.4-12.4c15.1-0.1,19.5,4.4,19.5,4.4s9.8,1.7,12.5,12c2.8,10.4-4.2,15.9-4.2,15.9S164.2,99.5,161,96.4z"/>
			<path class="st21" d="M123.5,91.4c0,0-0.7-8.9-9.2-8.5c-8.4,0.4-10.1,10-6.4,14.5c3.7,4.5,8.5,3.5,12,0
				C123.5,93.9,123.5,91.4,123.5,91.4z"/>
			<path class="st10" d="M134.5,126.4l-5.3,11.1c-0.2,0.4-0.7,0.5-1,0.2l-0.2-0.2l-17.4-13.5c-0.3-0.2-0.4-0.6-0.2-0.9l6-11l0.1-0.3
				c0.2-0.4,0.7-0.5,1-0.2l16.8,13.8C134.6,125.7,134.6,126.1,134.5,126.4z"/>
			<path class="st22" d="M171.2,219.8c-10.4,5.3-22.2,8.2-34.6,8.2c-10.3,0-20-2-29-5.7l-5.7-65.2c0,0,1.2-4.5,8.1-7.1
				c7.9-2.9,8-3.3,8-3.3c30.2,15.2,43,4.2,43,4.2l6.7,3.4c0.7,0.3,1.2,0.9,1.5,1.6c1.6,3.8,6.8,16.8,7.3,25.7
				C176.8,188.8,173.5,208,171.2,219.8z"/>
			<path class="st22" d="M105.2,152.7c0,0-7.4,2.9-10,22.2c-2.7,19.3,0.2,29.5,0.2,29.5L110,187C110,187,115.1,160.3,105.2,152.7z"
				/>
			<path class="st13" d="M127.1,124.5c-1.4,0.8-5.1,3.4-5.7,4.5c-0.3,0.5-0.4,1.1-0.5,1.6l-0.9-0.5c0.5-2,1.3-4,1.3-4
				s1.5-0.8,2.3-1.9c0.8-1.2,0.5-2.1,0.5-2.1c-0.6,0.3-1.5,0.9-2.4,1.6c0,0,0,0,0-0.1c0.8-1.2,0.5-2.1,0.5-2.1
				c-1.5,0.8-5.3,3.5-5.9,4.6c-0.4,0.6-0.5,1.3-0.5,1.8l-0.3-0.1c0.4-2.1,1.4-4.3,1.4-4.3s1.5-0.8,2.3-1.9c0.8-1.2,0.5-2.1,0.5-2.1
				c-1.5,0.8-5.3,3.5-5.9,4.6c-0.7,1.1-0.5,2.6-0.5,2.6l0.5,9.6l0.5,10.5c0,0-19.3,44.3-19.1,55.1c0.2,10.8,6.7,15.1,6.7,15.1
				s6.9-0.8,11.3-7.6c4.4-6.8,8.5-58.8,8.5-58.8s2.3-3.5,2.7-6.9c0.4-3.4-1.1-11.9-1.1-11.9c0.5-1.7,1.2-3.4,1.2-3.4
				s1.4-0.8,2.2-1.9C127.4,125.4,127.1,124.5,127.1,124.5z"/>
			<path class="st4" d="M134.5,126.4l-5.3,11.1c-0.2,0.4-0.7,0.5-1,0.2l-0.2-0.2l5.4-11.6l-17-13.8l0.1-0.3c0.2-0.4,0.7-0.5,1-0.2
				l16.8,13.8C134.6,125.7,134.6,126.1,134.5,126.4z"/>
			<polygon class="st4" points="116.3,114.4 115.6,115.8 119.2,118.8 120.1,117.4 			"/>
			<path class="st13" d="M222.3,158.1l-4.1,0.8l-0.1-0.4c1.2-0.4,4-1.5,5.1-3.2c1.5-2.2,2-4.3,2-4.3s-2.5,1.3-3.5,3.8l-1.9,0.4
				c0.8-0.5,1.5-1.1,2-1.7c1.5-2.2,2-4.3,2-4.3s-2.5,1.3-3.5,3.8l-2.5,0.5c1-0.8,2.1-1.8,2.5-3c1-2.4,1-4.6,1-4.6s-2.2,1.8-2.6,4.5
				l-2.7,1.1l-11.8,3.7l0.1-1.7c0,0,0.4-0.3,1.7-1.2s2.8-5,2.8-5s-6.2,2.9-7.7,6.1c-1.5,3.2-2.9,11.1-2.9,11.1s-14.2,34.1-16.7,43.6
				l0,0c0,0-4.9,1.9-7.2,5.1c0,0,5,9.1,8.9,10c0,0,11.4-2.2,16.8-15.5c5.4-13.3,7.6-40.2,7.6-40.2l11.4-6.2c0,0,3.4-1,4.6-2.8
				c1.2-1.8,1.6-3.5,1.6-3.5S223.1,156,222.3,158.1z"/>
			<path class="st40" d="M171.5,196.8c0,0-6.7-1.3-18.1-1.3s-22.9,2.1-22.9,2.1"/>
			<path class="st33" d="M159.5,88.4c0,0,1.8,3.4,1.7,5.7"/>
			<path class="st33" d="M156.7,85.8c0,0-7.5,2.4-11.6,8.3"/>
			<path class="st33" d="M122.1,89.6c0,0-1.2,2.7-1.3,3.7c0,0-4,3.7-4.5,5.9"/>
			<path class="st33" d="M107.1,99.7c0.3,0.2,4.2,3.2,8.3,0.7"/>
			<path class="st33" d="M127,88.4c0,0,9.3-8.5,24.6-4"/>
			<path class="st33" d="M128.9,106c0,0,4,1.6,12.5,0s16.2-10.3,16.2-10.3"/>
			<path class="st40" d="M125.4,152.7c0,0,11.6,4.8,23.5,4.1c11.9-0.7,13.4-2.9,13.4-2.9"/>
		</g>
	</g>
</g>
</svg>
